<?xml version="1.0" encoding="UTF-8"?>
<svg data-name="Layer 1" xmlns="http://www.w3.org/2000/svg" width="1" height="1" viewBox="0 0 1 1">
<defs>
    <clipPath
      id="6e8cdd48b5f95b210170ccabe5b8af2b"
      clipPathUnits="objectBoundingBox"
    >
  <path d="M.0014627293.8424704919c-.0000000032-.0091430587-.0000000032-.0182862131-.0000000032-.0274292718.0102635119.0042012552.0210131136.005720618.0318364981.0060042668.0071025226.0001861655.0142512537-.0007425572.0213437821-.0015465318.0031403056-.0003560678.0064154878-.0005909271.0092921708-.0024933354.0040720274-.0026929897.008206038-.0052740505.0123185289-.0078936646.0031489846-.0020058229.0063056583-.0039972003.0086861423-.0055053702.0004584042-.0032023617.0006475311-.0056155771.0012000858-.0079248038.0002776664-.001160425.0006310591-.0020850341.0001103764-.0032977883-.0016851777-.0039251162-.0011498879-.0079049053.0001130069-.0118003173.0008095984-.0024972576.0018282137-.0049135343.002761248-.0073876408-.0013512047-.0003876853-.0025086559-.0007197888-.004180971-.0011996001.0026288269-.0007130444.0047802182-.0008789765.0065456393-.0018682556.0030446949-.0017060066.0062596385-.0022590022.0095443418-.00277818.0020888777-.0003301902.0041538896-.0008407102.0069935435-.0014285282-.0047466399-.0023953737-.0089769721-.0029327758-.0132084746-.0034451613-.0033566506-.0004063401-.006977777-.0000951395-.0086628234-.0044771073-.0002361693-.0006141738-.0010857828-.0009928187-.0017052591-.001376773-.0033596749-.0020821641-.0069208634-.0035157626-.0108246-.0036071234-.0037829476-.0000885386-.0075716265.000036066-.0113509592-.0001246524-.0020041553-.000085286-.0041507341-.0001558394-.0059623117-.0009610099-.00715251-.003179115-.0143872131-.0062451053-.0212350135-.01010823-.0085531251-.0048252348-.0168417991-.0102177195-.0241631974-.0172247064-.0029195842-.0027942518-.0062877859-.0050281418-.0094517588-.0075171722.0000000049-.0013061717.0000000049-.0026122957.0000000046-.0039184674.0030527531.0010724604.0061083462.0021353064.0091577108.0032191989.0075755907.0026926549.0151798521.0052949056.0227105776.0081302937.0045969675.0017308318.0090565401.0038926855.0136171157.0057452519.0116011232.0047126363.0234325914.0086084309.0354908665.0116573449.0026510794.0006702818.0054171508.0017838785.0080200174.0014971683.0061097173-.0006731518.0121389724-.0003938557.0181438477.0006089601.0031278587.0005223348.0061862966.0007421746.0091351621-.000463309.0066713994-.0027272858.0136696679-.0031094703.0206374753-.0035758407.0081436829-.0005450554.0160049142-.0025766123.0237756481-.0050492839.0028893104-.0009193953.0055227037-.0026886369.0084719739-.005018623-.002579318.0001461294-.0044621867.00033196-.006346171.0003466447-.0117600788.0000917912-.0234790323-.0005024841-.035071307-.0028501684-.0078192639-.0015834588-.0156879983-.0029583185-.0234182195-.0049629456-.0097002403-.0025153385-.0192528181-.0057031112-.0289207598-.0083774461-.0140965009-.0038995256-.0275484621-.0097610114-.0407036626-.0163425251-.0104834574-.0052449203-.0205720386-.0114308563-.029848606-.0190375237-.0016098859-.0013201389-.0032340783-.0026193271-.0048516622-.0039281775-.0000000067-.0023510804-.0000000067-.0047021609-.0000000048-.0070532413.0036430393.0011678391.0073223077.0022171006.0109206818.003531117.0055288862.0020190248.0109934089.0042479879.0165089417.0063122148.0007919534.0002963724.0017162185.0001701893.0030822627.0002799657-.001002321-.0013872484-.0016295821-.0022553669-.0024416852-.0033793433.0091355969.0038609723.0173031729.0090515066.026836949.0105580024-.0002604288-.0008386534-.0006397818-.0015923557-.0012173672-.0018971467-.004806359-.0025368632-.0097003935-.0048798121-.0144672569-.0075002872-.0050999122-.0028034836-.0102930563-.0055036004-.0143905026-.0100385854-.0005874401-.000650192-.0010516303-.0014334071-.0018908804-.0025954585.006894039-.0000540033.0129230972.001533617.0190441431.0027902817-.0004405432-.0008083752-.0009462523-.0013268355-.0015217924-.0017245179-.0037119464-.0025645106-.0075799144-.0048900962-.0111285111-.0076989849-.0053792084-.0042580807-.0111799176-.0080054978-.0153439094-.0138844425-.00191603-.0027051392-.0040884481-.0050682257-.0069536104-.0066007904-.0006120756-.0003273681-.0010443636-.0010565321-.0015594805-.001600583.0023127491.0007133314.0042709318.0019481843.0063657779.0027631126.0020011625.0007784797.0041445599.0011200063.0062254353.0016536296l.0002874474-.0007318905c-.0061188802-.0062750965-.0122377611-.0125501929-.0183566432-.0188252894-.0000000016-.0060083326-.0000000016-.0120166174-.0000000006-.0180249501.0010913005.0004694795.0022979236.0007478667.0032555848.0014387644.0074579445.0053804308.0152367695.0101295635.0230903896.014786331.0090044117.0053391032.0179960156.010631378.0277187381.0142607436.0019742247.0007369608.0039982699.001314399.0063792407.0020890042.0001439547-.0017949278.0003472622-.003179689.0003513091-.0045651676.0000281259-.0096292797.000014897-.0192587029.000014897-.0288880782.0000000055-.0159039456-.0000000109-.0318078913-.0000000219-.0477118369-.0000000055-.01723743.0000017719-.0344748121-.0000039266-.051712242-.0000003883-.0011732921-.0001220249-.0023498846-.0000724996-.0035191109.0000806591-.0019043694.0002099684-.0038098868.0004124993-.0057029199.0000908146-.0008488897.0004082938-.0016687926.0007098424-.0028392625-.002067719-.0005552438-.0039334047-.0009155208-.0057133345-.0015592075-.0067153411-.0024288088-.0077205906-.0078812759-.0058484845-.0135503301.0010626389-.0032178118.0042065977-.0049820787.007652127-.0037125948.004265841.0015717398.0085472735.0030966033.0128511609.0045375202.0007226612.0002419864.0016180375.0000781111.0023896771-.0001117375.0013625141-.0003352126.0026912147-.0008347311.0042145493-.0013233437.0016708057-.0110422622.0033838797-.0221884652.0050122477-.0333494007.0002017105-.0013826086.0002579734-.002959036-.0001485759-.0042453571-.0009392632-.0029717596-.0006147075-.0058779881-.000365774-.0088799302.0003037853-.0036634705-.0010078964-.0069820182-.0034480066-.0092949759-.0012741714-.0012077796-.00224307-.002397-.003201545-.0038901504-.0021151552-.0032951096-.0029524092-.0070613729-.0025885274-.0107204906.0004766973-.0047934738.000303676-.0092558247-.0015639895-.0136172961-.0000967373-.0002259146-.0000358807-.0005275246-.0001130178-.000769224-.0011207612-.0035124861-.0019368674-.0069636265-.0048617796-.0096801499-.0027267509-.0025324626-.0042078883-.0066827041-.003463363-.0106465649.0007510114-.0039983961-.0001871034-.0074078502-.001185167-.011011984-.0005097451-.0018407756-.001225718-.0032732261-.0029155989-.0041183848-.002082419-.0010415126-.0031093086-.0030236343-.0038178056-.0053750735-.0007798537-.0025882357-.0006195364-.0050393108-.0000503292-.0076171428.0003211269-.0014543101.0005073443-.0031120294.0001941746-.0045302735-.0006109668-.0027668914-.001513704-.005475666-.0025056809-.0081141023-.0004113617-.0010941048-.001191478-.0022471157-.0020952707-.0028584435-.005403312-.0036547649-.0074216917-.0084654107-.0053487637-.0148880715.0008799324-.0027263292.0006758539-.0050487099-.0000525441-.0075149958-.0006901001-.0023365871-.0015681157-.0046068539-.0023220146-.0067863818-.0052048007-.001907072-.0076341429-.0054234803-.0072672122-.0107118568.0001336297-.0019259899.0007781283-.0038046252.0011111088-.0057211442.0001708147-.0009831565.0004268849-.0020789115.0001998703-.0029915863-.0009318257-.003746317-.0020344906-.0074418594-.0030663704-.0111277873-.0037070218-.0004231533-.0056387513-.0024792486-.0066055362-.006187084-.0009845283-.0037758538.0003465129-.0068532522.0016630811-.0097240844-.0014452896-.0049109035-.0027908724-.0094933865-.0041428317-.0140735976-.0011257104-.0038137852-.0019404878-.0077285695-.0044891738-.0109164379-.0008306108-.0010388818-.0009046499-.0028579891-.0011854828-.0043515461-.0004048129-.002152885-.0005647392-.0043662068-.0010465771-.0064949363-.00051352-.0022686405-.0012828271-.0044678756-.0019357764-.006699063-.0014081388-.0048117699-.0027855881-.0096345772-.0042315422-.0144327266-.0007046593-.0023382971-.0015650033-.0046199721-.0023022736-.0069471839-.0018037648-.0056936762-.0013775963-.0116147258-.0011973111-.0174487077.0002249727-.0072800767.0022175465-.0141167906.0058635039-.0202298892.0063635439-.0106696562.0152212009-.0169503372.0270364542-.0179277657.0019688489-.0001628589.0043234355-.0003470034.0057482172-.0015688698.0026634935-.0022841623.0052107043-.0020358261.008044523-.0011462665.0013615516.0004274105.002754226.0011672412.0041103964.0011116714.0068686256-.0002814246.0137282933-.000812166.0205941134-.0011902249.0101086544-.0005566309.0202179815-.0011071273.0303305242-.0015683795.0091728092-.0004184059.0183516559-.0006775165.0275250776-.0010816204.0036558258-.0001610293.0073042578-.0005227653.0110183808-.0007977444.0002425186-.0027608884.0004679965-.0053383378.0006954868-.007915584.000960493-.0108819743.0038766552-.021174887.0079382755-.0311037678.0028419726-.0069473812.0057961319-.0138399221.0089029467-.0212398978-.0016942832.0002984352-.002842443.0006530201-.0039940918.0006671547-.0016527642.0000202871-.0023234337-.0014135445-.0014350739-.0029501212.0003745897-.0006479139.0008615956-.0013260104.0014514474-.0017006194.0060023268-.0038120154.0091658638-.0098431404.0116405968-.0166879082.0026854014-.0074274736.0065567847-.0141496548.0119897676-.0196503209.0056570608-.0057275104.0121022167-.0086258675.0199202337-.0066610986.0013457578.0003382022.0027210469.0005357609.0042217244.0008250928.0013404421-.0076037848.0058984528-.0114107.0122982397-.0124213275.0047066303-.0007432534.0095025111-.0004748977.0142169945.0008099589.0020441649.0005571018.0042796497.0009387041.0063351022.0006382412.003769128-.0005509672.0075530873-.0014910517.0097978253-.0054840098h.0014336083c.0022493974.0023567554.0014580647.0049239846.0003164456.0073461667.0035903426.003896406.0083762046.0037179708.0126244853.004638017.0027976318.0006058793.0057569645.0013439687.0087500505.001209515.0013841924-.0000621782.0028685728.0002937281.004177296.0008358627.0083805796.0034716218.0146088874.0096335906.0187341206.0183253882.0014982711.0031568368.0034149916.0060681506.0060510099.0080348133.0036437616.0027184966.0075234028.0052405406.0122363112.0022711159.0006782164-.0004273178.0019186454.0002119803.0028988917.0003576732-.000147329.0010985293-.0000514503.0023397829-.0005030842.0032597343-.0005736752.0011685955-.0015914154.0020766215-.0025122707.0032137998.0009293429.0006474655.0015095587.001101208.0021296529.0014761458.0075229434.0045485935.0123350555.0108945962.0116789986.0209081052-.0001296757.0019790245.0002674234.0037533962.001129894.0056028117.0015261401.0032725624.0023042602.0067707345.0013464359.0105647707-.0008046984.003187408-.001275473.0064755998-.0019277017.0098955054.0005205843-.0000272049.0010034995.0000520242.0014237426-.0000901649.005719558-.0019350781.0096560088-.0084591506.0097352843-.0140638397.0000166251-.0011738242-.0001313164-.0024042347.0001435665-.0035050002.0002843548-.001138679.0000740692-.0030947737.0016524908-.0030027612.0009848838.0000574054.0020086616.0011811486.0028282569.0020394972.0004656558.00048765.0006133129.0013871587.0008018109.0021321614.0004097867.0016195965.0007539262.0032590616.0011646973.0050654275.0029936548.0005801049.0033886102.0030637003.0031788496.0058544902-.0001459508.0019413562-.000343702.0038908499-.0006914071.0057990041-.0013054419.0071642135-.0041190206.0133904368-.0101831338.0170568131-.0025010488.0015121281-.0034377636.0039554422-.0051490985.0067143814.0021062465.0002082762.0037313278.0002921272.0053349058.0005412766.0059814908.0009293804.0107894904-.0012175614.0141903944-.0066644081.000903574-.0014471352.0013280389-.0032970947.001778054-.0050227128.0003402676-.0013048205.0009467555-.0021407116.0021597312-.0022006581.0012888168-.0000636894.0018712639.0008222468.0020476212.0021662782.0005085748.0038762071.0006380974.0076486049-.0009428179.0113742102-.0015506183.0036542507-.0038945381.0065715884-.0068386238.0094238017.0016711065.0004036973.0029599671.000649331.0042145056.0010300327.0043361969.001315834.0088066414.0022813641.0129586716.0041067973.0085246054.0037477998.0137264667.0108294538.0147416476.020850939.0005603532.0055319413.0001494071.0112006726-.0000376252.0167991734-.0002432514.0072789526-.0008998552.0145457915-.0010090558.0218244811-.0001169007.0077955474.0089353328.0161695974.0161495307.0142366239.0033485568-.0008971769.006667626-.0019265399.0099957077-.0029137861.0063363053-.0018796637.0127053358-.0034498729.0193506929-.0029189999.0041868117.0003344712.0079218145.0019207761.0109560257.005054402.004117905.004252843.0042417182.0141047368.0011149752.0189180134-.0015391776.0023693287-.001610578.0044869848-.0001501071.0069416712.0016472408-.0011382067.0033333317-.0021298774.0048438529-.0033759233.0081648909-.0067352963.0162275811-.0136209314.0244656662-.0202463796.0019617613-.0015777189.0043623377-.0028137676.0067296638-.0034188532.0066483759-.0016994056.0131879448-.0012455436.0195898755.0017880878.0075273622.0035669198.0151801563.0068188125.0227942315.0101646967.0035649018.0015665977.006971909.0033208916.0094157543.0067767674.0005527407.0007815888.0014319895.0014676794.0022884882.0017812477.0040094919.0014678229.0069941341.004450584.0096268493.0078319841.0043822003.0056282528.0092333158.0104225397.0156538403.0132232012.0032450875.0014154937.0034749513.0039121774.0009991245.0066237501-.0008102547.0008874669-.0018487544.0015481103-.0028386039.0022132979-.0030503113.0020498291-.0062806987.0018123868-.0100820707.0002510029.0005180467.0016872083.0008990239.0027162843.0011465629.0037824308.0004064836.0017511847.0009653056.0035157387.0010311935.005293662.000121582.0032794683-.0023084383.0052291115-.0052299927.0043949544-.0006758539-.0001929577-.0013562578-.000540583-.0019226048-.0009868396-.0018901859-.0014893477-.0038727286-.0017069393-.0061645418-.0008455414.0001594697.0016540362.0004533401.0031884902.0004282275.0047166782-.0000843067.0051372007-.0003934023.0102716032-.0004143586.0154080864-.0000491315.0120371377.0009419429.0238711532.005328737.0351540147.0026904218.0069197877.0047353086.0141401331.0074378054.0210537264.0031495807.0080573247.0054666815.0163945194.0071374599.0248969049.002689153.0136845251.0033671507.0276177094.002982586.0415905949-.0003374457.0122598953.0005773721.0244449801.0015308213.0366313085.0001694447.0021653933.0006879727.0042981646.0010929688.0067324742.00562882-.0006950592.0100612018.0005772947.0109404506.0074212195.0021024184.0012069664.003682065.0011961562.0055896198-.0006120214.0016330657-.0015480625.0039420727-.00243077.0060838664-.003114158.0057879834-.0018467787.0103578723.0007790059.0124712282.0068734376.0001623134.0004680923.0003465457.0009270485.0005367281.0014331201.001858117.0002881929.0036558148.0004161937.0053793998.0008762501.0017678602.0004717754.0031319493.0000146369.0039906793-.0016411931.0009211616-.0017761774.0023561261-.0020626962.0039505603-.0020167288.0015486714.0000446281.0031308118.0000224336.0046351642.00036286.0074578868.0016875431.0149243924.0033501174.0223309601.0052821821.0074807682.0019514369.0115549229.0084636887.0108665127.0167100727-.0001429321.001711603-.0017562664.0037660241.0000150501.0050642556.0012359446.0009057629.0031043429.0008917479.0047102397.0010587324.0031655058.00032909.0054341314.0027339824.0061340479.0060267961.000397821.0018715082-.0013787455.004220771.000566872.005458781.0015395276.0009796647.003556283.0010666726.0053635622.0015390699.0042132806.0011011123.0059166091.003645007.0056383138.0084346063-.000168176.002894366.0024816018.0059639437.0052299052.0057493656.0053226995-.0004156197.0087821632.0035781366.0083034917.0090064959-.0001313383.0014890367.0002558952.002515482.0012009007.003439517.0007059103.0006902281.0013975143.0013979152.0021830501.0021856266.0023633011-.0006489483.0045421075-.0001292444.0065967068.0015389742.0022551943.0018310417.0024603392.0042664514.0022358129.0069841707-.0000496128.0006003023.0000460253.0014945375.0004029836.0018110954.0028496727.0025276315.004553045.0065915108.009106965.0068247438.0035438579.0001815257.0065039125.003863077.0062406235.0072249613-.0001955199.0024968271.0008049609.0038498751.0022775506.0052895005.0011424503.0011168971.0021116934.0024454547.0031598182.0036821731.000787592-.0001820518.0013503953-.0003927077.0019230861-.0004316915.0042183556-.0002873798.0073687675.0022610112.0069651714.0061795264-.0002956205.0028702582.0003668896.0047193329.0024511079.0062891593.0009552868.000719454.0018238168.0016880214.0024908331.0027281947.0010729749.0016732889.0021939877.0021189476.0041819554.0018839448.0048870782-.0005779165.0072308667.0025041934.0065119626.0079235123-.0000506628.000381754-.0001099006.0007621209-.0002825391.0019519153.0028032537.0028420847.0059067216.005988482.0089965394.0091211513.0039120601-.0016165113.006412737-.0011229719.008061859.0020755632.0007682544.0014901847.0013278202.0035930127.0009925182.0051659004-.0005022529.0023553854.0002360764.0036676798.0016721346.0050298638.0012454822.0011814237.0024772268.0024056577.0035624956.0037573664.0015174338.0018901152.0032800439.0028683449.0056025698.0024621483.0037294465-.0006521531.0067014012.0032418717.0059424218.0076194867-.0001273132.0007338038-.0002835016.0014616285-.0003126393.0016110584.0033336817.0036523732.0063427366.0069490614.0094966048.0104044589.0004495776-.0002223749.0011017189-.0005012883.0017165849-.0008570212.0021869876-.0012652747.0041052612-.000703143.0059490718.0008932307.0022414129.0019405789.0028602165.004576217.002071487.0073195268-.0006600163.002295977.0000603753.0037002061.0013824205.0051724535.0028269663.003148215.0055634571.0063966397.0084634863.0094608602.000685304.0007240937.0018432856.0010130998.0028343164.001262309.0009117553.0002292629.0019032235.0000478807.0028388664.000200037.0033418193.0005435247.0050740668.0028742284.0044885134.0065056508-.0003190268.0019784625.0003342519.0032015008.0014724585.0044664406.0027611659.0030680949.0054311563.00623573.0082302975.0092609667.0013440953.0014527794.0027889036.0025857963.0049768537.0025868007.0038758349.000001722.0055719446.0019855418.0057073954.0062741876.0000527628.0016687926.0003960273.002996824.0015022087.004190445.0040596734.0043806284.0081353594.0087485333.0120579196.0132736648.0017132599.0019764057.0033327192.0027727271.0059313092.0021543439.0039553728-.0009413027.0079603584.002591584.0072623669.0080018147-.0001475259.00114354-.0004494026.0022632593-.0007197792.0035877989.0055879572.0060627664.0112460024.0121704001.0168643223.0183213224.0012506447.0013691676.0023891138.0019560289.0043734502.0015744662.0071811664-.0013807432.0141848818.0034834754.0149430737.0117191927.0001946886.0021147861-.0003877147.0043150974-.0006382287.0067165459.0053842561.0062275984.010920063.0126522682.0164787951.0190530216.0044435381.0051164891.0083326731.0106216201.010665874.0173017173.0034562699.0098956608.0023075633.0190553654-.0034135697.0276043401-.0031716308.0047391835-.0072355917.0082460014-.012038057.0107297702-.0015897092.0008221511-.0027033281.0017841655-.003388282.003663327-.0010595436.0029067069-.0030424801.0048327446-.0059946596.005493986-.0023254134.0005208998-.0045964015.0013270747-.0069019523.0019606687-.0091172026.0025051979-.0182414052.0049790174-.0273551953.0074985652-.0016625971.0004595781-.003288094.0010788222-.0053067306.0017492475.0015266213.0009492908.0026359527.0016391362.0037453716.002328886-.0013734954.0002518878-.0025905399.0001790862-.0036655711-.0002859448-.0028277538-.0012234687-.0055862072-.0010219011-.0083864859.0000270734-.0008939927.0003349256-.0018353231.0005188908-.0027545159.0007740312-.0077691698.0021562094-.0155381646.0043126101-.023307247.0064690108-.0000420877.0003014426-.000084088.0006028853-.0001261757.0009043279.0034388573.0016473635.0068806897.0032873607.010316047.0049434298.0099941327.0048181077.0205897438.0071232686.0312865055.0090584902.0060617725.0010965203.0121413951.0016445892.0180538042.0041508394.0075378185.003195139.0144186832.0074890943.0208567078.0125866416.0082894478.0065635286.0163128941.0135474123.0242410524.0206310753.0053352558.0047668309.0104999731.0098067874.0153954513.015105998.0070136905.0075923176.013778792.0154644574.0205263059.0233437721.0067485639.0078805584.0133329769.0159290101.020012503.0238806481.0040971236.0048772291.00823791.009710739.0123590088.0145638604-.0001195257.000261263-.0002264513.0007396873-.0003604146.0007488712-.0009520055.0000653397-.001909436.0000348223-.002865204.0000348223H.4508989191c-.0003115893-.0005289357-.0005738721-.0011035039-.0009421617-.0015800148-.0048822657-.0063155631-.0116727861-.0094052784-.0183697247-.0123876569-.0116838987-.0052034492-.0237709122-.0091739587-.0361192459-.0120053767-.008575837-.001966313-.0170616797-.0044110501-.0258846618-.005152555-.0071903321-.0006042246-.0142995513-.0022834448-.0214738489-.0032194381-.0060209316-.0007854155-.0120823978-.0012052923-.0181292734-.0017417855-.0012303883-.0001090589-.002475783-.0000156892-.0037142652-.0000156892.0016917348.0015480625.0034578012.0025189738.0052542741.0034171791.0019465362.0009733986.0039467103.0018211881.0058767308.0028307483.0018195292.0009515868.0035796238.0020394016.0053630809.0030730695.0018928984.0010968073.0038314502.0021123945.0056586576.0033277317.0015706122.0010446695.0036555523.0013461122.0049180971.0037100118-.0053643278-.0008452065-.0103320159-.0014068599-.0152162722-.0024398582-.0136650632-.0028902524-.0273004638-.0059352919-.040786501-.0097498663-.0094380232-.0026695516-.0189185717-.0051771411-.0284306859-.0075106191-.0086983814-.002134015-.0174647289-.0039370266-.0262012387-.0058853544-.0011635161-.0002594454-.0023188071-.0005842305-.0034925827-.000764082-.0100085046-.0015338083-.0200095061-.0031349653-.0300349202-.0045250837-.0071966321-.000997889-.0144110488-.0020967053-.0216462249-.0024520078-.0126874748-.0006231664-.0253990887-.0010340506-.0380966479-.000934367-.0136580851.0001070499-.0273154045.0008075142-.0409655051.0014430215-.0061760809.0002874755-.0123372321.0010030549-.0184984817.0016059402-.0026723256.00026155-.0053568465.0015822151-.0079310512-.0004799549-.0002681289-.0002147695-.0008959833.0001173818-.0013585875.0001811909-.0048335771.00066679-.0096656394.0013473558-.0145022024.0019871681-.0019597324.0002591584-.0039294672.0004279127-.006312795.0006825748.000518435-.0006602847.0006858891-.0010151088.0009522844-.0011919947.0064790296-.0043048612.0124062919-.0095064927.0197604304-.0123356147.0086379678-.003323044.017241712-.0066105961.0262190778-.0086747751.0039405852-.0009061456.0078169451-.0021461645.0122291909-.0033758515-.0015498636-.0005902574-.0025932962-.0009876528-.0041635475-.0015857548.0084935209-.0019065219.0163989618-.0037468431.0243303029-.0054425178.0078053075-.0016686013.0156031885-.0034407129.0234663995-.0047063702.0079734944-.0012834511.0160089939-.0021858658.0240430278-.0029178998.0079213113-.0007215108.0158710822-.0011207238.0238152749-.0014769829.0079586522-.0003570244.0159258575-.0004862688.0246003951-.0007358606-.0035941926-.0030081125-.0064816218-.0053044722-.0104525697-.0056041928-.0061634699-.000465031-.0123050429-.0012897651-.0184516033-.0020059186-.0083932234-.0009776079-.0167849812-.0019713832-.0251725281-.0030052426-.0070871143-.0008736192-.0141743708-.0017540308-.0212481742-.0027456058-.0048778797-.0006837228-.0097329218-.0015623167-.0145981686-.0023537591l.000003325-.000761212c.0017990104-.0001801385.0035980208-.0003601814.0053720279-.0005378326-.0000981537-.0002414602-.0003153737-.0007759446-.0006177317-.0015198411.0033728163-.0005938927.0066083334-.001163582.0098438615-.001733367-.0018625357-.0012482462-.003805572-.0018393646-.0056445591-.0026971033-.001510565-.0007045779-.0029716156-.0016093842-.004321464-.0026348249-.0019283908-.001464929-.0037352762-.0031210937-.0056554748-.0047476021.001013048-.000660476.0022572068-.0014717213.0039341977-.0025651803-.0031765636-.00226479-.0057287674-.0049116688-.0087580677-.0060817561-.0076076658-.0029378939-.0154238124-.0052351145-.0231794416-.0077025245-.0007363605-.0002341897-.0016492423.000068975-.0024569376.0002478698-.009384626.0020787202-.0189255826.0021241614-.0284290672.0024904654-.0043912785.0001693283-.0088121977-.0001587094-.0132026285-.0005134379-.0037899094-.0003062259-.0075970181-.0007349996-.0113243208-.0015195541-.0107015524-.0022527361-.0208639977-.0062330992-.030483713-.0118692444-.0013365811-.0007831195-.0028315546-.0013098549-.0043065725-.0017326973-.0081586564-.0023385482-.016333845-.0046080258-.0245033784-.0069011329Z" style="fill: none; stroke-width: 0px;"/>
    </clipPath>
  </defs>
</svg>