<?xml version="1.0" encoding="UTF-8"?>
<svg data-name="Layer 1" xmlns="http://www.w3.org/2000/svg" width="1" height="1" viewBox="0 0 1 1">
  <defs>
    <clipPath clipPathUnits="objectBoundingBox" id="mapPinClip">
      <path class="cls-1" d="M.4968518912.2043167079c.0735179004.0020811553.1323121549.0213185949.1793528359.062142238.049595267.0430405042.0711235892.0943491397.0660481473.152676077-.0027869097.0320274602-.0159413092.0615946839-.0376003063.0887486533-.0252377579.0316406105-.049714928.0636775321-.0745750021.0955154865-.020331941.0260388254-.0409434736.0519363794-.0610650039.0780807641-.0245713043.0319260751-.048634594.0641077001-.0731868534.0960434685-.0079592392.0103527882-.0198085529.0160815598-.0351662419.0159236847-.0160908281-.0001654814-.0295490268-.0052677613-.0376062722-.0167294787-.0054801728-.0077957117-.0091203129-.0164587163-.0133009356-.0248261457-.0156557804-.0313345534-.0308999176-.0628056939-.0468421733-.0940441494-.0298133022-.0584183973-.0610980455-.1163623343-.0897511631-.1751470817-.0321743424-.0660089269-.0205844282-.1290654633.0260260524-.1882700362.0357295266-.0453835867.0873482186-.0729856265.1516684222-.0850576491.0165950854-.0031146485.0338936241-.0037793335.045998494-.0050558311Z"/>
    </clipPath>
  </defs>
</svg>
