<?xml version="1.0" encoding="UTF-8"?>
<svg data-name="Layer 1"
  xmlns="http://www.w3.org/2000/svg" width="1" height="1" viewBox="0 0 1 1">
  <defs>
    <clipPath id="72047f43ea6bf0f960ac864a79a52341" clipPathUnits="objectBoundingBox">
      <path class="cls-1" d="M.4565804059.7743718798c-.0001674048-.0122642786.0001276331-.0224651557-.0007450032-.0326666354-.0004864616-.0056870303.000033481-.0113670015.0027346245-.0168222016.0016263737-.0032846211.0003359013-.0069256394.0010417568-.0104411008.0020776388-.010348515.0047018385-.0206535135.0038080946-.031309916-.000727119-.0086704787.0003091269-.0173978604.0002593214-.0260518966-.0000432029-.0075167507.003079-.0135183832.006895049-.0197825358.007678784-.0126047497.014198316-.0255172148.0186614728-.0392775865.0033208012-.0102384538.0038783838-.0207924137.0072579326-.0309541215.0014698867-.0044197115.0042282182-.008492194.0055524315-.0127738232.0015195362-.0049132009.0025002058-.0100358067.0039405107-.0150199858.0023609272-.0081701454.0041828317-.016409461.0057095425-.0247125235.0004936881-.0026847721-.0006054126-.005092949-.0006553741-.0076542304-.0001927754-.009881368.0024533637-.0190987957.0071526548-.0282594065.0044063327-.0085897298.0080955803-.0175489848.0136729146-.0255788526.0043760231-.0063000936.0083840676-.0131707238.0162492844-.0176482853.0038588359-.0021967921.0055041857-.0064086484.0082276845-.0096639141.0030357971-.0036284496.006695255-.0068639155.0100270259-.0102853277.0041477911-.0042592897.009750808-.0084484192.0072500303-.0150766736-.0004124812-.0010933816.000132884-.0022922188.0008525166-.0029777236.0023648263-.002252576.002404494-.0046988892.0012714964-.0072204848-.0023228192-.0051694367-.0007001367-.0107655599-.0025790213-.0159242789-.0016737878-.0045954566-.0029777254-.0092140273-.0023075864-.0139869507.0006160184-.0043870417.0017294161-.0087302871.0027409672-.013074092.0011659066-.0050067982.0047236739-.0093212047.005991999-.0143779975.0005596102-.0022313558.002979545-.0043488625.0055031459-.0059052805.0027479337-.0016947586.0030307022-.0047050229.005136675-.0067534453.0022212326-.0021605068.0048073763-.0034677266.0081436182-.0046457309.0048700231-.001719616.0088651744-.0051570403.0139831853-.0069043761.0027214193-.0009290859.0051240937-.002070848.0084398519-.0014050784.0029371739.0005897554.0057843027-.0011925744.0088991752-.0014407396.0062075457-.0004945655.0121318029-.0022542117.018057152-.0038869452.0025977893-.0007158072.0052260962-.0019041634.0081654016-.0008945008.0003309104.0001136769.0009184387.000041386.0012098894-.0001398471.0088982394-.0055339474.0187338416-.002520541.0279776522-.0014944574.006139336.0006815234.0115549323.0042273733.0167966252.0072502491.0057854465.0033364235.0114501744.0068279315.0173878448.0099660768.0023394037.0012363923.0041699904.0028093389.0059979778.0043943806.0053283587.0046202709.0097825213.0095578773.0132502955.0155188126.0043703043.0075123603.0063847764.0153110649.007821338.0232546097.0008584953.0047469899-.0002885913.0097438667-.0014412927.0145395169-.0007050756.0029332601-.0010304232.0059656485-.0001478569.008721657.0013185465.0041175057-.0005406862.008030083-.0000941522.0120829379.0006780933.0061537039.0003887742.0124179856.0055206662.01754524.0010659837.0010650161.0023887413.0020246196.0037950973.0027724079.0047473809.0025240921.0090515032.0053099725.014972797.0065517668.0067057568.0014063912.0129559855.0046541674.019891274.0056981785.006904199.0010392333.0126902174.0039387476.0183605601.0068588795.0040681959.0020949952.0078483204.0048575462.0107251869.0082268762.0039137364.0045835336.0099107263.0078070335.0129360217.0128929665.0021496956.003613815.0051251854.0067593207.0083413846.0094638927.0093570429.0078685852.016484171.0171396446.0247041611.0257088428.0062964469.006563991.0098870193.014296603.0116969664.0225868386.0008453421.0038722459.000427766.0078001466.0013651287.0117103135.0006682674.0027879895-.0016285053.0056779482-.0015182885.008813554.0005069973.0144262058-.0038279544.0279882778-.0110164296.0410745941-.0041059919.0074748697-.0087079595.0147320703-.0131736117.0220475513-.0015030557.0024622391-.0043776867.0043470116-.0059084006.0068021056-.0022490987.0036075737-.0038638269.0074870939-.0057310659.0112568111-.0013386143.0027025489-.0025965936.0054349697-.0054847938.0073528855-.0004252185.000282406-.0008494492.0007158072-.0009709997.0011390073-.0015115819.0052664989-.0043265295.0104191058-.00398205.0158735741.0006107675.0096696388.0054665976.0184894341.0092248867.0275006422.0022549735.0054066043.0034556088.0110867477.0065456305.0162837751.0028026782.0047139113.0068932813.0088751057.0085677969.0140790199.0013054973.004056944.002608551.0080807448.0034732851.0122460714.0009936669.0047855781.0033362939.0093691117.0045626118.0141340291.0017531231.0068116612.0048593654.0134077624.0046627947.0205497365-.0002205896.0080175575.0020235182.0158984099.0023074304.0238762816.0001990661.005593885-.0001058497.0112489773-.0009021661.0168063617-.0011096025.0077429423-.0032289365.0154240747-.0043693685.0231145904-.0016522123.0111416277-.0062353078.0213109112-.0108876008.0316314482-.0036084566.008005075-.0082434892.0154895863-.0151038095.0217880873-.0050535445.0046394466-.0092249906.0097984239-.0141070232.0145048456-.0008878172.0008558696-.0027710688.0010034214-.0041941134.0014792202-.0032160952.0010753895-.005165113.0035375426-.0079949815.0050227027-.0044253607.002322349-.0096277499.0027728383-.014559588.0034743552-.0092400675.0013145371-.0187922253.0022454739-.0276471058-.0010650592-.0046160046-.0017256851-.0103689579-.0021294297-.0132502435-.0067959074-.000978798-.0015851923-.0047024624-.0014750019-.0070417621-.002658688-.0054925921-.0027790365-.0080987517-.0075742993-.0123266059-.0112100663-.0020673449-.0017777673-.0046341488-.003471084-.0038171407-.0065024393.0000933724-.0003464972-.0003388647-.0009525444-.0007410001-.0012041746-.0074848648-.0046837811-.0111068906-.0119968086-.0174422774-.0174861849-.0064004771-.0055458488-.0147575623-.0084236263-.0231980381-.0092708873-.0091787204-.0009213812-.0185736633-.0013046372-.0278471077-.0020033133-.0107714052-.0008117073-.0215676612-.0009951571-.0322585873-.0004107175-.0100622744.0005501773-.0202774487-.0002451737-.0302342893.0024915085-.009199724.0025286116-.0153363565.0073997164-.0201299557.0140370529-.0025973734.0035965977-.0058901005.0068438574-.008638658.0103718444-.0036747427.0047169243-.0053236277.0103278543-.0094097078.0148846582-.0046170964.0051490773-.0092459942.0102712957-.0141969643.0152246128-.0027990909.0028003859-.0064304227.0044370579-.0093162314.006959213-.0053418758.004668716-.0128553866.0058396612-.0199831386.0069667886-.0173591988.0027451186-.0309943694-.003829375-.0440765323-.0123532918-.0061047113-.0039777016-.0060228285-.0094580388-.0078902235-.0145304993-.0053865864-.0146315646-.0069521849-.0297950562-.0086396978-.044923855-.0005854488-.0052487652-.0005319521-.0105436726-.0007586763-.0158054368-.0005505121-.0127780414-.0017525512-.0255572019-.001002557-.0362998198l.0000002599-.0000000861Z"/>
    </clipPath>
  </defs>
</svg>