<?xml version="1.0" encoding="UTF-8"?>
<svg data-name="Layer 1"
  xmlns="http://www.w3.org/2000/svg" width="1" height="1" viewBox="0 0 1 1">
  <defs>
    <clipPath id="13e78a7fcee65060df4e54b14e83e332" clipPathUnits="objectBoundingBox">
      <path class="cls-1" d="M.8262331949.4873221911c-.0021957469-.0078830939-.0033093774-.0156962146.0001706706-.0237234342.0013046146-.0030095091.0006604706-.0067569849.0004607537-.0101481809-.0005480824-.0093005992-.0048560444-.0176699467-.008752992-.0261565231-.0026344786-.0057373047-.0056463689-.0114986924-.0069669305-.0175038483-.0022094157-.0100477109-.0032402739-.0202945826-.0046942964-.0304656051-.000941631-.0065872865-.0021946078-.0132800914-.0081978853-.017805962-.0070024315-.0052791893-.0143297827-.0104176874-.0222712824-.0145007531-.005720978-.002941398-.0119226435-.0048836815-.0150422709-.0105124884-.0002212643-.0003993148-.0010089311-.0005601165-.0018040018-.0009722176v.0017501986c-.0067992974-.000854037-.0136214712-.0019155108-.020497371-.0024731859-.002722187-.0002208024-.0058319424-.0008645475-.0082419293.0015829002-.0000461323.0000468419-.0000943529.0000912838-.00014077.000137836-.0017025296-.0013190628-.0027989792-.0020744919-.0037196324-.0029556326-.0007133425-.0006827248-.0013285351-.0015117684-.0017187614-.0023686192-.0007869074-.0017277708-.0009063199-.0038892429-.0022051442-.0051805813-.0013185682-.001310911-.0037264668-.0017888887-.0052981933-.0024749239.0001867125-.0006150689.0003799747-.0012515724.0005739963-.0018906829.0008311413.0002850652.0020886743.0007388357.0024239405.0008276367.0003726657-.0012134203.0004063631-.0032667257.0011736216-.0035020524.0045287516-.0013889946.0025589203-.0041678529.0024152076-.0066867221-.0000789755-.0013850222.0001793086-.0029201288.0008271545-.004175053.0017374611-.0033656233.0037564623-.0066213006.0056824395-.0099122749.0028303986-.0048365085.00811255-.0089823474.004982576-.0155111643.0067433881.002105237.014902545-.0039142777.0172203622-.0097842873.0012626589-.0031976629.0013049943-.0050781664.0000645473-.0061763026.0048183601-.0044351248.0071557313-.0097110865.0051009444-.014662879-.0029627205-.0071402857-.01117997-.0103092724-.0191077059-.0106447795.0003198888-.0032732223-.0011800763-.0062840555-.0034366685-.0088909809-.0028407451-.0032818293-.0072269232-.003293995-.0113467488-.0024513788-.002793189.0005712891-.0083121719.0035389218-.0102107165.0066160454-.0004879965-.0034840522-.0009206532-.0051094909-.0028904845-.0021972656-.002043776-.000817209-.0043745975-.0022458455-.006925924-.0026732985-.0067822114-.0011360815-.0136491885-.0019096349-.0205045851-.0026774778-.0022735833-.0002546511-.0046453164-.000266734-.0069180454-.0000163036-.0049130928.0005414129-.0097678082.0016102523-.0146912475.001916297-.0038113275.0002369405-.0077293479-.0007666016-.0115315629-.0004941986-.007352126.0005267644-.0150746394.0004946124-.0201209085.0066760875-.0008568653.0010496805-.0027677497.0014557816-.004209907.0021297338-.0030459675.0014234226-.0063411066.0025431591-.0091077173.0042982819-.0057560993.0036517644-.006583064.0098996127-.0082992625.0151303463-.0012165265.0037078754.0010876218.0084961765.0025742977.0125942217.0007943113.0021893621.002794328.0043935381.0049355894.0057947398.005124675.0033534163.0070670737.0102395475.0034312579.0148742883-.0018921848.0024119852-.0041075806.0046462444-.0063326585.0068407789-.0026209996.0025850354-.0028161602.0051569535-.0012450033.0083384782.0018080834.0036613645.0068526439.0045896782.0083290682.0088652013.0009203684.0026651467.0046474047.005249189.0093849858.0041823358-.002013116.0008359954-.0040939117.001013225-.0058190329.0017905853-.0013119236.00059111-.0030398925.0019151798-.0030871639.002964281-.0002451848.0054483498.003554847.0090891899.0098527638.0091215489.0066298608.0000340555.0132638982-.0005588338.0199313483-.0008794442.0007630818.0013640426.0019427785.0034730038.0032923863.0058854029-.0003559593.0001675053-.0013638462.0009094445-.0025059535.001135378-.0071444356.0014134915-.0143388004.0026369256-.0214746929.004080914-.0033779115.0006835524-.0053944447.0035632945-.0049537196.0066241145-.0011061317.0002440992-.0022142567.0006223931-.0033538961.0007188907-.0087070495.0007373047-.0174270084.0013626771-.026130261.0021317615-.0147782915.0013060696-.0273906417.0048635295-.0355679288.0175827182-.0068641295.0106765178-.013376144.0213782773-.0168762207.0331032342-.0049888409.016712212-.0087328209.0337068823-.0130082719.0505800202-.0038111851.0016024729-.0086263179.0029092459-.0124415847.005386487-.0071101686.0046165337-.0140661355.0095472226-.020273259.0150448557-.0049225376.0043599378-.0101491118.0051808296-.01643934.0040131339-.0079846894-.0014822233-.0158378637-.0023242187-.0238643189.0004130942-.0080994507.002762265-.0165044093.0048385361-.0247405958.0073040254-.0024022507.0007190976-.0048507762.0015101546-.0069880033.0026734226-.0045104791.0024549788-.0050437061.0069710838-.0011598104.0101263324.0018474288.0015008028.0042389058.0024925103.0060372597.0035173216-.0044010809.0006273586-.0046497778.0031096067-.0003602308.0094260213-.0028743002.0016849427-.0054800173.0022019415-.0080358526-.0006289725-.0007272011-.0008054572-.0024180079-.001215241-.0037161203-.001313849-.0040151261-.0003049689-.0051325536.0022995564-.0058247758.004755487-.0022777124,0-.0043376252.0001286083-.0063685392-.0000282624-.0036087629-.0002787755-.0053372064.0015390377-.0058860008.0041859772-.0005297624.002554911.0006837266.0045676228.0037570319.0054636189.0053313687.0015542654.0106633544.0031094826.0159619274.0047458041.0031027786.0009581899.0060777916.0027331336.0092240448.0029643637.0047182169.0003468038.009537811-.0005617717.0143116051-.0005365714.0076408802.0000402625.0152444083-.0018274546.0229666845.0001204565.0027716416.0006991525.0063521176.0007104906.0089722154-.0002241128.006772814-.0024160405.0134264529-.0052212162.0197403642-.0084472656.0088327743-.004513167.0181728618-.0067320329.0283463213-.0075911596.0100220106-.0008462576.0200987441-.0023033633.0298002015-.0046135544.0092665226-.0022065761.0180806446-.0058571819.0273035029-.0089432849-.0022882963.0048834746.0005765592.0092122948.0023807508.0137767313.0008139603.0020592227.0024743444.0046998312-.0012720562.0063299457-.0002728072.0001186772-.0002734717.0013312699.0000593266.0017700195.0008973022.0011829648.0020433963.0022224659.0029089944.0031287242-.0014254509.0057901053-.0036574582.0115312169-.0041150795.0173778883-.0010919882.0139519746-.0031481041.0277612718-.0072905213.0412320826-.0062926012.020463412-.0070456213.0414140294-.0082602493.062347888-.0000690086.0011890062.000375988.0024023024.0005982964.0036019846.0001999067.0010788533.0007383071.0021902311.000584153.0032258425-.0011085047.0074483994-.0028873521.0148503708-.0034565073.0223247567-.0015764726.0207047802.000590228.0412633243.0041010309.0617423365.0025244634.0147251556.0048836668.0294722425.0072288217.0442200742.0002589485.0016288731.0005476078.0035869637-.0002174674.004947696-.0028674184.005099477-.0065766093.0098569088-.0091943815.0150403867-.0028841247.0057109872-.007991334.0083597888-.014482513.0085604807-.0071492766.0002211335-.0131002043.0024479443-.0190146344.0056233862-.0069455255.0037288136-.0081542209.0053851629-.0068056098.012359226.0003408666.0017626953.000576132.0036143571.0014091243.0052067333.000602473.0011518472.0019494705.0025235037.0032447352.0028003343.0084399376.0018036613.0389961492.0130986825.03891556.0136455575.0041693751.001603466.0081766226.003791628.0125358427.0047105071.0203010713.0042791645.0405520236.0040147477.0606761594-.0012253377.0113326053-.0029507084.0119162837-.0037284825.0094730739-.0139731197l-.0039833271-.0047312798c-.0020863962-.0051835606-.0007576713-.0103250794-.0000554347-.0155241989.0004981532-.0036893786-.0004178488-.0070318707-.0028985529-.0104636603-.0031295942-.0043296478-.0064870025-.0093548067-.0068297675-.0142356329-.0009033773-.0128663765.002139268-.0255794823.0056593733-.038038268.0047717532-.0168894002.0105522476-.0335618876.0153489654-.0504463222.0038663826-.0136099709.0060267233-.0273838884-.0007725741-.0410358597.0013149611-.0003011619.0026132159-.0004745018.0037873121-.0009052652.0009995337-.0003667489.0023795168-.0008562715.0026984563-.001587452.0057635033-.0132153734.0120113011-.0263064006.0168532969-.0397797355.0039140336-.0108909064.0094070079-.0201600983.0215155096-.0251864572.0006733801.0027913963.001515912.0058973202.0021639478.0090337824.0036903014.0178585143.0071538329.0357772775.0149223838.0527368992.0015205632.0033196504.0042824278.0061989787.0063550602.0093399513.0005672568.0008597888.0010282953.0019408352.0009935536.002905439-.0001497877.0041579631-.0013517911.008427362-.0006244001.0124433097.0023956536.0132252218.005090313.0264286778.0083516597.039511305.0064437178.0258476231.0132856354.0516204317.0201266038.0773911712.000884108.0033307402-.0006559144.0059307965-.0024256491.0083110434-.0021477161.0028888043-.0047770689.0056909593-.007846767.0078193277-.0028648554.0019863116-.0050905029.0047236659-.0092098539.0055636752-.0031552233.0006434554-.0058684876.0028331899-.0088673735.0041849841-.0044445554.0020036083-.0081083734.0049697928-.0074525539.0093819518.0007316625.0049226198.0030383737.0096673894.0046594599.0144895392.0041452648.0004546809.0082898652.0009143273.0124369335.0013557667.0003791204.0000403039.0007757065-.0000655456.0011618512-.0000521385.0078434447.0002716995.0160781599-.002909908.0234111116.0020060083.0002414828.0001617121.0007614682.0000445246.0011440058.0000037242.0124431984-.0013268836.0250006834-.0021400788.0372811847-.0042047636.0064970642-.0010922603.0126694936-.0040932865.0186824532-.006757647.0033268432-.0014741956.0027929991-.0040433825.0015688788-.007113513-.0019924229-.0049976827-.0030627688-.0102822928-.0043865578-.0154720604-.0007183733-.0028167207-.0000966311-.0072610318-.001942114-.008206063-.0038075306-.0019496491-.0035432664-.0049126887-.0046331664-.007498262-.0014481374-.003435431-.001737651-.0072977357-.0035362422-.0105517578-.0024228014-.0043831104-.0012656964-.0087005926-.00115103-.0130854409.0001678229-.0064242088.0001135273-.0128597557.0005721927-.0192678264.000184909-.0025848285.0018675049-.005071918.0021957469-.0076680846.0018838316-.0149015162.0032482474-.0298575708.0054054557-.0447270591.0021370848-.014730866.0016463355-.0290404446-.0059894188-.0426410222-.0021573982-.0038425665-.0048114308-.0074826205-.0067928427-.0113871325-.0011531183-.0022719561-.0026709288-.004887985.0010302886-.0070306707.0011381206-.00065889.0015791304-.0025369108.0018862996-.003932402.0016987327-.0077174507.0032577396-.0154583223.0047368217-.022576056.0025065231-.0015284858.0057957769-.0025477936.0071114025-.0045520226.002376859-.0036202744.0045560893-.0077361957.0050629754-.0118111096.0011102134-.0089237536.0010859132-.0179529843.0016038103-.0269356627.0001769355-.0030692201.0001577612-.0062180962.000968589-.0091762944.0036922947-.01347019.0069963565-.026987553.0079387469-.040852506.000988143-.0145394846.0018152976-.0290703208-.0021864445-.0434375Z"/>
    </clipPath>
  </defs>
</svg>