<?xml version="1.0" encoding="UTF-8"?>
<svg data-name="Layer 1"
  xmlns="http://www.w3.org/2000/svg" width="1" height="1" viewBox="0 0 1 1">
  <defs>
    <clipPath id="0c3434551a05bc5d472d081cc3a2db5a" clipPathUnits="objectBoundingBox">
      <path class="cls-1" d="M.7971001782.5301045106c.0127024234-.0244008967.0196764307-.0502832463.0229034424-.0769846418.0006179069-.0051131797.0015858771-.0103761791-.0004816148-.016043739-.0015350638-.0042077124-.0052633934-.0101383851-.000666498-.0134411702-.001318626-.0033356658-.0029271691-.0057121885-.0031304221-.0081847199-.001815944-.0220873672-.006992229-.0435362959-.0134789921-.0648377005-.0051276938-.0168382763-.0196710975-.0230560303-.035630902-.0275341473-.0052900592-.0014842886-.0117427493-.0015193973-.017113843-.0002631128-.0066483877.0015550461-.0104242714-.001737679-.0144839981-.0047111849-.0024526652-.0017962836-.0008682695-.0098262551.0017952039-.012346926,0,0,.0049306629-.0022743698.004870961-.0021763354.0059038181-.0037500162.0142235617.0031537081.0170018465-.0032354034-.0015569891-.006076779-.0026402149-.0103042738-.0037569213-.0146632912.0089683162-.0004100968.0116381599-.0020529823.0129127873-.0072839112-.0027936917-.0011291504-.0055340517-.0022366954-.0086975098-.0035152604.0056916765-.0046456261.0031043488-.0090148386.0013516621-.0130773899-.0005146508-.0011926837-.0022223019-.0019576486-.0036547022-.0028212556-.0002632511-.0001586644-.0005170211-.0003206371-.0007525694-.0004892265l-.0000287399.0000455738-.003697812-.0058176496c.0013823278-.003318314.0001201444-.0062790592-.0010904849-.0091356261-.0015556558-.0036710216-.0047694827-.0051253327-.0091416442-.0048434502-.0017119472.0001103224-.0034351534.0001237582-.0053379096.0001090396l-.0007543471-.0028657491.0000151106-.0000024981c-.0008313818-.0040845618-.0009096016-.0085387778-.0029668715-.0120215627-.0005942039-.0010059998-.0068769733.0007801562-.0103302002.0012557443-.0039009168-.0016365389-.0082055249-.0048233302-.0126357588-.0049758506-.0065744641-.0002263162-.0106161173-.0019355031-.0120535545-.0092405471-.0025025896.0037623718-.0035834451.0071920884-.0060527024.0086039315-.0025908831.0014813178-.0067994942.0019306419-.0097669583.0011480551-.002594883-.0006844175-.0044484555-.0037053876-.0072788868-.0062862835-.0014414371.0020490663-.003382118.0048075313-.0053946486.0076683517-.0118750415-.0008287683-.0209669095.0047495344-.0192514068.0125171358l.0002549551-.0003816723-.0005485757.0040420937c-.0032110122.0027256518-.0060380362.0052983782-.0057245643.0094532924l-.0053924264.0080784485c-.0001321441-.0000633982-.0002645844-.0001255812-.0003964322-.0001895871-.0040858.0063539353-.0028271721.0100745142.0047619273.0141834495-.0021685258.0042145991.0031807909.0065822095.0035555941.0089602175.0011881115.0075390571.0066387584.0046876215.01090159.0055045744.0003057684.0014678145.0006414617.0030797773.0009773032.0046918076-.0004459122-.0001939757-.0008915281-.0003879513-.0013372921-.000581927-.0014076603.0020844451-.0043444587.0044615079-.0039440266.0062000646.0013525509.0058747688-.0027157682.0118217806.0006906454.0175601655.0004716892.0007946723-.0001010339.0021702589-.0003543595.0032447882-.0009661924.0041003607-.0019996421.0081875556-.0032609366.0133056641-.0087905439.0019126825-.0191114111.0048520249-.0296779003.0062971537-.0164469006.0022493886-.0279994335.010875128-.0352740241.0233209661-.008900022.0152267861-.0088217282.0322337868-.0065632052.0490753714.0007419031.0055312435.0008675288.0108375212-.0026820655.0156666578-.0043576435.0059283771-.0098064386.0114015562-.0129308608.0178208478-.0043652729.0089683195-.0071063736.0186040423-.0103542735.028008115-.0011301874.0032724026-.0025818464.005358198-.0069103056.0057025336-.0018395729.0001463763-.0048682204.002716132-.0049325887.0042680723-.0006573131.0158513162-.0010675967.0317213345-.0009610815.0475828458.0000325175.0048359559.0001502176.0100844392.0053263544.0137496543.0017978705.0012730286.0036571466.0042353942.0032719732.0060311377-.0031781984.0148158116.0054027965.025364361.015062721.0354571047.0012179625.001272556.0043826798.0009968175.0066453508.0014385122.0019798649.0008266078.0039228421.0022807839.0057667853.0020824196.0048757016-.0005244702.009645925-.0018633952.0133858097-.0026515859.0043355701.0030783594.0077692421.0066448651.0120819981.0082568278.0042020927.0015706425.0093035652.0011418435.0144598507.0016337032-.0015798032.0026673173-.003534854.0059676719-.0058484124.0098733818.0000817753.0005554604.0007629395.002333717.000519984.0039998958-.0016455789.0112813764-.0038392891.0225061062-.0051133239.0338185403-.0006236845.0055369149-.0018043888.0114680602.0023768156.0168387489.0013321071-.0018521874.0274110072.0361688665.0275084857.0368915659.0005392426.008154945.0007848647.0438700988-.0110823252.0493913499-.0012159625.0005656555-.0020988983.0016991944-.0032110122.0024809711-.0076182838.0053563751-.0158245494.0084331816-.0256538761.0057017909-.001420697-.0003947705-.0033276012-.0005332474-.0045946732.0000114103-.0063766924.002740573-.0097442923.012878418-.0064925407.0193197875.0003405821.0010404334.0013343293.0024154123.000928564.0030736332-.0043943831.007129973.0006524243.0089374644.0066266106.0114326815.0069298605.0028944437.0137820938.0044966841.0214108958.0046564963.0041758713.0000874342.0090417955.0011716184.0123271757.0033775262.0156454438.0105047986.0332026806.0134032258.0518960305.0114978351.0049476994-.0005043502.0101549463-.0025401158.0142540793-.0051590236.003272788-.0020911293.0060005558-.0025759672.0093614893-.0016459912.0152309381.0042150042.0306873507.0078932501.0455788918.012948838.0158020316.0053646121.028887258.0009824365.0414399082-.0071431388.0014756582-.0009552947.0026012532-.0031998896.0027129534-.0049106294.0003519892-.0053852048-.0025459956-.009578266-.0052368757-.0143837718-.0037117375-.0066288636-.0044760102-.0151976864-.004335422-.0229026322.0001657727-.0090795196.0026528071-.0181231203.0041217989-.0271838028.0004404309-.0027157269.0009845623-.0054257823.001232999-.0081572406.0004789482-.0052694135.0040675784-.0098558274.0051497672-.014412939.0021624519-.0091065938.0007899016-.0189148894.0008239746-.0284336056.0000060739-.0016999371-.0002444369-.0034006169-.000375544-.0050894138.0142232654-.0008852123.0147823593-.0009921589.0157574404-.0104301925.0029151694-.0282191724.0005993889-.0562569272-.0043305332-.0841542472-.0028935405-.0163729507-.0074175492-.0323522112-.012514281-.0481911718l.0010458937-.0007443723c.00209238-.0012942964.0036352954-.0028878271.0045960065-.0047331953Z"/>
    </clipPath>
  </defs>
</svg>