<?xml version="1.0" encoding="UTF-8"?>
<svg data-name="Layer 1"
  xmlns="http://www.w3.org/2000/svg" width="1" height="1" viewBox="0 0 1 1">
  <defs>
    <clipPath id="39d1b6679a26126f36418c05e8d40fa2" clipPathUnits="objectBoundingBox">
      <path class="cls-2" d="M.3355135541.4010807945c-.0002537217-.000578812-.0006200036-.0014429599-.0003789148-.0018500136.0024065594-.0040634895.0003695821-.0070987199-.0020922994-.010163305-.0005731982-.0007135334-.0011417123-.0020754772-.0008339461-.0027344596.0016341453-.0034987381.0012484883-.0066393705-.0008357913-.0098096041-.0006602443-.0010042609-.0008956199-.0023339604-.0011368508-.0035516329-.0011585679-.0058490145-.0023576958-.011693166-.0033494461-.0175711475-.0027318555-.0161915839-.0053949755-.0323947968-.0080282522-.0486025205-.0011799657-.0072627607-.0038719-.0139997804-.0069758925-.0206080694-.0000561027-.0001194273-.0003261123-.0001397606-.0005881021-.0002422729-.000162169.0006949268-.0003192281.0013680403-.0005159245.0022110443-.0010664119-.000546321-.0019288884-.0009660611-.0027707122-.0014232961-.0037758761-.0020510209-.0073260285-.0049691145-.0113639654-.0059913124-.0082816545-.0020965153-.0168304089-.0031430639-.0252524442-.004710878-.0015379795-.0002862873-.0033875221-.0005936127-.0044174194-.0015841654-.0029819932-.0028680533-.0055086003-.0061994733-.0084468043-.0091178136-.0011935567-.0011855339-.0028941665-.0021944817-.0045274247-.0025562172-.0052143186-.0011549458-.0105052859-.0019687009-.0162830441-.0030070034.0003467294-.0010185682.0005066628-.0027255087.0010569018-.0028601948.0013546611-.0003316408.003061197-.0003242405.0043175631.0002331106.0034908916.001548538.0071387357.0035276347.0107356936.0016185946.0027862194-.0014787634.0053101651-.0039861032.007112228-.0066051527.0019321176-.0028080048.002608969-.0064372708.0043291314-.0094269715.0024126275-.0041932773.0031328423-.0085668762.0028600294-.0132757456-.0000458119-.000790074.0006080095-.0017964845.0012276583-.0024192405.0036678225-.0036859314.0038304529-.0063080821.0010412527-.0092366771-.0032581773-.0034209289-.0043567391-.0072397844-.0017676775-.0116275497.0005684786-.0009634533.0009874211-.0021406707.0010512596-.0032436732.0001197992-.0020689931.0010848999-.0030833326.0029790124-.0039374724.0037293545-.0016816384.0047554194-.0052986409.0028420382-.0089226914-.000498643-.0009444944-.0011212016-.0018244296-.0018031985-.002921089.0068209981.0010525393.0076954332.0007548343.0091337337-.0027346005-.0019202299-.0006579956-.0038815521-.0013302281-.0057244589-.0019617235.001056405-.0020597603.0026636523-.0036994635.0024312219-.0050198244-.0007028979-.0039923758.0004376788-.0073026521.002460391-.0105387135.0000584802-.0000935262-.0001219284-.0003342838-.0001933608-.0005055487-.0044054253-.000458257-.0058728595-.0022901575-.0060472355-.0075708966.0008651379-.0003701578.0017315177-.0007408794.0025978621-.001111601l-.0001299836-.0008325026c-.0011968923,0-.0023985752.0000687174-.0035897543-.0000132501-.0031346166-.0002158079-.0037486941-.0012445252-.0024974734-.0040511556.0015669712-.0035148074.0006302944-.0068966907-.0026281312-.0094333851-.000729583-.0005680639-.0014902159-.0010966594-.0022222475-.0016330076.0030263147-.0045546604.0015953951-.0099440788-.003137349-.0125747223-.0020732436-.0011523381-.0030633971-.0004061728-.0038918429.0019191539-.0006211747.0017435898-.0019775745.003275107-.0032343665.004703372-.0002088325.0002373041-.001879315-.0002966478-.0023685189-.0008874061-.0019049711-.002300236-.0036063261-.0047668034-.0057055806-.0076074754.0015077103-.002697176-.0007580424-.0052126561-.0026628006-.0077267266-.0004649318-.0006135936-.0015932305-.0007315056-.0024165309-.001077348-.0002763615.0007343248-.0008335557.0014899344-.0007790499.0021990981.0002041129.0026546769-.0010627569.0040941481-.0035692792.0042869797-.0044591859.0003430937-.0089343759.0004816562-.0134186146.0007064855.0000023775-.0051232882-.0037965641-.009067879-.0085325019-.0091129858-.0009801111-.0000093033-.0021438599.0004245679-.0028615907.0010578957-.0002827844.0002495675.0004571959.0015959354.0006718835.0024574756.0004001351.0016055206.000756694.0032217541.001131386.0048335474-.0003447777.0001432846-.0006895198.0002866397-.001034262.0004299243-.0007101724-.0005868114-.0013390475-.0014847894-.0021480472-.0016931265-.0015004712-.0003864385-.0033304259-.0009295527-.0046262519-.000417238-.004011784.0015860683-.0078369141.0036377235-.012007425.0056396202.000816913-.0020110591.0017925174-.0042144564-.0014629985-.004539155-.0020861249-.0002080552-.0045921858.0017722044-.0057513925.0040104185l-.0025211778-.0001957918c-.0029070122-.0010058114-.0045012008.001050143-.0059803098.0028077581-.002768725.0032902601-.002112739.0065978581.0007302927.0095970383-.006344569.0003711445-.0120353521.0014630113-.0151423255.0075383352-.0011231888.0021962084-.0027603149.0036491412-.0052236158.0032548794-.0022913378-.0003667748-.0030430639-.0023547166-.0035517493-.0044501395-.0002086196-.0008593553-.0010411817-.0015694352-.0015898948-.0023473867-.0008134709.0007382012-.0019804489.0013233916-.0023825712.0022396237-.0024552101.0055940201-.0020266866.0070376495.0029614826.0111531529-.0004922201.0004481785-.0009822047.0008682357-.0014427362.0013179647-.002958005.002888739-.0033667276.0061598287-.0011409316.0096241729.0006208908.0009664135.0013983793.0018354949.0021233137.0027338957.001696458.0021021889.001142493.0040492527-.0013911757.0048756941-.0010335168.0003371029-.0020603623.0006942925-.0032456864.0010949679.0019959916.0020238863.0043684139.0025564286.0065357652.0017247718l-.0002602156.00080565c-.0003838473.0002000205-.0009908632.0003698054-.0013323762.0007678025-.0019112875.0022273603-.0023855875.0062331977-.0006549569.0086285104.0016341453.0022616838.0022549297.0045961023.002029348.0072872875-.0002950979.0035207277.0015327276.0058350596.0044918681.0074114722.0014956097.0007967696.0030342634.0015139679.0045615972.0022520986l.0001289545.0004504338c-.0019656159.000668779-.0019773616.0020953524-.0013212337.0040185237.0033737892.0098891754.0075949381.0195645868.0079410642.0302439419.0000389277.0012007927.0007422514.0025488521-.0012363523.0029580555l-.0048304358-.0008397268c-.0058358836.0003248043-.0075438389.0039395163-.0083538322.008096532-.0050150317.0005176712-.0098763754.0006734306-.0145875088.0015903676-.0063916583.0012440318-.0122408845.0036352567-.0148055675.0104670359-.0001214316.0003235004-.0012909645.0004597723-.0019030904.0003384773-.0004253654-.0000843286-.0007741174-.0005248248-.0008125483-.0006102811-.001186566.0011429996-.0019313369.0021447232-.0029236195.0027360454-.0011396541.0006792099-.0025805096.0008539988-.0037370194.0015133688-.0007527196.000429149-.0018480523.001471786-.0017269046.0019983375.0005361513.0023302955-.0011062267.0026371275-.0025446337.0029763096-.0049980341.0011785564-.0090297255.0037915448-.0121734264.0077840616-.0004462664.0005667601-.0008396237.0012304293-.0010507983.0019123527-.0004355497.0014066278-.0005281315.0029450872-.0011185402.0042728838-.0034651645.0077927305-.0069645726.0155856725-.0082854515.0240782634-.0015622871.0100445472-.0029910775.0201117888-.0043092949.0301909414-.0013175432.0100741133-.0023288461.0201878008-.0036535928.0302608922-.001526908.0116102822-.0032914627.0231895535-.0048594985.0347947259-.0004006674.0029655615-.0004134067.0059811634-.000674403.0089677278-.0001343128.0015368737-.0004422565.003058101-.0006367528.0045907459-.0002634093.0020756182-.0002304787.0042284818-.0007917537.0062182913-.0011944438.0042345783-.0026898406.0083853918-.0040627058.0125702468-.0001744825.0005318728-.0002087615.001392849-.0005535037.0015421244-.0034711616.0015029731-.0026574423.004545921-.0016699857.0066123064.0017511057.0036645057.0037542654.0076087793.0067346617.0102149664.0068622323.0060005452.0148372207.010418088.0237467921.0129216571.0030248243.0008499815.0060578102.0016713131.0086554239.00238682-.0002240558.0059148423-.0001840991.0113989497-.000719789.0168270261-.0003924348.0039764122.0016870188.0069259749.003176667.0101651727.0005468679.0011890931.0011923857.0024451769.0021238105.0033253588.0020858765.0019709563.0044433594.0036573873.0065460205.0056125914.0005642558.0005246839.0009302893.0016337124.0008449821.0024162451-.001069925.0098163702-.0024010592.0196068039-.0033378424.0294346975-.000921347.0096657557-.0016049762.019359245-.0021398145.0290543554-.0004924331.0089270612-.001286032.0180509713.0038268688.0260863271.0021395306.0033625015.0026365768.0069157907.0030768816.0105943217.001782262.0148892656.003434434.0297942481.0052922803.0446740694.0006066256.0048584971.0017119652.0096381278-.0006602443.014357569-.0004010223.0007978268-.0006069449.0020957753-.000228598.0028107183.002397688.004530486.0012502981.0093187856.001325492.0140238843.0000226398.0014171292.0007154953.0029150983.0004268203.0042299619-.0011700652.0053297928-.0021994302.0107434561-.004013026.0158706912-.0057949332.0163830059-.0078049771.0331871967-.0068768878.0504640222.00111414.0207405355.0020069211.0414929115.003008288.0622395082.0001089407.0022563978-.0003645076.0047746266.0020804827.0061000974l-.0003449906.001473548.0000147265.0000071537c-.0002516281.000364449-.0004727031.0007368268-.0005868601.0011391232-.0012775865.0045022238-.0023804776.0090535717-.0036777585.0135498047-.0002807972.0009733204-.0009127595.0020928152-.0017274369.0026190848-.0019485119.0012586915-.0020677079.0024865483-.0003136568.003818327.0019835361.0015058628.0040926201.0028485657.0059621412.0041349556-.0008936328.0069092361-.0018697339.0136316313-.0026088271.02037954-.0009248955.0084443478-.0005328866.0170351517-.0034305661.0252548817-.0006945233.0019701105-.0011678651.0044562007.001482764.006151794.0080881518.0051738924.0168865825.0082315705.0263453639.0098906554.0076210909.0013368532.015187676.0010914439.0227983697.0005202789.0027813224-.00020876.0055633545-.0005413522.0083127044-.0010061638.0042423692-.0007172688.0084684505-.0015439216.0126746599-.002447397.0009736882-.0002091124.0020840312-.0007075426.0027093222-.0014320708.0021070968-.0024413358.0038932978-.0051600784.0060439354-.0075589856.0033328389-.0037177176.0045912632-.0079575466.003701037-.0127829889-.0007430321-.0040277565-.0017053648-.0080156216-.0025702543-.0120211066-.0001805505-.0008360971-.0002264333-.0017304806-.0005647526-.0024978602-.0010121545-.0022958663-.0017341081-.0048885918-.0033241449-.0067187303-.001922359-.0022126301-.0045038622-.0039374019-.0070109523-.0055501819-.0024210375-.0015575242-.0027091803-.0038015176-.003285927-.0062844362-.000708682-.0030507006.0004740161-.00455607.0027706767-.006237215.003487485-.0025528342.0034828718-.0032325375.0018807345-.0073635815-.0010421398-.0026870269-.0019764035-.0054329042-.0032604484-.0080039925-.0009115175-.0018250639-.0008136483-.0030268786.0006870713-.0044876345.0008235843-.0008017031.0013213402-.0022466012.0013950791-.0034362934.0002239848-.00361221.000164653-.0072414759.0002249784-.0108639407.000158443-.0095171499.0003192281-.019034335.0004839875-.0285513792.00014982-.0086532487.0003996383-.0172716101.002679195-.025734353.0031300744-.0116204312.0048308262-.0234663966.0048217419-.0355227429-.0000042583-.0056074112-.0003794116-.0111208733.0011676877-.016757322.0019223235-.0070033965.0026257182-.0143324079.0039558233-.0215024177.0006209617-.0033473132.0014777605-.0066515282.0022276413-.0099753364.001211193.0045454981.0019430826.0089941223.0024128049.0134697753.0003729532.0035532892.0009248955.007058159-.0012293261.0105203184-.0017542285.0028192463-.0010934164.0059218197.0011175821.0085447104.0007927828.000940477.0015375537.0019207045.0023012383.0028790128-.0002228848.0003400631-.0003438196.0006117612-.0005396643.0008107245-.0044307975.0045002503-.004551271.0057396305-.0014666535.0112229275.0003709305.0006594052.0003605687.0020148649-.0000818652.0025632651-.0031168738.003863328-.0037314482.0084308862-.0035810959.0130497534.0005597137.017194858.0012221225.0343878132.0020297738.051572945.0007986734.0169938508.0017821201.033979667.0027937778.0509625935.0001164991.0019557327.0006148582.0040323729.0015081716.0057616553.0010457238.0020243797.0009942343.0037492219.0002029419.0057589419-.0010534242.0026754683-.0020123149.0054052763-.0027302942.0081835035-.0002388888.0009243373.0003017692.0020992993.0006442403.0031066613.0004258267.0012524893.0014984131.002469457.0014493366.0036677477-.000191693.0046803252-.0006767096.0093508538-.0011251405.0140181403-.0007607393.0079177962-.0012869901.0158176202-.0000238108.0237508514.0004735547.0029740895.0026619135.0059836302.0056609398.006926574.0075395451.0023704335.0150109934.0048138837.0230319356.0054102098.0079331509.0005899125.0159904657.0019074544.0235899814-.0006923896.0068497414-.0023435104.0132868567-.0059395806.0197841201-.0092212422.0101238517-.005113562.0174963663-.0138395455.0265821235-.0203311207.0003578718-.0002555583.0005601395-.0007259378.0006543537-.0008529416-.0006096064-.0013571512-.001460479-.0024352745-.0015418119-.0035678079-.0004527247-.0063045933-.0012814899-.0126624691-.0008286232-.0189198412.0002541476-.0035108606-.0005763209-.0058913022-.0026438159-.0083078997-.0049967921-.0058403456-.0117797497-.0085667-.0189267181-.0105240538-.0015615064-.000427669-.0024294121-.0010766432-.0025585796-.0024819671-.000224801-.0024458465-.000323096-.0049122729-.0003075888-.0073690436.0000370469-.0058671982-.0001473005-.0117604033.0003443873-.0175942648.0006594636-.0078250453.0020118181-.0155898308.0028192564-.0234057138.0019055744-.018445092.0036341468-.0369081563.0054984159-.0553575476.0007344091-.0072681172.0000447828-.0141521216-.0041550392-.0204612961-.0015574965-.002339775-.0025379979-.0050585176-.0037813763-.0076045153l-.0000007452-.0000001057.0000003549-.00000074.0000003903.0000008458.0000070616.0000010572-.0000031582-.0000112767.0000269335-.0000584274c.0004202909-.0008649231.0009372445-.0016997868.0012275518-.002606328.0011062267-.0034545476.0018783924-.0070372971.0032499801-.0103800644.0020745211-.0050559804.0034165848-.0101560104.0030684005-.0156613321-.0003030466-.0047916826-.0006845519-.0095991527-.0005795146-.0143899191.0001210767-.0055234702.0006833454-.0110408087.0011513998-.0165526498.0008122289-.0095647587.0017338952-.0191204961.0025458757-.0286853253.0009254633-.0109021052.0026301184-.0218212665.0024841663-.0327130818-.0002740904-.0204500194-.0016323711-.0408858372-.0025607087-.0613265885-.000025869-.0005696497-.0002896686-.001128657-.0004425404-.0016926332l.000090843-.0037257523c.0029280907.0017023946.00273803-.0004960692.0027595343-.0021769676.0000504605-.0039441679-.0001125957-.0078928465.0000170686-.0118329971.0000358049-.0010876028.0005289122-.0024071885.0012749605-.0031792903.0023935717-.002477245.0032790428-.005158246.0028477868-.0086474694-.0004247621-.0034365048-.0000927238-.006965232-.0000927238-.0109352306.0023471921.0019693705.0040960977.0038178688.0061961329.0050986204.0024193697.0014754861.0050718441.0026863574.0077725433.0035527606.001631271.0005232743.0027003798-.0003387592.0016175736-.0019303954h-.0031682924c.0048302584-.0020284675.0096983799-.0040728633.0141910287-.0059595967-.0004727386.0007240701-.0012230097.0018731309-.0019732453.0030221917.0010391235.0000200161.0016477008-.0002702885.0020977286-.0007178326.007747455-.0077035036.014767598-.0159556893.0191962309-.0260523913.0006713512-.0015305305.0009757463-.003350379.0009540292-.0050301144-.000240805-.0186114939-.0028195048-.0367942616-.0103745571-.0540296101Z"/>
    </clipPath>
  </defs>
</svg>