<?xml version="1.0" encoding="UTF-8"?>
<svg data-name="Layer 1"
  xmlns="http://www.w3.org/2000/svg" width="1" height="1" viewBox="0 0 1 1">
  <defs>
    <clipPath id="7f101a10ba2e3099f8f1e10b2da15b9d" clipPathUnits="objectBoundingBox">
      <path class="cls-2" d="M.8890653495.771264673c-.0013943103-.0053997078-.0032874555-.0107382577-.0050734814-.0160852198-.0003060552-.0009156502-.000882987-.0021252392-.001888572-.0025327748-.0055607073-.0022536341-.0116883204-.0039184693-.0180752889-.0033280739-.0051268652.0004738514-.0097020394-.0000222281-.0143118647-.0012318786-.002826174-.000741571-.0049136819-.0001904125-.0064128249.0015228087-.0041131891.0047002597-.0084359557.0093252385-.0121459961.0141775335-.0020629707.002698196-.0041840743.0051219794-.007843897.0069178499-.0066002398.0032385475-.0120762542.007747535-.0206178341.0087344133-.004129811.0004772286-.0083860018.000614527-.0123857394.0014001244-.0055791761.001095624-.0086814155-.00081765-.0118365109-.0035416356-.0015381915-.0013279138-.0038977191-.0024226168-.0062051823-.003047521-.0127348886-.0034489776-.0258242033-.0063140071-.0383094985-.010145836-.0200922633-.0061663315-.0396258879-.0132217868-.0597361804-.0193572937-.0185440459-.00565748-.0375238688-.0106207312-.0563423091-.0158359827-.0036694969-.0010170275-.0074583378-.0018343705-.0112318759-.0026545995-.0025847597-.0005618427-.0037715153-.0014412034-.0035833969-.0035571093.0006684845-.0075148155.0012820021-.0150420344.0014037206-.022568578.0002412384-.0149169553.0002081703-.0298367353.0001435294-.0447551336-.0000210193-.0048521107-.0000693901-.009738239-.000881228-.0145449111-.0007737569-.0045812595-.0013430373-.0088878609.0014178801-.0133698922.0022038616-.0035776795.0012196478-.0076465261.0013506887-.0115449779.0003375402-.0100473446.0016315911-.0200781103.0020461728-.0301254549.0005324306-.012899725.0006306673-.0258089676.0007978544-.0387148329.0000399279-.0030901965-.000251792-.0061916298-.000636208-.0092729227-.0004020933-.0032215387-.0010997761-.0064250555-.0017348408-.0100124981.0041051859.001782116.0065254849.0003348337.0085389415-.0015444842.0009769143-.0009117817.0019592813-.0020643269.0020627069-.0031486527.0006275012-.0065839986.0013089139-.0131788043.0013512163-.0197718906.0000269997-.0042151407-.0031947595-.0070884904-.009313402-.0075104865-.000467174-.002406836-.0008949478-.0046115315-.0013274707-.0068404814.006011699-.0030897973.0065102701-.0032929204.0096217439-.0084194744.0034558739-.0056938003.0065386769-.0114988945.0097220033-.017272151.0038672895-.0070139772.0080167127-.0139655069.0113847276-.0210958746.0024549501-.0051970146.0005998859-.0073251091-.0064220593-.0095425765-.0047695369-.0015062298-.0086495787-.0003211407-.0104757084.0031235079-.0021525006.0040602502-.0043952348.0080971363-.0067743747.0124664921-.0043129165-.0027437882-.0086555591-.0042348512-.0138743288-.0025667003-.0028556362-.0036548023-.005165298-.0049531196-.0106565272-.0060794454-.0010300342-.000211259-.0020581336-.0004480312-.003111034-.0005790971-.0024792234-.0003084916-.0034584243-.0011134311-.003389386-.0030456482.0002454598-.0068699244.0002595313-.0137470944.0000905853-.0206182775-.0000338596-.001376484-.0006662858-.003384381-.0020350915-.003995101-.0057584999-.0025693713-.0159930578-.0013461506-.0174322211.0038558684-.0010864961.0039273421-.0021135402.0079294431-.0022092264.0119095002-.0001892618.0078722764.0002142387.0157537633.0005385869.0236280967.0000721165.0017526423-.0005000661.0027273013-.003086233.0032509817-.0063770305.0012912251-.0103779114.0041769784-.0106509866.0089752074-.0002568929.0045132244-.0002966449.0090383303-.0001550504.0135539494.0000599798.0019132127.0013056598.0034995434.00426736.004245996.000858186.0002162941.0019078323.0011859794.0018878684.0017946117-.0001278748.0039010614-.0005290886.0077977324-.0008550199.0118778774-.0020758989,0-.0037358089.0000017193-.0053958068-.000000307q-.0069023374-.0000083816-.0080829368.0044806498c-.000086144.0003267284-.0002874545.0006378604-.0003955852.0009626853-.0017714267.0053219402-.00266378.0106366962-.0019023357.0161651673.0005296603.0038455219-.0000948947.0076424121.0082012693.0072543415-.0010327606.0034734776-.0023831414.0065257266-.0027739335.0096368003-.0008351439.0066483189-.0036338344.0128055626-.0095576306.0179782-.0079508405.0069425955-.0157772801.0139000507-.0215316025.0218787702-.0001831055.0002539038-.0006141333.0004205531-.0012138433.0008147641-.000506838-.0010829135-.0009361509-.0019197215-.0012915004-.0027715119-.0055614548-.0133317606-.0109678153-.0266961265-.0167289536-.0399856721-.0028772711-.0066371127-.0062566752-.0131749972-.0097197167-.0196771449-.0009794208-.0018390372-.0018841746-.0033693985-.0010203161-.0054375938.0014821693-.0035486049-.0006335256-.0058939145-.0058223494-.0063363887-.0071063743-.0006059919-.0142743113-.0009698695-.0214307274-.0011502732-.0028551965-.0000719957-.0057126356-.000098215-.0085710421-.0001076405l-.0006091643-.0035555128c-.0003389034-.0034101091-.0006201137-.0068681744-.0016850188-.0101897088-.0034686262-.0108186657-.0105211769-.019826417-.0257577594-.0248906771-.003606395-.0011986899-.0061686403-.0038808903-.0093468658-.0057694802-.0029164075-.0017330853-.0021497743-.0039314562-.0021204-.0061329586.0001157381-.0086662246.0039055904-.0173124931.0003130031-.0261397486.0030293314-.0006190709.0038552408-.0021206954.0032446694-.0042318425-.0009209801-.0031845123-.0020970941-.0039188684-.0079726074-.0046113473.0002542985-.0020498663.0003423773-.004133259.0007982941-.006176678.0013496333-.006049327-.0007771869-.0114129909-.0060435358-.0162603121-.0008241505-.0007586105-.0015453152-.0017515064-.0016626803-.0026763363-.0009556311-.0075334821-.004852207-.0143215556-.0104506875-.0206974575-.0004885011-.0005563164-.0011053608-.0010682994-.0017438553-.0015481377-.0045362137-.0034092187-.0104347251-.0048534616-.0167903845-.0056059317-.0033053088-.000391325-.0070280575-.0001909344-.0098419189-.0012189531-.0043954107-.001605765-.0081721149-.0040344914-.0122269512-.0060992788-.0009430987-.0004802681-.0018690917-.0010966065-.0029422199-.0013117646-.0044702096-.000896308-.0088641252-.0014806245-.0136824286-.0006848341-.0150398892.002484051-.0301933618.0046307815-.04526478.0070249377-.0060086649.0009545186-.0118311022.002675753-.0178918756.0032310563-.01006548.0009222203-.0149204133.006681968-.0099671553.0126445317.0001012709.0001218861.0000127083.0003206495.0000127083.0006904218-.0057094255.0022085025-.0107278961.004977988-.0149966193.0087879572-.0073807686.0065875907-.0094434755.0137232391-.0072885563.0216166076.0037981632.0139123007.0059836.0279183033.0061193461.042087056.0000346951.003623026-.0013764571.0067437093-.0054357347.0090303786-.0072894797.0041064871-.0082440555.0091268436-.0047054236.0148346131.0010465243.0016880458.0010092348.0031157403-.0004567963.0047142904-.0011409353.0012439751-.0025409182.0028095207-.0023566694.0041324301.0007755598.0055691817.0018072211.0111435827.0034288742.0166173432.0004210458.0014213393.0002243965.0021319015-.0006997496.003241894-.002257949.0027119811-.0043827024.0054926728-.0062126138.0083542945-.0005141376.0008040491.0001795436.001984625.0003192033.0029924727.000982279-.0005537682.0019537846-.001117453.0029590178-.0016500676.0001409789-.0000746975.000447342.0000027018.0009288953.0000173772.0002145025.0013725849.0004325229.0027675514.0006505433.0041625485.0003046041.000052408.0006092083.0001048159.0009138124.0001572546.0007230995-.0006886104.0022134479-.0014932429.0020417755-.0020465505-.0009400206-.0030303587.0025021336-.0042492504.0047672503-.0058141206.0023694657-.0016368966.0053716654-.002691503.0085250019-.0024224632-.0001948024.0022076735-.0003765447.0042676715-.0005730181.0064945336-.0128457457.0051099136-.0263604156.0103276826-.0396327478.0158304257-.0069323273.0028741173-.0133739109.0058016556-.0160497836.0120730793-.0112197832.0262955295-.0232450722.0524232431-.0348367828.0786422023-.0026308879.0059507435-.0045561337.0120522942-.007105187.0180221957-.0012116446.0028377049-.0023852961.0055012079-.0009571262.0085182727.0003935624.0008314044-.0007093798.0022884499-.0017154485.0031033982-.0020019355.0016215457-.0040004851.0030601087-.0033901336.005498322.0001627458.0006501411-.0007750322.0014742999-.0013381123.0021666866-.0029347884.0036085041-.0069902404.0069704113-.0086811077.0108388981-.0062346005.0142642046-.0119008001.0286554225-.0173699986.0430748247-.0039124503.010315187-.0071324065.0207580935-.0107955713.0311208069-.0002562333.0007248078-.00148107.0016085281-.0025051238.0018150898-.0033274274.0006712639-.0054292706.0020020637-.0062358757.0043578119-.0015012977.0043847067-.0031324931.0087490274-.0045207351.0131508656-.0010948071.0034715741-.0019060734.0069866833-.0029345246.0108226876-.0042353913-.0013215278-.0079981559-.0023890904-.0116228439-.0036501357-.0062721978-.0021822217-.0065861243-.0022039586-.0114043838.0006886411-.0035175686-.0007191587-.0066366058-.0015298087-.0098590686-.0019765812-.0053057052-.0007354921-.0091275702.002317371-.007819184.0060266383.0001539511.0004363952.0002956335.0011763697-.0000245372.0013463962-.0033356065.0017713704-.0037437681.0040531888-.00212383.0067567883-.0035458436-.0002067458-.0054848531.0007508429-.006510446.002749775-.0010264724.0020006514.001045249.0030050911.002716812.0039720132.0040507028.0023432219.0080982395.0047329878.0125005541.0067227093.0038629801.0017459493.0082107676.0029677577.0123367969.0044315576.006606572.0023436518.0133129197.0045630841.0197823384.0070792185.0077494421.0030138104.0154630897.0050812075.0244539464.0026015468.004694826-.0012948172.0096470286-.0018195722.0147314594-.0006410533.0106255699.0024628361.0241123166-.0037607235.0241272236-.0114304602.0000059804-.0030644684.0016160685-.0040400484.0053879356-.0045177682.0026335263-.0003334828.0051641107-.0010632644.0077406474-.0016160808l.0015547255-.0019872961c.0009768703-.000726128.0020119175-.0014397297.0023896935-.0022948666.0027811012-.0062956474.0055026623-.01261383.0077780688-.0190052055.0014353815-.0040316361-.0010820108-.0067349286-.0067730994-.0082730882.0004147576-.0005136409.000752166-.0010496942.0012350824-.0015116947.0068403348-.0065453144.0137380551-.0130615848.0205479603-.0196221887.0149428398-.0143960688.0286099217-.0292763048.0359329092-.0465452014.0001505211-.0003549741.0007219562-.0006317814.0011289745-.0009232642.0022083469-.0015809579.0031236104-.0034411179.0017590701-.0054905851-.0010175897-.0015282736-.000001715-.0022430727.001254123-.0034030477.0017181748-.0015870369.0036723992-.0036748199.0035362134-.0054746202-.0002279144-.0030123981.0014773762-.0053045323.0032296304-.007742592.0015574518-.0021670551.0030755475-.0043479259.0050738332-.0071781396.0002337629.0017293704.0006199817.0026533714.0004353812.0035180566-.0020040902.0093877781-.0039700555.0187810518-.006207249.028142457-.0017899395.0074900084-.0043409716.0148992097-.0058314519.0224142094-.002050878.0103403011-.0039049308.0207235233-.0049185629.0311322893-.0007292558.0074889645-.0005480852.0150841573.0003344181.022568271.0008216.0069670341.0031074282.0138499454.004766063.0208432602-.0006918344.000184702-.0019157476.0005114304-.0038974113.0010404222.0018467092.0009804309.002918914.0018295196.0042636662.0022143972.0054066683.0015476158.0107829949.0032384247.0163885991.0043307943.0060232201.001173668.0120886547.0008707027.017351134-.0019752303.0022568057-.0012203961.0048235363-.0023175552.0032283992-.0048689353-.0002936547-.000469676.0002298493-.0012861593.000631239-.0018547565.0044342833-.0062813404.0122923398-.0102911168.0195696388-.0146829463.0046132552.0044817857.008809774.008862317.0134636607.0129915848.0043356508.0038468113.0084017443.0079027633.0149144769.0103176432.0150427914.0055779624.0301103839.0110640651.0461446449.0152091136.0206050818.005326699.041501004.0093109315.0637480106.0085284657.0129689593-.0004561058.0259674248-.0011021328.0379469374-.004911488.0056874388-.0018086424.01112568-.0042553907.0159537456-.0070270254.0027961401-.0016050895.0042652933-.0033300388.0088645209-.0035961619.0088035298-.0005095269.017813427-.0016259667.0253158701-.0055644536.0007626316-.0004003513.0019499589-.0004064303.0029401972-.0005954919.0002495494.0007538517.0007541448.0015155017.0007076208.0022603885-.0003190714.0051067513-.0006914386.0102131343-.0012185045.0153110435-.0000786685.0007607903-.001222594.0014399753-.0015777676.0022223797-.000371004.000817343-.0008677722.0018545723-.0004542018.0025465292.0008725213.0014601157.0022959421.0027608891.0035126876.0041185836.000177301.0001977809.0004608418.0003492021.0007775826.0005827814.0008884397-.0002140529.0017462299-.0004207373.002749924-.0006625446.0000777011.0004276145.0002083462.0007532991.0001845566.0010733959-.0004725827.0063531826-.0009324571.0127070713-.0014571924.0190582275-.0007529575.0091119225-.0015900801.0182205292-.0023006912.0273339868-.0001072952.0013764226.0007649622.0028498014.0003407503.004143452-.0013470389.0041079608.000568269.0072116046.0046491376.0101724851.018792408.0136345416.0401937171.0248912911.0636805554.0342265998.0037374799.0014855368.0081167084.0026436696.0123555736.0029731612.0164239097.0012766418.0328901219.002300178.0494747986.0015010719.0105369194-.0005076848.0211255516-.00079315.0308168615-.0041092502.0022999876-.0007870097.004570513-.0022007656.0058282418-.0037360393.0014928109-.0018224582.0018657058-.0040900309.00274324-.0061606824.002554506-.0060281734.0018148725-.0121235838.0005577593-.0181903801-.0024918878-.0120246012-.0114297565-.0207297864-.0285714889-.0238549829-.0073261536-.001335712-.0132595799-.0034695478-.0189808782-.0067097531-.0109931-.0062258316-.0223394828-.0121480224-.0335563198-.0181806169-.0047200228-.0025384853-.0072867534-.005913533-.0082527622-.0099674893-.001116574-.0046860754-.002304385-.0093638614-.0035039808-.0142174458.0005653227-.0003412197.0012124361-.0007154745.0018335172-.0011096241.0028100797-.0017829757.0039221684-.0035966532.0022516168-.0064159984-.0013886817-.0023435904-.001297041-.0051147338-.0019783658-.0082329917.0021619989.0004751409.0032685469.0007172552.0043742155.0009613958.0079669348.0017596423.0158572678.0037259691.0239350157.0051873128.0036852394.0006666586.0067438571.0016007913.0090583559.0036560304.0017088964.0015174052.0035962371.0021618358.0065465042.0016882914.0029087561-.0004668514.0058910359-.0004478163.0076308896.0020172917.0004625128.0006554218.002476673.0011457294.003727278.0010951942.0045389401-.0001837195.0076585929.001259326.0105592579.0035102583.001979685.0015362561.0045184484.0027428978.0069256434.0039849694.0092832362.0047898475.0199875186.0073710697.0311184314.0087842116.0255071547.0032383326.0509233722.007082565.0770135269.0073693811.002579307.0000283685.0051667051-.0003083074.0083506471-.0005145006.0018296475.0014276332.0044160782.0034456618.0071381231.0055696729.001654985-.0020117654.0033322205-.0008945273.0049670656-.0005165269.0056427618.0013047646.0112900088.0025997047.0169383992.0038924342.0014075903.0003221539.0026552052.0004300707.0025271545-.0010064046.0001942747-.0000022105.0003894289-.00000525.0005851108-.0000089035.0000104657.0029598981.0032218471.0041933731.0062461655.0053755148.0048655749.001901853.0097935921.0037531709.0148767477.0053429709.0020666645.0006463955.0046292616.0008262465.0069302166.0007415096.005923928-.0002181055.010272463-.0025177923.0127078889-.0061239016.0048453471-.0071743326.0092616892-.0144898935.0138565635-.0217467218.003043139-.004805751.0063474804-.0095408879.0090574765-.0144365338.0025754373-.0046527333.0038411693-.0097025635.0068976762-.0141729282.0069555453-.0101731605.0050425241-.0205061546.0023564495-.0309077979Z"/>
    </clipPath>
  </defs>
</svg>