<?xml version="1.0" encoding="UTF-8"?>
<svg data-name="Layer 1"
  xmlns="http://www.w3.org/2000/svg" width="1" height="1" viewBox="0 0 1 1">
  <defs>
    <clipPath id="9b244a14cd2b7b6891c09152acf7e799" clipPathUnits="objectBoundingBox">
      <path class="cls-1" d="M.7190596731.9959533288c-.0016717208-.013767153-.0031262155-.0277718769-.0065139011-.0401999267-.0023492371-.0086183623-.0039085421-.0177594688-.0052099887-.0271657094-.0047762311-.0345209045-.0111588241-.0676342935-.0191005832-.099452548-.0014876256-.0059600848-.0023803885-.0125948596-.0034748539-.0189741528-.0003226268-.0018804187-.0003950355-.0039526044-.0005821868-.005936926l-.0003706909.0000812946c-.0001040463.0022309946-.0002080231.0044620259-.0003452697.0074058069-.0015043647-.0044805237-.0025764997-.0082565555-.0028559938-.0133591386-.0008931102-.0163032867-.0017418374-.0326746552-.0032300187-.0487627957-.0029228113-.0315971994-.0063368904-.0629645719-.0121204186-.0929456792-.0026377953-.0136742239-.004210054-.0282272733-.0077667627-.0411627627-.002090198-.0076016846-.0037672322-.015727655-.0059720686-.0231650623-.0013637494-.0046001349-.0020299442-.0092473583-.0023174606-.0145120535-.0007380479-.0135155252-.0013520806-.027103096-.0025272201-.0404609134-.0019418035-.0220715677-.0061266447-.0420107953-.0137628634-.0582205657-.0102964833-.0218569354-.0227594281-.0348241718-.0370068568-.0405452542-.0015804199-.0006346115-.0031588949-.0013365341-.0047529978-.0017630462-.0026108808-.0006985828-.0052325969-.0016398748-.0078519515-.0016714017-.0035924095-.0000433082-.0071896115.0005775034-.0107797984.0010748867-.0064179813.0008891387-.0128993418.0004493773-.0192118529.0036269857-.0018621366.0009373649-.0034562394.0004911807-.0051186183-.0015300629-.0026649529-.0032400382-.005348937-.0037229243-.0083699602-.001026477-.0053744971.0047970036-.0108228963.0092848309-.0167242232.0107171201-.0048867021.0011859832-.0097931993.0024557567-.0145976125.0046149992-.0048318139.002171611-.0096761994.0042882427-.014500182.0065665093l-.0002629981-.0130324556c.0002584314-.0007770146.000472966-.001603173.0006204402-.0024843474.0014488513-.0086566423.0027802686-.0174389149.0038448676-.0263369452.0023248925-.0194317146.003337642-.0393500222.0045871523-.0591745566.0011891176-.018865809.0012110139-.0375408785-.0017766527-.0558065757-.0004331152-.0026481844-.0008972255-.0053031954-.0011622379-.0080350599-.0002018414-.0020808474-.0003173134-.0043785659-.0001172083-.0064252439.0014187418-.0145083466.0027640504-.0289391789.0026729752-.0439447253-.0000952253-.0156859985-.0002819078-.0313619773-.002448022-.0463628626-.0019536807-.0135291783-.0046401305-.0265890868-.0070643983-.0398060058-.0002031958-.0011078083-.0008586943-.0025668531-.001324159-.0025999582-.0012708683-.0000902865-.0018532461-.0019719163-.0024899392-.0035725569-.00695134-.0174749194-.0162616062-.0264556389-.026335602-.0325441068-.0071698858-.0043333126-.0145680239-.0049817607-.0219666482-.0048508085-.0054307745.0000961588-.010661253.0031433656-.0159452826.0054935311-.0111802341.004972732-.0210081098.0154714395-.0298461567.0306450069-.0066858935.01147872-.0119677179.0253747698-.0154220299.0417984018-.0042176769.0200528565-.0068471895.041161368-.0063970053.0634654785.0001008339.0049958909.0001406847.0100600838.000570466.0149508239.0009839944.0111965563.0021565119.0223220944.0033429728.0334333556.0001956077.0018318621.0007571485.0047388679.0013105281.0049169819.0016776594.0005400675.0017391807.0032346064.0021940359.0054713632.0037171365.0182787264.0057261221.0377221122.0086339308.0565530177.0007016004.0045433939.0008985625.0089264375.000044626.0134727308-.0007363462.003920527-.0004685034.0076233387.0011523055.0102991963.0010982508.0018131809.0011896907.003792878.000833933.0063275436-.0008080082.0057562061-.0014387975.0116387033-.0023781137.0172945299-.0025152215.0151455639-.0066132938.0278649528-.0131858164.0364828379-.000668539.0008765867-.0016306892.0016778979-.0023373947.001353784-.0055906467-.0025641739-.0112215088-.0028882878-.0169180771-.0025279125-.0101734058.0006436034-.0201845953.0034472201-.030024105.0088993515-.0022370123.0012396046-.0044152815.0029524426-.0063889309.0042903714-.0052833351-.0037502672-.0104195433-.0079025296-.0156919043-.0110302969-.0101695683-.0060331949-.0203932956-.0075078013-.0308279979-.0018427993-.0110747293.0060124951-.0196423288.0192545181-.026498374.0379953574-.0020751259.0056723057-.0041737802.0115232393-.0041540024.0193236644.0000018927.0007431388-.0002455124.0014950494-.000388576.0022330866-.0020437314.0105450619-.0040946689.0210839579-.0061334515.0316332773-.003330349.0172320634-.0051809384.0351463772-.0053769802.0537608153-.0001900338.0180442016.0000874114.0360450584.0013445272.0539432234.0006255452.0089062148.0010444044.0178782359.0016948846.0267753853.0002040293.0027902939-.0001285472.0048345863-.0007176102.0072641378-.0020674509.0085270848-.0044676693.0169129042-.0058053029.0259697066-.0039781031.0269352218-.0075222401.054153892-.0099731966.0819477166-.0024673136.0279792423-.002752017.0561635378-.0015021073.0843802777.0008118978.0183286776.0021416828.036556315.0032754608.054819333.000676023.0108901693.0007277162.0219883646.0024224966.0325553743.0001551838.0009677541.0000333914.0024318638-.0002186326.0033472443-.0025727143.0093449852-.0034806014.0198392885-.0047384639.0300938554h.0853242313c-.0002252831-.0075668179-.0005420582-.0151290848-.0006268823-.022702876-.0000302311-.0026975117.0003665235-.0055243606.0007997081-.0081196577.003013956-.0180566436.0061562681-.0360187432.0091072962-.0541204566.0010282904-.0063075778.0016324951-.0129238915.0025548639-.0204093415.0004690244.0024327446.0008208577.0039763872.00106927.0055910846.0019582648.0127315005.0038895109.0254815355.005843643.0382157886.0014904038.0097122238.0006375786.0193946458-.0000503041.0290812884-.0002337568.0032914208-.0005775506.0065568567-.0007301298.0098632519-.0003472145.0075240603-.0006071566.0150661411-.0009026084.0226009183h.2525597433c-.000931485-.0116084243-.0018766531-.0232120039-.0027870232-.034827842-.0003245716-.0041410684-.00045647-.0083604217-.0008682794-.0124578516-.0006659517-.0066258929-.0004390364-.013097895.0003233908-.0195894224.0016850218-.0143469319.0033448655-.0287071132.005019434-.0430594769.000086821-.0007440931.0002153161-.001466532.0004422314-.0029899152.0004749455.0013286799.000841608.0020784251.0010540416.0029888142.0081177279.0347813774.016225454.0695732516.0243140794.1043849447.000407503.0017537973.0006332376.003696132.0009435358.0055507492h.1194539099c-.000169544-.0013487925-.0003438111-.0026949425-.0005080417-.0040466712Z"/>
      <path class="cls-1" d="M.7719320935.697025962c-.0078788312-.0682054108-.0157774229-.1364006185-.023660109-.2044683974-.0010527566-.0006536964-.0018092105-.0011234066-.002879505-.0017879667-.0094479644.0665469281-.0188582484.1328251254-.0282623508.1991073232-.0001059911.0007479468-.000139122.001545441-.0001844772.0023255018-.000008821.0001522025.0000749439.0003472728.0001327667.0004928323.0000576144.0001451558.0001362395.000252839.0005255795.0009489627l.0028308852-.0016861558c.0002679643-.0004206398.0005319696-.0008522534.0007958707-.0012841973l.0000271229-.0000367752-.0000031603-.0000018718c.0050791321-.0083223986.0094775877-.0185356759.0155339769-.0239962488l.0013870521.0016029161c-.0001157497.0029898418-.0002776188.0059767842-.0003207167.0089712504-.0006367451.0442003169-.0012760255.0884004869-.0018733539.1326032261-.0007922936.0586161748-.0015423228.1172348821-.0023307616.1758513138-.0000643864.0047822128-.0002838699.0095550666-.000431292.0143323246h.0204778072c.0001548539-.0192104025.0003365529-.0384200343.0004595609-.057631281.0003301976-.0516276678.0006435866-.1032559228.0009476685-.1548843246.0002133018-.036209189.0004087532-.0724189653.0005874308-.1086289617.0000188922-.003835966-.0001276269-.0076756021-.0001981602-.01151355l.0000610525-.000032371.0015137761-.0004787021c.0045662284.013743517.009133082.0274889058.0139542863.0419997114.0003191192-.0011084322.0004717505-.0020576518.000516064-.0028918112l.0000009724.0000112675.0002124683-.0067566248c.0000656714-.0007255219.0002549412-.0015146481.0001795458-.0021673903Z"/>
    </clipPath>
  </defs>
</svg>