<?xml version="1.0" encoding="UTF-8"?>
<svg data-name="Layer 1"
  xmlns="http://www.w3.org/2000/svg" width="1" height="1" viewBox="0 0 1 1">
  <defs>
    <clipPath id="1113e11125f9ae635cb2b2dde8d94f91" clipPathUnits="objectBoundingBox">
      <path class="cls-2" d="M.3574504991.454459264c-.0026179213-.0089355469-.001800906-.0178252034-.0015295676-.0267201784.0004071306-.013343906-.0000245419-.0263774698-.0046028672-.0391900407-.0018542195-.0051890013-.0019837164-.0112916559-.0017991846-.0169404722.0004081142-.0124910347.0003836214-.0247888336-.0035872048-.036852926-.0015237641-.0046294026-.0029455734-.0098216456-.002425422-.0145241892.0009882187-.0089348378.0004076224-.0176248258-.0010552541-.0263358848-.0012691968-.0075578745-.0015647821-.0158752695-.0090047758-.0203003943-.0040004832-.0023793581-.0085697589-.0040019815-.013077065-.0051677783-.0102450043-.0026498882-.0206173905-.0047745701-.030917233-.0072058967-.0012209982-.0002882075-.0030454133-.0009014462-.0033409494-.0017998533-.0014848117-.0045142209-.0050251951-.0057004303-.008880148-.0068108143-.0012120471-.0003490907-.0021836421-.0015835204-.0032652579-.0024126868.0002205823-.0003570937.0004411647-.000714238.0006616978-.0010713316.0006355329.0001071787.001275738.0001909565.0019058609.0003250819.0058747199.0012507395.0084861491-.0004781003.0098591696-.0064087421.0010560902-.0045618841.0020464237-.0091539565.0034292315-.0136131698.0004268526-.0013764567.0018495964-.0027594475.0031591226-.0034499299.0042007532-.002214943.0055288704-.0055832226.0035746634-.0100026744-.0010569263-.0023902988-.0019138776-.0048979573-.0031888287-.0071564607-.0016124888-.0028563947-.0020001432-.0052928877.0011094037-.0069593248.001717788.0002268178.0036742574.0005892805.0048874356-.0002241839.0010027274-.0006722478.0017118861-.0028159747.0015336005-.0041651302-.000593187-.0044889458-.0013619053-.0089995705-.0026036584-.0133378785-.0011489954-.0040144418-.0029924932-.007818021-.004664886-.0120558869.0027025147.0006742232.0051569051.001227693.0075781466.0019066775.0025805428.0007236592.0037098653-.0009003319.0037028323-.002961598-.000003787-.0011151452-.0012669836-.0027362491-.0023515995-.0032405869-.0031645819-.0014715804-.0066277983-.002271065-.0097665103-.0037889409-.0016190301-.0007829215-.0027978791-.0025315154-.0041755719-.0038437966.0002781747-.0003821155.0005563495-.0007642311.0008345734-.0011463466.0025610666.0006024499.0051221824.0012049505.0076087872.001789875.0030709881-.0045683675.0027951249-.0053925194-.0021274268-.0067032304-.0058764412-.001564678-.0117574072-.0031110202-.0163934233-.0043367378-.0001314149-.0025131289.0002726663-.0043666729-.0004066387-.0055733455-.0010700579-.0019009032-.0026797926-.0032274175-.0053779793-.0019098179-.0015472732.0007555696-.0036675194.0006134413-.0054752125.0003953356-.0069495976-.0008385369-.0140385286-.0045282008-.0208620722.0016216104-.0060603336-.0065344086-.0074360592.0025682378-.0110690526.0035457627-.0034893814-.0006220521-.0068093299-.0008656862-.009901909-.0018596728-.0033242274-.0010684445-.0053318955-.0002568542-.0068353965.0028957003-.0009201013.0019293188-.0018301202.004480487-.0034454616.0053167446-.00369816.0019145791-.0042651328.0049986527-.0043786946.0085313473-.0000888231.0027625879-.0003833755.0055934542.0000570514.0082821921.0007705873.0047046709.0020353085.009323538.0030929725.0139783171l.0000009836-.0000002533.0009204456.0039825313c-.0024350617.009689445.0026502832.01748523.0042800842.0257263437.001194489.0060401505.0045660297.0116236263.007208247.0173601206l.0006190076.0022614412c-.0000029509.0003018834.0000201647.0005824425.0001618587.0007657.0032616184.0042190742.0003681782.0087253428.0005515788.0130741863.0000236075.0005594974-.0012512945.00175062-.0017898892.0016718568-.0047466761-.0006944838-.0060923513.0029676762-.0080396236.0061299558-.0009881203.0016046928-.0023810596.0032551239-.0039816464.0040968013-.0075264069.0039576107-.0153711213.007304262-.0227413254.0115356445-.0054394571.0031229739-.0102982194.0073101883-.015461715.0109540631-.0045314546.0031978876-.0092427195.006137047-.0136672519.0094813683-.0068882674.0052065268-.0115828595.0120673848-.0123264457.021000703-.0015894715.0190956464-.0030136908.0382094767-.0041945563.0573362232-.0006214176.0100655837-.0011210107.0201975716-.0007034535.0302567225.0004377219.0105448489.0020131273.0210415282.0031846482.0315481859.0000882821.0007915829.0008182449.001607428.0014330228.0022156015.0012419007.0012285541.0029195068.0021024965.0038635106.0035152704.0022012002.0032941763.003883036.0069594767.0061164997.0102270609.006768607.0099026375.013566625.0197914472.0206751305.0294339382.0014828444.0020114756.0043465294.0029431102.0066813577.0044413333,0,.0037736442-.0004317217.0084329819.000083118.0129785561.0013953001.0123183128.0023511568.0246054242.0021311647.037048897-.0002784698.0157519835.0002348944.0315184027.0003834739.0472788451.0001243327.0131842522.0007600623.0261318096-.0035179071.0392518863-.0023697477.0072676409-.0004495748.0163884713.0008139168.0244620295.0022608583.0144461857.0054945412.0287305397.0083070766.0430855019.0017370674.0088657996.0035517936.0177242548.0013216251.0268120603-.0002493539.0010160707-.000033739.0021531987-.000033739.0031963174q.0081185611.0015240554.0088361791.0098717907c.0000236567.0002752407-.0000465264.0005859882.0000537562.0008232908.0012872467.0030455783.0017567895.0056975938-.0021566411.007251635-.0006033677.0002396326-.0006640094.0021970124-.0007955719.003381145-.0005119871.0046076225-.0005372176.0093191313-.0015120587.0138151683-.0015797335.0072856729-.0001588094.0112181604.0069952879.0123981903.0071691963.0011825118.0145911402.0008161489.0219051782.0009260629.0013945623.0000209698.0028007317-.0007803383.0042024746-.0012632505l.0000080167.0000181333.0001365791-.0000687342c.0000234107-.000007699.0000468707-.0000171202.0000702814-.000024566l-.000000541-.0000104849.0054621793-.0027480003.0000016722.0000063314c.0000262633-.0000159552.0000524774-.0000308975.0000787408-.0000468021l.0001990405-.0001001382-.0000047707-.0000153474c.0028974731-.0017411988.005794061-.0031521999.0082027611-.0051759839.0011067971-.000929963.0011689142-.0031786907.0017051973-.0048288179l-.00055271-.0037479638-.0000013771.0000001013c.0004776087-.0040927491-.000428574-.0068176523-.0039466778-.0086463263-.0015015829-.0007803889-.0025354427-.0025168265-.0037791631-.0038211553-.0009916123-.0010399276-.0020082583-.0020568594-.0029565902-.0031372577-.0005707599-.000650417-.0014601714-.0013961602-.0014705489-.0021104488-.000054248-.0037216756-.0013141986-.0088865161.0005412505-.0108577744.003387279-.0035986936.0034325267-.0071436459.0032376667-.0112362937-.0001185784-.0024909435-.0003064545-.0049941447-.0007126506-.0074480112-.0001932862-.0011676709-.0013794634-.0022219329-.0014085793-.0033469046-.0001155291-.004467115-.0003056184-.008982197.0001699738-.0134067646.0019467805-.0181129551.0043155446-.0361793107.0061364185-.0543046247.0007934078-.0078979492.0009167077-.0158999368.0008307863-.0238487908-.0000708716-.0065627229-.001282476-.0131169869-.0012781972-.0196745433.0000040821-.0061914468.0007346351-.0124088778.0015086159-.0185664893.0009472991-.0075362463.0022724161-.0150220942.0034341497-.022529773.0008199663.0009039788.0011253388.001792053.0012918698.0027070231.0018044963.0099161109.0035382193.0198462522.005404636.0297499027.0005843833.0031007379.0018505309.0061321338-.0010439913.0088181365-.0004192786.0003891055-.0002627807.0015357053-.0002302221.0023255154.0001904828.0046269714.0006066629.0092522206.0006029742.0138777737-.0000072298.0090791948-.0012344742.0182877537-.0001385464.0272057244.0015111242.0122966339.0050697542.02431048.0070802257.036562186.0021638709.0131869368.0065366636.0262228811.0037075046.0399290473-.0001031843.0004997792.0002784698.0010940742.0002158608.0016165452-.0002058768.001718203.0000087053.0038238905-.0008829687.0050549772-.0022182173.0030624959-.0006496974.0044172738.0017277228.0057428257.0043668416.0024349735.004807121.0067558573.0011128465.0105678448-.0004444107.0004584981-.0009479876.001130594-.0009607258.0017144041-.0000902002.0041250648-.0003630141.0082846234.0000390507.0123688124.0002706499.0027492159.0018354811.0053404495.002314762.0080957943.0008398359.0048277036.0018347925.0059029354.0067479013.0061154694.0012002433.0000518672.0024546363.0000248193.0035837621.0003761893.0102775629.0031982422.0195824979-.0005749968.0288657927-.0042842628.0008956577-.0003578534.0014408428-.0016459232.0021290499-.0025545112.0010404994-.000852922.0019691584-.0020506293.0031583849-.0024762039.0031339905-.0011213754.0063567058-.002023784.0095953561-.0027805692.0049154695-.001148474.0070574543-.0040741093.0078941917-.0093378217.0017211816-.0108274341-.0030814639-.017990125-.0136189549-.0187617512-.0027963053-.0002047843-.0056202018.000016715-.0084245729-.0001132569-.0009882187-.000045789-.0019561251-.0005569141-.0033364246-.0009787405.0008186875-.0010235165.0010814682-.001525727.001485156-.0018289273.0029462127-.0022131702.0052218257-.0045072817.0016991971-.0081884867-.0003032085-.0003168256-.0002021882-.0014087218.0000892658-.001905006.0018199887-.0030994716.0002294843-.0054749801-.0012958536-.0080016837-.0007265692-.0012035322-.0014410887-.002708492-.0014113335-.0040593697.0006088761-.0276359083.0042299183-.0549592964.007719939-.0823238135.0012783939-.0100236948.0004586244-.0203373699.0004958061-.0305191483.0000114595-.0031451593-.0008066379-.0063620413-.0003983269-.009426462.0037709988-.0283040027.0039928107-.0567422827.0034567735-.085225744-.0001620063-.0086069701-.0000250338-.0172199677-.0000250338-.0258301794.0010435979.0041915704.002179019.0085917746.0016490804.0127677949-.0006552058.0051627638.002760058.0086555449.0036062875.0131028045.0001498583.0007876828.0011207648.0016289549.0019112709.0020317869.0044860102.0022858046.0044226143.0060196366.0032810454.0101904905-.000616942.0022538941-.0012362447.004513056-.001708886.0068017477-.001619817.007843752.0004725921.0129207627.0068041166.0171384693.0008793292.0005857855.0014023823.0017388182.0020903434.002629273-.0009376593.0006236223-.0018084309.0016102644-.0028243883.0018087173-.0046610498.0009102596-.0016203088.0051999927-.0031169735.0075144154-.0002240743.0003464062.0010752221.0019676114.0018907619.0027569656.0033255553.0032189587.0066023711.001547963.00936297-.0007332323.0036927991-.0030515046.0071053086-.0064868974.0104534386-.009947059.0018433502-.0019049553.003308194-.0041983577.0049437001-.0063166575-.0000389523.0000331261-.0000771177.0000674679-.0001160209.000100746.0007942931-.0013203348.0021240825-.0025935636.0022280045-.0039651578.0002947491-.0038907506.0005257089-.0078963284-.0000552808-.0117216878-.0008540004-.0056229841-.0025187207-.0111108804-.0036449448-.0166975979-.0002821093-.0013994526-.000367834-.0038074794.0003738342-.0043071066.0061761578-.0041607235.0030372982-.0110874287.0044287129-.0165288775.0006445332-.0025207266-.0011733898-.0068260098-.0021127705-.0100323056Z"/>
    </clipPath>
  </defs>
</svg>