<?xml version="1.0" encoding="UTF-8"?>
<svg data-name="Layer 1"
  xmlns="http://www.w3.org/2000/svg" width="1" height="1" viewBox="0 0 1 1">
  <defs>
    <clipPath id="09c82ebfaa58d98c52541fb7f975c682" clipPathUnits="objectBoundingBox">
      <path class="cls-1" d="M.5684113838.4663247882c.0029296875-.0076025477.0034836245-.0156287787.0048475668-.0234858315.0018209538-.0104898417.0042200223-.020974753.0048962445-.0315042892.0010079397-.0156958238.0009051041-.0314288589.0008931764-.0471459155-.000003761-.0049786118-.0013740432-.0099506738-.0018434122-.0149373468-.0003412811-.0036271653-.0033244818-.0060645769-.0076033901-.0077259496-.0038716491-.0015031707-.0080519125-.0028001317-.0123339371-.0036511331-.0139070968-.0027637122-.0287552417-.0027456464-.0424223349-.0064005582-.0026942508-.0007205099-.0044354721-.0012583463-.0047899166-.0033670102-.0011163094-.0066416399-.0058330482-.0114885366-.015993575-.0133238019.0002828249-.0003332102.0003799116-.0005326541.0005774699-.0006644771.0006219031-.0004149743.0012700255-.0008132863.0019282489-.0012026733.0101540794-.0060064928.0177692897-.0129324715.0187729312-.0224191198.0001118082-.0010564552.0019558114-.0019944389.0027838694-.0030614025.0013432033-.001730613.0040479311-.0038383052.0034157659-.0052196215-.0011418302-.002494776-.0011272162-.0046755593-.0004881738-.0071284096.0008011939-.0030752578.0012199509-.0062080239.0014607604-.0093278705.0000696317-.0009017441-.0010400154-.0018442982-.0016089963-.0027681387-.0004183272.0000688805-.0008366544.000137725-.0012549817.0002065695l-.0023766639.0048365323c-.0003964061-.0000832756-.000792866-.0001665151-.0011893259-.0002497907.0002180288-.0006564158.0002832547-.0013578883.0006802519-.0019614741.0017905974-.0027221824.0016463911-.0054362675.0003867888-.0082336282-.0003523491-.0007825528-.0002736374-.0017549407.0000578115-.0025567109.0028348574-.0068556948.0044354721-.0138076566.0021196822-.0208354806-.0020945374-.0063561493-.0062576616-.0120411279-.0157522282-.0148639319-.0058140822-.0017285977-.0118923456-.0031194507-.0179963448-.0043373468-.0138099563-.002755435-.0278225751-.0048588447-.0423904204-.003906322-.0075849614.0004959106-.0151444556.0011955117-.0198102065.0060978656-.0004757089.0004998693-.0015995402.0008000428-.0025149601.001021907-.0041717744.0010110387-.0063056946.0029610328-.0063953668.0059125288-.0010701569.0001548551-.002204304.0002106721-.0031729147.0005082184-.0128060999.0039337806-.0194005832.0107180397-.0195569858.0200771476-.0001344815.008049659.0002456987.0161064436.0006170676.0241555628.000289917.0062851456.0002077667.0124798901-.0033754698.0184598239-.0056317289.0093986223-.0074267858.0192991293-.0067066139.0292934202.0003457405.0047977376-.0005752134.0092843973-.0026469701.0137355013-.0005623723.0012083593-.0020296339.002506616-.003629765.0031734323-.0093893669.0039128358-.0191485445.0074400992-.028373772.0115132602-.0076220338.0033653187-.0154517268.0067806964-.0184651227.0131900715-.0047452685.0100930772-.008085224.0203733264-.009623729.0309072171-.0015040116.0102970915-.0030598708.0205654648-.0073315258.0305909211-.0012310189.0028892013-.0014387856.0062798554-.0004968778.0092068798.0014139095.0043938475.001926637.0086571316.0007573517.0130483879-.0003329532.0012505009-.0007533758.0025061481-.0008379977.0037683091-.0006898155.0102913335-.000951364.0206022083-.0020640736.0308720931-.0008871052.0081875279.0027723715.0152579973.0101582164.0214672089.0080339136.0067540295.0166282117.0132095769.0250122178.0197757865.0015180883.001188926.0028574232.0021487902.0021857678.0040718295-.0014527012.0041589197-.0023199807.0084115154-.0033318426.0126360048-.0001994925.0008329715-.0001220703.0017291735.0000934332.0025654919.0003328995.0012921387.0013176287.0025616772.0012918392.0038340946-.0001813324.0089367561-.0003378962.0178782265-.0009345471.0268051939-.0004055399.0060670241-.0017397706.0121045023-.0022468567.0181706267-.0006057847.007247421-.0009638827.0145106406-.0010188465.02176839-.0000178377.0023536682.0012565935.004711655.0018461523.0067443128.0024484984,0,.0041761801-.0002890533.0055509218.0000549172.0039282248.0009825365.0078384507.0020709488.0114962618.0034307804.0016065248.000597252.0031614169.0018256565.0037386182.0029901469.0017788847.0035884065.0001810101.0069094964-.0011306548.0105787313-.0027977312.0078266072-.0046056291.0160009996-.0046479131.0240379909-.0000701152.0133250254.0010178257.0266860386.0027265952.0399679868.000853149.0066313834-.0013680257.0137609086.0048723892.0198526203.0001392096.0001358896.0000142917.0003862921.0000408334.0005816334.0014314249.0105282766.0028371139.0210582805.0043175388.0315835341.0004404632.0031312187.0000728553.0058338237-.0040703894.0081075272-.0021241954.0011657139-.0041314783.0034027819-.0041227206.0051510649.0000248761.0049804831.0006574174.0100119249.0019442599.0149182734.0008210196.003130355.0035166136.0060195203.0048264517.0091201494.0008908124.0021085919.0014037011.0037945441.0054308394.0042509403.0058027456.0006576394.011403742.0023499975.0172122902.0027021732.0142385456.0008632732.0272758914-.0022151155.0397032617-.006573947.0063562528-.0022294386.0126235317-.0045726704.0187988819-.0068164322.0015921257.0039469881.0029544562.0074957362.0045005369.0110082087.0002981374.0006772887.0011234015.0014621087.0020303861.0017757056.0139270836.0048146518.0284278225.0063855873.0434810477.0027532038.0076045184-.0018348694.0151046968-.0034094757.0233683519-.0032201083.0150196989.0003441145.0296982241-.001127351.0437140129-.0048670499.0014167033-.0003780869.002929795-.0019269979.0030141481-.0029822296.0003700794-.0046309705.0000995045-.0092048645-.0023100947-.0137260725-.0014334665-.0026898654-.0031400869-.0047410929-.0072219204-.0056973583-.0057774933-.0013536417-.0115959812-.0026340845-.0173236686-.004076184-.006807784-.0017139507-.0135076818-.0036202197-.0203173463-.0053307155-.0025411794-.00063835-.005259984-.0009595043-.0078978203-.0014253292-.0038481699-.0005510438-.0044991936-.0024779698-.0040255265-.0050125122.0015076651-.008067149.0026285951-.016166831.0041433522-.0242333322.0002514477-.0013391747.0016531071-.0026019114.0026552442-.0038524844.0015997551-.0019965262.0042053008-.00383593.0048211863-.0059465372.0028838037-.0098822972.0054700072-.0198107306.0077112762-.029768278.0027011818-.0120010376.0051027755-.0240351119.0073353942-.0360796946.0014938569-.0080591598.0024676793-.0161615768.0037209954-.0245579414.0088156042-.0007607082.0174945778-.0014660673.0261468484-.0022963038.0015644557-.0001502127.0030702403-.0007478246.0045153121-.0012517965.0050348631-.0017558404.0050731175-.0050560573.004981135-.0081245134-.0003406363-.0113734839-.0003041012-.0227789969-.0016691181-.0341043652-.0014332516-.0118903034-.0042324872-.0237096031-.0065966324-.0355453851-.0010604858-.0053094468-.0029141063-.010559046-.0036440567-.01588278-.0004524983-.003300181-.0017055458-.0060739697-.0051514532-.0084352673-.0008577159-.0005877153-.0016703001-.0013520943-.001979022-.002128781-.0024368394-.0061307943-.0047995876-.0122756958-.0070261351-.018441974-.000269554-.0007464211.0000205241-.0018420309.0007027639-.002445077.0094779646-.0083779029.0136352324-.0183349825.0174288683-.0281794926ZM.4613411594.7156499107c.004246564.0050806729-.000443472.0099834226-.0008896304.01493965-.0007735239.0085931454-.002310632.0171485037-.0010185242.0257716629.0000301415.0002012433.0000941317.0004002553.0001626888.0005989075l-.0008663124.0021549801c-.001198191-.0001022771-.0028552203-.0002436728-.0045193954-.0003857163-.0009419616-.000784712-.0018655481-.0020828247-.0028367916-.0020989832-.0091849851-.0001532357-.0159229762-.0034270377-.0225263784-.0071930795-.0019952479-.0011378954-.0046684373-.0017424529-.0071744784-.0024784736l-.0003627723-.0001098345c-.0002779356-.0000838514-.0005558712-.0001677387-.0008274132-.0002566284.0000091875.0000044985.0000166557.0000093568.0000257895.0000138553l-.000087738-.0000265589.0000042445-.000017706.0000082741.000017634-.0000025252-.0000060099.0000015044.000003059c.0000165483.0000054341.0000339025.0000102925.0000504507.0000157266-.0000199331-.0000097167-.0000365351-.0000201171-.0000566294-.0000298338-.0005832726-.0015288299-.0017689987-.0030846146-.0016346246-.0045875693.0006947585-.007768451.0017431555-.015522579.0025994207-.023285164l.0013072591-.0040133134c.0040585692-.0013730391.0060735353-.0041768776.0067919342-.0071147703.0035083395-.0143478681.0068514112-.0287143419.0101360805-.0430861059.0009933257-.0043463797.0015684316-.008735009.0024201836-.0130967914.0003046385-.0015602832.0008601874-.0030985418.0013012416-.0046468771.0005709151.000020513.0011418302.000040954.0017127453.000061467.0002640738.0016586016.0003436451.0033414589.0008226314.0049717021.002758832.0093902732.0057991458.0187449185.0083860478.0281557767.0031977371.0116330633.0072864479.0231983617.0070428445.0351454177-.0000039759.0001963489-.0000963883.0004325723.0000298728.0005835767Z"/>
    </clipPath>
  </defs>

</svg>