<?xml version="1.0" encoding="UTF-8"?>
<svg data-name="Layer 1"
  xmlns="http://www.w3.org/2000/svg" width="1" height="1" viewBox="0 0 1 1">
  <defs>
    <clipPath id="d1623c8d441cb42a83e6cfe86e0e1256" clipPathUnits="objectBoundingBox">
      <path class="cls-2" d="M.9545356494.4886743314c-.0125303339-.000234272-.0249355631.000839582-.0371058614.0041162796-.0023339759.0006284261-.0048362842.0010547604-.0072326527.0009457231-.017121466-.0007790296-.0342361177-.0017125242-.0513520472-.0026129805-.0223398787-.0011752754-.0446801832-.0023431493-.067017613-.0035637452-.0060679007-.0003315099-.0121262189-.0008411374-.0182786585-.0012753559-.0003251127-.0013838569-.0006993623-.0024911783-.0008342625-.0036273547-.0010772851-.0090738038-.0035686268-.0178062291-.0068241191-.0262666779-.0028312008-.0073574716-.0062006182-.0145144337-.0095656703-.0216481187-.0012207031-.0025877726-.0015985728-.0047466097-.0001784473-.0074081287.0018209931-.0034126054.0036012073-.006909228.0029990009-.0111115092-.0001946311-.0013580054.0002190132-.0029942088.0008510318-.0042489694.00229703-.0045601521.0024658416-.0092301461.0013677412-.01410368-.0003182452-.0014125241-.0003017421-.002910728-.0003577996-.0043728096-.0007792164-.0203226958-.0017017443-.0406416104-.0022547073-.0609706617-.0003421482-.0125765407-.000343-.0251739448-.0000586129-.0377519068.000161465-.0071406306-.0007007464-.0139955544-.002900248-.0207349512-.0010435335-.003197427-.0020370783-.0064113731-.0030557505-.0096170596-.0027676369-.0087089337-.0074215343-.0161589772-.0144194159-.0220675879-.0011052873-.0009332801-.0023201345-.0018807195-.0030545793-.0030873706-.0022854246-.0037549493-.004364932-.0076218858-.0089175744-.0091239514-.0004988752-.0001646555-.0008073783-.0008431218-.0012859705-.0011562354-.0013173266-.0008617864-.0026725573-.0016653265-.0040231564-.0024744446-.0013274414-.0007952806-.0026204924-.0016694027-.0040118704-.0023310281-.0027780712-.0013209982-.0054403006-.0034914469-.0090888881-.0011340311-.0037925378-.0075125267-.0048616245-.0149715269-.0034422444-.0229596237l.0025352082-.0024453215c.0007209761.0011410034.001421829.0023787084.0037345104.0015150449-.0002779455-.0016298747-.0005578076-.0032712806-.0008693451-.0050986882l.0021885349-.002737357.0000272569.0000196299c.0000824094-.0001208367.0001644995-.000241888.0002470154-.0003626711l.0000031942-.0000040225-.0000003194-.0000002682c.0006356387-.0009307057.0012734068-.001859856.0019033493-.0027944233.0005677627-.0008422637.0009348254-.0020906955.0017184072-.0024682767.0028906122-.0013927064.0041532654-.0040787896.005354697-.0066680104.0030077848-.0064820623.0058088007-.0130640442.0085822936-.0196531058.0014135242-.003357899.0011610255-.0069219123.0004494722-.0103770492-.0008532145-.0041425601-.0020375042-.0082148064-.0030169414-.0123323196-.0000064948-.0000271923-.0000141076-.0000532046-.0000206556-.0000803433l.0058703416-.0016603922c.0003091951-.0000790561.0006053474-.0001645482.0008951645-.0002532047l.0001099857-.0000311075-.0000005856-.0000032717c.00012404-.0000388308.0002506354-.0000762671.0003711619-.0001168142.0063556417-.0021383758.0078081346-.0067116146.0067962234-.0126118585.002111662-.0011540901.0039857847-.0021783866.005857565-.0032013958h0l.0000613812-.0000335747.0024346985-.0017444899c.0004375473-.0011391799.0009156072-.001872889.0009807149-.0026421036.0002893913-.0034178615-.0001466654-.0067959268-.00187194-.0097612807-.002193965-.0037707713-.004442284-.0075606898-.0071152139-.0109872399-.0072605484-.0093076468-.014893909-.0183228826-.01957139-.0293862288-.0010956516-.002591527-.0030521305-.004348889-.0060412294-.0043779048l-.0002803412-.0000913918-.0000535023-.0000174846h.0000000532l-.0000223591-.0000072942-.0000107005-.0000034862-.0001610391-.0000524538c-.0004045941-.0004222582-.0008058877-.0010018776-.0012171895-.0010092254-.0012541354-.0000224189-.0025139138.0002766427-.0037594249.0004463397-.0011582572-.0013411644-.0021427519-.0025917952-.0032395214-.0037326913-.0055232424-.0057447598-.014137318-.0072128752-.0200832016-.0030166277-.004434618.0031296876-.0078827716.0072998154-.0104422555.012146157l-.0000019165-.0000024135-.0006969667.0008615718c-.0006294633.0003928669-.0010769125.0008588365-.0013348413.0014017169l-.0024123394.0008207566c-.0015197834-.0006911776-.00292282-.0008065437-.0043006761-.0006694559-.0121182867.0012054175-.0242380108.0024016637-.0363429353.0037332277-.0035971081.0003956558-.0071741995.0010936449-.0107130141.001872299-.0029198921.0006424245-.005787666.0018295529-.0062500213.0052653281-.0004045409.0030053647-.0021207122.0046495059-.0044798154.0060374389-.0012487053.0007346209-.0023838048.0016660774-.0035650068.0025160644-.0018993566.0013666941-.0028815089.0031056061-.002692787.0055802652.0001966008.002578494.0002115601.0051845557.0001036506.0077699685-.0001764243.0042238152-.0010256994.008483404-.0006806232.0126513865.0006871712.0083012103.0025346758.0162812084.0106010054.0213176814-.001108375.0048087444-.000623075.0096554614.0016340812.0139841304.0019727691.0037831606.001403782.0072444118.0004171046.0109959822-.0006203067.0023589176-.0013382484.0049346227-.0010031273.0072656507.0019068629.0132652242.0068120877.0256855031.011128362.038262017.0007963584.0023205695.0026053201.0036294464.0050389539.0033552709.0016560145-.000186538.0032703984-.0009072141.0048589627-.0015085016.0026347064-.0009972651.0046978172-.0035003501.0078202725-.0031547882,0,.0041851989.0002159787.0082586788-.0000736255.012295366-.0002032021.0028334686-.0016691638.0037196583-.0045009502.0033772071-.0027336723-.0003305982-.005446689-.0008328778-.0081792965-.0011741491-.0008293648-.000103513-.0021657499-.0002520784-.0024644042.0001823546-.001750402.0025466892-.0044506421.0017006175-.0067600229.0022235461-.0024005209.0005436312-.0049176821.0008230628-.0071647235.0017546803-.0147701352.0061238964-.0242178343.0166932761-.0269025827.0329431088-.0009754445.005903891-.0009017658.0118305226.000726353.0174205492.0021343938.0073285631.0010210146.0141249725-.0013183913.0210002772-.0000941214.0002769913-.0001924484.0005539021-.0002639977.0008371953-.0026119746.0103480334-.0054768738.0206402341-.007745742.031064186-.0016760845.0077007542-.0015026946.0155686578.0022909079.0227117555.0050683934.0095435278.0107733306.0187142478.0177672728.0269988048.0005199567.0006159027.0012535498.0014053908.0012171895.0020773407-.0001313334.0024258525.0001904254.0049562907-.00159096.0071035965-.000663002.0007992763-.0009086333.0021019853-.0010027014.0032047211-.0006545375.0076724356.0000836339.0154418141-.0016332294.0230499965-.0002124119.0009417274.0001380944.0020181291.000256172.003028749.0001848356.0015811484.0005652606.0031611706.0005495027.0047384842-.0000198038.0019878528.0001959087.003806974.0017340586.0052020671.0011891341.001078547.0010028079.0022897033.0005257062.0036056331-.001335693.0036840187-.0025436195.007418185-.003977054.0110625953-.0050105258.0127391312-.0100949433.0254487103-.0152517087.0384221136-.0016356251,0-.0033548308.0000783588-.0050650928-.000012443-.0133441005-.0007082331-.0266851666-.0014744978-.040029693-.0021738277-.0194390717-.0010187186-.038879847-.0020032725-.0583205425-.0029898645-.0223402513-.0011338165-.0446812746-.002253581-.0670219252-.0033802643-.0095127004-.0004797535-.0191629629.0000931617-.0282379031-.003746797-.0002651423-.0001121481-.000557222-.0001706088-.0008424608-.0002219363-.0079036135-.0014215077-.0157976712-.0019182631-.0240777969.0000574417.0000901021.0015795126.0001668951.0029255577.0002268655.0039769929.0066841348.0009522128.0128677974.001653688.0189816408.0027504437.0073147161.001312095.0145778997.003178387.0210046115.0069997348.007865044.0046765373.0157891002.009412018.0229931917.0150271987.0191831926.0149521115.0378614144.0305613432.0569992232.0455741681.0128341522.0100679582.0259595855.0197970586.0407166246.0269621998.0040519837.0019673916.0081266194.0038877464.0121996048.0058108365.0016116688.0007608477.003191609.0014236531.0029090319.0037615999-.0002141155.0017711995.0011953095.0025170834.0025080046.0032079392.0113237916.0059599382.0226408222.0119328021.0339787213.0178652262.0041909565.0021927604.0080679267.001765997.0116548135-.0014827574.0010798937-.0009780642.0021536653-.0023407894.0040364654-.0020174318.0000494563.0007445431.0001352729.0013265224.0001197279.0019057664-.0003513048.0130511185-.0016371157.0259899817-.0046486803.0387162408-.0013050291.0055146712.0005680289.007424192.0061302401.0061403083.0025472396-.0005880399.0050573203-.0013383755.0076002478-.0019471717.0020905273-.0005005097.0042065547-.0010802365.0063747534-.0000609279.0003521034.0015067853.00072433.0029167081.0010083977.0043443837.0022844663.0114808845.0045958701.0229565666.006816666.0344500014.0052469472.0271550666.0104658923.0543160866.0135247305.0818388659.0000948134.0008529368.0005119181.0020672575.0001150964.0025137045-.0026445551.0029746325-.0007882665.0049543062.0014780463.0068689759-.0018480902.0022032726-.0032607094.0046673659-.0053396845.0062318074-.00944541.0071079677-.0193676556.0134546049-.0303081474.0180576103-.0028689451.0012071338-.0057543402.0017526958-.0088641254.0017794591-.0041639126.0000359346-.008446861-.0003384287-.0122320522.0021904005-.0006468183.0004320731-.0016885417.0002684367-.0025490496.0003696435-.0028519628.0003354788-.0058657633.0001415393-.0078683979.002937518-.000301955.0004215073-.0013010896.0003279701-.0019737806.0004892467-.0012504089.0002997588-.002497943.0006116924-.0040027138.0009814432-.0003374102.0037486205.0006887683.0076611993-.0019681908.0108625952-.0003886766.0004683295-.0001038636.0018017707.0002747514.0025166007.0001057801.000199571.0003340031.0003342989.0006261094.0004521321l.0090218638.0065155834c.0026490269.0003093592.005377908.0006671497.0079689076.0002171629.0031171317-.000541325.0060108316-.0002227408.0090109504.0005230359.0084743841.0021067856.0169082023.0018741226.0253356321-.0005119337.0029118002-.0008244573.0059615883-.0014171634.0089745902-.0015625644.0072411705-.0003495845.0144993765-.0005514081.0217478936-.0004877449.0140853063.0001236793.0277604287-.0019165468.0409100046-.0071369299.0048643928-.0019310279.0069032279-.0056132499.0059627595-.010705073-.0002368473-.0012824355-.0005714892-.0026158231-.0004468104-.0038844211.0004712457-.0047938342-.0005944872-.0092931657-.0021288573-.0137636423-.001565247-.0045606885-.0030027274-.0091662683-.0044698071-.0137606924-.0006047085-.0018938598-.0006117889-.0035215891.000972623-.0052124989.0018361654-.0019594538.0017874543-.0033570945-.0002141155-.0052233865-.0012341719-.0011507111-.0010961307-.0022787889-.0010588655-.0035171375.0003674354-.0121998443.0020476723-.0241321637.0058391453-.0358242042.0055503928-.0171158025.0105470241-.034410956.0127298095-.0523784617.0001617844-.0013323685.0003855889-.0026570674.0007026097-.0048166821.0006562411.001348834.0009657023.0018268713.0011323312.0023510335.0030566023.0096156652.0061792173.0192111104.009117955.0288634074.0036197335.0118886616.0071772872.0237986157.0105678394.0357551776.0013540062.0047749015.0016085811.0099340348.0034211629.0144909153.0019232596.0048350249-.0005603097.0101619244.0023769374.01472685.0003820221.0005936715-.0002449924.0019797273-.0006203067.0029103257-.0010386358.0025745251-.0024549814.0050216702-.0032498492.0076635056-.002506514.0083303871-.0072859953.0150547664-.0137223428.0207050773-.0004220556.0003705553-.0009763496.0008304643-.0010552454.0013169756-.0005819235.0035864859-.0025695987.007228429.0002369005.0107606911.0047951327.0016219369.009735174.0016270321.0145725761.0005530708.0053910573-.0011969434.0103192269-.000079217.0152910501.0018107811.0021486079.0008167341.0044445732.0015355866.0067134413.0016853319.0119353676.0007880937.0229179159-.0028010202.033553791-.0078085847.0028957761-.0013633151.0038372561-.0056269265.0023617651-.0079887404-.0012412522-.0019870751-.0013455949-.0040751425-.0019486532-.0061300643-.0011493136-.0039162795-.0025027342-.0077710948-.0037129498-.0116698361-.0012959257-.004174794-.0026056395-.0083485689-.0037420167-.0125685224-.0004489398-.0016668283-.000594434-.0033890602.0009674059-.004880989.0005462553-.0005217487.0008024273-.0022955762.000388091-.0027440612-.0030057618-.0032535814-.0018928618-.0071171926-.0018181183-.0108002728.0000979544-.004829447.0002992932-.0096586794.0005586061-.0144824412.0006994687-.0130090697.0015827616-.0260096116.0021347132-.0390246882.0003095145-.0072955247.0003691389-.0146241951.0000682486-.0219181108-.000391711-.0094962765-.0029408138-.0184617403-.0078674396-.0266574531-.0018056611-.0030037556-.0037216273-.0059499623-.0053475102-.0090500977-.0009630938-.0018363644-.0014578166-.0039222865-.0024130847-.0065953903.0030115113.0004039154.0052407718.0003661037.0072296183.0010443019.0034593864.0011796733.0064954396.0003161171.0096586205-.0009662112.002992932-.001213248.0048871779-.0029794059.0044969575-.0064890883-.0000256066-.0002302495.0002556396-.0004952.0004923272-.000920408.0063414809-.003370342.0118624874-.008085281.0168811583-.0134290752.0051004416-.0054307344.0052484378-.0068223145.0016100718-.0133652511-.0015921844-.0028633962-.0031501913-.0057459933-.0047648414-.0086949353.0010122307-.0005486728.0014936977-.0008887105.0020270167-.0010873697.0171505329-.0063877206.0328644371-.0154955282.0478978779-.0258492468.0111522117-.0076806684.022094833-.0156725195.033294691-.023280675.0156814835-.0106526728.0316809992-.0206942969.0500056004-.0263552808.0113916676-.0035192292.0226913432-.0072879624.0346185657-.0085328543.0024163853-.0002522929.0048446955-.000387289.0071641911-.0005682491.0009195999-.0050724076.0004157737-.006037278-.0040306095-.0061204102Z"/>
    </clipPath>
  </defs>
</svg>