<?xml version="1.0" encoding="UTF-8"?>
<svg data-name="Layer 1"
  xmlns="http://www.w3.org/2000/svg" width="1" height="1" viewBox="0 0 1 1">
  <defs>
    <clipPath id="1340563f2b137b2d47e1b6c701111601" clipPathUnits="objectBoundingBox">
      <path class="cls-2" d="M.7860718912.6175895797c-.0008828462-.0025129318-.001791769-.0043020778-.0000374637-.0066338115.000768633-.0010217031.0010894092-.0023546749.0015183634-.003575219.0028988283-.0082501835-.0003074532-.0145189497-.0084840006-.0184396638-.0105039682-.0050367249-.0218585569-.0050527785-.0331308166-.0056526396-.0040235377-.0002142058-.0080913715.0002901289-.0128738631.0004985068-.0006185503-.0002777312-.0022506714-.0010106828-.0038916744-.0017476612-.0016796055-.0033789211-.0027629795-.0044202275-.0050105764-.0041164292l.0000006832-.0000009537-.000008882.0000018014-.0000063768.0000006358.0000004555.0000005298c-.0008952582.0001454353-.0021206301.0005034871-.0034882275.0009877947-.0030032485.0010635058-.0071012582.0021505886-.0096526644.0010704464-.0057482364-.0024338828-.0115420213-.0027142631-.0175490878-.0028904809-.0018344708-.0000537237-.0036337554-.000793616-.0054760833-.0010524856-.0018890153-.0002654394-.0038111672-.0003265805-.0057188575-.0004771021-.0001956313.0004814996-.0003912627.0009629991-.0005871218.0014444457-.0024436837-.0027711656-.0053147273-.0053119659-.0072210511-.0083729956-.002280278-.0036615266-.0074323967-.0066405932-.004295463-.0118729803.002367162.005276574.0026388595.0055048731.0065300785.0052438842-.0006380224-.0073132515.0001596479-.0140808953.0046087237-.0207384957.0056843544-.008506457.0064485465-.0176972813-.0009123389-.0262306531-.0004198444-.0004865858-.0006477014-.0011165407-.0012097715-.0021146668.0047437753.0008417765.0085641662.0018468433.0104046722.0061043633.000344917.0007976956.0020753092.0010766453.0031661987.0015949673.0003237368-.0008259879.001153405-.0018374655.0008943472-.0024497774-.0032421511-.0076587465-.0070905543-.0149142477-.0168008377-.0170088344-.0022133215-.0004774729-.0045468914-.0004723867-.006975544-.0007037587.0002135092-.0010369089.0004579914-.0018683539.0005473806-.0027138922.0008261382-.0078099569.0003904656-.0154154566-.0055930294-.021613174-.0013341192-.0013819271-.0037072025-.0018952688-.0056019114-.0028084649-.0003333021.0003768603-.000666718.0007537736-.0010001339.0011306339.004017958.0076276991.0066133186.0152361658-.0001610144.0228478644-.0034228652-.0047236549-.0083014645-.0048034986-.0137825582-.0038500892-.0067878837.0011807018-.013671875.0018825001-.0193230928.0026329888-.0017662618-.0013125208-.0028832279-.0028232998-.0038269954-.002734926-.006841745.0006406572-.0139926512.0001056459-.0201240653.0039846632-.0006331259.0004005962-.0017006718.0004563332-.0025067685.0003329913-.0144684066-.0022146437-.0254673744-.014137374-.02580284-.0277909173-.0000286956-.0011690987-.00067913-.002324952-.0010407861-.0034869512-.001289937.0005744828-.0029532589.0008486112-.0038103701.0017712911-.0063952546.0068844689-.0097547503.0152373844-.0082696374.0239902072.0011606359.0068407059.0052244841.0132548544.0081851447.0203036202-.0085364954.0091172854-.0142231842.0224508709-.0289279311.0279676649.0086340833.0076112747.0167699216.0012057622.0249123644.0008881887-.0038185689.0056272083-.0062764865.0116097662-.0037976165.018468168.0058951307.001027743.0047386511-.0056508382.0095249005-.0065983666.0004056105.0030223529.0014054028.0060988002.0011168523.0090667937-.0013523386.0139138963.0060103687.0225692855.0206863631.0240888066.0009663141.0001000828.0017546469.0016894341.0026258782.0025859939-.0029894701.0006444719-.0024143048.0059871674-.0076480695.0043058925-.0051285473-.0016475254-.0074351296.0009293556-.0063228323.005841785.0005013765.002213743.0009963762.0044288105.0014511792.0064513418-.0031066439.0038144853-.0061554411.0075579749-.0091744039.0112646951-.0002159005-.0006154378-.0003465112-.0013519393-.000710103-.0019696024-.0046771605-.0079446369-.0092887309-.0159263081-.0142209637-.0237321854-.0005809727-.000919554-.0033458881-.0016033914-.0044608614-.0011208322-.0095897504.0041510794-.0191211416.0084404945-.0284672068.0130447282-.0028921668.0014247894-.0051615131.003944185-.0072715532.0056111548.0016622401.0028399891.0032859347.0056376457.00489921.0084162818-.0049344533.0021691322-.0071454404.0066214138-.0056951722.0114119848.001505382.0049724049.0036226529.0098195606.0046695311.0148657163.0008364435.0040317641.0030256243.0067163573.0062231377.0092256864.002169424.0017025206.0049506799.003747993.0054955554.0060435401.0020381871.0085865657.0032680568.0173393355.0048611769.0263711611-.0017212256-.0005704562-.0032391904-.0012705061-.0048434699-.0015679465-.0046345725-.0008594195-.0094406925-.0026262601-.0139352599-.0021283362-.0173117225.001917998-.0282535268.0132281515-.0301317813.0296989017-.0006750875.0059204102.0005961746.0109234386.0046640083.0157145924.0098846208.0116423501.022589954.0203500854.0353256909.0287384457.0165635294.0109096633.033899051.0208667649.0513860788.030471007.0078062371.0042873489.0165497509.0085343255.0253010081.0095426242.0118387706.0013640722.0241398598.0000544124.0361574088-.000972271.0101499415-.0008671549.0202078748-.0028172069.0302541932-.0045509338.0181223172-.003127416.036161622-.0065865517.0534341157-.0128319528.0076471585-.0027651257.0138866368-.0072129567.0181977002-.0136120584.0044233408-.0065657828.0090341141-.0131809976.0121645572-.0203065342.0052351311-.0119164255.0091666606-.0243221389.0139904876-.0364030202.0096314843-.0241208606.0175461271-.0486309263.0191424925-.0744841364.0002999377-.0048566394-.0009180325-.0100015004-.0025588078-.0146715906ZM.5662199561.665760729c-.0031977412-.0032672352-.0055617147-.0056826274-.0082780069-.0084580845.0029602051-.0014849769.0057744268-.0028968387.009426971-.0047292709-.0003966146.0045522054-.0007329912.0084133148-.001148964.0131873555Z"/>
    </clipPath>
  </defs>
</svg>