<?xml version="1.0" encoding="UTF-8"?>
<svg data-name="Layer 1"
  xmlns="http://www.w3.org/2000/svg" width="1" height="1" viewBox="0 0 1 1">
  <defs>
    <clipPath id="af73137482ce1f4dc052845dc1437928" clipPathUnits="objectBoundingBox">
      <path class="cls-1" d="M.252261941.3741190974c-.0000867251-.0060267018.0061547738-.0104968771.0160469096-.011713811.0034802199-.0004281039.0055060127-.0013239274.00663298-.0033281836.0021548005-.0038322696.0062303768-.0067961659.0132105331-.0083229546.004964061-.0010858175.0098089036-.0023687515.0145672508-.003720987.0018371759-.0005221001.0035203883-.0013654667.0048767383-.0022559353.0068624546-.004505164.0146030991-.0083570074.0249134642-.0099957806.0025319422-.0004024213.0059562297-.0000981553.008383155.0005667587.0103134904.0028256574.0204523815.0058601288.0305653517.0089133683.0084885856.0025628007.0168372712.0052736143.0253010847.0078632673.0007056587.0002158846.0019201784.0001548494.0027246954-.0000253447.0171149571-.0038338032.0341076625-.0078501401.0513428031-.0115006299.0080613942-.0017074247.0127264901-.0040874839.0147975527-.0092536887.0078064581-.0194731262.0204510028-.0380795169.0349892533-.0562266101.0096671192-.0120668168.0210588601-.0236670837.0352774639-.0342732678.0059780144-.0044592576.0148873112-.0065588358.0235706722-.0087549577.0028931362-.000731694.0059635832-.0012391592.0091326588-.0018857992-.0051177488-.0010900026-.0101896302-.0019279623-.0148601952-.0032274288-.0056181533-.0015631031-.0115348581-.0033689951-.0131467876-.0071116875-.0010994377-.0025529748-.001226561-.0053876263-.0005853832-.0080020001.0013577288-.005536263-.0001899956-.0109034576-.0019152148-.0162625938-.0020889868-.0064891185-.0017941581-.0129823961-.0011811073-.019507283.000063194-.0006728944-.0006253219-.0015323255-.0014651356-.0020411425-.0045565401-.0027607231-.0101458769-.0050161124-.0111585435-.0092425631-.0006751417-.002818015.0007464245-.0048134591.0043025232-.006795646.0063009702-.0035121209.012280777-.0072242438.0180546863-.0110183014.0047025987-.0030901777.0057792406-.0071032652.007525601-.0109144273.0004837673-.0010556379.0011086296-.0020906361.0016601408-.0031189277-.0013400805-.0011132417-.0028903786-.0022977605-.0042458095-.003549813-.0023650641-.0021846843-.002613428-.0043180034-.0017437867-.0070084372.0016720902-.0051731714.0052627962-.0098009776.0102512156-.014014171.0062434752-.0052733023.0135411641-.0101443653.0202068212-.0152627402.0014799805-.0011364808.002507446-.0025311914.0032449084-.0038933047.0017893783-.0033052045.0030638289-.0067041452.0050444897-.0099684863.0005431467-.0008951476.0026659135-.0018328743.0043753227-.002090948.0068147489-.0010288115.0136881419-.0020552835.0206574059-.0026102667.0165106846-.0013147513.0329528899-.0024262254.048362758-.0065879497.0072849123-.001967422.015510427-.0035392072.0234572447-.0037888067.0070089728-.0002201737.0145239572.0012056783.0212855772.0026813877.0156190747.0034088187.0309942895.0071890992.0463238208.0110044723.0165077432.0041086434.0315748471.0095191969.04494587.0164304665.0055903939.0028895519.0086375856.0065551966.011250554.0104044666.0060773784.008952828.008862786.0183324343.0111453073.0277769748.0000895287.000370578.00077184.0008208033.0013910033.0010062483.0111367588.0033349422.0159431795.0087989404.0161679203.0156686188.0002481801.0075900388.0001954188.0151837688.0001490919.0227756793-.0000047798.0007856587-.0008127438.0015788038-.0013241785.002352401-.0007896722.0011945526-.0009122915.0023671659.0015520446.002856227.0057506079.0011412119.0070070425.0035778871.0026859518.0064552216.0037524826.0039195072.0077069103.0079038448.0114106761.011961331.0034403273.0037688429.0064768564.007655909.0099363946.0114188771.0051272164.0055769704.0104826665.011086667.0157131993.0166334318.0012264691.0013005583.003870598.0030103745.0032038208.0038790077-.0016203401.0021107038-.004444905.0040580581-.0074857543.0056398252-.0019423307.0010104074-.005135581.0012515326-.0081626424.0019254668.0021198255.0022774847.004433691.0047411423.0067118001.0072152497.0047997106.0052125791.0100108486.0103203483.0120684452.0161984393.0004686927.0013391342-.0000978013.0022656312-.0012126813.0034953805-.0030433311.0033568296-.0086735257.0036196343-.0139742843.0044177184-.0026290542.0003957927-.004118778-.0001063696-.0051397173-.0016169637-.0055042662-.0081448141-.0115447853-.0161534688-.0199272049-.0235219822-.0002568204-.0002257365-.0005295427-.0004455982-.0014797047-.0005854488.0001721634.0006728944.0003314583.0013468806.0005199832.0020183193.0001957865.0006979531.0004038901.0013950744.0006338703.0020897003.0027795248.0083967531.0038439416.0168697221.0032150349.0253972276-.0001040518.0014100993-.0012720607.0027951398-.0019483974.0041917739-.0005370801-.0000384719-.0019036077.0048378685-.0019036077.0048378685.0047006661.0041756882.0091532342.0084585031.0132534338.0128729326.0069006928.0074296006.0140150042.0148621385.0171699244.0232273602.0041520525.0110093593.0061214993.0221603108.0056590571.0333726613-.0004935107.011970455-.0020336978.0239285107-.0032490448.0358876581-.0009570559.0094170124-.0023971437.0188207155-.0031107993.0282427188-.0008586111.0113349408-.002007501.0226943684-.0015268589.0340227585.0006835063.0161075105.0038542365.0321286151.0091805484.0479817431.0015261236.0045420242.0002581073.0087244921-.0044948168.0126991077.0110180001.0035875051.0110448403.008567862.0050409968.0142904018.000359953.0000015077.000719998.0000029634.0010800429.0000044711.0005726525-.000460831.001145397-.0009216621.0017181414-.0013824931l.0010489744.0001556552c-.0003587581.0012359879-.0001937643.0026299706-.0011807856.0036763544-.0023481511.0024896001-.0050715137.0048836443-.0079833094.0071783374-.001533569.0012084857-.0018505041.0023175163-.0014347566.0037270437.0021864664.0074120803.0051946846.0147989978.0061203043.0222658745.0015141742.0122155575.0041674029.0244913702.0007782743.0367370813-.0043420482.0156887906-.0100525796.0311891208-.0173560594.0465669648-.0108868323.0229231202-.0209744329.0460022597-.0266469101.0695825752-.0033461107.0139096214-.0069141129.0278198666-.0090870672.0417942668-.0010318776.0066368194.0008205568.0134305418.0017173142.0201381703.0001748291.0013074209.0007950954.0028025223.0042873566.0033372817.0027431251.0004200196.0024044972.0041414485-.0006566661.0053383406-.0091621647.0035821502-.0184315983.0070845524-.0278659338.0104317121-.0036444783.0012931239-.0078446043.0020852292-.0120473039.0031716966.0079033402.0066871968.008584089.0143924434.011516842.021721965.0051996482.0129948735.0043126342.0260517764.0010827085.0391271289-.0057525382.0232872516-.0156348847.0460970357-.0249461413.0689715982-.0051763009.0127163161-.0107918805.0253777317-.0156663208.0381303362-.0028292528.0074018904-.0052990121.014897985-.0065277792.022425065-.000648853.0039744596.0017369847.0081039507.0026881578.0121682474.0002270388.0009700119.0001957865.0019594677.0002833849.0029399813h-.1965322334c-.0026910992-.0050664379-.0049681973-.0102177219-.0081510607-.0151834049-.0094870048-.0148006615-.0194867313-.0294960971-.028998738-.0442917676-.0168951339-.0262798459-.033348783-.0526509845-.0504581791-.0788857039-.0073808293-.0113173425-.0162786362-.022315992-.0238559873-.033595129-.0070010678-.010421415-.0135958557-.0209453004-.0195732266-.0315674452-.0070029981-.0124447805-.0066426314-.0253086935-.0048815181-.0381683434.0004058663-.0029632724.0012768405-.005906685.0016476399-.0088706333.0000864953-.0006914545-.0006614458-.0016379673-.0015909721-.0021135632-.0078016324-.0039913561-.01573503-.0079003623-.0239832026-.0120107214-.0003504854.0000350406-.0014097087.0001410983-.0032054294.0003208245.0013220644-.0038292022.0026069937-.0074138481.003791594-.0110090478.0028852771-.0087567257.0060041652-.0174926554.0085167127-.0262838511.003894267-.0136258127.0074964628-.0272796475.0109637681-.0409426843.0022955737-.0090456805.004433645-.0181112208.0060600058-.027201196.0008160988-.0045613641.0003619293-.0091970207.0003998457-.0137993522.0000050096-.0006096757-.0002765369-.0012800226-.0007728511-.001820085-.0016171229-.0017596217-.0014224854-.0035092615-.000528118-.0053546132.0013045999-.0026918376.002326826-.0054273979.0036258189-.0081201713.0002406427-.000498887.0012207242-.0008836581.0021976345-.0011146454.0033372866-.0070986902.0029590877-.0145852708.0033243261-.0220429455.000628539-.0128315238.0011221416-.0256667389.0020731768-.0384909323.0004610634-.0062175276.0013685292-.0124529395.0030093212-.0186003859.0006823573-.0025563021.0038065767-.004904128.0061124912-.0077010355-.0005063793-.0004445585-.0014263-.0014598138-.0026815397-.0023182052-.0052951975-.003621038-.0067252203-.0079213651-.0059078346-.0123517688.0010112419-.0054813625.0028675828-.0109146872.0044590605-.0163593975.0014862309-.005084634.0030254529-.0101654209.0047189142-.0152288954.000417494-.0012483613-.000398329-.0017447009-.0022200167-.0021856201-.0121689581-.0029452322-.0243632398-.0058605707-.0364327421-.0089321364-.0046205614-.0011759405-.0089223952-.0027499093-.0134006207-.0041097352-.0008081938-.0002453884-.001815713-.0005259213-.002650655-.0004606231-.0095018497.0007435475-.0189516275.0019922208-.0284865678.0022444717-.0168933875.0004469499-.0338359973.0003019525-.0507580633.0003980802-.0056045953.0000318173-.0105445736-.0010733661-.0150776745-.0028612699-.0088285463-.0034820713-.0176255646-.006990605-.0265325175-.010407326-.0012887439-.000494364-.0031174174-.000764967-.0046894543-.0007559729-.0057288232.0000326491-.0115731421.0007327338-.0169284084-.0010061963-.0023754509-.0007713097-.0049288562-.0015263988-.0067810608-.0026238359-.0052898203-.0031342904-.011560825-.0036013082-.018751337-.0030396444-.0033411931.0002609851-.0070455104.0000218874-.0102971289-.0005317701-.0080981156-.0013789058-.0160933744-.002974944-.024006412-.0046683836-.0046397264-.0009929131-.0040457947-.0035724023-.0042574372-.0057298962-.0001867325-.0019032935.0014528645-.0033652778.0049770215-.0036328915.0081685252-.0006203335.0163649937-.0011287865.0245618298-.0016201351.0020975812-.0001257355.0042387777-.000018846.0064944128-.0005287807-.0019516145-.0002181981-.0038956917-.0004612209-.0058559925-.0006504871-.0124315694-.0012002974-.0248709059-.0023750682-.0372900664-.0036147733-.0007494119-.0000748123-.0017736602-.0005773385-.0019463752-.0009800978-.0011471894-.0026749411-.0021504343-.0053712237-.0030555562-.0080760845-.0001423818-.0004254785.0003826569-.000945733.0007137475-.0013951264.0067131789-.0091132403.0134090772-.0182306657.0201880698-.0273282833.0023881357-.0032049696.0028580233-.003430862.0086771565-.0030503801.0132820917.0008683993.0265373891.0018684088.0398013269.0028249555"/>
    </clipPath>
  </defs>
</svg>