<?xml version="1.0" standalone="no"?>
<!DOCTYPE svg PUBLIC "-//W3C//DTD SVG 20010904//EN"
 "http://www.w3.org/TR/2001/REC-SVG-20010904/DTD/svg10.dtd">
<svg version="1.0" xmlns="http://www.w3.org/2000/svg"
 width="425.000000pt" height="425.000000pt" viewBox="0 0 425.000000 425.000000"
 preserveAspectRatio="xMidYMid meet">
<metadata>
Created by potrace 1.14, written by Peter Selinger 2001-2017
</metadata>
<g transform="translate(0.000000,425.000000) scale(0.100000,-0.100000)"
fill="#000000" stroke="none">
<path d="M0 3684 c0 -370 4 -572 10 -585 12 -22 36 -25 43 -5 7 17 41 11 58
-10 13 -16 9 -24 -13 -28 -7 -1 -19 -5 -26 -10 -7 -4 -16 -5 -20 -1 -3 3 0 10
8 15 27 17 3 20 -28 4 l-32 -15 0 -1525 0 -1524 54 0 c50 0 54 1 49 21 -6 21
-4 22 59 17 36 -3 76 -13 90 -22 36 -24 124 -18 120 7 -2 14 5 17 45 17 26 0
80 7 118 15 39 9 122 25 185 36 309 53 438 91 510 148 36 29 81 55 83 49 1 -2
8 -13 14 -25 11 -18 10 -31 -1 -64 -8 -23 -12 -48 -9 -55 3 -8 1 -20 -5 -27
-5 -6 -8 -21 -6 -33 7 -42 -41 -53 -266 -58 -113 -2 -216 -9 -230 -15 -17 -7
517 -10 1708 -10 l1732 -1 0 405 0 405 -26 10 c-14 6 -22 14 -19 20 9 14 32
12 38 -2 3 -7 6 290 6 660 1 658 1 672 -18 672 -25 0 -36 -33 -21 -60 7 -12 9
-24 6 -27 -10 -10 -46 29 -46 50 0 11 -5 35 -12 53 -9 27 -9 35 5 49 10 9 17
27 17 41 0 17 5 24 20 24 11 0 20 -6 20 -14 0 -7 7 -19 15 -26 13 -11 15 100
15 989 l0 1001 -2125 0 -2125 0 0 -566z m1455 206 c33 -4 87 -3 120 2 53 8 61
7 75 -10 8 -10 38 -29 65 -42 58 -27 174 -99 259 -162 32 -24 94 -68 136 -98
42 -30 115 -83 161 -118 172 -130 435 -286 513 -306 16 -4 36 -15 45 -25 23
-27 147 -75 282 -109 122 -32 168 -52 289 -126 41 -25 79 -46 85 -46 6 0 46
-22 88 -49 86 -54 185 -143 235 -211 18 -25 55 -73 82 -108 82 -104 111 -240
70 -331 -25 -55 -26 -55 10 -68 35 -13 50 -41 29 -54 -26 -16 -44 -9 -58 23
l-14 32 -34 -39 c-18 -22 -32 -44 -29 -50 2 -6 14 -53 26 -105 12 -52 33 -134
46 -181 37 -129 42 -263 15 -362 -12 -43 -30 -96 -41 -117 -33 -65 -201 -205
-366 -306 -18 -11 -66 -52 -106 -91 -92 -88 -129 -109 -168 -93 -16 7 -38 9
-49 5 -25 -8 -94 22 -139 60 -57 48 -125 163 -296 502 -36 72 -73 136 -81 143
-9 8 -28 33 -42 57 -13 24 -32 43 -42 43 -9 0 -52 -13 -94 -30 -43 -16 -89
-30 -102 -30 -56 0 -47 65 25 176 22 33 40 66 40 73 0 19 -38 69 -62 82 -16 8
-27 6 -57 -14 -106 -70 -193 -98 -223 -71 -27 25 -23 51 27 153 51 105 51 102
-24 150 -54 35 -79 38 -123 15 -44 -23 -194 -74 -217 -74 -38 0 -45 25 -28 93
27 109 36 151 32 157 -9 14 -146 90 -162 90 -10 0 -67 -18 -126 -41 -146 -54
-157 -44 -121 113 19 83 21 80 -81 129 -70 34 -105 35 -200 9 -89 -25 -110
-25 -135 0 -15 15 -21 33 -20 68 0 26 0 64 0 84 1 44 -28 78 -65 78 -14 0 -25
5 -25 11 0 6 9 8 21 4 20 -7 21 -4 15 21 -4 16 -24 45 -45 64 -21 19 -48 49
-60 67 -21 31 -92 306 -126 488 -23 123 -17 301 12 366 24 54 36 64 62 50 13
-8 45 -5 112 9 107 23 387 57 469 58 30 0 82 -3 115 -8z m-1305 -470 c0 -11
-4 -20 -9 -20 -10 0 3 -57 15 -69 3 -3 16 6 29 21 13 15 25 24 28 21 8 -7 -3
-34 -21 -56 -18 -20 -5 -41 19 -32 23 9 42 70 30 94 -15 27 -14 31 7 31 71 -1
277 -114 349 -192 28 -30 19 -83 -14 -83 -30 0 -36 -10 -35 -50 1 -26 -5 -41
-26 -60 -27 -26 -52 -29 -59 -9 -2 6 5 14 17 17 28 7 25 41 -6 66 -22 17 -24
22 -10 27 33 13 16 27 -24 20 -43 -7 -106 13 -126 40 -7 8 -45 24 -85 36 -102
29 -175 71 -182 106 -7 35 12 76 38 80 11 3 24 10 28 18 12 21 37 17 37 -6z
m450 -322 c0 -19 -18 -43 -25 -36 -9 9 4 48 16 48 5 0 9 -6 9 -12z m-290 -33
c23 7 120 -42 120 -61 0 -8 -10 -14 -25 -14 -15 0 -28 -7 -32 -17 -3 -10 -11
-24 -17 -32 -6 -7 -10 -23 -11 -35 0 -14 -7 -22 -24 -24 -36 -6 -50 15 -18 27
31 12 34 23 12 41 -19 16 -45 6 -52 -20 -7 -27 -25 -25 -53 5 -13 14 -29 25
-36 25 -7 0 -18 9 -24 19 -8 17 -6 20 13 23 15 2 22 10 22 25 0 11 3 25 8 29
4 4 7 15 7 25 0 17 3 17 45 -2 25 -11 54 -17 65 -14z m-190 -35 c11 -7 12 -14
4 -27 -17 -28 -30 -25 -32 7 -2 32 3 36 28 20z m514 -80 c72 -72 113 -100 144
-100 24 0 31 -25 8 -33 -7 -3 -31 -1 -52 4 -55 12 -54 13 -54 -26 0 -37 -18
-85 -32 -85 -4 0 -17 15 -28 32 -13 21 -28 33 -42 33 -30 0 -53 46 -38 75 12
22 1 27 -18 8 -19 -19 -32 7 -27 52 2 19 4 38 4 41 2 12 50 59 62 59 6 0 39
-27 73 -60z m-177 4 c-3 -3 -12 -4 -19 -1 -8 3 -5 6 6 6 11 1 17 -2 13 -5z
m283 -164 c0 -5 -7 -10 -16 -10 -8 0 -12 5 -9 10 3 6 10 10 16 10 5 0 9 -4 9
-10z m-203 -251 c39 -36 49 -40 76 -34 74 15 137 21 151 13 21 -12 20 -36 -5
-118 l-20 -68 20 -40 c25 -49 105 -130 135 -138 15 -3 44 6 87 30 76 41 128
53 160 35 49 -25 50 -54 9 -167 -41 -112 -40 -121 20 -171 l50 -42 52 39 c104
77 143 88 183 47 31 -30 31 -50 -1 -176 l-25 -102 33 -34 c18 -18 57 -48 87
-66 29 -18 64 -39 77 -47 23 -15 26 -13 80 48 63 71 93 79 141 38 27 -24 28
-27 28 -123 0 -54 3 -103 8 -110 4 -6 33 -21 64 -33 l56 -21 44 45 c77 80 125
58 147 -68 16 -90 23 -99 106 -123 30 -9 79 -27 108 -40 29 -13 134 -51 233
-83 98 -32 192 -68 208 -79 43 -31 91 -109 91 -147 0 -18 5 -44 11 -58 26 -57
-11 -91 -225 -201 -77 -40 -136 -63 -205 -78 -124 -28 -265 -29 -336 -3 -59
23 -151 106 -251 226 -58 70 -84 93 -140 122 -41 21 -92 39 -124 43 -100 13
-157 49 -220 140 -35 52 -85 173 -99 246 -11 52 -18 62 -104 147 -73 72 -109
98 -167 125 -41 19 -112 59 -157 90 -45 30 -126 77 -180 105 -54 28 -108 61
-120 74 -81 88 -193 336 -193 429 0 24 -7 75 -15 114 -24 113 -17 194 21 236
26 29 52 23 101 -22z m3645 -1719 c12 -11 19 -23 15 -26 -8 -9 -63 14 -78 32
-19 23 38 18 63 -6z m-929 -157 c-7 -2 -19 -2 -25 0 -7 3 -2 5 12 5 14 0 19
-2 13 -5z m544 -160 c9 -16 17 -29 18 -30 1 -1 30 -9 66 -18 124 -30 137 -35
142 -55 11 -44 -57 -90 -154 -105 -35 -5 -48 -13 -61 -36 -9 -16 -31 -37 -49
-48 -43 -26 -177 -49 -339 -57 -127 -6 -139 -5 -178 15 -23 12 -42 25 -42 30
0 5 -35 10 -78 13 -137 8 -204 63 -131 107 18 11 60 30 93 42 68 25 76 32 76
70 0 49 19 54 260 73 124 10 227 20 229 22 2 2 33 4 67 4 58 0 65 -2 81 -27z
m-2427 -313 c0 -5 -5 -10 -11 -10 -5 0 -7 5 -4 10 3 6 8 10 11 10 2 0 4 -4 4
-10z"/>
<path d="M950 3555 c0 -23 62 -135 87 -157 10 -9 45 -27 78 -41 33 -14 80 -37
105 -51 25 -14 50 -26 57 -26 16 0 153 80 153 90 0 22 -103 97 -197 143 -98
47 -112 51 -194 55 -80 4 -89 3 -89 -13z"/>
<path d="M1971 3139 c-23 -4 -64 -21 -90 -35 -53 -32 -161 -136 -161 -156 0
-8 42 -26 108 -47 210 -67 212 -68 279 -139 l62 -67 28 26 c15 14 44 36 63 49
19 13 53 40 75 60 22 19 77 51 123 70 45 18 82 40 82 47 0 32 -237 154 -365
187 -64 17 -134 19 -204 5z"/>
<path d="M2733 2613 c-23 -9 -14 -33 11 -33 29 0 44 19 25 31 -15 10 -18 10
-36 2z"/>
<path d="M2545 2376 c-33 -33 -44 -95 -20 -113 11 -7 26 -13 35 -13 9 0 42 -9
73 -20 44 -16 62 -18 77 -10 24 13 95 149 83 160 -4 4 -57 10 -116 13 -105 6
-110 5 -132 -17z"/>
<path d="M342 3324 c-34 -23 -13 -54 36 -54 30 0 43 -6 62 -30 24 -27 70 -41
70 -20 0 15 -58 70 -75 70 -8 0 -25 11 -37 25 -25 29 -27 30 -56 9z"/>
<path d="M610 2865 c0 -39 14 -60 34 -52 21 8 20 16 -9 52 l-25 30 0 -30z"/>
</g>
</svg>
