<svg version="1.1" viewBox="0.0 0.0 690.3333333333334 797.3333333333334" fill="none" stroke="none" stroke-linecap="square" stroke-miterlimit="10" xmlns:xlink="http://www.w3.org/1999/xlink" xmlns="http://www.w3.org/2000/svg"><clipPath id="p.0"><path d="m0 0l690.3333 0l0 797.3333l-690.3333 0l0 -797.3333z" clip-rule="nonzero"/></clipPath><g clip-path="url(#p.0)"><path fill="#ffffff" d="m0 0l690.3333 0l0 797.3333l-690.3333 0z" fill-rule="evenodd"/><path fill="#000000" fill-opacity="0.0" d="m7.4908137 591.7192l337.35434 -584.22046l337.3543 584.22046z" fill-rule="evenodd"/><path stroke="#000000" stroke-width="8.0" stroke-linejoin="round" stroke-linecap="butt" d="m7.4908137 591.7192l337.35434 -584.22046l337.3543 584.22046z" fill-rule="evenodd"/><path fill="#000000" fill-opacity="0.0" d="m7.50659 202.11285l337.35434 584.22046l337.35434 -584.22046z" fill-rule="evenodd"/><path stroke="#000000" stroke-width="8.0" stroke-linejoin="round" stroke-linecap="butt" d="m7.50659 202.11285l337.35434 584.22046l337.35434 -584.22046z" fill-rule="evenodd"/><path fill="#000000" fill-opacity="0.0" d="m244.30551 85.61877l199.87402 0l0 130.01575l-199.87402 0z" fill-rule="evenodd"/><path fill="#000000" d="m303.24048 100.86064l9.515625 14.671875l0.0625 0l0 -14.671875l2.265625 0l0 18.078125l-2.625 0l-9.453125 -14.515625l-0.046875 0l0 14.515625l-2.28125 0l0 -18.078125l2.5625 0zm17.541168 4.984375l0 8.921875q0 1.109375 0.703125 1.84375q0.71875 0.734375 1.96875 0.734375q1.859375 0 2.859375 -1.125q1.015625 -1.140625 1.015625 -2.890625l0 -7.484375l2.15625 0l0 13.09375l-2.03125 0l0 -2.078125l-0.046875 0q-0.71875 1.25 -1.796875 1.828125q-1.078125 0.5625 -2.46875 0.5625q-2.296875 0 -3.40625 -1.171875q-1.09375 -1.1875 -1.09375 -3.5l0 -8.734375l2.140625 0zm18.242554 -0.296875q1.4375 0 2.34375 0.578125q0.921875 0.578125 1.265625 1.640625q0.65625 -1.046875 1.734375 -1.625q1.078125 -0.59375 2.375 -0.59375q2.21875 0 3.28125 1.0q1.0625 1.0 1.0625 2.703125l0 9.6875l-2.15625 0l0 -8.6875q0 -1.40625 -0.59375 -2.109375q-0.59375 -0.703125 -1.9375 -0.703125q-1.609375 0 -2.515625 0.9375q-0.890625 0.9375 -0.890625 2.34375l0 8.21875l-2.171875 0l0 -8.6875q0 -1.40625 -0.59375 -2.109375q-0.59375 -0.703125 -1.859375 -0.703125q-1.015625 0 -1.8125 0.5q-0.796875 0.484375 -1.25 1.34375q-0.4375 0.859375 -0.4375 1.453125l0 8.203125l-2.140625 0l0 -13.09375l2.015625 0l0 1.921875l0.0625 0q0.734375 -1.125 1.78125 -1.671875q1.0625 -0.546875 2.4375 -0.546875zm17.527466 -4.6875l0 6.765625l0.046875 0q0.515625 -1.015625 1.59375 -1.546875q1.078125 -0.53125 2.59375 -0.53125q2.8125 0 4.421875 1.9375q1.609375 1.921875 1.609375 4.953125q0 3.03125 -1.609375 4.921875q-1.609375 1.890625 -4.359375 1.890625q-1.234375 0 -2.40625 -0.5q-1.15625 -0.515625 -1.84375 -1.5625l-0.046875 0l0 1.75l-2.15625 0l0 -18.078125l2.15625 0zm-0.078125 11.53125q0 2.265625 1.09375 3.609375q1.109375 1.34375 3.046875 1.34375q1.859375 0 2.890625 -1.328125q1.03125 -1.34375 1.03125 -3.734375q0 -2.109375 -1.09375 -3.46875q-1.078125 -1.375 -2.984375 -1.375q-1.890625 0 -2.9375 1.390625q-1.046875 1.375 -1.046875 3.5625zm18.3107 -6.84375q2.8125 0 4.375 2.03125q1.5625 2.015625 1.5625 5.203125l0 0.25l-9.8125 0l0 0.171875q0 1.859375 1.09375 3.0q1.09375 1.140625 2.984375 1.140625q1.4375 0 2.28125 -0.671875q0.859375 -0.671875 1.109375 -1.890625l2.125 0q-0.421875 2.171875 -1.90625 3.328125q-1.46875 1.140625 -3.671875 1.140625q-2.078125 0 -3.5 -0.9375q-1.421875 -0.9375 -2.109375 -2.59375q-0.671875 -1.671875 -0.671875 -3.40625q0 -2.890625 1.734375 -4.828125q1.75 -1.9375 4.40625 -1.9375zm-3.875 5.59375l7.515625 0q-0.09375 -1.609375 -1.15625 -2.65625q-1.046875 -1.046875 -2.640625 -1.046875q-1.484375 0 -2.53125 1.0q-1.046875 1.0 -1.1875 2.703125zm18.557098 -5.609375q0.078125 0 0.125 0q0.0625 0 0.171875 0.015625l0 2.265625q-2.421875 0 -3.578125 1.296875q-1.15625 1.28125 -1.15625 3.96875l0 5.859375l-2.15625 0l0 -13.09375l2.03125 0l0 2.75l0.046875 0q0.75 -1.546875 1.859375 -2.296875q1.109375 -0.765625 2.65625 -0.765625z" fill-rule="nonzero"/><path fill="#000000" d="m326.87256 135.94814q2.96875 0 4.65625 1.921875q1.703125 1.90625 1.703125 4.9375q0 3.0625 -1.734375 4.953125q-1.71875 1.890625 -4.625 1.890625q-2.84375 0 -4.59375 -1.859375q-1.75 -1.859375 -1.75 -4.984375q0 -3.109375 1.71875 -4.984375q1.71875 -1.875 4.625 -1.875zm-4.078125 6.859375q0 2.25 1.140625 3.59375q1.15625 1.34375 2.9375 1.34375q1.78125 0 2.9375 -1.34375q1.15625 -1.359375 1.15625 -3.59375q0 -2.234375 -1.15625 -3.59375q-1.15625 -1.375 -2.953125 -1.375q-1.734375 0 -2.90625 1.34375q-1.15625 1.34375 -1.15625 3.625zm19.325134 -6.859375q2.359375 0 3.421875 1.21875q1.078125 1.203125 1.078125 3.453125l0 8.71875l-2.15625 0l0 -8.9375q0 -1.109375 -0.71875 -1.828125q-0.703125 -0.734375 -1.96875 -0.734375q-1.8125 0 -2.84375 1.125q-1.015625 1.109375 -1.015625 2.890625l0 7.484375l-2.140625 0l0 -13.09375l2.015625 0l0 2.078125l0.0625 0q0.71875 -1.234375 1.75 -1.796875q1.046875 -0.578125 2.515625 -0.578125zm20.123291 0q2.671875 0 3.796875 0.953125q1.125 0.953125 1.125 2.546875q0 6.8125 0 7.5625q0 0.734375 0.671875 0.734375q0.15625 0 0.328125 -0.03125q0.171875 -0.046875 0.328125 -0.09375l0 1.671875q-0.296875 0.171875 -0.6875 0.265625q-0.390625 0.09375 -0.84375 0.09375q-0.890625 0 -1.359375 -0.5q-0.46875 -0.5 -0.46875 -1.53125q-0.859375 1.015625 -2.03125 1.53125q-1.15625 0.5 -2.578125 0.5q-2.03125 0 -3.1875 -0.953125q-1.140625 -0.96875 -1.140625 -2.71875q0 -1.765625 1.125 -2.796875q1.125 -1.046875 5.28125 -1.5625q1.421875 -0.1875 1.921875 -0.546875q0.5 -0.359375 0.5 -1.078125q0 -1.078125 -0.703125 -1.609375q-0.703125 -0.546875 -2.21875 -0.546875q-1.59375 0 -2.390625 0.609375q-0.796875 0.59375 -0.859375 1.875l-2.15625 0q0.09375 -2.171875 1.53125 -3.265625q1.4375 -1.109375 4.015625 -1.109375zm-3.78125 9.859375q0 0.921875 0.671875 1.4375q0.671875 0.5 1.859375 0.5q1.828125 0 2.90625 -0.90625q1.09375 -0.90625 1.09375 -2.015625l0 -2.25q-0.546875 0.390625 -1.421875 0.53125q-0.859375 0.125 -2.28125 0.328125q-1.4375 0.203125 -2.140625 0.78125q-0.6875 0.5625 -0.6875 1.59375z" fill-rule="nonzero"/><path fill="#000000" d="m275.15518 166.34814q2.8125 0 4.421875 1.9375q1.609375 1.921875 1.609375 4.953125q0 3.03125 -1.609375 4.921875q-1.609375 1.890625 -4.359375 1.890625q-1.234375 0 -2.40625 -0.5q-1.15625 -0.515625 -1.84375 -1.5625l-0.046875 0l0 6.765625l-2.15625 0l0 -18.109375l2.15625 0l0 1.78125l0.046875 0q0.515625 -1.015625 1.609375 -1.546875q1.09375 -0.53125 2.578125 -0.53125zm-4.3125 6.84375q0 2.265625 1.09375 3.609375q1.109375 1.34375 3.046875 1.34375q1.859375 0 2.890625 -1.328125q1.03125 -1.34375 1.03125 -3.734375q0 -2.109375 -1.09375 -3.46875q-1.078125 -1.375 -2.984375 -1.375q-1.890625 0 -2.9375 1.390625q-1.046875 1.375 -1.046875 3.5625zm18.3107 -6.84375q2.8125 0 4.375 2.03125q1.5625 2.015625 1.5625 5.203125l0 0.25l-9.8125 0l0 0.171875q0 1.859375 1.09375 3.0q1.09375 1.140625 2.984375 1.140625q1.4375 0 2.28125 -0.671875q0.859375 -0.671875 1.109375 -1.890625l2.125 0q-0.421875 2.171875 -1.90625 3.328125q-1.46875 1.140625 -3.671875 1.140625q-2.078125 0 -3.5 -0.9375q-1.421875 -0.9375 -2.109375 -2.59375q-0.671875 -1.671875 -0.671875 -3.40625q0 -2.890625 1.734375 -4.828125q1.75 -1.9375 4.40625 -1.9375zm-3.875 5.59375l7.515625 0q-0.09375 -1.609375 -1.15625 -2.65625q-1.046875 -1.046875 -2.640625 -1.046875q-1.484375 0 -2.53125 1.0q-1.046875 1.0 -1.1875 2.703125zm18.557098 -5.609375q0.078125 0 0.125 0q0.0625 0 0.171875 0.015625l0 2.265625q-2.421875 0 -3.578125 1.296875q-1.15625 1.28125 -1.15625 3.96875l0 5.859375l-2.15625 0l0 -13.09375l2.03125 0l0 2.75l0.046875 0q0.75 -1.546875 1.859375 -2.296875q1.109375 -0.765625 2.65625 -0.765625zm4.1844788 -4.671875l0 2.625l-2.140625 0l0 -2.625l2.140625 0zm0 4.984375l0 13.09375l-2.140625 0l0 -13.09375l2.140625 0zm9.002106 -0.296875q2.96875 0 4.65625 1.921875q1.703125 1.90625 1.703125 4.9375q0 3.0625 -1.734375 4.953125q-1.71875 1.890625 -4.625 1.890625q-2.84375 0 -4.59375 -1.859375q-1.75 -1.859375 -1.75 -4.984375q0 -3.109375 1.71875 -4.984375q1.71875 -1.875 4.625 -1.875zm-4.078125 6.859375q0 2.25 1.140625 3.59375q1.15625 1.34375 2.9375 1.34375q1.78125 0 2.9375 -1.34375q1.15625 -1.359375 1.15625 -3.59375q0 -2.234375 -1.15625 -3.59375q-1.15625 -1.375 -2.953125 -1.375q-1.734375 0 -2.90625 1.34375q-1.15625 1.34375 -1.15625 3.625zm24.668884 -11.546875l0 18.078125l-2.140625 0l0 -1.765625l-0.046875 0q-0.515625 1.015625 -1.625 1.546875q-1.109375 0.53125 -2.5625 0.53125q-2.75 0 -4.390625 -1.90625q-1.625 -1.90625 -1.625 -4.984375q0 -3.03125 1.578125 -4.921875q1.59375 -1.890625 4.375 -1.890625q1.28125 0 2.4375 0.515625q1.15625 0.515625 1.8125 1.515625l0.046875 0l0 -6.71875l2.140625 0zm-10.125 11.640625q0 2.109375 1.09375 3.484375q1.09375 1.359375 2.96875 1.359375q1.90625 0 2.9375 -1.359375q1.046875 -1.375 1.046875 -3.578125q0 -2.234375 -1.078125 -3.59375q-1.0625 -1.375 -3.0625 -1.375q-1.859375 0 -2.890625 1.359375q-1.015625 1.34375 -1.015625 3.703125zm15.716949 -11.640625l0 2.625l-2.140625 0l0 -2.625l2.140625 0zm0 4.984375l0 13.09375l-2.140625 0l0 -13.09375l2.140625 0zm8.830231 -0.296875q2.390625 0 3.890625 1.140625q1.5 1.125 1.75 3.359375l-2.21875 0q-0.265625 -1.28125 -1.109375 -1.9375q-0.84375 -0.671875 -2.140625 -0.671875q-2.0 0 -3.046875 1.34375q-1.03125 1.34375 -1.03125 3.78125q0 2.171875 1.03125 3.484375q1.03125 1.296875 2.796875 1.296875q1.5625 0 2.46875 -0.84375q0.921875 -0.859375 1.125 -2.34375l2.203125 0q-0.359375 2.4375 -1.84375 3.765625q-1.484375 1.328125 -3.9375 1.328125q-2.84375 0 -4.484375 -1.796875q-1.625 -1.8125 -1.625 -4.890625q0 -3.21875 1.640625 -5.109375q1.65625 -1.90625 4.53125 -1.90625zm18.156586 -3.625l0 3.921875l2.609375 0l0 1.90625l-2.609375 0l0 8.1875q0 0.984375 0.640625 1.046875q0.65625 0.046875 1.359375 0.046875l0.609375 0l0 1.90625l-1.78125 0q-1.765625 0 -2.375 -0.625q-0.59375 -0.640625 -0.59375 -2.125l0 -8.4375l-2.25 0l0 -1.90625l2.25 0l0 -3.921875l2.140625 0zm10.336243 3.625q2.671875 0 3.796875 0.953125q1.125 0.953125 1.125 2.546875q0 6.8125 0 7.5625q0 0.734375 0.671875 0.734375q0.15625 0 0.328125 -0.03125q0.171875 -0.046875 0.328125 -0.09375l0 1.671875q-0.296875 0.171875 -0.6875 0.265625q-0.390625 0.09375 -0.84375 0.09375q-0.890625 0 -1.359375 -0.5q-0.46875 -0.5 -0.46875 -1.53125q-0.859375 1.015625 -2.03125 1.53125q-1.15625 0.5 -2.578125 0.5q-2.03125 0 -3.1875 -0.953125q-1.140625 -0.96875 -1.140625 -2.71875q0 -1.765625 1.125 -2.796875q1.125 -1.046875 5.28125 -1.5625q1.421875 -0.1875 1.921875 -0.546875q0.5 -0.359375 0.5 -1.078125q0 -1.078125 -0.703125 -1.609375q-0.703125 -0.546875 -2.21875 -0.546875q-1.59375 0 -2.390625 0.609375q-0.796875 0.59375 -0.859375 1.875l-2.15625 0q0.09375 -2.171875 1.53125 -3.265625q1.4375 -1.109375 4.015625 -1.109375zm-3.78125 9.859375q0 0.921875 0.671875 1.4375q0.671875 0.5 1.859375 0.5q1.828125 0 2.90625 -0.90625q1.09375 -0.90625 1.09375 -2.015625l0 -2.25q-0.546875 0.390625 -1.421875 0.53125q-0.859375 0.125 -2.28125 0.328125q-1.4375 0.203125 -2.140625 0.78125q-0.6875 0.5625 -0.6875 1.59375zm14.260223 -14.546875l0 6.765625l0.046875 0q0.515625 -1.015625 1.59375 -1.546875q1.078125 -0.53125 2.59375 -0.53125q2.8125 0 4.421875 1.9375q1.609375 1.921875 1.609375 4.953125q0 3.03125 -1.609375 4.921875q-1.609375 1.890625 -4.359375 1.890625q-1.234375 0 -2.40625 -0.5q-1.15625 -0.515625 -1.84375 -1.5625l-0.046875 0l0 1.75l-2.15625 0l0 -18.078125l2.15625 0zm-0.078125 11.53125q0 2.265625 1.09375 3.609375q1.109375 1.34375 3.046875 1.34375q1.859375 0 2.890625 -1.328125q1.03125 -1.34375 1.03125 -3.734375q0 -2.109375 -1.09375 -3.46875q-1.078125 -1.375 -2.984375 -1.375q-1.890625 0 -2.9375 1.390625q-1.046875 1.375 -1.046875 3.5625zm15.138855 -11.53125l0 18.078125l-2.140625 0l0 -18.078125l2.140625 0zm8.798981 4.6875q2.8125 0 4.375 2.03125q1.5625 2.015625 1.5625 5.203125l0 0.25l-9.8125 0l0 0.171875q0 1.859375 1.09375 3.0q1.09375 1.140625 2.984375 1.140625q1.4375 0 2.28125 -0.671875q0.859375 -0.671875 1.109375 -1.890625l2.125 0q-0.421875 2.171875 -1.90625 3.328125q-1.46875 1.140625 -3.671875 1.140625q-2.078125 0 -3.5 -0.9375q-1.421875 -0.9375 -2.109375 -2.59375q-0.671875 -1.671875 -0.671875 -3.40625q0 -2.890625 1.734375 -4.828125q1.75 -1.9375 4.40625 -1.9375zm-3.875 5.59375l7.515625 0q-0.09375 -1.609375 -1.15625 -2.65625q-1.046875 -1.046875 -2.640625 -1.046875q-1.484375 0 -2.53125 1.0q-1.046875 1.0 -1.1875 2.703125z" fill-rule="nonzero"/><path fill="#000000" fill-opacity="0.0" d="m470.4595 505.86655l199.87405 0l0 130.01572l-199.87405 0z" fill-rule="evenodd"/><path fill="#000000" d="m519.5901 521.1084q2.484375 0 3.953125 1.34375q1.484375 1.34375 1.484375 4.0q0 2.65625 -1.484375 4.0q-1.46875 1.34375 -3.78125 1.34375l-5.8125 0l0 7.390625l-2.3906555 0l0 -18.078125l8.0312805 0zm-0.671875 8.65625q1.71875 0 2.703125 -0.8125q1.0 -0.8125 1.0 -2.5q0 -1.671875 -0.984375 -2.484375q-0.96875 -0.828125 -2.859375 -0.828125l-4.828125 0l0 6.625l4.96875 0zm10.32605 -3.671875l0 8.921875q0 1.109375 0.703125 1.84375q0.71875 0.734375 1.96875 0.734375q1.859375 0 2.859375 -1.125q1.015625 -1.140625 1.015625 -2.890625l0 -7.484375l2.15625 0l0 13.09375l-2.03125 0l0 -2.078125l-0.046875 0q-0.71875 1.25 -1.796875 1.828125q-1.078125 0.5625 -2.46875 0.5625q-2.296875 0 -3.40625 -1.171875q-1.09375 -1.1875 -1.09375 -3.5l0 -8.734375l2.140625 0zm14.930054 -3.921875l0 3.921875l2.609375 0l0 1.90625l-2.609375 0l0 8.1875q0 0.984375 0.640625 1.046875q0.65625 0.046875 1.359375 0.046875l0.609375 0l0 1.90625l-1.78125 0q-1.765625 0 -2.375 -0.625q-0.59375 -0.640625 -0.59375 -2.125l0 -8.4375l-2.25 0l0 -1.90625l2.25 0l0 -3.921875l2.140625 0zm15.013855 0l0 3.921875l2.609375 0l0 1.90625l-2.609375 0l0 8.1875q0 0.984375 0.640625 1.046875q0.65625 0.046875 1.359375 0.046875l0.609375 0l0 1.90625l-1.78125 0q-1.765625 0 -2.375 -0.625q-0.59375 -0.640625 -0.59375 -2.125l0 -8.4375l-2.25 0l0 -1.90625l2.25 0l0 -3.921875l2.140625 0zm10.323853 3.625q2.96875 0 4.65625 1.921875q1.703125 1.90625 1.703125 4.9375q0 3.0625 -1.734375 4.953125q-1.71875 1.890625 -4.625 1.890625q-2.84375 0 -4.59375 -1.859375q-1.75 -1.859375 -1.75 -4.984375q0 -3.109375 1.71875 -4.984375q1.71875 -1.875 4.625 -1.875zm-4.078125 6.859375q0 2.25 1.140625 3.59375q1.15625 1.34375 2.9375 1.34375q1.78125 0 2.9375 -1.34375q1.15625 -1.359375 1.15625 -3.59375q0 -2.234375 -1.15625 -3.59375q-1.15625 -1.375 -2.953125 -1.375q-1.734375 0 -2.90625 1.34375q-1.15625 1.34375 -1.15625 3.625zm22.158997 -6.5625l0 8.921875q0 1.109375 0.703125 1.84375q0.71875 0.734375 1.96875 0.734375q1.859375 0 2.859375 -1.125q1.015625 -1.140625 1.015625 -2.890625l0 -7.484375l2.15625 0l0 13.09375l-2.03125 0l0 -2.078125l-0.046875 0q-0.71875 1.25 -1.796875 1.828125q-1.078125 0.5625 -2.46875 0.5625q-2.296875 0 -3.40625 -1.171875q-1.09375 -1.1875 -1.09375 -3.5l0 -8.734375l2.140625 0zm16.289429 -0.296875q2.65625 0 3.9375 1.03125q1.28125 1.015625 1.40625 3.0625l-2.140625 0l0 -0.03125q-0.09375 -1.03125 -0.921875 -1.59375q-0.8125 -0.578125 -2.109375 -0.578125q-1.3125 0 -2.0625 0.4375q-0.734375 0.4375 -0.734375 1.234375q0 0.71875 0.65625 1.171875q0.65625 0.453125 2.0 0.734375l2.03125 0.46875q1.90625 0.421875 2.890625 1.296875q0.984375 0.859375 0.984375 2.328125q0 1.9375 -1.5 3.046875q-1.484375 1.09375 -4.078125 1.09375q-2.5 0 -3.984375 -1.125q-1.46875 -1.125 -1.5625 -3.3125l2.15625 0q0.046875 1.21875 0.96875 1.875q0.921875 0.65625 2.546875 0.65625q1.5625 0 2.359375 -0.484375q0.8125 -0.5 0.8125 -1.46875q0 -0.875 -0.796875 -1.390625q-0.796875 -0.515625 -3.28125 -1.015625q-2.46875 -0.484375 -3.484375 -1.359375q-1.0 -0.890625 -1.0 -2.359375q0 -1.71875 1.390625 -2.71875q1.40625 -1.0 3.515625 -1.0zm13.7578125 0q2.8125 0 4.375 2.03125q1.5625 2.015625 1.5625 5.203125l0 0.25l-9.8125 0l0 0.171875q0 1.859375 1.09375 3.0q1.09375 1.140625 2.984375 1.140625q1.4375 0 2.28125 -0.671875q0.859375 -0.671875 1.109375 -1.890625l2.125 0q-0.421875 2.171875 -1.90625 3.328125q-1.46875 1.140625 -3.671875 1.140625q-2.078125 0 -3.5 -0.9375q-1.421875 -0.9375 -2.109375 -2.59375q-0.671875 -1.671875 -0.671875 -3.40625q0 -2.890625 1.734375 -4.828125q1.75 -1.9375 4.40625 -1.9375zm-3.875 5.59375l7.515625 0q-0.09375 -1.609375 -1.15625 -2.65625q-1.046875 -1.046875 -2.640625 -1.046875q-1.484375 0 -2.53125 1.0q-1.046875 1.0 -1.1875 2.703125zm15.322754 4.984375l0 2.703125q0 1.390625 -0.6875 2.390625q-0.6875 1.015625 -2.09375 1.4375l0 -1.25q0.65625 -0.25 1.0625 -0.875q0.40625 -0.609375 0.40625 -1.453125l0 -0.140625l-1.484375 0l0 -2.8125l2.796875 0z" fill-rule="nonzero"/><path fill="#000000" d="m515.19507 556.1959q2.671875 0 3.796875 0.953125q1.125 0.953125 1.125 2.546875q0 6.8125 0 7.5625q0 0.734375 0.671875 0.734375q0.15625 0 0.328125 -0.03125q0.171875 -0.046875 0.328125 -0.09375l0 1.671875q-0.296875 0.171875 -0.6875 0.265625q-0.390625 0.09375 -0.84375 0.09375q-0.890625 0 -1.359375 -0.5q-0.46875 -0.5 -0.46875 -1.53125q-0.859375 1.015625 -2.03125 1.53125q-1.15625 0.5 -2.578125 0.5q-2.0312195 0 -3.1874695 -0.953125q-1.140625 -0.96875 -1.140625 -2.71875q0 -1.765625 1.125 -2.796875q1.125 -1.046875 5.2812195 -1.5625q1.421875 -0.1875 1.921875 -0.546875q0.5 -0.359375 0.5 -1.078125q0 -1.078125 -0.703125 -1.609375q-0.703125 -0.546875 -2.21875 -0.546875q-1.59375 0 -2.390625 0.609375q-0.7968445 0.59375 -0.8593445 1.875l-2.15625 0q0.09375 -2.171875 1.53125 -3.265625q1.4374695 -1.109375 4.0155945 -1.109375zm-3.7812195 9.859375q0 0.921875 0.6718445 1.4375q0.671875 0.5 1.859375 0.5q1.828125 0 2.90625 -0.90625q1.09375 -0.90625 1.09375 -2.015625l0 -2.25q-0.546875 0.390625 -1.421875 0.53125q-0.859375 0.125 -2.28125 0.328125q-1.4375 0.203125 -2.140625 0.78125q-0.6874695 0.5625 -0.6874695 1.59375zm16.385223 -9.859375q2.65625 0 3.9375 1.03125q1.28125 1.015625 1.40625 3.0625l-2.140625 0l0 -0.03125q-0.09375 -1.03125 -0.921875 -1.59375q-0.8125 -0.578125 -2.109375 -0.578125q-1.3125 0 -2.0625 0.4375q-0.734375 0.4375 -0.734375 1.234375q0 0.71875 0.65625 1.171875q0.65625 0.453125 2.0 0.734375l2.03125 0.46875q1.90625 0.421875 2.890625 1.296875q0.984375 0.859375 0.984375 2.328125q0 1.9375 -1.5 3.046875q-1.484375 1.09375 -4.078125 1.09375q-2.5 0 -3.984375 -1.125q-1.46875 -1.125 -1.5625 -3.3125l2.15625 0q0.046875 1.21875 0.96875 1.875q0.921875 0.65625 2.546875 0.65625q1.5625 0 2.359375 -0.484375q0.8125 -0.5 0.8125 -1.46875q0 -0.875 -0.796875 -1.390625q-0.796875 -0.515625 -3.28125 -1.015625q-2.46875 -0.484375 -3.484375 -1.359375q-1.0 -0.890625 -1.0 -2.359375q0 -1.71875 1.390625 -2.71875q1.40625 -1.0 3.515625 -1.0zm20.70105 0q2.671875 0 3.796875 0.953125q1.125 0.953125 1.125 2.546875q0 6.8125 0 7.5625q0 0.734375 0.671875 0.734375q0.15625 0 0.328125 -0.03125q0.171875 -0.046875 0.328125 -0.09375l0 1.671875q-0.296875 0.171875 -0.6875 0.265625q-0.390625 0.09375 -0.84375 0.09375q-0.890625 0 -1.359375 -0.5q-0.46875 -0.5 -0.46875 -1.53125q-0.859375 1.015625 -2.03125 1.53125q-1.15625 0.5 -2.578125 0.5q-2.03125 0 -3.1875 -0.953125q-1.140625 -0.96875 -1.140625 -2.71875q0 -1.765625 1.125 -2.796875q1.125 -1.046875 5.28125 -1.5625q1.421875 -0.1875 1.921875 -0.546875q0.5 -0.359375 0.5 -1.078125q0 -1.078125 -0.703125 -1.609375q-0.703125 -0.546875 -2.21875 -0.546875q-1.59375 0 -2.390625 0.609375q-0.796875 0.59375 -0.859375 1.875l-2.15625 0q0.09375 -2.171875 1.53125 -3.265625q1.4375 -1.109375 4.015625 -1.109375zm-3.78125 9.859375q0 0.921875 0.671875 1.4375q0.671875 0.5 1.859375 0.5q1.828125 0 2.90625 -0.90625q1.09375 -0.90625 1.09375 -2.015625l0 -2.25q-0.546875 0.390625 -1.421875 0.53125q-0.859375 0.125 -2.28125 0.328125q-1.4375 0.203125 -2.140625 0.78125q-0.6875 0.5625 -0.6875 1.59375zm18.385193 -9.859375q2.359375 0 3.421875 1.21875q1.078125 1.203125 1.078125 3.453125l0 8.71875l-2.15625 0l0 -8.9375q0 -1.109375 -0.71875 -1.828125q-0.703125 -0.734375 -1.96875 -0.734375q-1.8125 0 -2.84375 1.125q-1.015625 1.109375 -1.015625 2.890625l0 7.484375l-2.140625 0l0 -13.09375l2.015625 0l0 2.078125l0.0625 0q0.71875 -1.234375 1.75 -1.796875q1.046875 -0.578125 2.515625 -0.578125zm20.123291 0q2.671875 0 3.796875 0.953125q1.125 0.953125 1.125 2.546875q0 6.8125 0 7.5625q0 0.734375 0.671875 0.734375q0.15625 0 0.328125 -0.03125q0.171875 -0.046875 0.328125 -0.09375l0 1.671875q-0.296875 0.171875 -0.6875 0.265625q-0.390625 0.09375 -0.84375 0.09375q-0.890625 0 -1.359375 -0.5q-0.46875 -0.5 -0.46875 -1.53125q-0.859375 1.015625 -2.03125 1.53125q-1.15625 0.5 -2.578125 0.5q-2.03125 0 -3.1875 -0.953125q-1.140625 -0.96875 -1.140625 -2.71875q0 -1.765625 1.125 -2.796875q1.125 -1.046875 5.28125 -1.5625q1.421875 -0.1875 1.921875 -0.546875q0.5 -0.359375 0.5 -1.078125q0 -1.078125 -0.703125 -1.609375q-0.703125 -0.546875 -2.21875 -0.546875q-1.59375 0 -2.390625 0.609375q-0.796875 0.59375 -0.859375 1.875l-2.15625 0q0.09375 -2.171875 1.53125 -3.265625q1.4375 -1.109375 4.015625 -1.109375zm-3.78125 9.859375q0 0.921875 0.671875 1.4375q0.671875 0.5 1.859375 0.5q1.828125 0 2.90625 -0.90625q1.09375 -0.90625 1.09375 -2.015625l0 -2.25q-0.546875 0.390625 -1.421875 0.53125q-0.859375 0.125 -2.28125 0.328125q-1.4375 0.203125 -2.140625 0.78125q-0.6875 0.5625 -0.6875 1.59375zm18.557068 -9.875q0.078125 0 0.125 0q0.0625 0 0.171875 0.015625l0 2.265625q-2.421875 0 -3.578125 1.296875q-1.15625 1.28125 -1.15625 3.96875l0 5.859375l-2.15625 0l0 -13.09375l2.03125 0l0 2.75l0.046875 0q0.75 -1.546875 1.859375 -2.296875q1.109375 -0.765625 2.65625 -0.765625zm8.215759 0.015625q1.4375 0 2.34375 0.578125q0.921875 0.578125 1.265625 1.640625q0.65625 -1.046875 1.734375 -1.625q1.078125 -0.59375 2.375 -0.59375q2.21875 0 3.28125 1.0q1.0625 1.0 1.0625 2.703125l0 9.6875l-2.15625 0l0 -8.6875q0 -1.40625 -0.59375 -2.109375q-0.59375 -0.703125 -1.9375 -0.703125q-1.609375 0 -2.515625 0.9375q-0.890625 0.9375 -0.890625 2.34375l0 8.21875l-2.171875 0l0 -8.6875q0 -1.40625 -0.59375 -2.109375q-0.59375 -0.703125 -1.859375 -0.703125q-1.015625 0 -1.8125 0.5q-0.796875 0.484375 -1.25 1.34375q-0.4375 0.859375 -0.4375 1.453125l0 8.203125l-2.140625 0l0 -13.09375l2.015625 0l0 1.921875l0.0625 0q0.734375 -1.125 1.78125 -1.671875q1.0625 -0.546875 2.4375 -0.546875zm16.32434 0.296875l3.8125 10.703125l0.046875 0l3.671875 -10.703125l2.296875 0l-5.5625 14.484375q-0.890625 2.265625 -1.703125 3.0625q-0.796875 0.796875 -2.234375 0.796875q-0.390625 0 -0.765625 -0.0625q-0.375 -0.046875 -0.734375 -0.171875l0 -1.96875q0.3125 0.09375 0.625 0.1875q0.3125 0.109375 0.640625 0.109375q1.3125 0 1.828125 -1.3125q0.515625 -1.3125 0.828125 -2.109375l-5.1875 -13.015625l2.4375 0z" fill-rule="nonzero"/><path fill="#000000" fill-opacity="0.0" d="m22.659512 505.86655l199.87401 0l0 130.01572l-199.87401 0z" fill-rule="evenodd"/><path fill="#000000" d="m84.19158 551.5084l9.515625 14.671875l0.0625 0l0 -14.671875l2.265625 0l0 18.078125l-2.625 0l-9.453125 -14.515625l-0.046875 0l0 14.515625l-2.28125 0l0 -18.078125l2.5625 0zm21.041168 4.6875q2.96875 0 4.65625 1.921875q1.703125 1.90625 1.703125 4.9375q0 3.0625 -1.734375 4.953125q-1.71875 1.890625 -4.625 1.890625q-2.84375 0 -4.59375 -1.859375q-1.75 -1.859375 -1.75 -4.984375q0 -3.109375 1.71875 -4.984375q1.71875 -1.875 4.625 -1.875zm-4.078125 6.859375q0 2.25 1.140625 3.59375q1.15625 1.34375 2.9375 1.34375q1.78125 0 2.9375 -1.34375q1.15625 -1.359375 1.15625 -3.59375q0 -2.234375 -1.15625 -3.59375q-1.15625 -1.375 -2.953125 -1.375q-1.734375 0 -2.90625 1.34375q-1.15625 1.34375 -1.15625 3.625zm15.965759 -10.484375l0 3.921875l2.609375 0l0 1.90625l-2.609375 0l0 8.1875q0 0.984375 0.640625 1.046875q0.65625 0.046875 1.359375 0.046875l0.609375 0l0 1.90625l-1.78125 0q-1.765625 0 -2.375 -0.625q-0.59375 -0.640625 -0.59375 -2.125l0 -8.4375l-2.25 0l0 -1.90625l2.25 0l0 -3.921875l2.140625 0zm14.888863 -1.0625l0 18.078125l-2.40625 0l0 -18.078125l2.40625 0zm12.664017 0q2.359375 0 3.875 1.25q1.515625 1.25 1.515625 3.484375q0 1.78125 -0.78125 2.953125q-0.78125 1.171875 -2.359375 1.625l0 0.046875q1.359375 0.265625 2.015625 1.28125q0.65625 1.0 0.75 3.453125q0.0625 1.578125 0.296875 2.484375q0.234375 0.90625 0.703125 1.5l-2.6875 0q-0.21875 -0.296875 -0.296875 -0.578125q-0.0625 -0.296875 -0.125 -0.8125l-0.09375 -1.984375q-0.03125 -1.40625 -0.59375 -2.84375q-0.5625 -1.453125 -2.484375 -1.515625l-5.953125 0l0 7.734375l-2.390625 0l0 -18.078125l8.609375 0zm-1.078125 8.328125q2.015625 0 3.03125 -0.78125q1.03125 -0.78125 1.03125 -2.4375q0 -1.46875 -0.828125 -2.265625q-0.8125 -0.8125 -2.296875 -0.8125l-6.078125 0l0 6.296875l5.140625 0zm12.210632 -8.328125l0 16.046875l9.578125 0l0 2.03125l-11.96875 0l0 -18.078125l2.390625 0z" fill-rule="nonzero"/><path fill="#000000" fill-opacity="0.0" d="m18.150326 202.54729l199.87401 0l0 130.01576l-199.87401 0z" fill-rule="evenodd"/><path fill="#000000" d="m57.72315 217.35167q3.015625 0 5.03125 1.5625q2.0312462 1.5625 2.4218712 4.3125l-2.4062462 0q-0.390625 -1.859375 -1.734375 -2.84375q-1.34375 -1.0 -3.328125 -1.0q-2.875 0 -4.5 2.03125q-1.625 2.03125 -1.625 5.28125q0 3.46875 1.59375 5.53125q1.59375 2.046875 4.546875 2.046875q2.21875 0 3.625 -1.40625q1.421875 -1.40625 1.59375 -3.8125l2.4218712 0q-0.40625 3.515625 -2.4531212 5.390625q-2.046875 1.859375 -5.375 1.859375q-3.890625 0 -6.125 -2.578125q-2.234375 -2.578125 -2.234375 -6.84375q0 -4.21875 2.3125 -6.875q2.3125 -2.65625 6.234375 -2.65625zm15.3100395 5.125q2.671875 0 3.796875 0.953125q1.125 0.953125 1.125 2.546875q0 6.8125 0 7.5625q0 0.734375 0.671875 0.734375q0.15625 0 0.328125 -0.03125q0.171875 -0.046875 0.328125 -0.09375l0 1.671875q-0.296875 0.171875 -0.6875 0.265625q-0.390625 0.09375 -0.84375 0.09375q-0.890625 0 -1.359375 -0.5q-0.46875 -0.5 -0.46875 -1.53125q-0.859375 1.015625 -2.03125 1.53125q-1.15625 0.5 -2.578125 0.5q-2.03125 0 -3.1875 -0.953125q-1.140625 -0.96875 -1.140625 -2.71875q0 -1.765625 1.125 -2.796875q1.125 -1.046875 5.28125 -1.5625q1.421875 -0.1875 1.921875 -0.546875q0.5 -0.359375 0.5 -1.078125q0 -1.078125 -0.703125 -1.609375q-0.703125 -0.546875 -2.21875 -0.546875q-1.59375 0 -2.390625 0.609375q-0.796875 0.59375 -0.859375 1.875l-2.15625 0q0.09375 -2.171875 1.53125 -3.265625q1.4375 -1.109375 4.015625 -1.109375zm-3.78125 9.859375q0 0.921875 0.671875 1.4375q0.671875 0.5 1.859375 0.5q1.828125 0 2.90625 -0.90625q1.09375 -0.90625 1.09375 -2.015625l0 -2.25q-0.546875 0.390625 -1.421875 0.53125q-0.859375 0.125 -2.28125 0.328125q-1.4375 0.203125 -2.140625 0.78125q-0.6875 0.5625 -0.6875 1.59375zm14.307098 -14.546875l0 2.625l-2.140625 0l0 -2.625l2.140625 0zm0 4.984375l0 14.84375q0 1.546875 -0.78125 2.40625q-0.78125 0.859375 -2.359375 0.859375q-0.296875 0 -0.578125 -0.03125q-0.265625 -0.015625 -0.53125 -0.078125l0 -1.84375q0.171875 0.046875 0.359375 0.046875q0.171875 0 0.34375 0q0.640625 0 0.875 -0.140625q0.234375 -0.125 0.375 -0.4375q0.15625 -0.3125 0.15625 -1.109375l0 -14.515625l2.140625 0zm5.5021057 0l0 8.921875q0 1.109375 0.703125 1.84375q0.71875 0.734375 1.96875 0.734375q1.859375 0 2.859375 -1.125q1.015625 -1.140625 1.015625 -2.890625l0 -7.484375l2.15625 0l0 13.09375l-2.03125 0l0 -2.078125l-0.046875 0q-0.71875 1.25 -1.796875 1.828125q-1.078125 0.5625 -2.46875 0.5625q-2.296875 0 -3.40625 -1.171875q-1.09375 -1.1875 -1.09375 -3.5l0 -8.734375l2.140625 0zm18.289429 -0.296875q2.359375 0 3.421875 1.21875q1.078125 1.203125 1.078125 3.453125l0 8.71875l-2.15625 0l0 -8.9375q0 -1.109375 -0.71875 -1.828125q-0.703125 -0.734375 -1.96875 -0.734375q-1.8125 0 -2.84375 1.125q-1.015625 1.109375 -1.015625 2.890625l0 7.484375l-2.140625 0l0 -13.09375l2.015625 0l0 2.078125l0.0625 0q0.71875 -1.234375 1.75 -1.796875q1.046875 -0.578125 2.515625 -0.578125zm21.0764 0q1.4375 0 2.34375 0.578125q0.921875 0.578125 1.265625 1.640625q0.65625 -1.046875 1.734375 -1.625q1.078125 -0.59375 2.375 -0.59375q2.21875 0 3.28125 1.0q1.0625 1.0 1.0625 2.703125l0 9.6875l-2.15625 0l0 -8.6875q0 -1.40625 -0.59375 -2.109375q-0.59375 -0.703125 -1.9375 -0.703125q-1.609375 0 -2.515625 0.9375q-0.890625 0.9375 -0.890625 2.34375l0 8.21875l-2.171875 0l0 -8.6875q0 -1.40625 -0.59375 -2.109375q-0.59375 -0.703125 -1.859375 -0.703125q-1.015625 0 -1.8125 0.5q-0.796875 0.484375 -1.25 1.34375q-0.4375 0.859375 -0.4375 1.453125l0 8.203125l-2.140625 0l0 -13.09375l2.015625 0l0 1.921875l0.0625 0q0.734375 -1.125 1.78125 -1.671875q1.0625 -0.546875 2.4375 -0.546875zm17.44934 0.296875l0 8.921875q0 1.109375 0.703125 1.84375q0.71875 0.734375 1.96875 0.734375q1.859375 0 2.859375 -1.125q1.015625 -1.140625 1.015625 -2.890625l0 -7.484375l2.15625 0l0 13.09375l-2.03125 0l0 -2.078125l-0.046875 0q-0.71875 1.25 -1.796875 1.828125q-1.078125 0.5625 -2.46875 0.5625q-2.296875 0 -3.40625 -1.171875q-1.09375 -1.1875 -1.09375 -3.5l0 -8.734375l2.140625 0zm16.289429 -0.296875q2.65625 0 3.9375 1.03125q1.28125 1.015625 1.40625 3.0625l-2.140625 0l0 -0.03125q-0.09375 -1.03125 -0.921875 -1.59375q-0.8125 -0.578125 -2.109375 -0.578125q-1.3125 0 -2.0625 0.4375q-0.734375 0.4375 -0.734375 1.234375q0 0.71875 0.65625 1.171875q0.65625 0.453125 2.0 0.734375l2.03125 0.46875q1.90625 0.421875 2.890625 1.296875q0.984375 0.859375 0.984375 2.328125q0 1.9375 -1.5 3.046875q-1.484375 1.09375 -4.078125 1.09375q-2.5 0 -3.984375 -1.125q-1.46875 -1.125 -1.5625 -3.3125l2.15625 0q0.046875 1.21875 0.96875 1.875q0.921875 0.65625 2.546875 0.65625q1.5625 0 2.359375 -0.484375q0.8125 -0.5 0.8125 -1.46875q0 -0.875 -0.796875 -1.390625q-0.796875 -0.515625 -3.28125 -1.015625q-2.46875 -0.484375 -3.484375 -1.359375q-1.0 -0.890625 -1.0 -2.359375q0 -1.71875 1.390625 -2.71875q1.40625 -1.0 3.515625 -1.0zm10.5859375 -4.6875l0 2.625l-2.140625 0l0 -2.625l2.140625 0zm0 4.984375l0 13.09375l-2.140625 0l0 -13.09375l2.140625 0zm8.830231 -0.296875q2.390625 0 3.890625 1.140625q1.5 1.125 1.75 3.359375l-2.21875 0q-0.265625 -1.28125 -1.109375 -1.9375q-0.84375 -0.671875 -2.140625 -0.671875q-2.0 0 -3.046875 1.34375q-1.03125 1.34375 -1.03125 3.78125q0 2.171875 1.03125 3.484375q1.03125 1.296875 2.796875 1.296875q1.5625 0 2.46875 -0.84375q0.921875 -0.859375 1.125 -2.34375l2.203125 0q-0.359375 2.4375 -1.84375 3.765625q-1.484375 1.328125 -3.9375 1.328125q-2.84375 0 -4.484375 -1.796875q-1.625 -1.8125 -1.625 -4.890625q0 -3.21875 1.640625 -5.109375q1.65625 -1.90625 4.53125 -1.90625z" fill-rule="nonzero"/><path fill="#000000" d="m86.31078 248.18916l0 2.625l-2.140625 0l0 -2.625l2.140625 0zm0 4.984375l0 13.093765l-2.140625 0l0 -13.093765l2.140625 0zm9.705231 -0.296875q2.359375 0 3.421875 1.21875q1.078125 1.203125 1.078125 3.4531403l0 8.71875l-2.15625 0l0 -8.9375q0 -1.109375 -0.71875 -1.8281403q-0.703125 -0.734375 -1.96875 -0.734375q-1.8125 0 -2.84375 1.125q-1.015625 1.1093903 -1.015625 2.8906403l0 7.484375l-2.140625 0l0 -13.093765l2.015625 0l0 2.078125l0.0625 0q0.71875 -1.234375 1.75 -1.796875q1.046875 -0.578125 2.515625 -0.578125zm17.529526 -4.6875l0 16.04689l9.578125 0l0 2.03125l-11.96875 0l0 -18.07814l2.390625 0zm19.258186 0l7.0625 18.07814l-2.65625 0l-1.96875 -5.4375l-7.6562576 0l-2.03125 5.4375l-2.46875 0l7.0625076 -18.07814l2.65625 0zm-1.390625 2.171875l-3.0625 8.437515l6.125 0l-3.0 -8.437515l-0.0625 0zm15.286346 -2.609375q2.4375 0 3.890625 1.375q1.46875 1.359375 1.46875 3.703125q0 1.25 -0.546875 2.28125q-0.546875 1.0156403 -1.828125 2.1718903q-0.875 0.8125 -1.28125 1.421875q-0.40625 0.59375 -0.578125 1.09375q-0.15625 0.5 -0.15625 1.296875l0 0.765625l-2.15625 0l0 -1.078125q0 -1.203125 0.484375 -2.171875q0.5 -0.96875 1.75 -2.109375q1.328125 -1.2343903 1.671875 -2.0156403q0.359375 -0.796875 0.359375 -1.578125q0 -1.46875 -0.796875 -2.359375q-0.796875 -0.890625 -2.28125 -0.890625q-1.65625 0 -2.578125 1.109375q-0.921875 1.109375 -0.921875 3.0625l-2.15625 0l0 -0.28125q0 -2.421875 1.53125 -4.109375q1.546875 -1.6875 4.125 -1.6875zm1.28125 15.70314l0 2.8125l-2.828125 0l0 -2.8125l2.828125 0z" fill-rule="nonzero"/><path fill="#000000" fill-opacity="0.0" d="m470.4595 202.54729l199.87405 0l0 130.01576l-199.87405 0z" fill-rule="evenodd"/><path fill="#000000" d="m546.8734 217.78917l7.0625 18.078125l-2.65625 0l-1.96875 -5.4375l-7.65625 0l-2.03125 5.4375l-2.46875 0l7.0625 -18.078125l2.65625 0zm-1.390625 2.171875l-3.0625 8.4375l6.125 0l-3.0 -8.4375l-0.0625 0zm15.208252 2.515625q1.375 0 2.375 0.59375q1.0 0.59375 1.546875 1.578125l0.015625 0l0 -1.875l2.015625 0l0 12.109375q0 3.09375 -1.484375 4.6875q-1.484375 1.609375 -4.578125 1.609375q-2.25 0 -3.796875 -0.984375q-1.53125 -0.984375 -1.625 -2.859375l2.15625 0q0.046875 1.0 1.0625 1.5625q1.03125 0.5625 2.328125 0.5625q1.90625 0 2.90625 -1.265625q1.015625 -1.25 1.015625 -3.734375l0 -0.8125l-0.046875 0q-0.5 1.078125 -1.59375 1.71875q-1.09375 0.640625 -2.5 0.640625q-2.65625 0 -4.25 -1.828125q-1.578125 -1.828125 -1.578125 -4.796875q0 -3.0 1.578125 -4.953125q1.59375 -1.953125 4.453125 -1.953125zm-3.765625 6.65625q0 2.328125 0.96875 3.65625q0.984375 1.328125 2.734375 1.328125q1.78125 0 2.828125 -1.375q1.0625 -1.375 1.0625 -3.6875q0 -2.109375 -0.984375 -3.390625q-0.96875 -1.296875 -2.765625 -1.296875q-1.796875 0 -2.828125 1.296875q-1.015625 1.296875 -1.015625 3.46875zm19.49701 -6.671875q0.078125 0 0.125 0q0.0625 0 0.171875 0.015625l0 2.265625q-2.421875 0 -3.578125 1.296875q-1.15625 1.28125 -1.15625 3.96875l0 5.859375l-2.15625 0l0 -13.09375l2.03125 0l0 2.75l0.046875 0q0.75 -1.546875 1.859375 -2.296875q1.109375 -0.765625 2.65625 -0.765625zm6.8986206 0.015625q2.8125 0 4.375 2.03125q1.5625 2.015625 1.5625 5.203125l0 0.25l-9.8125 0l0 0.171875q0 1.859375 1.09375 3.0q1.09375 1.140625 2.984375 1.140625q1.4375 0 2.28125 -0.671875q0.859375 -0.671875 1.109375 -1.890625l2.125 0q-0.421875 2.171875 -1.90625 3.328125q-1.46875 1.140625 -3.671875 1.140625q-2.078125 0 -3.5 -0.9375q-1.421875 -0.9375 -2.109375 -2.59375q-0.671875 -1.671875 -0.671875 -3.40625q0 -2.890625 1.734375 -4.828125q1.75 -1.9375 4.40625 -1.9375zm-3.875 5.59375l7.515625 0q-0.09375 -1.609375 -1.15625 -2.65625q-1.046875 -1.046875 -2.640625 -1.046875q-1.484375 0 -2.53125 1.0q-1.046875 1.0 -1.1875 2.703125zm17.479004 -5.59375q2.8125 0 4.375 2.03125q1.5625 2.015625 1.5625 5.203125l0 0.25l-9.8125 0l0 0.171875q0 1.859375 1.09375 3.0q1.09375 1.140625 2.984375 1.140625q1.4375 0 2.28125 -0.671875q0.859375 -0.671875 1.109375 -1.890625l2.125 0q-0.421875 2.171875 -1.90625 3.328125q-1.46875 1.140625 -3.671875 1.140625q-2.078125 0 -3.5 -0.9375q-1.421875 -0.9375 -2.109375 -2.59375q-0.671875 -1.671875 -0.671875 -3.40625q0 -2.890625 1.734375 -4.828125q1.75 -1.9375 4.40625 -1.9375zm-3.875 5.59375l7.515625 0q-0.09375 -1.609375 -1.15625 -2.65625q-1.046875 -1.046875 -2.640625 -1.046875q-1.484375 0 -2.53125 1.0q-1.046875 1.0 -1.1875 2.703125z" fill-rule="nonzero"/><path fill="#000000" fill-opacity="0.0" d="m246.55951 591.7398l199.87402 0l0 130.01575l-199.87402 0z" fill-rule="evenodd"/><path fill="#000000" d="m285.3511 606.9817q2.484375 0 3.953125 1.34375q1.484375 1.34375 1.484375 4.0q0 2.65625 -1.484375 4.0q-1.46875 1.34375 -3.78125 1.34375l-5.8125 0l0 7.390625l-2.390625 0l0 -18.078125l8.03125 0zm-0.671875 8.65625q1.71875 0 2.703125 -0.8125q1.0 -0.8125 1.0 -2.5q0 -1.671875 -0.984375 -2.484375q-0.96875 -0.828125 -2.859375 -0.828125l-4.828125 0l0 6.625l4.96875 0zm13.281799 -3.96875q2.671875 0 3.796875 0.953125q1.125 0.953125 1.125 2.546875q0 6.8125 0 7.5625q0 0.734375 0.671875 0.734375q0.15625 0 0.328125 -0.03125q0.171875 -0.046875 0.328125 -0.09375l0 1.671875q-0.296875 0.171875 -0.6875 0.265625q-0.390625 0.09375 -0.84375 0.09375q-0.890625 0 -1.359375 -0.5q-0.46875 -0.5 -0.46875 -1.53125q-0.859375 1.015625 -2.03125 1.53125q-1.15625 0.5 -2.578125 0.5q-2.03125 0 -3.1875 -0.953125q-1.140625 -0.96875 -1.140625 -2.71875q0 -1.765625 1.125 -2.796875q1.125 -1.046875 5.28125 -1.5625q1.421875 -0.1875 1.921875 -0.546875q0.5 -0.359375 0.5 -1.078125q0 -1.078125 -0.703125 -1.609375q-0.703125 -0.546875 -2.21875 -0.546875q-1.59375 0 -2.390625 0.609375q-0.796875 0.59375 -0.859375 1.875l-2.15625 0q0.09375 -2.171875 1.53125 -3.265625q1.4375 -1.109375 4.015625 -1.109375zm-3.78125 9.859375q0 0.921875 0.671875 1.4375q0.671875 0.5 1.859375 0.5q1.828125 0 2.90625 -0.90625q1.09375 -0.90625 1.09375 -2.015625l0 -2.25q-0.546875 0.390625 -1.421875 0.53125q-0.859375 0.125 -2.28125 0.328125q-1.4375 0.203125 -2.140625 0.78125q-0.6875 0.5625 -0.6875 1.59375zm17.369598 -9.859375q1.375 0 2.375 0.59375q1.0 0.59375 1.546875 1.578125l0.015625 0l0 -1.875l2.015625 0l0 12.109375q0 3.09375 -1.484375 4.6875q-1.484375 1.609375 -4.578125 1.609375q-2.25 0 -3.796875 -0.984375q-1.53125 -0.984375 -1.625 -2.859375l2.15625 0q0.046875 1.0 1.0625 1.5625q1.03125 0.5625 2.328125 0.5625q1.90625 0 2.90625 -1.265625q1.015625 -1.25 1.015625 -3.734375l0 -0.8125l-0.046875 0q-0.5 1.078125 -1.59375 1.71875q-1.09375 0.640625 -2.5 0.640625q-2.65625 0 -4.25 -1.828125q-1.578125 -1.828125 -1.578125 -4.796875q0 -3.0 1.578125 -4.953125q1.59375 -1.953125 4.453125 -1.953125zm-3.765625 6.65625q0 2.328125 0.96875 3.65625q0.984375 1.328125 2.734375 1.328125q1.78125 0 2.828125 -1.375q1.0625 -1.375 1.0625 -3.6875q0 -2.109375 -0.984375 -3.390625q-0.96875 -1.296875 -2.765625 -1.296875q-1.796875 0 -2.828125 1.296875q-1.015625 1.296875 -1.015625 3.46875zm18.418884 -6.65625q2.8125 0 4.375 2.03125q1.5625 2.015625 1.5625 5.203125l0 0.25l-9.8125 0l0 0.171875q0 1.859375 1.09375 3.0q1.09375 1.140625 2.984375 1.140625q1.4375 0 2.28125 -0.671875q0.859375 -0.671875 1.109375 -1.890625l2.125 0q-0.421875 2.171875 -1.90625 3.328125q-1.46875 1.140625 -3.671875 1.140625q-2.078125 0 -3.5 -0.9375q-1.421875 -0.9375 -2.109375 -2.59375q-0.671875 -1.671875 -0.671875 -3.40625q0 -2.890625 1.734375 -4.828125q1.75 -1.9375 4.40625 -1.9375zm-3.875 5.59375l7.515625 0q-0.09375 -1.609375 -1.15625 -2.65625q-1.046875 -1.046875 -2.640625 -1.046875q-1.484375 0 -2.53125 1.0q-1.046875 1.0 -1.1875 2.703125zm23.42218 -5.59375q2.65625 0 3.9375 1.03125q1.28125 1.015625 1.40625 3.0625l-2.140625 0l0 -0.03125q-0.09375 -1.03125 -0.921875 -1.59375q-0.8125 -0.578125 -2.109375 -0.578125q-1.3125 0 -2.0625 0.4375q-0.734375 0.4375 -0.734375 1.234375q0 0.71875 0.65625 1.171875q0.65625 0.453125 2.0 0.734375l2.03125 0.46875q1.90625 0.421875 2.890625 1.296875q0.984375 0.859375 0.984375 2.328125q0 1.9375 -1.5 3.046875q-1.484375 1.09375 -4.078125 1.09375q-2.5 0 -3.984375 -1.125q-1.46875 -1.125 -1.5625 -3.3125l2.15625 0q0.046875 1.21875 0.96875 1.875q0.921875 0.65625 2.546875 0.65625q1.5625 0 2.359375 -0.484375q0.8125 -0.5 0.8125 -1.46875q0 -0.875 -0.796875 -1.390625q-0.796875 -0.515625 -3.28125 -1.015625q-2.46875 -0.484375 -3.484375 -1.359375q-1.0 -0.890625 -1.0 -2.359375q0 -1.71875 1.390625 -2.71875q1.40625 -1.0 3.515625 -1.0zm14.7734375 0q2.8125 0 4.421875 1.9375q1.609375 1.921875 1.609375 4.953125q0 3.03125 -1.609375 4.921875q-1.609375 1.890625 -4.359375 1.890625q-1.234375 0 -2.40625 -0.5q-1.15625 -0.515625 -1.84375 -1.5625l-0.046875 0l0 6.765625l-2.15625 0l0 -18.109375l2.15625 0l0 1.78125l0.046875 0q0.515625 -1.015625 1.609375 -1.546875q1.09375 -0.53125 2.578125 -0.53125zm-4.3125 6.84375q0 2.265625 1.09375 3.609375q1.109375 1.34375 3.046875 1.34375q1.859375 0 2.890625 -1.328125q1.03125 -1.34375 1.03125 -3.734375q0 -2.109375 -1.09375 -3.46875q-1.078125 -1.375 -2.984375 -1.375q-1.890625 0 -2.9375 1.390625q-1.046875 1.375 -1.046875 3.5625zm19.388855 -6.859375q0.078125 0 0.125 0q0.0625 0 0.171875 0.015625l0 2.265625q-2.421875 0 -3.578125 1.296875q-1.15625 1.28125 -1.15625 3.96875l0 5.859375l-2.15625 0l0 -13.09375l2.03125 0l0 2.75l0.046875 0q0.75 -1.546875 1.859375 -2.296875q1.109375 -0.765625 2.65625 -0.765625zm6.898651 0.015625q2.8125 0 4.375 2.03125q1.5625 2.015625 1.5625 5.203125l0 0.25l-9.8125 0l0 0.171875q0 1.859375 1.09375 3.0q1.09375 1.140625 2.984375 1.140625q1.4375 0 2.28125 -0.671875q0.859375 -0.671875 1.109375 -1.890625l2.125 0q-0.421875 2.171875 -1.90625 3.328125q-1.46875 1.140625 -3.671875 1.140625q-2.078125 0 -3.5 -0.9375q-1.421875 -0.9375 -2.109375 -2.59375q-0.671875 -1.671875 -0.671875 -3.40625q0 -2.890625 1.734375 -4.828125q1.75 -1.9375 4.40625 -1.9375zm-3.875 5.59375l7.515625 0q-0.09375 -1.609375 -1.15625 -2.65625q-1.046875 -1.046875 -2.640625 -1.046875q-1.484375 0 -2.53125 1.0q-1.046875 1.0 -1.1875 2.703125zm17.385223 -5.59375q2.671875 0 3.796875 0.953125q1.125 0.953125 1.125 2.546875q0 6.8125 0 7.5625q0 0.734375 0.671875 0.734375q0.15625 0 0.328125 -0.03125q0.171875 -0.046875 0.328125 -0.09375l0 1.671875q-0.296875 0.171875 -0.6875 0.265625q-0.390625 0.09375 -0.84375 0.09375q-0.890625 0 -1.359375 -0.5q-0.46875 -0.5 -0.46875 -1.53125q-0.859375 1.015625 -2.03125 1.53125q-1.15625 0.5 -2.578125 0.5q-2.03125 0 -3.1875 -0.953125q-1.140625 -0.96875 -1.140625 -2.71875q0 -1.765625 1.125 -2.796875q1.125 -1.046875 5.28125 -1.5625q1.421875 -0.1875 1.921875 -0.546875q0.5 -0.359375 0.5 -1.078125q0 -1.078125 -0.703125 -1.609375q-0.703125 -0.546875 -2.21875 -0.546875q-1.59375 0 -2.390625 0.609375q-0.796875 0.59375 -0.859375 1.875l-2.15625 0q0.09375 -2.171875 1.53125 -3.265625q1.4375 -1.109375 4.015625 -1.109375zm-3.78125 9.859375q0 0.921875 0.671875 1.4375q0.671875 0.5 1.859375 0.5q1.828125 0 2.90625 -0.90625q1.09375 -0.90625 1.09375 -2.015625l0 -2.25q-0.546875 0.390625 -1.421875 0.53125q-0.859375 0.125 -2.28125 0.328125q-1.4375 0.203125 -2.140625 0.78125q-0.6875 0.5625 -0.6875 1.59375zm23.728973 -14.546875l0 18.078125l-2.140625 0l0 -1.765625l-0.046875 0q-0.515625 1.015625 -1.625 1.546875q-1.109375 0.53125 -2.5625 0.53125q-2.75 0 -4.390625 -1.90625q-1.625 -1.90625 -1.625 -4.984375q0 -3.03125 1.578125 -4.921875q1.59375 -1.890625 4.375 -1.890625q1.28125 0 2.4375 0.515625q1.15625 0.515625 1.8125 1.515625l0.046875 0l0 -6.71875l2.140625 0zm-10.125 11.640625q0 2.109375 1.09375 3.484375q1.09375 1.359375 2.96875 1.359375q1.90625 0 2.9375 -1.359375q1.046875 -1.375 1.046875 -3.578125q0 -2.234375 -1.078125 -3.59375q-1.0625 -1.375 -3.0625 -1.375q-1.859375 0 -2.890625 1.359375q-1.015625 1.34375 -1.015625 3.703125z" fill-rule="nonzero"/></g></svg>