<svg version="1.1" viewBox="0.0 0.0 690.3333333333334 797.3333333333334" fill="none" stroke="none" stroke-linecap="square" stroke-miterlimit="10" xmlns:xlink="http://www.w3.org/1999/xlink" xmlns="http://www.w3.org/2000/svg"><clipPath id="p.0"><path d="m0 0l690.3333 0l0 797.3333l-690.3333 0l0 -797.3333z" clip-rule="nonzero"/></clipPath><g clip-path="url(#p.0)"><path fill="#ffffff" d="m0 0l690.3333 0l0 797.3333l-690.3333 0z" fill-rule="evenodd"/><path fill="#000000" fill-opacity="0.0" d="m7.4908137 591.7192l337.35434 -584.22046l337.3543 584.22046z" fill-rule="evenodd"/><path stroke="#000000" stroke-width="8.0" stroke-linejoin="round" stroke-linecap="butt" d="m7.4908137 591.7192l337.35434 -584.22046l337.3543 584.22046z" fill-rule="evenodd"/><path fill="#000000" fill-opacity="0.0" d="m7.50659 202.11285l337.35434 584.22046l337.35434 -584.22046z" fill-rule="evenodd"/><path stroke="#000000" stroke-width="8.0" stroke-linejoin="round" stroke-linecap="butt" d="m7.50659 202.11285l337.35434 584.22046l337.35434 -584.22046z" fill-rule="evenodd"/><path fill="#000000" fill-opacity="0.0" d="m244.30551 85.61877l199.87402 0l0 130.01575l-199.87402 0z" fill-rule="evenodd"/><path fill="#000000" d="m321.25507 130.82314q2.625 0 4.578125 1.21875q1.953125 1.21875 3.015625 3.4375q1.078125 2.203125 1.078125 4.8125q0 2.65625 -1.0625 4.859375q-1.0625 2.1875 -3.03125 3.40625q-1.96875 1.21875 -4.578125 1.21875q-2.609375 0 -4.578125 -1.203125q-1.953125 -1.21875 -3.015625 -3.40625q-1.0625 -2.203125 -1.0625 -4.875q0 -4.09375 2.34375 -6.78125q2.359375 -2.6875 6.3125 -2.6875zm-6.265625 9.46875q0 2.015625 0.734375 3.765625q0.734375 1.75 2.15625 2.71875q1.4375 0.96875 3.375 0.96875q2.90625 0 4.578125 -2.09375q1.671875 -2.09375 1.671875 -5.359375q0 -3.203125 -1.65625 -5.3125q-1.65625 -2.125 -4.625 -2.125q-2.90625 0 -4.578125 2.125q-1.65625 2.125 -1.65625 5.3125zm23.852814 -4.34375q2.359375 0 3.421875 1.21875q1.078125 1.203125 1.078125 3.453125l0 8.71875l-2.15625 0l0 -8.9375q0 -1.109375 -0.71875 -1.828125q-0.703125 -0.734375 -1.96875 -0.734375q-1.8125 0 -2.84375 1.125q-1.015625 1.109375 -1.015625 2.890625l0 7.484375l-2.140625 0l0 -13.09375l2.015625 0l0 2.078125l0.0625 0q0.71875 -1.234375 1.75 -1.796875q1.046875 -0.578125 2.515625 -0.578125zm20.12326 0q2.671875 0 3.796875 0.953125q1.125 0.953125 1.125 2.546875q0 6.8125 0 7.5625q0 0.734375 0.671875 0.734375q0.15625 0 0.328125 -0.03125q0.171875 -0.046875 0.328125 -0.09375l0 1.671875q-0.296875 0.171875 -0.6875 0.265625q-0.390625 0.09375 -0.84375 0.09375q-0.890625 0 -1.359375 -0.5q-0.46875 -0.5 -0.46875 -1.53125q-0.859375 1.015625 -2.03125 1.53125q-1.15625 0.5 -2.578125 0.5q-2.03125 0 -3.1875 -0.953125q-1.140625 -0.96875 -1.140625 -2.71875q0 -1.765625 1.125 -2.796875q1.125 -1.046875 5.28125 -1.5625q1.421875 -0.1875 1.921875 -0.546875q0.5 -0.359375 0.5 -1.078125q0 -1.078125 -0.703125 -1.609375q-0.703125 -0.546875 -2.21875 -0.546875q-1.59375 0 -2.390625 0.609375q-0.796875 0.59375 -0.859375 1.875l-2.15625 0q0.09375 -2.171875 1.53125 -3.265625q1.4375 -1.109375 4.015625 -1.109375zm-3.78125 9.859375q0 0.921875 0.671875 1.4375q0.671875 0.5 1.859375 0.5q1.828125 0 2.90625 -0.90625q1.09375 -0.90625 1.09375 -2.015625l0 -2.25q-0.546875 0.390625 -1.421875 0.53125q-0.859375 0.125 -2.28125 0.328125q-1.4375 0.203125 -2.140625 0.78125q-0.6875 0.5625 -0.6875 1.59375zm14.307098 -14.546875l0 18.078125l-2.140625 0l0 -18.078125l2.140625 0zm5.6271057 0l0 18.078125l-2.140625 0l0 -18.078125l2.140625 0z" fill-rule="nonzero"/><path fill="#000000" d="m305.88702 166.34814q2.65625 0 3.9375 1.03125q1.28125 1.015625 1.40625 3.0625l-2.140625 0l0 -0.03125q-0.09375 -1.03125 -0.921875 -1.59375q-0.8125 -0.578125 -2.109375 -0.578125q-1.3125 0 -2.0625 0.4375q-0.734375 0.4375 -0.734375 1.234375q0 0.71875 0.65625 1.171875q0.65625 0.453125 2.0 0.734375l2.03125 0.46875q1.90625 0.421875 2.890625 1.296875q0.984375 0.859375 0.984375 2.328125q0 1.9375 -1.5 3.046875q-1.484375 1.09375 -4.078125 1.09375q-2.5 0 -3.984375 -1.125q-1.46875 -1.125 -1.5625 -3.3125l2.15625 0q0.046875 1.21875 0.96875 1.875q0.921875 0.65625 2.546875 0.65625q1.5625 0 2.359375 -0.484375q0.8125 -0.5 0.8125 -1.46875q0 -0.875 -0.796875 -1.390625q-0.796875 -0.515625 -3.28125 -1.015625q-2.46875 -0.484375 -3.484375 -1.359375q-1.0 -0.890625 -1.0 -2.359375q0 -1.71875 1.390625 -2.71875q1.40625 -1.0 3.515625 -1.0zm10.5859375 -4.6875l0 2.625l-2.140625 0l0 -2.625l2.140625 0zm0 4.984375l0 13.09375l-2.140625 0l0 -13.09375l2.140625 0zm15.048981 -4.984375l0 18.078125l-2.140625 0l0 -1.765625l-0.046875 0q-0.515625 1.015625 -1.625 1.546875q-1.109375 0.53125 -2.5625 0.53125q-2.75 0 -4.390625 -1.90625q-1.625 -1.90625 -1.625 -4.984375q0 -3.03125 1.578125 -4.921875q1.59375 -1.890625 4.375 -1.890625q1.28125 0 2.4375 0.515625q1.15625 0.515625 1.8125 1.515625l0.046875 0l0 -6.71875l2.140625 0zm-10.125 11.640625q0 2.109375 1.09375 3.484375q1.09375 1.359375 2.96875 1.359375q1.90625 0 2.9375 -1.359375q1.046875 -1.375 1.046875 -3.578125q0 -2.234375 -1.078125 -3.59375q-1.0625 -1.375 -3.0625 -1.375q-1.859375 0 -2.890625 1.359375q-1.015625 1.34375 -1.015625 3.703125zm18.888855 -6.953125q2.8125 0 4.375 2.03125q1.5625 2.015625 1.5625 5.203125l0 0.25l-9.8125 0l0 0.171875q0 1.859375 1.09375 3.0q1.09375 1.140625 2.984375 1.140625q1.4375 0 2.28125 -0.671875q0.859375 -0.671875 1.109375 -1.890625l2.125 0q-0.421875 2.171875 -1.90625 3.328125q-1.46875 1.140625 -3.671875 1.140625q-2.078125 0 -3.5 -0.9375q-1.421875 -0.9375 -2.109375 -2.59375q-0.671875 -1.671875 -0.671875 -3.40625q0 -2.890625 1.734375 -4.828125q1.75 -1.9375 4.40625 -1.9375zm-3.875 5.59375l7.515625 0q-0.09375 -1.609375 -1.15625 -2.65625q-1.046875 -1.046875 -2.640625 -1.046875q-1.484375 0 -2.53125 1.0q-1.046875 1.0 -1.1875 2.703125zm16.385223 -5.59375q2.65625 0 3.9375 1.03125q1.28125 1.015625 1.40625 3.0625l-2.140625 0l0 -0.03125q-0.09375 -1.03125 -0.921875 -1.59375q-0.8125 -0.578125 -2.109375 -0.578125q-1.3125 0 -2.0625 0.4375q-0.734375 0.4375 -0.734375 1.234375q0 0.71875 0.65625 1.171875q0.65625 0.453125 2.0 0.734375l2.03125 0.46875q1.90625 0.421875 2.890625 1.296875q0.984375 0.859375 0.984375 2.328125q0 1.9375 -1.5 3.046875q-1.484375 1.09375 -4.078125 1.09375q-2.5 0 -3.984375 -1.125q-1.46875 -1.125 -1.5625 -3.3125l2.15625 0q0.046875 1.21875 0.96875 1.875q0.921875 0.65625 2.546875 0.65625q1.5625 0 2.359375 -0.484375q0.8125 -0.5 0.8125 -1.46875q0 -0.875 -0.796875 -1.390625q-0.796875 -0.515625 -3.28125 -1.015625q-2.46875 -0.484375 -3.484375 -1.359375q-1.0 -0.890625 -1.0 -2.359375q0 -1.71875 1.390625 -2.71875q1.40625 -1.0 3.515625 -1.0zm20.997894 0q2.96875 0 4.65625 1.921875q1.703125 1.90625 1.703125 4.9375q0 3.0625 -1.734375 4.953125q-1.71875 1.890625 -4.625 1.890625q-2.84375 0 -4.59375 -1.859375q-1.75 -1.859375 -1.75 -4.984375q0 -3.109375 1.71875 -4.984375q1.71875 -1.875 4.625 -1.875zm-4.078125 6.859375q0 2.25 1.140625 3.59375q1.15625 1.34375 2.9375 1.34375q1.78125 0 2.9375 -1.34375q1.15625 -1.359375 1.15625 -3.59375q0 -2.234375 -1.15625 -3.59375q-1.15625 -1.375 -2.953125 -1.375q-1.734375 0 -2.90625 1.34375q-1.15625 1.34375 -1.15625 3.625zm17.46576 -11.765625q0.265625 0 0.703125 0.0625q0.453125 0.0625 0.703125 0.15625l0 1.859375q-0.25 -0.078125 -0.609375 -0.125q-0.359375 -0.046875 -0.59375 -0.046875q-0.90625 0 -1.28125 0.375q-0.375 0.375 -0.375 1.03125l0 1.890625l2.546875 0l0 1.90625l-2.546875 0l0 11.1875l-2.140625 0l0 -11.1875l-2.203125 0l0 -1.90625l2.203125 0l0 -2.046875q0 -1.4375 0.90625 -2.296875q0.90625 -0.859375 2.6875 -0.859375z" fill-rule="nonzero"/><path fill="#000000" fill-opacity="0.0" d="m470.4595 505.86655l199.87405 0l0 130.01572l-199.87405 0z" fill-rule="evenodd"/><path fill="#000000" d="m529.0115 521.1084l0 2.03125l-10.078125 0l0 5.734375l9.40625 0l0 2.03125l-9.40625 0l0 6.25l10.171875 0l0 2.03125l-12.5625 0l0 -18.078125l12.46875 0zm8.987061 4.6875q2.359375 0 3.421875 1.21875q1.078125 1.203125 1.078125 3.453125l0 8.71875l-2.15625 0l0 -8.9375q0 -1.109375 -0.71875 -1.828125q-0.703125 -0.734375 -1.96875 -0.734375q-1.8125 0 -2.84375 1.125q-1.015625 1.109375 -1.015625 2.890625l0 7.484375l-2.140625 0l0 -13.09375l2.015625 0l0 2.078125l0.0625 0q0.71875 -1.234375 1.75 -1.796875q1.046875 -0.578125 2.515625 -0.578125zm12.086304 0q2.65625 0 3.9375 1.03125q1.28125 1.015625 1.40625 3.0625l-2.140625 0l0 -0.03125q-0.09375 -1.03125 -0.921875 -1.59375q-0.8125 -0.578125 -2.109375 -0.578125q-1.3125 0 -2.0625 0.4375q-0.734375 0.4375 -0.734375 1.234375q0 0.71875 0.65625 1.171875q0.65625 0.453125 2.0 0.734375l2.03125 0.46875q1.90625 0.421875 2.890625 1.296875q0.984375 0.859375 0.984375 2.328125q0 1.9375 -1.5 3.046875q-1.484375 1.09375 -4.078125 1.09375q-2.5 0 -3.984375 -1.125q-1.46875 -1.125 -1.5625 -3.3125l2.15625 0q0.046875 1.21875 0.96875 1.875q0.921875 0.65625 2.546875 0.65625q1.5625 0 2.359375 -0.484375q0.8125 -0.5 0.8125 -1.46875q0 -0.875 -0.796875 -1.390625q-0.796875 -0.515625 -3.28125 -1.015625q-2.46875 -0.484375 -3.484375 -1.359375q-1.0 -0.890625 -1.0 -2.359375q0 -1.71875 1.390625 -2.71875q1.40625 -1.0 3.515625 -1.0zm13.7578125 0q2.8125 0 4.375 2.03125q1.5625 2.015625 1.5625 5.203125l0 0.25l-9.8125 0l0 0.171875q0 1.859375 1.09375 3.0q1.09375 1.140625 2.984375 1.140625q1.4375 0 2.28125 -0.671875q0.859375 -0.671875 1.109375 -1.890625l2.125 0q-0.421875 2.171875 -1.90625 3.328125q-1.46875 1.140625 -3.671875 1.140625q-2.078125 0 -3.5 -0.9375q-1.421875 -0.9375 -2.109375 -2.59375q-0.671875 -1.671875 -0.671875 -3.40625q0 -2.890625 1.734375 -4.828125q1.75 -1.9375 4.40625 -1.9375zm-3.875 5.59375l7.515625 0q-0.09375 -1.609375 -1.15625 -2.65625q-1.046875 -1.046875 -2.640625 -1.046875q-1.484375 0 -2.53125 1.0q-1.046875 1.0 -1.1875 2.703125zm18.338379 -5.59375q1.4375 0 2.34375 0.578125q0.921875 0.578125 1.265625 1.640625q0.65625 -1.046875 1.734375 -1.625q1.078125 -0.59375 2.375 -0.59375q2.21875 0 3.28125 1.0q1.0625 1.0 1.0625 2.703125l0 9.6875l-2.15625 0l0 -8.6875q0 -1.40625 -0.59375 -2.109375q-0.59375 -0.703125 -1.9375 -0.703125q-1.609375 0 -2.515625 0.9375q-0.890625 0.9375 -0.890625 2.34375l0 8.21875l-2.171875 0l0 -8.6875q0 -1.40625 -0.59375 -2.109375q-0.59375 -0.703125 -1.859375 -0.703125q-1.015625 0 -1.8125 0.5q-0.796875 0.484375 -1.25 1.34375q-0.4375 0.859375 -0.4375 1.453125l0 8.203125l-2.140625 0l0 -13.09375l2.015625 0l0 1.921875l0.0625 0q0.734375 -1.125 1.78125 -1.671875q1.0625 -0.546875 2.4375 -0.546875zm17.527466 -4.6875l0 6.765625l0.046875 0q0.515625 -1.015625 1.59375 -1.546875q1.078125 -0.53125 2.59375 -0.53125q2.8125 0 4.421875 1.9375q1.609375 1.921875 1.609375 4.953125q0 3.03125 -1.609375 4.921875q-1.609375 1.890625 -4.359375 1.890625q-1.234375 0 -2.40625 -0.5q-1.15625 -0.515625 -1.84375 -1.5625l-0.046875 0l0 1.75l-2.15625 0l0 -18.078125l2.15625 0zm-0.078125 11.53125q0 2.265625 1.09375 3.609375q1.109375 1.34375 3.046875 1.34375q1.859375 0 2.890625 -1.328125q1.03125 -1.34375 1.03125 -3.734375q0 -2.109375 -1.09375 -3.46875q-1.078125 -1.375 -2.984375 -1.375q-1.890625 0 -2.9375 1.390625q-1.046875 1.375 -1.046875 3.5625zm15.138855 -11.53125l0 18.078125l-2.140625 0l0 -18.078125l2.140625 0zm8.79895 4.6875q2.8125 0 4.375 2.03125q1.5625 2.015625 1.5625 5.203125l0 0.25l-9.8125 0l0 0.171875q0 1.859375 1.09375 3.0q1.09375 1.140625 2.984375 1.140625q1.4375 0 2.28125 -0.671875q0.859375 -0.671875 1.109375 -1.890625l2.125 0q-0.421875 2.171875 -1.90625 3.328125q-1.46875 1.140625 -3.671875 1.140625q-2.078125 0 -3.5 -0.9375q-1.421875 -0.9375 -2.109375 -2.59375q-0.671875 -1.671875 -0.671875 -3.40625q0 -2.890625 1.734375 -4.828125q1.75 -1.9375 4.40625 -1.9375zm-3.875 5.59375l7.515625 0q-0.09375 -1.609375 -1.15625 -2.65625q-1.046875 -1.046875 -2.640625 -1.046875q-1.484375 0 -2.53125 1.0q-1.046875 1.0 -1.1875 2.703125z" fill-rule="nonzero"/><path fill="#000000" d="m520.34735 551.5084l0 2.625l-2.140625 0l0 -2.625l2.140625 0zm0 4.984375l0 13.09375l-2.140625 0l0 -13.09375l2.140625 0zm9.705261 -0.296875q2.359375 0 3.421875 1.21875q1.078125 1.203125 1.078125 3.453125l0 8.71875l-2.15625 0l0 -8.9375q0 -1.109375 -0.71875 -1.828125q-0.703125 -0.734375 -1.96875 -0.734375q-1.8125 0 -2.84375 1.125q-1.015625 1.109375 -1.015625 2.890625l0 7.484375l-2.140625 0l0 -13.09375l2.015625 0l0 2.078125l0.0625 0q0.71875 -1.234375 1.75 -1.796875q1.046875 -0.578125 2.515625 -0.578125zm20.123291 0q2.671875 0 3.796875 0.953125q1.125 0.953125 1.125 2.546875q0 6.8125 0 7.5625q0 0.734375 0.671875 0.734375q0.15625 0 0.328125 -0.03125q0.171875 -0.046875 0.328125 -0.09375l0 1.671875q-0.296875 0.171875 -0.6875 0.265625q-0.390625 0.09375 -0.84375 0.09375q-0.890625 0 -1.359375 -0.5q-0.46875 -0.5 -0.46875 -1.53125q-0.859375 1.015625 -2.03125 1.53125q-1.15625 0.5 -2.578125 0.5q-2.03125 0 -3.1875 -0.953125q-1.140625 -0.96875 -1.140625 -2.71875q0 -1.765625 1.125 -2.796875q1.125 -1.046875 5.28125 -1.5625q1.421875 -0.1875 1.921875 -0.546875q0.5 -0.359375 0.5 -1.078125q0 -1.078125 -0.703125 -1.609375q-0.703125 -0.546875 -2.21875 -0.546875q-1.59375 0 -2.390625 0.609375q-0.796875 0.59375 -0.859375 1.875l-2.15625 0q0.09375 -2.171875 1.53125 -3.265625q1.4375 -1.109375 4.015625 -1.109375zm-3.78125 9.859375q0 0.921875 0.671875 1.4375q0.671875 0.5 1.859375 0.5q1.828125 0 2.90625 -0.90625q1.09375 -0.90625 1.09375 -2.015625l0 -2.25q-0.546875 0.390625 -1.421875 0.53125q-0.859375 0.125 -2.28125 0.328125q-1.4375 0.203125 -2.140625 0.78125q-0.6875 0.5625 -0.6875 1.59375zm23.42218 -9.859375q2.65625 0 3.9375 1.03125q1.28125 1.015625 1.40625 3.0625l-2.140625 0l0 -0.03125q-0.09375 -1.03125 -0.921875 -1.59375q-0.8125 -0.578125 -2.109375 -0.578125q-1.3125 0 -2.0625 0.4375q-0.734375 0.4375 -0.734375 1.234375q0 0.71875 0.65625 1.171875q0.65625 0.453125 2.0 0.734375l2.03125 0.46875q1.90625 0.421875 2.890625 1.296875q0.984375 0.859375 0.984375 2.328125q0 1.9375 -1.5 3.046875q-1.484375 1.09375 -4.078125 1.09375q-2.5 0 -3.984375 -1.125q-1.46875 -1.125 -1.5625 -3.3125l2.15625 0q0.046875 1.21875 0.96875 1.875q0.921875 0.65625 2.546875 0.65625q1.5625 0 2.359375 -0.484375q0.8125 -0.5 0.8125 -1.46875q0 -0.875 -0.796875 -1.390625q-0.796875 -0.515625 -3.28125 -1.015625q-2.46875 -0.484375 -3.484375 -1.359375q-1.0 -0.890625 -1.0 -2.359375q0 -1.71875 1.390625 -2.71875q1.40625 -1.0 3.515625 -1.0zm10.4609375 -4.6875l0 6.90625l0.0625 0q0.46875 -1.046875 1.59375 -1.625q1.125 -0.59375 2.546875 -0.59375q2.359375 0 3.421875 1.21875q1.078125 1.203125 1.078125 3.453125l0 8.71875l-2.15625 0l0 -8.9375q0 -1.109375 -0.71875 -1.828125q-0.703125 -0.734375 -1.96875 -0.734375q-1.8125 0 -2.84375 1.125q-1.015625 1.109375 -1.015625 2.890625l0 7.484375l-2.140625 0l0 -18.078125l2.140625 0zm17.586304 4.6875q2.96875 0 4.65625 1.921875q1.703125 1.90625 1.703125 4.9375q0 3.0625 -1.734375 4.953125q-1.71875 1.890625 -4.625 1.890625q-2.84375 0 -4.59375 -1.859375q-1.75 -1.859375 -1.75 -4.984375q0 -3.109375 1.71875 -4.984375q1.71875 -1.875 4.625 -1.875zm-4.078125 6.859375q0 2.25 1.140625 3.59375q1.15625 1.34375 2.9375 1.34375q1.78125 0 2.9375 -1.34375q1.15625 -1.359375 1.15625 -3.59375q0 -2.234375 -1.15625 -3.59375q-1.15625 -1.375 -2.953125 -1.375q-1.734375 0 -2.90625 1.34375q-1.15625 1.34375 -1.15625 3.625zm14.168884 -6.5625l2.96875 10.703125l0.046875 0l2.625 -10.703125l2.359375 0l2.734375 10.640625l0.015625 0.0625l0.046875 0l2.921875 -10.703125l2.25 0l-4.171875 13.0625l-0.03125 0.03125l-2.265625 0l-2.65625 -10.34375l-0.015625 -0.0625l-0.046875 0l-2.625 10.40625l-2.328125 0l-4.203125 -13.09375l2.375 0z" fill-rule="nonzero"/><path fill="#000000" fill-opacity="0.0" d="m22.659512 505.86655l199.87401 0l0 130.01572l-199.87401 0z" fill-rule="evenodd"/><path fill="#000000" d="m92.88407 521.2334l0 17.953125l-2.15625 0l0 -12.859375l-4.65625 0l0 -1.734375l0.078125 0q2.265625 0 3.515625 -0.8125q1.25 -0.8125 1.578125 -2.546875l1.640625 0zm9.976929 15.140625l0 2.703125q0 1.390625 -0.6875 2.390625q-0.6875 1.015625 -2.09375 1.4375l0 -1.25q0.65625 -0.25 1.0625 -0.875q0.40625 -0.609375 0.40625 -1.453125l0 -0.140625l-1.484375 0l0 -2.8125l2.796875 0zm18.18332 -15.140625l0 17.953125l-2.15625 0l0 -12.859375l-4.65625 0l0 -1.734375l0.078125 0q2.265625 0 3.515625 -0.8125q1.25 -0.8125 1.578125 -2.546875l1.640625 0zm12.101936 0q1.515625 0 2.625 0.484375q1.109375 0.484375 1.875 1.484375q1.484375 1.953125 1.484375 7.171875q0 2.609375 -0.359375 4.375q-0.359375 1.765625 -1.125 2.765625q-0.75 0.96875 -1.875 1.484375q-1.109375 0.5 -2.625 0.5q-2.984375 0 -4.46875 -2.0q-1.5000076 -2.015625 -1.5000076 -7.125q0 -5.15625 1.5000076 -7.140625q1.5 -2.0 4.46875 -2.0zm-3.6875 9.109375q0 2.15625 0.234375 3.578125q0.25 1.40625 0.703125 2.171875q0.953125 1.5 2.75 1.5q2.015625 0 2.875 -1.71875q0.4375 -0.875 0.625 -2.21875q0.203125 -1.359375 0.203125 -3.234375q0 -0.640625 -0.015625 -1.40625q-0.015625 -0.78125 -0.109375 -1.578125q-0.09375 -0.8125 -0.3125 -1.578125q-0.21875 -0.765625 -0.625 -1.359375q-0.421875 -0.609375 -1.0625 -0.984375q-0.625 -0.375 -1.59375 -0.375q-0.859375 0 -1.546875 0.359375q-0.671875 0.359375 -1.171875 1.09375q-0.953125 1.46875 -0.953125 5.75zm18.305054 -9.109375q2.234375 0 3.546875 1.203125q1.3125 1.1875 1.53125 3.375l-2.15625 0q-0.171875 -1.28125 -0.984375 -1.96875q-0.796875 -0.703125 -2.03125 -0.703125q-2.078125 0 -3.171875 1.71875q-1.09375 1.71875 -1.1875 5.078125l0.0625 0.0625q0.71875 -1.1875 1.828125 -1.765625q1.109375 -0.59375 2.640625 -0.59375q2.453125 0 3.96875 1.609375q1.53125 1.609375 1.53125 4.203125q0 2.578125 -1.578125 4.3125q-1.5625 1.734375 -4.421875 1.734375q-3.046875 0 -4.609375 -2.140625q-1.5625 -2.15625 -1.5625 -6.515625q0 -4.65625 1.671875 -7.125q1.6875 -2.484375 4.921875 -2.484375zm-4.03125 12.34375q0 1.78125 1.015625 2.90625q1.03125 1.109375 2.703125 1.109375q1.59375 0 2.609375 -1.125q1.015625 -1.125 1.015625 -2.859375q0 -1.859375 -0.984375 -2.953125q-0.96875 -1.109375 -2.671875 -1.109375q-1.671875 0 -2.6875 1.125q-1.0 1.125 -1.0 2.90625zm15.461304 2.796875l0 2.703125q0 1.390625 -0.6875 2.390625q-0.6875 1.015625 -2.09375 1.4375l0 -1.25q0.65625 -0.25 1.0625 -0.875q0.40625 -0.609375 0.40625 -1.453125l0 -0.140625l-1.484375 0l0 -2.8125l2.796875 0z" fill-rule="nonzero"/><path fill="#000000" d="m79.63872 556.1959q2.96875 0 4.65625 1.921875q1.703125 1.90625 1.703125 4.9375q0 3.0625 -1.734375 4.953125q-1.71875 1.890625 -4.625 1.890625q-2.84375 0 -4.59375 -1.859375q-1.75 -1.859375 -1.75 -4.984375q0 -3.109375 1.71875 -4.984375q1.71875 -1.875 4.625 -1.875zm-4.078125 6.859375q0 2.25 1.140625 3.59375q1.15625 1.34375 2.9375 1.34375q1.78125 0 2.9375 -1.34375q1.15625 -1.359375 1.15625 -3.59375q0 -2.234375 -1.15625 -3.59375q-1.15625 -1.375 -2.953125 -1.375q-1.734375 0 -2.90625 1.34375q-1.15625 1.34375 -1.15625 3.625zm19.49701 -6.875q0.078125 0 0.125 0q0.0625 0 0.171875 0.015625l0 2.265625q-2.421875 0 -3.578125 1.296875q-1.15625 1.28125 -1.15625 3.96875l0 5.859375l-2.15625 0l0 -13.09375l2.03125 0l0 2.75l0.046875 0q0.75 -1.546875 1.859375 -2.296875q1.109375 -0.765625 2.65625 -0.765625zm16.346436 -4.546875l0 17.953125l-2.15625 0l0 -12.859375l-4.65625 0l0 -1.734375l0.078125 0q2.265625 0 3.515625 -0.8125q1.25 -0.8125 1.578125 -2.546875l1.640625 0zm11.992554 0q2.546875 0 3.984375 1.25q1.453125 1.25 1.453125 3.328125q0 1.15625 -0.640625 2.15625q-0.625 0.984375 -1.84375 1.578125q1.578125 0.46875 2.390625 1.625q0.8125 1.140625 0.8125 2.84375q0 2.46875 -1.6875 3.984375q-1.671875 1.5 -4.28125 1.5q-2.75 0 -4.421875 -1.453125q-1.671875 -1.453125 -1.671875 -4.03125q0 -1.59375 0.8125 -2.765625q0.8125 -1.1875 2.328125 -1.703125q-1.1875 -0.515625 -1.859375 -1.53125q-0.65625 -1.015625 -0.65625 -2.203125q0 -2.046875 1.515625 -3.3125q1.53125 -1.265625 3.765625 -1.265625zm-3.0 4.65625q0 1.28125 0.84375 2.09375q0.859375 0.796875 2.34375 0.796875q1.34375 0 2.15625 -0.78125q0.8125 -0.78125 0.8125 -2.109375q0 -1.3125 -0.8125 -2.03125q-0.8125 -0.71875 -2.234375 -0.71875q-1.390625 0 -2.25 0.78125q-0.859375 0.765625 -0.859375 1.96875zm-0.625 8.21875q0 1.578125 1.0625 2.53125q1.0625 0.953125 2.75 0.953125q1.59375 0 2.625 -0.984375q1.046875 -0.984375 1.046875 -2.515625q0 -1.421875 -1.09375 -2.421875q-1.078125 -1.0 -2.625 -1.0q-1.59375 0 -2.6875 0.96875q-1.078125 0.953125 -1.078125 2.46875zm18.351929 -12.875q2.234375 0 3.546875 1.203125q1.3125 1.1875 1.53125 3.375l-2.15625 0q-0.171875 -1.28125 -0.984375 -1.96875q-0.796875 -0.703125 -2.03125 -0.703125q-2.078125 0 -3.171875 1.71875q-1.09375 1.71875 -1.1875 5.078125l0.0625 0.0625q0.71875 -1.1875 1.828125 -1.765625q1.109375 -0.59375 2.640625 -0.59375q2.453125 0 3.96875 1.609375q1.53125 1.609375 1.53125 4.203125q0 2.578125 -1.578125 4.3125q-1.5625 1.734375 -4.421875 1.734375q-3.046875 0 -4.609375 -2.140625q-1.5625 -2.15625 -1.5625 -6.515625q0 -4.65625 1.671875 -7.125q1.6875 -2.484375 4.921875 -2.484375zm-4.03125 12.34375q0 1.78125 1.015625 2.90625q1.03125 1.109375 2.703125 1.109375q1.59375 0 2.609375 -1.125q1.015625 -1.125 1.015625 -2.859375q0 -1.859375 -0.984375 -2.953125q-0.96875 -1.109375 -2.671875 -1.109375q-1.671875 0 -2.6875 1.125q-1.0 1.125 -1.0 2.90625zm17.320694 -12.34375q3.109375 0 4.625 2.140625q1.515625 2.125 1.515625 6.453125q0 4.953125 -1.5625 7.3125q-1.546875 2.359375 -4.65625 2.359375q-2.3281403 0 -3.7812653 -1.171875q-1.4375 -1.1875 -1.671875 -3.46875l2.15625 0q0.171875 1.3125 1.078125 2.03125q0.90625 0.703125 2.2187653 0.703125q1.96875 0 2.953125 -1.703125q1.0 -1.71875 1.09375 -5.234375l-0.046875 -0.046875q-0.640625 1.140625 -1.734375 1.8125q-1.09375 0.65625 -2.4375 0.65625q-2.6250153 0 -4.1406403 -1.609375q-1.515625 -1.625 -1.515625 -4.390625q0 -2.546875 1.65625 -4.1875q1.671875 -1.65625 4.2500153 -1.65625zm-3.6250153 6.140625q0 1.546875 1.03125 2.6875q1.046875 1.125 2.5156403 1.125q1.59375 0 2.625 -1.140625q1.046875 -1.15625 1.046875 -2.8125q0 -1.734375 -1.0 -2.90625q-0.984375 -1.1875 -2.71875 -1.1875q-1.6406403 0 -2.5781403 1.140625q-0.921875 1.140625 -0.921875 3.09375zm17.976944 -6.140625q1.515625 0 2.625 0.484375q1.109375 0.484375 1.875 1.484375q1.484375 1.953125 1.484375 7.171875q0 2.609375 -0.359375 4.375q-0.359375 1.765625 -1.125 2.765625q-0.75 0.96875 -1.875 1.484375q-1.109375 0.5 -2.625 0.5q-2.984375 0 -4.46875 -2.0q-1.5 -2.015625 -1.5 -7.125q0 -5.15625 1.5 -7.140625q1.5 -2.0 4.46875 -2.0zm-3.6875 9.109375q0 2.15625 0.234375 3.578125q0.25 1.40625 0.703125 2.171875q0.953125 1.5 2.75 1.5q2.015625 0 2.875 -1.71875q0.4375 -0.875 0.625 -2.21875q0.203125 -1.359375 0.203125 -3.234375q0 -0.640625 -0.015625 -1.40625q-0.015625 -0.78125 -0.109375 -1.578125q-0.09375 -0.8125 -0.3125 -1.578125q-0.21875 -0.765625 -0.625 -1.359375q-0.421875 -0.609375 -1.0625 -0.984375q-0.625 -0.375 -1.59375 -0.375q-0.859375 0 -1.546875 0.359375q-0.671875 0.359375 -1.171875 1.09375q-0.953125 1.46875 -0.953125 5.75z" fill-rule="nonzero"/><path fill="#000000" fill-opacity="0.0" d="m18.150326 202.54729l199.87401 0l0 130.01576l-199.87401 0z" fill-rule="evenodd"/><path fill="#000000" d="m76.501854 217.78917l7.0625 18.078125l-2.65625 0l-1.96875 -5.4375l-7.65625 0l-2.03125 5.4375l-2.46875 0l7.0625 -18.078125l2.65625 0zm-1.390625 2.171875l-3.0625 8.4375l6.125 0l-3.0 -8.4375l-0.0625 0zm16.333221 2.515625q2.8125 0 4.421875 1.9375q1.609375 1.921875 1.609375 4.953125q0 3.03125 -1.609375 4.921875q-1.609375 1.890625 -4.359375 1.890625q-1.234375 0 -2.40625 -0.5q-1.15625 -0.515625 -1.84375 -1.5625l-0.046875 0l0 6.765625l-2.15625 0l0 -18.109375l2.15625 0l0 1.78125l0.046875 0q0.515625 -1.015625 1.609375 -1.546875q1.09375 -0.53125 2.578125 -0.53125zm-4.3125 6.84375q0 2.265625 1.09375 3.609375q1.109375 1.34375 3.046875 1.34375q1.859375 0 2.890625 -1.328125q1.03125 -1.34375 1.03125 -3.734375q0 -2.109375 -1.09375 -3.46875q-1.078125 -1.375 -2.984375 -1.375q-1.890625 0 -2.9375 1.390625q-1.046875 1.375 -1.046875 3.5625zm19.32634 -6.84375q2.8125 0 4.421875 1.9375q1.609375 1.921875 1.609375 4.953125q0 3.03125 -1.609375 4.921875q-1.609375 1.890625 -4.359375 1.890625q-1.234375 0 -2.40625 -0.5q-1.15625 -0.515625 -1.84375 -1.5625l-0.046875 0l0 6.765625l-2.15625 0l0 -18.109375l2.15625 0l0 1.78125l0.046875 0q0.515625 -1.015625 1.609375 -1.546875q1.09375 -0.53125 2.578125 -0.53125zm-4.3125 6.84375q0 2.265625 1.09375 3.609375q1.109375 1.34375 3.046875 1.34375q1.859375 0 2.890625 -1.328125q1.03125 -1.34375 1.03125 -3.734375q0 -2.109375 -1.09375 -3.46875q-1.078125 -1.375 -2.984375 -1.375q-1.890625 0 -2.9375 1.390625q-1.046875 1.375 -1.046875 3.5625zm19.38884 -6.859375q0.078125 0 0.125 0q0.0625 0 0.171875 0.015625l0 2.265625q-2.421875 0 -3.578125 1.296875q-1.15625 1.28125 -1.15625 3.96875l0 5.859375l-2.15625 0l0 -13.09375l2.03125 0l0 2.75l0.046875 0q0.75 -1.546875 1.859375 -2.296875q1.109375 -0.765625 2.65625 -0.765625zm7.1017838 0.015625q2.96875 0 4.65625 1.921875q1.703125 1.90625 1.703125 4.9375q0 3.0625 -1.734375 4.953125q-1.71875 1.890625 -4.625 1.890625q-2.8437576 0 -4.5937576 -1.859375q-1.75 -1.859375 -1.75 -4.984375q0 -3.109375 1.71875 -4.984375q1.71875 -1.875 4.6250076 -1.875zm-4.0781326 6.859375q0 2.25 1.140625 3.59375q1.15625 1.34375 2.9375076 1.34375q1.78125 0 2.9375 -1.34375q1.15625 -1.359375 1.15625 -3.59375q0 -2.234375 -1.15625 -3.59375q-1.15625 -1.375 -2.953125 -1.375q-1.7343826 0 -2.9062576 1.34375q-1.15625 1.34375 -1.15625 3.625zm14.122017 -6.5625l3.671875 10.921875l0.046875 0l3.5625 -10.921875l2.265625 0l-4.796875 13.09375l-2.296875 0l-4.859375 -13.09375l2.40625 0zm16.960938 -0.296875q2.8125 0 4.375 2.03125q1.5625 2.015625 1.5625 5.203125l0 0.25l-9.8125 0l0 0.171875q0 1.859375 1.09375 3.0q1.09375 1.140625 2.984375 1.140625q1.4375 0 2.28125 -0.671875q0.859375 -0.671875 1.109375 -1.890625l2.125 0q-0.421875 2.171875 -1.90625 3.328125q-1.46875 1.140625 -3.671875 1.140625q-2.078125 0 -3.5 -0.9375q-1.421875 -0.9375 -2.109375 -2.59375q-0.671875 -1.671875 -0.671875 -3.40625q0 -2.890625 1.734375 -4.828125q1.75 -1.9375 4.40625 -1.9375zm-3.875 5.59375l7.515625 0q-0.09375 -1.609375 -1.15625 -2.65625q-1.046875 -1.046875 -2.640625 -1.046875q-1.484375 0 -2.53125 1.0q-1.046875 1.0 -1.1875 2.703125zm15.322723 4.984375l0 2.703125q0 1.390625 -0.6875 2.390625q-0.6875 1.015625 -2.09375 1.4375l0 -1.25q0.65625 -0.25 1.0625 -0.875q0.40625 -0.609375 0.40625 -1.453125l0 -0.140625l-1.484375 0l0 -2.8125l2.796875 0z" fill-rule="nonzero"/><path fill="#000000" d="m66.18182 252.87666q2.671875 0 3.796875 0.953125q1.125 0.953125 1.125 2.5468903q0 6.8125 0 7.5625q0 0.734375 0.671875 0.734375q0.15625 0 0.328125 -0.03125q0.171875 -0.046875 0.328125 -0.09375l0 1.671875q-0.296875 0.171875 -0.6875 0.265625q-0.390625 0.09375 -0.84375 0.09375q-0.890625 0 -1.359375 -0.5q-0.46875 -0.5 -0.46875 -1.53125q-0.859375 1.015625 -2.03125 1.53125q-1.15625 0.5 -2.578125 0.5q-2.0312462 0 -3.1874962 -0.953125q-1.140625 -0.96875 -1.140625 -2.71875q0 -1.765625 1.125 -2.796875q1.125 -1.046875 5.281246 -1.5625q1.421875 -0.1875 1.921875 -0.546875q0.5 -0.359375 0.5 -1.078125q0 -1.0781403 -0.703125 -1.6093903q-0.703125 -0.546875 -2.21875 -0.546875q-1.59375 0 -2.3906212 0.609375q-0.796875 0.59375 -0.859375 1.8750153l-2.15625 0q0.09375 -2.1718903 1.53125 -3.2656403q1.4375 -1.109375 4.015621 -1.109375zm-3.7812462 9.85939q0 0.921875 0.671875 1.4375q0.671875 0.5 1.8593712 0.5q1.828125 0 2.90625 -0.90625q1.09375 -0.90625 1.09375 -2.015625l0 -2.25q-0.546875 0.390625 -1.421875 0.53125q-0.859375 0.125 -2.28125 0.328125q-1.4374962 0.203125 -2.1406212 0.78125q-0.6875 0.5625 -0.6875 1.59375zm16.38522 -9.85939q2.65625 0 3.9375 1.03125q1.28125 1.015625 1.40625 3.0625153l-2.140625 0l0 -0.03125q-0.09375 -1.0312653 -0.921875 -1.5937653q-0.8125 -0.578125 -2.109375 -0.578125q-1.3125 0 -2.0625 0.4375q-0.734375 0.4375 -0.734375 1.2343903q0 0.71875 0.65625 1.171875q0.65625 0.453125 2.0 0.734375l2.03125 0.46875q1.90625 0.421875 2.890625 1.296875q0.984375 0.859375 0.984375 2.328125q0 1.9375 -1.5 3.046875q-1.484375 1.09375 -4.078125 1.09375q-2.5 0 -3.984375 -1.125q-1.46875 -1.125 -1.5625 -3.3125l2.15625 0q0.046875 1.21875 0.96875 1.875q0.921875 0.65625 2.546875 0.65625q1.5625 0 2.359375 -0.484375q0.8125 -0.5 0.8125 -1.46875q0 -0.875 -0.796875 -1.390625q-0.796875 -0.515625 -3.28125 -1.015625q-2.46875 -0.484375 -3.484375 -1.359375q-1.0 -0.890625 -1.0 -2.359375q0 -1.7187653 1.390625 -2.7187653q1.40625 -1.0 3.515625 -1.0zm20.701035 0q2.671875 0 3.796875 0.953125q1.125 0.953125 1.125 2.5468903q0 6.8125 0 7.5625q0 0.734375 0.671875 0.734375q0.15625 0 0.328125 -0.03125q0.171875 -0.046875 0.328125 -0.09375l0 1.671875q-0.296875 0.171875 -0.6875 0.265625q-0.390625 0.09375 -0.84375 0.09375q-0.890625 0 -1.359375 -0.5q-0.46875 -0.5 -0.46875 -1.53125q-0.859375 1.015625 -2.03125 1.53125q-1.15625 0.5 -2.578125 0.5q-2.03125 0 -3.1875 -0.953125q-1.140625 -0.96875 -1.140625 -2.71875q0 -1.765625 1.125 -2.796875q1.125 -1.046875 5.28125 -1.5625q1.421875 -0.1875 1.921875 -0.546875q0.5 -0.359375 0.5 -1.078125q0 -1.0781403 -0.703125 -1.6093903q-0.703125 -0.546875 -2.21875 -0.546875q-1.59375 0 -2.390625 0.609375q-0.796875 0.59375 -0.859375 1.8750153l-2.15625 0q0.09375 -2.1718903 1.53125 -3.2656403q1.4375 -1.109375 4.015625 -1.109375zm-3.78125 9.85939q0 0.921875 0.671875 1.4375q0.671875 0.5 1.859375 0.5q1.828125 0 2.90625 -0.90625q1.09375 -0.90625 1.09375 -2.015625l0 -2.25q-0.546875 0.390625 -1.421875 0.53125q-0.859375 0.125 -2.28125 0.328125q-1.4375 0.203125 -2.140625 0.78125q-0.6875 0.5625 -0.6875 1.59375zm22.06282 -13.48439l0 3.921875l2.609375 0l0 1.90625l-2.609375 0l0 8.187515q0 0.984375 0.640625 1.046875q0.65625 0.046875 1.359375 0.046875l0.609375 0l0 1.90625l-1.78125 0q-1.765625 0 -2.375 -0.625q-0.59375 -0.640625 -0.59375 -2.125l0 -8.437515l-2.25 0l0 -1.90625l2.25 0l0 -3.921875l2.140625 0zm11.508133 3.609375q0.078125 0 0.125 0q0.0625 0 0.171875 0.015625l0 2.265625q-2.421875 0 -3.578125 1.2968903q-1.15625 1.28125 -1.15625 3.96875l0 5.859375l-2.15625 0l0 -13.093765l2.03125 0l0 2.75l0.046875 0q0.75 -1.546875 1.859375 -2.296875q1.109375 -0.765625 2.65625 -0.765625zm6.898651 0.015625q2.8125 0 4.375 2.03125q1.5625 2.0156403 1.5625 5.2031403l0 0.25l-9.8125 0l0 0.171875q0 1.859375 1.09375 3.0q1.09375 1.140625 2.984375 1.140625q1.4375 0 2.28125 -0.671875q0.859375 -0.671875 1.109375 -1.890625l2.125 0q-0.421875 2.171875 -1.90625 3.328125q-1.46875 1.140625 -3.671875 1.140625q-2.078125 0 -3.5 -0.9375q-1.421875 -0.9375 -2.109375 -2.59375q-0.671875 -1.671875 -0.671875 -3.40625q0 -2.890625 1.734375 -4.8281403q1.75 -1.9375 4.40625 -1.9375zm-3.875 5.5937653l7.515625 0q-0.09375 -1.609375 -1.15625 -2.6562653q-1.046875 -1.046875 -2.640625 -1.046875q-1.484375 0 -2.53125 1.0q-1.046875 1.0000153 -1.1875 2.7031403zm17.385239 -5.5937653q2.671875 0 3.796875 0.953125q1.125 0.953125 1.125 2.5468903q0 6.8125 0 7.5625q0 0.734375 0.671875 0.734375q0.15625 0 0.328125 -0.03125q0.171875 -0.046875 0.328125 -0.09375l0 1.671875q-0.296875 0.171875 -0.6875 0.265625q-0.390625 0.09375 -0.84375 0.09375q-0.890625 0 -1.359375 -0.5q-0.46875 -0.5 -0.46875 -1.53125q-0.859375 1.015625 -2.03125 1.53125q-1.15625 0.5 -2.578125 0.5q-2.0312653 0 -3.1875153 -0.953125q-1.140625 -0.96875 -1.140625 -2.71875q0 -1.765625 1.125 -2.796875q1.125 -1.046875 5.2812653 -1.5625q1.421875 -0.1875 1.921875 -0.546875q0.5 -0.359375 0.5 -1.078125q0 -1.0781403 -0.703125 -1.6093903q-0.703125 -0.546875 -2.21875 -0.546875q-1.59375 0 -2.390625 0.609375q-0.796875 0.59375 -0.859375 1.8750153l-2.1562653 0q0.09375 -2.1718903 1.53125 -3.2656403q1.4375153 -1.109375 4.0156403 -1.109375zm-3.7812653 9.85939q0 0.921875 0.67189026 1.4375q0.671875 0.5 1.859375 0.5q1.828125 0 2.90625 -0.90625q1.09375 -0.90625 1.09375 -2.015625l0 -2.25q-0.546875 0.390625 -1.421875 0.53125q-0.859375 0.125 -2.28125 0.328125q-1.4375 0.203125 -2.140625 0.78125q-0.68751526 0.5625 -0.68751526 1.59375zm15.025864 -13.48439l0 3.921875l2.609375 0l0 1.90625l-2.609375 0l0 8.187515q0 0.984375 0.640625 1.046875q0.65625 0.046875 1.359375 0.046875l0.609375 0l0 1.90625l-1.78125 0q-1.765625 0 -2.375 -0.625q-0.59375 -0.640625 -0.59375 -2.125l0 -8.437515l-2.25 0l0 -1.90625l2.25 0l0 -3.921875l2.140625 0zm6.0081177 3.921875l3.8125 10.70314l0.046875 0l3.671875 -10.70314l2.296875 0l-5.5625 14.48439q-0.890625 2.265625 -1.703125 3.0625q-0.796875 0.796875 -2.234375 0.796875q-0.390625 0 -0.765625 -0.0625q-0.375 -0.046875 -0.734375 -0.171875l0 -1.96875q0.3125 0.09375 0.625 0.1875q0.3125 0.109375 0.640625 0.109375q1.3125 0 1.828125 -1.3125q0.515625 -1.3125 0.828125 -2.109375l-5.1875 -13.01564l2.4375 0z" fill-rule="nonzero"/><path fill="#000000" fill-opacity="0.0" d="m470.4595 202.54729l199.87405 0l0 130.01576l-199.87405 0z" fill-rule="evenodd"/><path fill="#000000" d="m542.6549 217.78917q2.484375 0 3.953125 1.34375q1.484375 1.34375 1.484375 4.0q0 2.65625 -1.484375 4.0q-1.46875 1.34375 -3.78125 1.34375l-5.8125 0l0 7.390625l-2.390625 0l0 -18.078125l8.03125 0zm-0.671875 8.65625q1.71875 0 2.703125 -0.8125q1.0 -0.8125 1.0 -2.5q0 -1.671875 -0.984375 -2.484375q-0.96875 -0.828125 -2.859375 -0.828125l-4.828125 0l0 6.625l4.96875 0zm10.958252 -8.65625l0 18.078125l-2.140625 0l0 -18.078125l2.140625 0zm8.7052 4.6875q2.671875 0 3.796875 0.953125q1.125 0.953125 1.125 2.546875q0 6.8125 0 7.5625q0 0.734375 0.671875 0.734375q0.15625 0 0.328125 -0.03125q0.171875 -0.046875 0.328125 -0.09375l0 1.671875q-0.296875 0.171875 -0.6875 0.265625q-0.390625 0.09375 -0.84375 0.09375q-0.890625 0 -1.359375 -0.5q-0.46875 -0.5 -0.46875 -1.53125q-0.859375 1.015625 -2.03125 1.53125q-1.15625 0.5 -2.578125 0.5q-2.03125 0 -3.1875 -0.953125q-1.140625 -0.96875 -1.140625 -2.71875q0 -1.765625 1.125 -2.796875q1.125 -1.046875 5.28125 -1.5625q1.421875 -0.1875 1.921875 -0.546875q0.5 -0.359375 0.5 -1.078125q0 -1.078125 -0.703125 -1.609375q-0.703125 -0.546875 -2.21875 -0.546875q-1.59375 0 -2.390625 0.609375q-0.796875 0.59375 -0.859375 1.875l-2.15625 0q0.09375 -2.171875 1.53125 -3.265625q1.4375 -1.109375 4.015625 -1.109375zm-3.78125 9.859375q0 0.921875 0.671875 1.4375q0.671875 0.5 1.859375 0.5q1.828125 0 2.90625 -0.90625q1.09375 -0.90625 1.09375 -2.015625l0 -2.25q-0.546875 0.390625 -1.421875 0.53125q-0.859375 0.125 -2.28125 0.328125q-1.4375 0.203125 -2.140625 0.78125q-0.6875 0.5625 -0.6875 1.59375zm16.385254 -9.859375q2.65625 0 3.9375 1.03125q1.28125 1.015625 1.40625 3.0625l-2.140625 0l0 -0.03125q-0.09375 -1.03125 -0.921875 -1.59375q-0.8125 -0.578125 -2.109375 -0.578125q-1.3125 0 -2.0625 0.4375q-0.734375 0.4375 -0.734375 1.234375q0 0.71875 0.65625 1.171875q0.65625 0.453125 2.0 0.734375l2.03125 0.46875q1.90625 0.421875 2.890625 1.296875q0.984375 0.859375 0.984375 2.328125q0 1.9375 -1.5 3.046875q-1.484375 1.09375 -4.078125 1.09375q-2.5 0 -3.984375 -1.125q-1.46875 -1.125 -1.5625 -3.3125l2.15625 0q0.046875 1.21875 0.96875 1.875q0.921875 0.65625 2.546875 0.65625q1.5625 0 2.359375 -0.484375q0.8125 -0.5 0.8125 -1.46875q0 -0.875 -0.796875 -1.390625q-0.796875 -0.515625 -3.28125 -1.015625q-2.46875 -0.484375 -3.484375 -1.359375q-1.0 -0.890625 -1.0 -2.359375q0 -1.71875 1.390625 -2.71875q1.40625 -1.0 3.515625 -1.0zm11.3046875 -3.625l0 3.921875l2.609375 0l0 1.90625l-2.609375 0l0 8.1875q0 0.984375 0.640625 1.046875q0.65625 0.046875 1.359375 0.046875l0.609375 0l0 1.90625l-1.78125 0q-1.765625 0 -2.375 -0.625q-0.59375 -0.640625 -0.59375 -2.125l0 -8.4375l-2.25 0l0 -1.90625l2.25 0l0 -3.921875l2.140625 0zm7.2581177 -1.0625l0 2.625l-2.140625 0l0 -2.625l2.140625 0zm0 4.984375l0 13.09375l-2.140625 0l0 -13.09375l2.140625 0zm8.8302 -0.296875q2.390625 0 3.890625 1.140625q1.5 1.125 1.75 3.359375l-2.21875 0q-0.265625 -1.28125 -1.109375 -1.9375q-0.84375 -0.671875 -2.140625 -0.671875q-2.0 0 -3.046875 1.34375q-1.03125 1.34375 -1.03125 3.78125q0 2.171875 1.03125 3.484375q1.03125 1.296875 2.796875 1.296875q1.5625 0 2.46875 -0.84375q0.921875 -0.859375 1.125 -2.34375l2.203125 0q-0.359375 2.4375 -1.84375 3.765625q-1.484375 1.328125 -3.9375 1.328125q-2.84375 0 -4.484375 -1.796875q-1.625 -1.8125 -1.625 -4.890625q0 -3.21875 1.640625 -5.109375q1.65625 -1.90625 4.53125 -1.90625z" fill-rule="nonzero"/><path fill="#000000" d="m563.30304 248.18916l0 18.07814l-2.140625 0l0 -1.765625l-0.046875 0q-0.515625 1.015625 -1.625 1.546875q-1.109375 0.53125 -2.5625 0.53125q-2.75 0 -4.390625 -1.90625q-1.625 -1.90625 -1.625 -4.984375q0 -3.03125 1.578125 -4.9218903q1.59375 -1.890625 4.375 -1.890625q1.28125 0 2.4375 0.515625q1.15625 0.515625 1.8125 1.515625l0.046875 0l0 -6.71875l2.140625 0zm-10.125 11.64064q0 2.109375 1.09375 3.484375q1.09375 1.359375 2.96875 1.359375q1.90625 0 2.9375 -1.359375q1.046875 -1.375 1.046875 -3.578125q0 -2.234375 -1.078125 -3.59375q-1.0625 -1.3750153 -3.0625 -1.3750153q-1.859375 0 -2.890625 1.3593903q-1.015625 1.34375 -1.015625 3.703125zm19.09198 -6.9531403q2.96875 0 4.65625 1.921875q1.703125 1.9062653 1.703125 4.9375153q0 3.0625 -1.734375 4.953125q-1.71875 1.890625 -4.625 1.890625q-2.84375 0 -4.59375 -1.859375q-1.75 -1.859375 -1.75 -4.984375q0 -3.109375 1.71875 -4.9843903q1.71875 -1.875 4.625 -1.875zm-4.078125 6.8593903q0 2.25 1.140625 3.59375q1.15625 1.34375 2.9375 1.34375q1.78125 0 2.9375 -1.34375q1.15625 -1.359375 1.15625 -3.59375q0 -2.234375 -1.15625 -3.59375q-1.15625 -1.3750153 -2.953125 -1.3750153q-1.734375 0 -2.90625 1.3437653q-1.15625 1.34375 -1.15625 3.625zm15.247009 -11.54689l0 18.07814l-2.140625 0l0 -18.07814l2.140625 0zm5.627075 0l0 18.07814l-2.140625 0l0 -18.07814l2.140625 0z" fill-rule="nonzero"/><path fill="#000000" fill-opacity="0.0" d="m246.55951 591.7398l199.87402 0l0 130.01575l-199.87402 0z" fill-rule="evenodd"/><path fill="#000000" d="m276.28183 606.5442q3.015625 0 5.03125 1.5625q2.03125 1.5625 2.421875 4.3125l-2.40625 0q-0.390625 -1.859375 -1.734375 -2.84375q-1.34375 -1.0 -3.328125 -1.0q-2.875 0 -4.5 2.03125q-1.625 2.03125 -1.625 5.28125q0 3.46875 1.59375 5.53125q1.59375 2.046875 4.546875 2.046875q2.21875 0 3.625 -1.40625q1.421875 -1.40625 1.59375 -3.8125l2.421875 0q-0.40625 3.515625 -2.453125 5.390625q-2.046875 1.859375 -5.375 1.859375q-3.890625 0 -6.125 -2.578125q-2.234375 -2.578125 -2.234375 -6.84375q0 -4.21875 2.3125 -6.875q2.3125 -2.65625 6.234375 -2.65625zm15.916168 5.125q2.96875 0 4.65625 1.921875q1.703125 1.90625 1.703125 4.9375q0 3.0625 -1.734375 4.953125q-1.71875 1.890625 -4.625 1.890625q-2.84375 0 -4.59375 -1.859375q-1.75 -1.859375 -1.75 -4.984375q0 -3.109375 1.71875 -4.984375q1.71875 -1.875 4.625 -1.875zm-4.078125 6.859375q0 2.25 1.140625 3.59375q1.15625 1.34375 2.9375 1.34375q1.78125 0 2.9375 -1.34375q1.15625 -1.359375 1.15625 -3.59375q0 -2.234375 -1.15625 -3.59375q-1.15625 -1.375 -2.953125 -1.375q-1.734375 0 -2.90625 1.34375q-1.15625 1.34375 -1.15625 3.625zm19.325134 -6.859375q2.359375 0 3.421875 1.21875q1.078125 1.203125 1.078125 3.453125l0 8.71875l-2.15625 0l0 -8.9375q0 -1.109375 -0.71875 -1.828125q-0.703125 -0.734375 -1.96875 -0.734375q-1.8125 0 -2.84375 1.125q-1.015625 1.109375 -1.015625 2.890625l0 7.484375l-2.140625 0l0 -13.09375l2.015625 0l0 2.078125l0.0625 0q0.71875 -1.234375 1.75 -1.796875q1.046875 -0.578125 2.515625 -0.578125zm10.726929 -3.625l0 3.921875l2.609375 0l0 1.90625l-2.609375 0l0 8.1875q0 0.984375 0.640625 1.046875q0.65625 0.046875 1.359375 0.046875l0.609375 0l0 1.90625l-1.78125 0q-1.765625 0 -2.375 -0.625q-0.59375 -0.640625 -0.59375 -2.125l0 -8.4375l-2.25 0l0 -1.90625l2.25 0l0 -3.921875l2.140625 0zm10.336243 3.625q2.671875 0 3.796875 0.953125q1.125 0.953125 1.125 2.546875q0 6.8125 0 7.5625q0 0.734375 0.671875 0.734375q0.15625 0 0.328125 -0.03125q0.171875 -0.046875 0.328125 -0.09375l0 1.671875q-0.296875 0.171875 -0.6875 0.265625q-0.390625 0.09375 -0.84375 0.09375q-0.890625 0 -1.359375 -0.5q-0.46875 -0.5 -0.46875 -1.53125q-0.859375 1.015625 -2.03125 1.53125q-1.15625 0.5 -2.578125 0.5q-2.03125 0 -3.1875 -0.953125q-1.140625 -0.96875 -1.140625 -2.71875q0 -1.765625 1.125 -2.796875q1.125 -1.046875 5.28125 -1.5625q1.421875 -0.1875 1.921875 -0.546875q0.5 -0.359375 0.5 -1.078125q0 -1.078125 -0.703125 -1.609375q-0.703125 -0.546875 -2.21875 -0.546875q-1.59375 0 -2.390625 0.609375q-0.796875 0.59375 -0.859375 1.875l-2.15625 0q0.09375 -2.171875 1.53125 -3.265625q1.4375 -1.109375 4.015625 -1.109375zm-3.78125 9.859375q0 0.921875 0.671875 1.4375q0.671875 0.5 1.859375 0.5q1.828125 0 2.90625 -0.90625q1.09375 -0.90625 1.09375 -2.015625l0 -2.25q-0.546875 0.390625 -1.421875 0.53125q-0.859375 0.125 -2.28125 0.328125q-1.4375 0.203125 -2.140625 0.78125q-0.6875 0.5625 -0.6875 1.59375zm18.338348 -9.859375q1.4375 0 2.34375 0.578125q0.921875 0.578125 1.265625 1.640625q0.65625 -1.046875 1.734375 -1.625q1.078125 -0.59375 2.375 -0.59375q2.21875 0 3.28125 1.0q1.0625 1.0 1.0625 2.703125l0 9.6875l-2.15625 0l0 -8.6875q0 -1.40625 -0.59375 -2.109375q-0.59375 -0.703125 -1.9375 -0.703125q-1.609375 0 -2.515625 0.9375q-0.890625 0.9375 -0.890625 2.34375l0 8.21875l-2.171875 0l0 -8.6875q0 -1.40625 -0.59375 -2.109375q-0.59375 -0.703125 -1.859375 -0.703125q-1.015625 0 -1.8125 0.5q-0.796875 0.484375 -1.25 1.34375q-0.4375 0.859375 -0.4375 1.453125l0 8.203125l-2.140625 0l0 -13.09375l2.015625 0l0 1.921875l0.0625 0q0.734375 -1.125 1.78125 -1.671875q1.0625 -0.546875 2.4375 -0.546875zm17.57434 -4.6875l0 2.625l-2.140625 0l0 -2.625l2.140625 0zm0 4.984375l0 13.09375l-2.140625 0l0 -13.09375l2.140625 0zm9.705231 -0.296875q2.359375 0 3.421875 1.21875q1.078125 1.203125 1.078125 3.453125l0 8.71875l-2.15625 0l0 -8.9375q0 -1.109375 -0.71875 -1.828125q-0.703125 -0.734375 -1.96875 -0.734375q-1.8125 0 -2.84375 1.125q-1.015625 1.109375 -1.015625 2.890625l0 7.484375l-2.140625 0l0 -13.09375l2.015625 0l0 2.078125l0.0625 0q0.71875 -1.234375 1.75 -1.796875q1.046875 -0.578125 2.515625 -0.578125zm13.086304 0q2.671875 0 3.796875 0.953125q1.125 0.953125 1.125 2.546875q0 6.8125 0 7.5625q0 0.734375 0.671875 0.734375q0.15625 0 0.328125 -0.03125q0.171875 -0.046875 0.328125 -0.09375l0 1.671875q-0.296875 0.171875 -0.6875 0.265625q-0.390625 0.09375 -0.84375 0.09375q-0.890625 0 -1.359375 -0.5q-0.46875 -0.5 -0.46875 -1.53125q-0.859375 1.015625 -2.03125 1.53125q-1.15625 0.5 -2.578125 0.5q-2.03125 0 -3.1875 -0.953125q-1.140625 -0.96875 -1.140625 -2.71875q0 -1.765625 1.125 -2.796875q1.125 -1.046875 5.28125 -1.5625q1.421875 -0.1875 1.921875 -0.546875q0.5 -0.359375 0.5 -1.078125q0 -1.078125 -0.703125 -1.609375q-0.703125 -0.546875 -2.21875 -0.546875q-1.59375 0 -2.390625 0.609375q-0.796875 0.59375 -0.859375 1.875l-2.15625 0q0.09375 -2.171875 1.53125 -3.265625q1.4375 -1.109375 4.015625 -1.109375zm-3.78125 9.859375q0 0.921875 0.671875 1.4375q0.671875 0.5 1.859375 0.5q1.828125 0 2.90625 -0.90625q1.09375 -0.90625 1.09375 -2.015625l0 -2.25q-0.546875 0.390625 -1.421875 0.53125q-0.859375 0.125 -2.28125 0.328125q-1.4375 0.203125 -2.140625 0.78125q-0.6875 0.5625 -0.6875 1.59375zm15.025848 -13.484375l0 3.921875l2.609375 0l0 1.90625l-2.609375 0l0 8.1875q0 0.984375 0.640625 1.046875q0.65625 0.046875 1.359375 0.046875l0.609375 0l0 1.90625l-1.78125 0q-1.765625 0 -2.375 -0.625q-0.59375 -0.640625 -0.59375 -2.125l0 -8.4375l-2.25 0l0 -1.90625l2.25 0l0 -3.921875l2.140625 0zm10.120758 3.625q2.8125 0 4.375 2.03125q1.5625 2.015625 1.5625 5.203125l0 0.25l-9.8125 0l0 0.171875q0 1.859375 1.09375 3.0q1.09375 1.140625 2.984375 1.140625q1.4375 0 2.28125 -0.671875q0.859375 -0.671875 1.109375 -1.890625l2.125 0q-0.421875 2.171875 -1.90625 3.328125q-1.46875 1.140625 -3.671875 1.140625q-2.078125 0 -3.5 -0.9375q-1.421875 -0.9375 -2.109375 -2.59375q-0.671875 -1.671875 -0.671875 -3.40625q0 -2.890625 1.734375 -4.828125q1.75 -1.9375 4.40625 -1.9375zm-3.875 5.59375l7.515625 0q-0.09375 -1.609375 -1.15625 -2.65625q-1.046875 -1.046875 -2.640625 -1.046875q-1.484375 0 -2.53125 1.0q-1.046875 1.0 -1.1875 2.703125zm23.728973 -10.28125l0 18.078125l-2.140625 0l0 -1.765625l-0.046875 0q-0.515625 1.015625 -1.625 1.546875q-1.109375 0.53125 -2.5625 0.53125q-2.75 0 -4.390625 -1.90625q-1.625 -1.90625 -1.625 -4.984375q0 -3.03125 1.578125 -4.921875q1.59375 -1.890625 4.375 -1.890625q1.28125 0 2.4375 0.515625q1.15625 0.515625 1.8125 1.515625l0.046875 0l0 -6.71875l2.140625 0zm-10.125 11.640625q0 2.109375 1.09375 3.484375q1.09375 1.359375 2.96875 1.359375q1.90625 0 2.9375 -1.359375q1.046875 -1.375 1.046875 -3.578125q0 -2.234375 -1.078125 -3.59375q-1.0625 -1.375 -3.0625 -1.375q-1.859375 0 -2.890625 1.359375q-1.015625 1.34375 -1.015625 3.703125z" fill-rule="nonzero"/></g></svg>