<svg version="1.1" viewBox="0.0 0.0 690.3333333333334 797.3333333333334" fill="none" stroke="none" stroke-linecap="square" stroke-miterlimit="10" xmlns:xlink="http://www.w3.org/1999/xlink" xmlns="http://www.w3.org/2000/svg"><clipPath id="p.0"><path d="m0 0l690.3333 0l0 797.3333l-690.3333 0l0 -797.3333z" clip-rule="nonzero"/></clipPath><g clip-path="url(#p.0)"><path fill="#ffffff" d="m0 0l690.3333 0l0 797.3333l-690.3333 0z" fill-rule="evenodd"/><path fill="#000000" fill-opacity="0.0" d="m7.4908137 591.7192l337.35434 -584.22046l337.3543 584.22046z" fill-rule="evenodd"/><path stroke="#000000" stroke-width="8.0" stroke-linejoin="round" stroke-linecap="butt" d="m7.4908137 591.7192l337.35434 -584.22046l337.3543 584.22046z" fill-rule="evenodd"/><path fill="#000000" fill-opacity="0.0" d="m7.50659 202.11285l337.35434 584.22046l337.35434 -584.22046z" fill-rule="evenodd"/><path stroke="#000000" stroke-width="8.0" stroke-linejoin="round" stroke-linecap="butt" d="m7.50659 202.11285l337.35434 584.22046l337.35434 -584.22046z" fill-rule="evenodd"/><path fill="#000000" fill-opacity="0.0" d="m244.30551 85.61877l199.87402 0l0 130.01575l-199.87402 0z" fill-rule="evenodd"/><path fill="#000000" d="m287.7996 132.52626q-0.703125 0 -1.078125 0.65625q-0.375 0.640625 -0.375 1.796875l1.484375 0l0 2.8125l-2.8125 0l0 -2.6875q0 -1.765625 0.71875 -2.796875q0.734375 -1.046875 2.0625 -1.046875l0 1.265625zm4.640625 0q-0.703125 0 -1.09375 0.625q-0.375 0.625 -0.375 1.828125l1.484375 0l0 2.8125l-2.796875 0l0 -2.78125q0 -1.671875 0.71875 -2.703125q0.734375 -1.046875 2.0625 -1.046875l0 1.265625zm9.737366 -1.703125q3.015625 0 4.78125 1.46875q1.78125 1.453125 1.890625 4.265625l-2.28125 0q-0.203125 -1.859375 -1.328125 -2.78125q-1.125 -0.921875 -3.15625 -0.921875q-1.9375 0 -3.0 0.796875q-1.0625 0.796875 -1.0625 2.28125q0 1.0625 0.90625 1.75q0.921875 0.671875 4.90625 1.484375q2.90625 0.59375 4.328125 1.8125q1.4375 1.21875 1.4375 3.40625q0 2.515625 -2.0625 3.953125q-2.046875 1.4375 -5.015625 1.4375q-3.265625 0 -5.34375 -1.640625q-2.078125 -1.65625 -2.109375 -4.75l2.28125 0q0.015625 2.0625 1.46875 3.21875q1.453125 1.140625 3.796875 1.140625q2.1875 0 3.390625 -0.84375q1.203125 -0.859375 1.203125 -2.453125q0 -1.28125 -1.109375 -2.0625q-1.09375 -0.78125 -3.984375 -1.328125q-3.859375 -0.734375 -5.171875 -1.890625q-1.3125 -1.15625 -1.3125 -3.046875q0 -2.4375 1.84375 -3.859375q1.84375 -1.4375 4.703125 -1.4375zm12.899628 1.5l0 3.921875l2.609375 0l0 1.90625l-2.609375 0l0 8.1875q0 0.984375 0.640625 1.046875q0.65625 0.046875 1.359375 0.046875l0.609375 0l0 1.90625l-1.78125 0q-1.765625 0 -2.375 -0.625q-0.59375 -0.640625 -0.59375 -2.125l0 -8.4375l-2.25 0l0 -1.90625l2.25 0l0 -3.921875l2.140625 0zm10.336273 3.625q2.671875 0 3.796875 0.953125q1.125 0.953125 1.125 2.546875q0 6.8125 0 7.5625q0 0.734375 0.671875 0.734375q0.15625 0 0.328125 -0.03125q0.171875 -0.046875 0.328125 -0.09375l0 1.671875q-0.296875 0.171875 -0.6875 0.265625q-0.390625 0.09375 -0.84375 0.09375q-0.890625 0 -1.359375 -0.5q-0.46875 -0.5 -0.46875 -1.53125q-0.859375 1.015625 -2.03125 1.53125q-1.15625 0.5 -2.578125 0.5q-2.03125 0 -3.1875 -0.953125q-1.140625 -0.96875 -1.140625 -2.71875q0 -1.765625 1.125 -2.796875q1.125 -1.046875 5.28125 -1.5625q1.421875 -0.1875 1.921875 -0.546875q0.5 -0.359375 0.5 -1.078125q0 -1.078125 -0.703125 -1.609375q-0.703125 -0.546875 -2.21875 -0.546875q-1.59375 0 -2.390625 0.609375q-0.796875 0.59375 -0.859375 1.875l-2.15625 0q0.09375 -2.171875 1.53125 -3.265625q1.4375 -1.109375 4.015625 -1.109375zm-3.78125 9.859375q0 0.921875 0.671875 1.4375q0.671875 0.5 1.859375 0.5q1.828125 0 2.90625 -0.90625q1.09375 -0.90625 1.09375 -2.015625l0 -2.25q-0.546875 0.390625 -1.421875 0.53125q-0.859375 0.125 -2.28125 0.328125q-1.4375 0.203125 -2.140625 0.78125q-0.6875 0.5625 -0.6875 1.59375zm18.557098 -9.875q0.078125 0 0.125 0q0.0625 0 0.171875 0.015625l0 2.265625q-2.421875 0 -3.578125 1.296875q-1.15625 1.28125 -1.15625 3.96875l0 5.859375l-2.15625 0l0 -13.09375l2.03125 0l0 2.75l0.046875 0q0.75 -1.546875 1.859375 -2.296875q1.109375 -0.765625 2.65625 -0.765625zm21.846436 -4.671875l0 2.03125l-6.03125 0l0 16.046875l-2.40625 0l0 -16.046875l-6.03125 0l0 -2.03125l14.46875 0zm5.732025 4.671875q0.078125 0 0.125 0q0.0625 0 0.171875 0.015625l0 2.265625q-2.421875 0 -3.578125 1.296875q-1.15625 1.28125 -1.15625 3.96875l0 5.859375l-2.15625 0l0 -13.09375l2.03125 0l0 2.75l0.046875 0q0.75 -1.546875 1.859375 -2.296875q1.109375 -0.765625 2.65625 -0.765625zm6.898651 0.015625q2.8125 0 4.375 2.03125q1.5625 2.015625 1.5625 5.203125l0 0.25l-9.8125 0l0 0.171875q0 1.859375 1.09375 3.0q1.09375 1.140625 2.984375 1.140625q1.4375 0 2.28125 -0.671875q0.859375 -0.671875 1.109375 -1.890625l2.125 0q-0.421875 2.171875 -1.90625 3.328125q-1.46875 1.140625 -3.671875 1.140625q-2.078125 0 -3.5 -0.9375q-1.421875 -0.9375 -2.109375 -2.59375q-0.671875 -1.671875 -0.671875 -3.40625q0 -2.890625 1.734375 -4.828125q1.75 -1.9375 4.40625 -1.9375zm-3.875 5.59375l7.515625 0q-0.09375 -1.609375 -1.15625 -2.65625q-1.046875 -1.046875 -2.640625 -1.046875q-1.484375 0 -2.53125 1.0q-1.046875 1.0 -1.1875 2.703125zm14.307098 -10.28125l0 10.703125l5.984375 -5.71875l2.890625 0l-5.203125 4.765625l5.578125 8.328125l-2.734375 0l-4.484375 -6.84375l-2.03125 1.890625l0 4.953125l-2.140625 0l0 -18.078125l2.140625 0zm13.740143 0l0 2.90625q0 1.578125 -0.734375 2.609375q-0.71875 1.015625 -2.0625 1.015625l0 -1.265625q0.71875 0 1.09375 -0.640625q0.375 -0.640625 0.390625 -1.828125l-1.5 0l0 -2.796875l2.8125 0zm4.625 0l0 2.90625q0 1.53125 -0.71875 2.578125q-0.703125 1.046875 -2.0625 1.046875l0 -1.265625q0.703125 0 1.078125 -0.640625q0.390625 -0.640625 0.390625 -1.828125l-1.484375 0l0 -2.796875l2.796875 0z" fill-rule="nonzero"/><path fill="#000000" d="m279.90277 166.34814q2.8125 0 4.375 2.03125q1.5625 2.015625 1.5625 5.203125l0 0.25l-9.8125 0l0 0.171875q0 1.859375 1.09375 3.0q1.09375 1.140625 2.984375 1.140625q1.4375 0 2.28125 -0.671875q0.859375 -0.671875 1.109375 -1.890625l2.125 0q-0.421875 2.171875 -1.90625 3.328125q-1.46875 1.140625 -3.671875 1.140625q-2.078125 0 -3.5 -0.9375q-1.421875 -0.9375 -2.109375 -2.59375q-0.671875 -1.671875 -0.671875 -3.40625q0 -2.890625 1.734375 -4.828125q1.75 -1.9375 4.40625 -1.9375zm-3.875 5.59375l7.515625 0q-0.09375 -1.609375 -1.15625 -2.65625q-1.046875 -1.046875 -2.640625 -1.046875q-1.484375 0 -2.53125 1.0q-1.046875 1.0 -1.1875 2.703125zm18.385223 -5.59375q2.359375 0 3.421875 1.21875q1.078125 1.203125 1.078125 3.453125l0 8.71875l-2.15625 0l0 -8.9375q0 -1.109375 -0.71875 -1.828125q-0.703125 -0.734375 -1.96875 -0.734375q-1.8125 0 -2.84375 1.125q-1.015625 1.109375 -1.015625 2.890625l0 7.484375l-2.140625 0l0 -13.09375l2.015625 0l0 2.078125l0.0625 0q0.71875 -1.234375 1.75 -1.796875q1.046875 -0.578125 2.515625 -0.578125zm12.086304 0q2.65625 0 3.9375 1.03125q1.28125 1.015625 1.40625 3.0625l-2.140625 0l0 -0.03125q-0.09375 -1.03125 -0.921875 -1.59375q-0.8125 -0.578125 -2.109375 -0.578125q-1.3125 0 -2.0625 0.4375q-0.734375 0.4375 -0.734375 1.234375q0 0.71875 0.65625 1.171875q0.65625 0.453125 2.0 0.734375l2.03125 0.46875q1.90625 0.421875 2.890625 1.296875q0.984375 0.859375 0.984375 2.328125q0 1.9375 -1.5 3.046875q-1.484375 1.09375 -4.078125 1.09375q-2.5 0 -3.984375 -1.125q-1.46875 -1.125 -1.5625 -3.3125l2.15625 0q0.046875 1.21875 0.96875 1.875q0.921875 0.65625 2.546875 0.65625q1.5625 0 2.359375 -0.484375q0.8125 -0.5 0.8125 -1.46875q0 -0.875 -0.796875 -1.390625q-0.796875 -0.515625 -3.28125 -1.015625q-2.46875 -0.484375 -3.484375 -1.359375q-1.0 -0.890625 -1.0 -2.359375q0 -1.71875 1.390625 -2.71875q1.40625 -1.0 3.515625 -1.0zm10.5859375 -4.6875l0 2.625l-2.140625 0l0 -2.625l2.140625 0zm0 4.984375l0 13.09375l-2.140625 0l0 -13.09375l2.140625 0zm8.689606 -0.296875q1.375 0 2.375 0.59375q1.0 0.59375 1.546875 1.578125l0.015625 0l0 -1.875l2.015625 0l0 12.109375q0 3.09375 -1.484375 4.6875q-1.484375 1.609375 -4.578125 1.609375q-2.25 0 -3.796875 -0.984375q-1.53125 -0.984375 -1.625 -2.859375l2.15625 0q0.046875 1.0 1.0625 1.5625q1.03125 0.5625 2.328125 0.5625q1.90625 0 2.90625 -1.265625q1.015625 -1.25 1.015625 -3.734375l0 -0.8125l-0.046875 0q-0.5 1.078125 -1.59375 1.71875q-1.09375 0.640625 -2.5 0.640625q-2.65625 0 -4.25 -1.828125q-1.578125 -1.828125 -1.578125 -4.796875q0 -3.0 1.578125 -4.953125q1.59375 -1.953125 4.453125 -1.953125zm-3.765625 6.65625q0 2.328125 0.96875 3.65625q0.984375 1.328125 2.734375 1.328125q1.78125 0 2.828125 -1.375q1.0625 -1.375 1.0625 -3.6875q0 -2.109375 -0.984375 -3.390625q-0.96875 -1.296875 -2.765625 -1.296875q-1.796875 0 -2.828125 1.296875q-1.015625 1.296875 -1.015625 3.46875zm19.325134 -6.65625q2.359375 0 3.421875 1.21875q1.078125 1.203125 1.078125 3.453125l0 8.71875l-2.15625 0l0 -8.9375q0 -1.109375 -0.71875 -1.828125q-0.703125 -0.734375 -1.96875 -0.734375q-1.8125 0 -2.84375 1.125q-1.015625 1.109375 -1.015625 2.890625l0 7.484375l-2.140625 0l0 -13.09375l2.015625 0l0 2.078125l0.0625 0q0.71875 -1.234375 1.75 -1.796875q1.046875 -0.578125 2.515625 -0.578125zm23.170135 -4.6875q2.484375 0 3.953125 1.34375q1.484375 1.34375 1.484375 4.0q0 2.65625 -1.484375 4.0q-1.46875 1.34375 -3.78125 1.34375l-5.8125 0l0 7.390625l-2.390625 0l0 -18.078125l8.03125 0zm-0.671875 8.65625q1.71875 0 2.703125 -0.8125q1.0 -0.8125 1.0 -2.5q0 -1.671875 -0.984375 -2.484375q-0.96875 -0.828125 -2.859375 -0.828125l-4.828125 0l0 6.625l4.96875 0zm13.281799 -3.96875q2.671875 0 3.796875 0.953125q1.125 0.953125 1.125 2.546875q0 6.8125 0 7.5625q0 0.734375 0.671875 0.734375q0.15625 0 0.328125 -0.03125q0.171875 -0.046875 0.328125 -0.09375l0 1.671875q-0.296875 0.171875 -0.6875 0.265625q-0.390625 0.09375 -0.84375 0.09375q-0.890625 0 -1.359375 -0.5q-0.46875 -0.5 -0.46875 -1.53125q-0.859375 1.015625 -2.03125 1.53125q-1.15625 0.5 -2.578125 0.5q-2.03125 0 -3.1875 -0.953125q-1.140625 -0.96875 -1.140625 -2.71875q0 -1.765625 1.125 -2.796875q1.125 -1.046875 5.28125 -1.5625q1.421875 -0.1875 1.921875 -0.546875q0.5 -0.359375 0.5 -1.078125q0 -1.078125 -0.703125 -1.609375q-0.703125 -0.546875 -2.21875 -0.546875q-1.59375 0 -2.390625 0.609375q-0.796875 0.59375 -0.859375 1.875l-2.15625 0q0.09375 -2.171875 1.53125 -3.265625q1.4375 -1.109375 4.015625 -1.109375zm-3.78125 9.859375q0 0.921875 0.671875 1.4375q0.671875 0.5 1.859375 0.5q1.828125 0 2.90625 -0.90625q1.09375 -0.90625 1.09375 -2.015625l0 -2.25q-0.546875 0.390625 -1.421875 0.53125q-0.859375 0.125 -2.28125 0.328125q-1.4375 0.203125 -2.140625 0.78125q-0.6875 0.5625 -0.6875 1.59375zm13.182098 -9.5625l3.671875 10.921875l0.046875 0l3.5625 -10.921875l2.265625 0l-4.796875 13.09375l-2.296875 0l-4.859375 -13.09375l2.40625 0zm16.960938 -0.296875q2.8125 0 4.375 2.03125q1.5625 2.015625 1.5625 5.203125l0 0.25l-9.8125 0l0 0.171875q0 1.859375 1.09375 3.0q1.09375 1.140625 2.984375 1.140625q1.4375 0 2.28125 -0.671875q0.859375 -0.671875 1.109375 -1.890625l2.125 0q-0.421875 2.171875 -1.90625 3.328125q-1.46875 1.140625 -3.671875 1.140625q-2.078125 0 -3.5 -0.9375q-1.421875 -0.9375 -2.109375 -2.59375q-0.671875 -1.671875 -0.671875 -3.40625q0 -2.890625 1.734375 -4.828125q1.75 -1.9375 4.40625 -1.9375zm-3.875 5.59375l7.515625 0q-0.09375 -1.609375 -1.15625 -2.65625q-1.046875 -1.046875 -2.640625 -1.046875q-1.484375 0 -2.53125 1.0q-1.046875 1.0 -1.1875 2.703125zm14.307098 -10.28125l0 18.078125l-2.140625 0l0 -18.078125l2.140625 0z" fill-rule="nonzero"/><path fill="#000000" fill-opacity="0.0" d="m470.4595 505.86655l199.87405 0l0 130.01572l-199.87405 0z" fill-rule="evenodd"/><path fill="#000000" d="m512.9933 551.5084l7.0625 18.078125l-2.65625 0l-1.96875 -5.4375l-7.6562195 0l-2.03125 5.4375l-2.46875 0l7.0625 -18.078125l2.6562195 0zm-1.3905945 2.171875l-3.0625 8.4375l6.1249695 0l-2.9999695 -8.4375l-0.0625 0zm15.348846 2.515625q2.390625 0 3.890625 1.140625q1.5 1.125 1.75 3.359375l-2.21875 0q-0.265625 -1.28125 -1.109375 -1.9375q-0.84375 -0.671875 -2.140625 -0.671875q-2.0 0 -3.046875 1.34375q-1.03125 1.34375 -1.03125 3.78125q0 2.171875 1.03125 3.484375q1.03125 1.296875 2.796875 1.296875q1.5625 0 2.46875 -0.84375q0.921875 -0.859375 1.125 -2.34375l2.203125 0q-0.359375 2.4375 -1.84375 3.765625q-1.484375 1.328125 -3.9375 1.328125q-2.84375 0 -4.484375 -1.796875q-1.625 -1.8125 -1.625 -4.890625q0 -3.21875 1.640625 -5.109375q1.65625 -1.90625 4.53125 -1.90625zm13.603943 0q2.390625 0 3.890625 1.140625q1.5 1.125 1.75 3.359375l-2.21875 0q-0.265625 -1.28125 -1.109375 -1.9375q-0.84375 -0.671875 -2.140625 -0.671875q-2.0 0 -3.046875 1.34375q-1.03125 1.34375 -1.03125 3.78125q0 2.171875 1.03125 3.484375q1.03125 1.296875 2.796875 1.296875q1.5625 0 2.46875 -0.84375q0.921875 -0.859375 1.125 -2.34375l2.203125 0q-0.359375 2.4375 -1.84375 3.765625q-1.484375 1.328125 -3.9375 1.328125q-2.84375 0 -4.484375 -1.796875q-1.625 -1.8125 -1.625 -4.890625q0 -3.21875 1.640625 -5.109375q1.65625 -1.90625 4.53125 -1.90625zm10.275879 0.296875l0 8.921875q0 1.109375 0.703125 1.84375q0.71875 0.734375 1.96875 0.734375q1.859375 0 2.859375 -1.125q1.015625 -1.140625 1.015625 -2.890625l0 -7.484375l2.15625 0l0 13.09375l-2.03125 0l0 -2.078125l-0.046875 0q-0.71875 1.25 -1.796875 1.828125q-1.078125 0.5625 -2.46875 0.5625q-2.296875 0 -3.40625 -1.171875q-1.09375 -1.1875 -1.09375 -3.5l0 -8.734375l2.140625 0zm18.242554 -0.296875q1.4375 0 2.34375 0.578125q0.921875 0.578125 1.265625 1.640625q0.65625 -1.046875 1.734375 -1.625q1.078125 -0.59375 2.375 -0.59375q2.21875 0 3.28125 1.0q1.0625 1.0 1.0625 2.703125l0 9.6875l-2.15625 0l0 -8.6875q0 -1.40625 -0.59375 -2.109375q-0.59375 -0.703125 -1.9375 -0.703125q-1.609375 0 -2.515625 0.9375q-0.890625 0.9375 -0.890625 2.34375l0 8.21875l-2.171875 0l0 -8.6875q0 -1.40625 -0.59375 -2.109375q-0.59375 -0.703125 -1.859375 -0.703125q-1.015625 0 -1.8125 0.5q-0.796875 0.484375 -1.25 1.34375q-0.4375 0.859375 -0.4375 1.453125l0 8.203125l-2.140625 0l0 -13.09375l2.015625 0l0 1.921875l0.0625 0q0.734375 -1.125 1.78125 -1.671875q1.0625 -0.546875 2.4375 -0.546875zm17.44934 0.296875l0 8.921875q0 1.109375 0.703125 1.84375q0.71875 0.734375 1.96875 0.734375q1.859375 0 2.859375 -1.125q1.015625 -1.140625 1.015625 -2.890625l0 -7.484375l2.15625 0l0 13.09375l-2.03125 0l0 -2.078125l-0.046875 0q-0.71875 1.25 -1.796875 1.828125q-1.078125 0.5625 -2.46875 0.5625q-2.296875 0 -3.40625 -1.171875q-1.09375 -1.1875 -1.09375 -3.5l0 -8.734375l2.140625 0zm14.211304 -4.984375l0 18.078125l-2.140625 0l0 -18.078125l2.140625 0zm8.7052 4.6875q2.671875 0 3.796875 0.953125q1.125 0.953125 1.125 2.546875q0 6.8125 0 7.5625q0 0.734375 0.671875 0.734375q0.15625 0 0.328125 -0.03125q0.171875 -0.046875 0.328125 -0.09375l0 1.671875q-0.296875 0.171875 -0.6875 0.265625q-0.390625 0.09375 -0.84375 0.09375q-0.890625 0 -1.359375 -0.5q-0.46875 -0.5 -0.46875 -1.53125q-0.859375 1.015625 -2.03125 1.53125q-1.15625 0.5 -2.578125 0.5q-2.03125 0 -3.1875 -0.953125q-1.140625 -0.96875 -1.140625 -2.71875q0 -1.765625 1.125 -2.796875q1.125 -1.046875 5.28125 -1.5625q1.421875 -0.1875 1.921875 -0.546875q0.5 -0.359375 0.5 -1.078125q0 -1.078125 -0.703125 -1.609375q-0.703125 -0.546875 -2.21875 -0.546875q-1.59375 0 -2.390625 0.609375q-0.796875 0.59375 -0.859375 1.875l-2.15625 0q0.09375 -2.171875 1.53125 -3.265625q1.4375 -1.109375 4.015625 -1.109375zm-3.78125 9.859375q0 0.921875 0.671875 1.4375q0.671875 0.5 1.859375 0.5q1.828125 0 2.90625 -0.90625q1.09375 -0.90625 1.09375 -2.015625l0 -2.25q-0.546875 0.390625 -1.421875 0.53125q-0.859375 0.125 -2.28125 0.328125q-1.4375 0.203125 -2.140625 0.78125q-0.6875 0.5625 -0.6875 1.59375zm15.025879 -13.484375l0 3.921875l2.609375 0l0 1.90625l-2.609375 0l0 8.1875q0 0.984375 0.640625 1.046875q0.65625 0.046875 1.359375 0.046875l0.609375 0l0 1.90625l-1.78125 0q-1.765625 0 -2.375 -0.625q-0.59375 -0.640625 -0.59375 -2.125l0 -8.4375l-2.25 0l0 -1.90625l2.25 0l0 -3.921875l2.140625 0zm10.120728 3.625q2.8125 0 4.375 2.03125q1.5625 2.015625 1.5625 5.203125l0 0.25l-9.8125 0l0 0.171875q0 1.859375 1.09375 3.0q1.09375 1.140625 2.984375 1.140625q1.4375 0 2.28125 -0.671875q0.859375 -0.671875 1.109375 -1.890625l2.125 0q-0.421875 2.171875 -1.90625 3.328125q-1.46875 1.140625 -3.671875 1.140625q-2.078125 0 -3.5 -0.9375q-1.421875 -0.9375 -2.109375 -2.59375q-0.671875 -1.671875 -0.671875 -3.40625q0 -2.890625 1.734375 -4.828125q1.75 -1.9375 4.40625 -1.9375zm-3.875 5.59375l7.515625 0q-0.09375 -1.609375 -1.15625 -2.65625q-1.046875 -1.046875 -2.640625 -1.046875q-1.484375 0 -2.53125 1.0q-1.046875 1.0 -1.1875 2.703125z" fill-rule="nonzero"/><path fill="#000000" fill-opacity="0.0" d="m22.659512 505.86655l199.87401 0l0 130.01572l-199.87401 0z" fill-rule="evenodd"/><path fill="#000000" d="m98.73587 551.0709q3.015625 0 4.78125 1.46875q1.78125 1.453125 1.890625 4.265625l-2.28125 0q-0.203125 -1.859375 -1.328125 -2.78125q-1.125 -0.921875 -3.15625 -0.921875q-1.9375 0 -3.0 0.796875q-1.0625 0.796875 -1.0625 2.28125q0 1.0625 0.90625 1.75q0.921875 0.671875 4.90625 1.484375q2.90625 0.59375 4.328125 1.8125q1.4375 1.21875 1.4375 3.40625q0 2.515625 -2.0625 3.953125q-2.046875 1.4375 -5.015625 1.4375q-3.265625 0 -5.34375 -1.640625q-2.078125 -1.65625 -2.109375 -4.75l2.28125 0q0.015625 2.0625 1.46875 3.21875q1.453125 1.140625 3.796875 1.140625q2.1875 0 3.390625 -0.84375q1.203125 -0.859375 1.203125 -2.453125q0 -1.28125 -1.109375 -2.0625q-1.09375 -0.78125 -3.984375 -1.328125q-3.859375 -0.734375 -5.171875 -1.890625q-1.3125 -1.15625 -1.3125 -3.046875q0 -2.4375 1.84375 -3.859375q1.84375 -1.4375 4.703125 -1.4375zm12.130096 0.4375l0 6.90625l0.0625 0q0.46875 -1.046875 1.59375 -1.625q1.125 -0.59375 2.546875 -0.59375q2.359375 0 3.421875 1.21875q1.078125 1.203125 1.078125 3.453125l0 8.71875l-2.15625 0l0 -8.9375q0 -1.109375 -0.71875 -1.828125q-0.703125 -0.734375 -1.96875 -0.734375q-1.8125 0 -2.84375 1.125q-1.015625 1.109375 -1.015625 2.890625l0 7.484375l-2.140625 0l0 -18.078125l2.140625 0zm14.211304 0l0 2.625l-2.140625 0l0 -2.625l2.140625 0zm0 4.984375l0 13.09375l-2.140625 0l0 -13.09375l2.140625 0zm9.705231 -0.296875q2.359375 0 3.421875 1.21875q1.078125 1.203125 1.078125 3.453125l0 8.71875l-2.15625 0l0 -8.9375q0 -1.109375 -0.71875 -1.828125q-0.703125 -0.734375 -1.96875 -0.734375q-1.8125 0 -2.84375 1.125q-1.015625 1.109375 -1.015625 2.890625l0 7.484375l-2.140625 0l0 -13.09375l2.015625 0l0 2.078125l0.0625 0q0.71875 -1.234375 1.75 -1.796875q1.046875 -0.578125 2.515625 -0.578125zm13.180054 0q2.8125 0 4.375 2.03125q1.5625 2.015625 1.5625 5.203125l0 0.25l-9.8125 0l0 0.171875q0 1.859375 1.09375 3.0q1.09375 1.140625 2.984375 1.140625q1.4375 0 2.28125 -0.671875q0.859375 -0.671875 1.109375 -1.890625l2.125 0q-0.421875 2.171875 -1.90625 3.328125q-1.46875 1.140625 -3.671875 1.140625q-2.078125 0 -3.5 -0.9375q-1.421875 -0.9375 -2.109375 -2.59375q-0.671875 -1.671875 -0.671875 -3.40625q0 -2.890625 1.734375 -4.828125q1.75 -1.9375 4.40625 -1.9375zm-3.875 5.59375l7.515625 0q-0.09375 -1.609375 -1.15625 -2.65625q-1.046875 -1.046875 -2.640625 -1.046875q-1.484375 0 -2.53125 1.0q-1.046875 1.0 -1.1875 2.703125z" fill-rule="nonzero"/><path fill="#000000" fill-opacity="0.0" d="m22.659512 202.54729l199.87401 0l0 130.01576l-199.87401 0z" fill-rule="evenodd"/><path fill="#000000" d="m51.20589 216.46605l0 6.140625l7.53125 0l0 -6.140625l1.890625 0l0 14.28125l-1.890625 0l0 -6.546875l-7.53125 0l0 6.546875l-1.890625 0l0 -14.28125l1.890625 0zm14.068356 0l0 2.078125l-1.7031212 0l0 -2.078125l1.7031212 0zm0 3.9375l0 10.34375l-1.7031212 0l0 -10.34375l1.7031212 0zm5.0058594 -3.09375l0 3.09375l2.0625 0l0 1.5l-2.0625 0l0 6.484375q0 0.765625 0.515625 0.8125q0.515625 0.046875 1.0625 0.046875l0.484375 0l0 1.5l-1.40625 0q-1.390625 0 -1.875 -0.5q-0.484375 -0.5 -0.484375 -1.671875l0 -6.671875l-1.765625 0l0 -1.5l1.765625 0l0 -3.09375l1.703125 0zm8.251953 2.859375q1.890625 0 3.078125 0.90625q1.1875 0.890625 1.390625 2.65625l-1.765625 0q-0.203125 -1.015625 -0.875 -1.53125q-0.65625 -0.53125 -1.671875 -0.53125q-1.59375 0 -2.421875 1.0625q-0.8125 1.046875 -0.8125 2.96875q0 1.71875 0.8125 2.75q0.8125 1.03125 2.203125 1.03125q1.25 0 1.96875 -0.65625q0.71875 -0.671875 0.875 -1.859375l1.75 0q-0.296875 1.9375 -1.46875 2.984375q-1.171875 1.046875 -3.09375 1.046875q-2.265625 0 -3.5625 -1.421875q-1.28125 -1.421875 -1.28125 -3.875q0 -2.53125 1.296875 -4.03125q1.3125 -1.5 3.578125 -1.5zm8.1328125 -3.703125l0 5.46875l0.03125 0q0.375 -0.84375 1.265625 -1.296875q0.890625 -0.46875 2.015625 -0.46875q1.859375 0 2.703125 0.96875q0.84375 0.953125 0.84375 2.71875l0 6.890625l-1.703125 0l0 -7.0625q0 -0.875 -0.5625 -1.4375q-0.5625 -0.578125 -1.546875 -0.578125q-1.4375 0 -2.25 0.890625q-0.796875 0.875 -0.796875 2.28125l0 5.90625l-1.703125 0l0 -14.28125l1.703125 0zm13.732422 3.703125q1.890625 0 3.078125 0.90625q1.1875 0.890625 1.390625 2.65625l-1.765625 0q-0.203125 -1.015625 -0.875 -1.53125q-0.65625 -0.53125 -1.671875 -0.53125q-1.59375 0 -2.421875 1.0625q-0.8125 1.046875 -0.8125 2.96875q0 1.71875 0.8125 2.75q0.8125 1.03125 2.203125 1.03125q1.25 0 1.96875 -0.65625q0.71875 -0.671875 0.875 -1.859375l1.75 0q-0.296875 1.9375 -1.46875 2.984375q-1.171875 1.046875 -3.09375 1.046875q-2.265625 0 -3.5625 -1.421875q-1.28125 -1.421875 -1.28125 -3.875q0 -2.53125 1.296875 -4.03125q1.3125 -1.5 3.578125 -1.5zm10.8984375 0q2.34375 0 3.671875 1.515625q1.34375 1.515625 1.34375 3.90625q0 2.40625 -1.375 3.90625q-1.359375 1.5 -3.640625 1.5q-2.25 0 -3.640625 -1.46875q-1.390625 -1.484375 -1.390625 -3.9375q0 -2.46875 1.359375 -3.9375q1.359375 -1.484375 3.671875 -1.484375zm-3.234375 5.421875q0 1.78125 0.90625 2.84375q0.921875 1.046875 2.328125 1.046875q1.390625 0 2.296875 -1.0625q0.921875 -1.0625 0.921875 -2.828125q0 -1.765625 -0.90625 -2.84375q-0.90625 -1.078125 -2.34375 -1.078125q-1.359375 0 -2.28125 1.0625q-0.921875 1.046875 -0.921875 2.859375zm14.5625 -5.421875q1.890625 0 3.078125 0.90625q1.1875 0.890625 1.390625 2.65625l-1.765625 0q-0.203125 -1.015625 -0.875 -1.53125q-0.65625 -0.53125 -1.671875 -0.53125q-1.59375 0 -2.421875 1.0625q-0.8125 1.046875 -0.8125 2.96875q0 1.71875 0.8125 2.75q0.8125 1.03125 2.203125 1.03125q1.25 0 1.96875 -0.65625q0.71875 -0.671875 0.875 -1.859375l1.75 0q-0.296875 1.9375 -1.46875 2.984375q-1.171875 1.046875 -3.09375 1.046875q-2.265625 0 -3.5625 -1.421875q-1.28125 -1.421875 -1.28125 -3.875q0 -2.53125 1.296875 -4.03125q1.3125 -1.5 3.578125 -1.5zm8.2265625 -3.703125l0 8.453125l4.71875 -4.515625l2.28125 0l-4.09375 3.765625l4.390625 6.578125l-2.15625 0l-3.546875 -5.40625l-1.59375 1.484375l0 3.921875l-1.703125 0l0 -14.28125l1.703125 0zm19.125 3.703125q1.1250153 0 1.8437653 0.46875q0.71875 0.453125 1.0 1.296875q0.515625 -0.84375 1.359375 -1.296875q0.859375 -0.46875 1.890625 -0.46875q1.75 0 2.578125 0.796875q0.84375 0.78125 0.84375 2.140625l0 7.640625l-1.703125 0l0 -6.859375q0 -1.109375 -0.46875 -1.65625q-0.46875 -0.5625 -1.53125 -0.5625q-1.265625 0 -1.984375 0.75q-0.703125 0.734375 -0.703125 1.828125l0 6.5l-1.71875 0l0 -6.859375q0 -1.109375 -0.46875 -1.65625q-0.46876526 -0.5625 -1.4531403 -0.5625q-0.8125 0 -1.4375 0.390625q-0.625 0.390625 -0.984375 1.078125q-0.34375 0.671875 -0.34375 1.140625l0 6.46875l-1.703125 0l0 -10.34375l1.59375 0l0 1.53125l0.046875 0q0.578125 -0.890625 1.40625 -1.328125q0.84375 -0.4375 1.9375 -0.4375zm16.544937 0q2.34375 0 3.671875 1.515625q1.34375 1.515625 1.34375 3.90625q0 2.40625 -1.375 3.90625q-1.359375 1.5 -3.640625 1.5q-2.25 0 -3.640625 -1.46875q-1.390625 -1.484375 -1.390625 -3.9375q0 -2.46875 1.359375 -3.9375q1.359375 -1.484375 3.671875 -1.484375zm-3.234375 5.421875q0 1.78125 0.90625 2.84375q0.921875 1.046875 2.328125 1.046875q1.390625 0 2.296875 -1.0625q0.921875 -1.0625 0.921875 -2.828125q0 -1.765625 -0.90625 -2.84375q-0.90625 -1.078125 -2.34375 -1.078125q-1.359375 0 -2.28125 1.0625q-0.921875 1.046875 -0.921875 2.859375zm11.140625 -5.1875l2.90625 8.625l0.046875 0l2.8125 -8.625l1.78125 0l-3.78125 10.34375l-1.8125 0l-3.84375 -10.34375l1.890625 0zm10.90625 -3.9375l0 2.078125l-1.703125 0l0 -2.078125l1.703125 0zm0 3.9375l0 10.34375l-1.703125 0l0 -10.34375l1.703125 0zm6.9433594 -0.234375q2.21875 0 3.453125 1.609375q1.234375 1.59375 1.234375 4.109375l0 0.203125l-7.75 0l0 0.125q0 1.46875 0.859375 2.375q0.859375 0.890625 2.375 0.890625q1.125 0 1.796875 -0.515625q0.671875 -0.53125 0.875 -1.5l1.671875 0q-0.34375 1.71875 -1.5 2.625q-1.15625 0.90625 -2.90625 0.90625q-1.640625 0 -2.765625 -0.734375q-1.125 -0.75 -1.671875 -2.0625q-0.53125 -1.3125 -0.53125 -2.6875q0 -2.28125 1.375 -3.8125q1.390625 -1.53125 3.484375 -1.53125zm-3.0625 4.421875l5.9375 0q-0.078125 -1.265625 -0.921875 -2.09375q-0.828125 -0.828125 -2.078125 -0.828125q-1.171875 0 -2.0 0.796875q-0.828125 0.78125 -0.9375 2.125z" fill-rule="nonzero"/><path fill="#000000" d="m88.27815 241.30978l0 3.09375l2.0625 0l0 1.5l-2.0625 0l0 6.484375q0 0.765625 0.515625 0.8125q0.515625 0.046875 1.0625 0.046875l0.484375 0l0 1.5l-1.40625 0q-1.390625 0 -1.875 -0.5q-0.484375 -0.5 -0.484375 -1.671875l0 -6.671875l-1.765625 0l0 -1.5l1.765625 0l0 -3.09375l1.703125 0zm5.642578 -0.84375l0 5.46875l0.03125 0q0.375 -0.84375 1.265625 -1.296875q0.890625 -0.46875 2.015625 -0.46875q1.859375 0 2.703125 0.96875q0.84375 0.953125 0.84375 2.71875l0 6.890625l-1.703125 0l0 -7.0625q0 -0.875 -0.5625 -1.4375q-0.5625 -0.578125 -1.546875 -0.578125q-1.4375 0 -2.25 0.890625q-0.796875 0.875 -0.796875 2.28125l0 5.90625l-1.703125 0l0 -14.28125l1.703125 0zm13.654297 3.703125q2.109375 0 2.984375 0.75q0.890625 0.75 0.890625 2.015625q0 5.375 0 5.96875q0 0.578125 0.53125 0.578125q0.125 0 0.25 -0.015625q0.140625 -0.03125 0.265625 -0.078125l0 1.3125q-0.234375 0.140625 -0.546875 0.21875q-0.296875 0.078125 -0.65625 0.078125q-0.703125 0 -1.078125 -0.390625q-0.375 -0.40625 -0.375 -1.21875q-0.671875 0.796875 -1.59375 1.203125q-0.90625 0.40625 -2.046875 0.40625q-1.59375 0 -2.515625 -0.75q-0.90625 -0.765625 -0.90625 -2.15625q0 -1.390625 0.890625 -2.203125q0.890625 -0.828125 4.1875 -1.234375q1.109375 -0.140625 1.5 -0.421875q0.40625 -0.296875 0.40625 -0.859375q0 -0.859375 -0.5625 -1.28125q-0.546875 -0.421875 -1.75 -0.421875q-1.265625 0 -1.890625 0.484375q-0.625 0.46875 -0.671875 1.46875l-1.703125 0q0.078125 -1.71875 1.203125 -2.578125q1.140625 -0.875 3.1875 -0.875zm-3.0 7.796875q0 0.71875 0.53125 1.125q0.53125 0.390625 1.46875 0.390625q1.4375 0 2.296875 -0.703125q0.859375 -0.71875 0.859375 -1.59375l0 -1.78125q-0.421875 0.296875 -1.109375 0.40625q-0.6875 0.109375 -1.8125 0.265625q-1.140625 0.171875 -1.6875 0.625q-0.546875 0.4375 -0.546875 1.265625zm11.8671875 -10.65625l0 3.09375l2.0625 0l0 1.5l-2.0625 0l0 6.484375q0 0.765625 0.515625 0.8125q0.515625 0.046875 1.0625 0.046875l0.484375 0l0 1.5l-1.40625 0q-1.390625 0 -1.875 -0.5q-0.484375 -0.5 -0.484375 -1.671875l0 -6.671875l-1.765625 0l0 -1.5l1.765625 0l0 -3.09375l1.703125 0zm10.433594 3.09375l2.34375 8.453125l0.03125 0l2.09375 -8.453125l1.84375 0l2.15625 8.40625l0.03125 0.046875l0.03125 0l2.3125 -8.453125l1.765625 0l-3.296875 10.3125l-0.015625 0.03125l-1.796875 0l-2.09375 -8.171875l-0.015625 -0.046875l-0.03125 0l-2.078125 8.21875l-1.84375 0l-3.3125 -10.34375l1.875 0zm18.453125 -0.234375q2.109375 0 2.984375 0.75q0.890625 0.75 0.890625 2.015625q0 5.375 0 5.96875q0 0.578125 0.53125 0.578125q0.125 0 0.25 -0.015625q0.140625 -0.03125 0.265625 -0.078125l0 1.3125q-0.234375 0.140625 -0.546875 0.21875q-0.296875 0.078125 -0.65625 0.078125q-0.703125 0 -1.078125 -0.390625q-0.375 -0.40625 -0.375 -1.21875q-0.671875 0.796875 -1.59375 1.203125q-0.90625 0.40625 -2.046875 0.40625q-1.59375 0 -2.515625 -0.75q-0.90625 -0.765625 -0.90625 -2.15625q0 -1.390625 0.890625 -2.203125q0.890625 -0.828125 4.1875 -1.234375q1.109375 -0.140625 1.5 -0.421875q0.40625 -0.296875 0.40625 -0.859375q0 -0.859375 -0.5625 -1.28125q-0.546875 -0.421875 -1.75 -0.421875q-1.265625 0 -1.890625 0.484375q-0.625 0.46875 -0.671875 1.46875l-1.703125 0q0.078125 -1.71875 1.203125 -2.578125q1.140625 -0.875 3.1875 -0.875zm-3.0 7.796875q0 0.71875 0.53125 1.125q0.53125 0.390625 1.46875 0.390625q1.4375 0 2.296875 -0.703125q0.859375 -0.71875 0.859375 -1.59375l0 -1.78125q-0.421875 0.296875 -1.109375 0.40625q-0.6875 0.109375 -1.8125 0.265625q-1.140625 0.171875 -1.6875 0.625q-0.546875 0.4375 -0.546875 1.265625zm12.945328 -7.796875q2.09375 0 3.109375 0.8125q1.015625 0.8125 1.109375 2.421875l-1.703125 0l0 -0.015625q-0.0625 -0.828125 -0.71875 -1.265625q-0.640625 -0.453125 -1.671875 -0.453125q-1.03125 0 -1.625 0.34375q-0.578125 0.34375 -0.578125 0.96875q0 0.5625 0.515625 0.9375q0.53125 0.359375 1.578125 0.578125l1.609375 0.359375q1.5 0.328125 2.28125 1.015625q0.78125 0.6875 0.78125 1.859375q0 1.515625 -1.1875 2.390625q-1.171875 0.875 -3.21875 0.875q-1.984375 0 -3.15625 -0.890625q-1.15625 -0.890625 -1.234375 -2.625l1.71875 0q0.03125 0.96875 0.75 1.484375q0.734375 0.515625 2.015625 0.515625q1.234375 0 1.859375 -0.390625q0.640625 -0.390625 0.640625 -1.140625q0 -0.703125 -0.625 -1.109375q-0.625 -0.40625 -2.578125 -0.796875q-1.953125 -0.375 -2.75 -1.0625q-0.796875 -0.703125 -0.796875 -1.875q0 -1.359375 1.09375 -2.140625q1.109375 -0.796875 2.78125 -0.796875z" fill-rule="nonzero"/><path fill="#000000" d="m83.61409 268.16916q2.09375 0 3.109375 0.8125q1.015625 0.8125 1.109375 2.421875l-1.703125 0l0 -0.015625q-0.0625 -0.828125 -0.71875 -1.265625q-0.640625 -0.453125 -1.671875 -0.453125q-1.03125 0 -1.625 0.34375q-0.578125 0.34375 -0.578125 0.96875q0 0.5625 0.515625 0.9375q0.53125 0.359375 1.578125 0.578125l1.609375 0.359375q1.5 0.328125 2.28125 1.015625q0.78125 0.6875 0.78125 1.859375q0 1.515625 -1.1875 2.390625q-1.171875 0.875 -3.21875 0.875q-1.984375 0 -3.15625 -0.890625q-1.15625 -0.890625 -1.234375 -2.625l1.71875 0q0.03125 0.96875 0.75 1.484375q0.734375 0.515625 2.015625 0.515625q1.234375 0 1.859375 -0.390625q0.640625 -0.390625 0.640625 -1.140625q0 -0.703125 -0.625 -1.109375q-0.625 -0.40625 -2.578125 -0.796875q-1.953125 -0.375 -2.75 -1.0625q-0.796875 -0.703125 -0.796875 -1.875q0 -1.359375 1.09375 -2.140625q1.109375 -0.796875 2.78125 -0.796875zm8.265625 -3.703125l0 5.46875l0.03125 0q0.375 -0.84375 1.265625 -1.296875q0.890625 -0.46875 2.015625 -0.46875q1.859375 0 2.703125 0.96875q0.84375 0.953125 0.84375 2.71875l0 6.890625l-1.703125 0l0 -7.0625q0 -0.875 -0.5625 -1.4375q-0.5625 -0.578125 -1.546875 -0.578125q-1.4375 0 -2.25 0.890625q-0.796875 0.875 -0.796875 2.28125l0 5.90625l-1.703125 0l0 -14.28125l1.703125 0zm13.888672 3.703125q2.34375 0 3.671875 1.515625q1.34375 1.515625 1.34375 3.90625q0 2.40625 -1.375 3.90625q-1.359375 1.5 -3.640625 1.5q-2.25 0 -3.640625 -1.46875q-1.390625 -1.484375 -1.390625 -3.9375q0 -2.46875 1.359375 -3.9375q1.359375 -1.484375 3.671875 -1.484375zm-3.234375 5.421875q0 1.78125 0.90625 2.84375q0.921875 1.046875 2.328125 1.046875q1.390625 0 2.296875 -1.0625q0.921875 -1.0625 0.921875 -2.828125q0 -1.765625 -0.90625 -2.84375q-0.90625 -1.078125 -2.34375 -1.078125q-1.359375 0 -2.28125 1.0625q-0.921875 1.046875 -0.921875 2.859375zm11.1875 -5.1875l2.34375 8.453125l0.03125 0l2.09375 -8.453125l1.84375 0l2.15625 8.40625l0.03125 0.046875l0.03125 0l2.3125 -8.453125l1.765625 0l-3.296875 10.3125l-0.015625 0.03125l-1.796875 0l-2.09375 -8.171875l-0.015625 -0.046875l-0.03125 0l-2.078125 8.21875l-1.84375 0l-3.3125 -10.34375l1.875 0zm18.515625 -0.234375q2.21875 0 3.453125 1.609375q1.234375 1.59375 1.234375 4.109375l0 0.203125l-7.75 0l0 0.125q0 1.46875 0.859375 2.375q0.859375 0.890625 2.375 0.890625q1.125 0 1.796875 -0.515625q0.671875 -0.53125 0.875 -1.5l1.671875 0q-0.34375 1.71875 -1.5 2.625q-1.15625 0.90625 -2.90625 0.90625q-1.640625 0 -2.765625 -0.734375q-1.125 -0.75 -1.671875 -2.0625q-0.53125 -1.3125 -0.53125 -2.6875q0 -2.28125 1.375 -3.8125q1.390625 -1.53125 3.484375 -1.53125zm-3.0625 4.421875l5.9375 0q-0.078125 -1.265625 -0.921875 -2.09375q-0.828125 -0.828125 -2.078125 -0.828125q-1.171875 0 -2.0 0.796875q-0.828125 0.78125 -0.9375 2.125zm14.6484375 -4.4375q0.0625 0 0.109375 0q0.046875 0 0.125 0.015625l0 1.796875q-1.90625 0 -2.828125 1.015625q-0.90625 1.015625 -0.90625 3.140625l0 4.625l-1.703125 0l0 -10.34375l1.609375 0l0 2.171875l0.03125 0q0.59375 -1.21875 1.46875 -1.8125q0.875 -0.609375 2.09375 -0.609375zm5.455078 0.015625q2.2187653 0 3.4531403 1.609375q1.234375 1.59375 1.234375 4.109375l0 0.203125l-7.7500153 0l0 0.125q0 1.46875 0.859375 2.375q0.859375 0.890625 2.375 0.890625q1.125 0 1.7968903 -0.515625q0.671875 -0.53125 0.875 -1.5l1.671875 0q-0.34375 1.71875 -1.5 2.625q-1.15625 0.90625 -2.9062653 0.90625q-1.640625 0 -2.765625 -0.734375q-1.125 -0.75 -1.671875 -2.0625q-0.53125 -1.3125 -0.53125 -2.6875q0 -2.28125 1.375 -3.8125q1.390625 -1.53125 3.484375 -1.53125zm-3.0625 4.421875l5.9375153 0q-0.078125 -1.265625 -0.921875 -2.09375q-0.82814026 -0.828125 -2.0781403 -0.828125q-1.171875 0 -2.0 0.796875q-0.828125 0.78125 -0.9375 2.125zm18.742203 -8.125l0 14.28125l-1.703125 0l0 -1.390625l-0.03125 0q-0.40625 0.796875 -1.28125 1.21875q-0.875 0.421875 -2.015625 0.421875q-2.171875 0 -3.46875 -1.5q-1.296875 -1.515625 -1.296875 -3.953125q0 -2.390625 1.25 -3.875q1.265625 -1.5 3.46875 -1.5q1.015625 0 1.921875 0.421875q0.90625 0.40625 1.421875 1.1875l0.03125 0l0 -5.3125l1.703125 0zm-8.0 9.1875q0 1.671875 0.859375 2.75q0.875 1.078125 2.34375 1.078125q1.515625 0 2.328125 -1.078125q0.828125 -1.078125 0.828125 -2.8125q0 -1.765625 -0.859375 -2.84375q-0.84375 -1.078125 -2.421875 -1.078125q-1.46875 0 -2.28125 1.078125q-0.796875 1.0625 -0.796875 2.90625z" fill-rule="nonzero"/><path fill="#000000" d="m106.30452 292.40353l2.34375 8.453125l0.03125 0l2.09375 -8.453125l1.84375 0l2.15625 8.40625l0.03125 0.046875l0.03125 0l2.3125 -8.453125l1.765625 0l-3.296875 10.3125l-0.015625 0.03125l-1.796875 0l-2.09375 -8.171875l-0.015625 -0.046875l-0.03125 0l-2.078125 8.21875l-1.84375 0l-3.3125 -10.34375l1.875 0zm16.015625 -3.9375l0 2.078125l-1.703125 0l0 -2.078125l1.703125 0zm0 3.9375l0 10.34375l-1.703125 0l0 -10.34375l1.703125 0zm5.0058594 -3.09375l0 3.09375l2.0625 0l0 1.5l-2.0625 0l0 6.484375q0 0.765625 0.515625 0.8125q0.515625 0.046875 1.0625 0.046875l0.484375 0l0 1.5l-1.40625 0q-1.390625 0 -1.875 -0.5q-0.484375 -0.5 -0.484375 -1.671875l0 -6.671875l-1.765625 0l0 -1.5l1.765625 0l0 -3.09375l1.703125 0zm5.642578 -0.84375l0 5.46875l0.03125 0q0.375 -0.84375 1.265625 -1.296875q0.890625 -0.46875 2.015625 -0.46875q1.859375 0 2.703125 0.96875q0.84375 0.953125 0.84375 2.71875l0 6.890625l-1.703125 0l0 -7.0625q0 -0.875 -0.5625 -1.4375q-0.5625 -0.578125 -1.546875 -0.578125q-1.4375 0 -2.25 0.890625q-0.796875 0.875 -0.796875 2.28125l0 5.90625l-1.703125 0l0 -14.28125l1.703125 0z" fill-rule="nonzero"/><path fill="#000000" d="m96.42757 316.16916q2.21875 0 3.484375 1.53125q1.28125 1.515625 1.28125 3.90625q0 2.40625 -1.265625 3.90625q-1.265625 1.484375 -3.453125 1.484375q-0.96875 0 -1.890625 -0.40625q-0.921875 -0.40625 -1.453125 -1.21875l-0.046875 0l0 5.34375l-1.6875 0l0 -14.3125l1.6875 0l0 1.40625l0.046875 0q0.40625 -0.796875 1.265625 -1.21875q0.859375 -0.421875 2.03125 -0.421875zm-3.390625 5.40625q0 1.796875 0.859375 2.859375q0.875 1.046875 2.390625 1.046875q1.484375 0 2.296875 -1.046875q0.8125 -1.0625 0.8125 -2.9375q0 -1.671875 -0.859375 -2.75q-0.859375 -1.078125 -2.359375 -1.078125q-1.5 0 -2.328125 1.09375q-0.8125 1.09375 -0.8125 2.8125zm15.292969 -5.421875q0.0625 0 0.109375 0q0.046875 0 0.125 0.015625l0 1.796875q-1.90625 0 -2.828125 1.015625q-0.90625 1.015625 -0.90625 3.140625l0 4.625l-1.703125 0l0 -10.34375l1.609375 0l0 2.171875l0.03125 0q0.59375 -1.21875 1.46875 -1.8125q0.875 -0.609375 2.09375 -0.609375zm5.2753906 0.015625q2.109375 0 2.984375 0.75q0.890625 0.75 0.890625 2.015625q0 5.375 0 5.96875q0 0.578125 0.53125 0.578125q0.125 0 0.25 -0.015625q0.140625 -0.03125 0.265625 -0.078125l0 1.3125q-0.234375 0.140625 -0.546875 0.21875q-0.296875 0.078125 -0.65625 0.078125q-0.703125 0 -1.078125 -0.390625q-0.375 -0.40625 -0.375 -1.21875q-0.671875 0.796875 -1.59375 1.203125q-0.90625 0.40625 -2.046875 0.40625q-1.59375 0 -2.515625 -0.75q-0.90625 -0.765625 -0.90625 -2.15625q0 -1.390625 0.890625 -2.203125q0.890625 -0.828125 4.1875 -1.234375q1.109375 -0.140625 1.5 -0.421875q0.40625 -0.296875 0.40625 -0.859375q0 -0.859375 -0.5625 -1.28125q-0.546875 -0.421875 -1.75 -0.421875q-1.265625 0 -1.890625 0.484375q-0.625 0.46875 -0.671875 1.46875l-1.703125 0q0.078125 -1.71875 1.203125 -2.578125q1.140625 -0.875 3.1875 -0.875zm-3.0 7.796875q0 0.71875 0.53125 1.125q0.53125 0.390625 1.46875 0.390625q1.4375 0 2.296875 -0.703125q0.859375 -0.71875 0.859375 -1.59375l0 -1.78125q-0.421875 0.296875 -1.109375 0.40625q-0.6875 0.109375 -1.8125 0.265625q-1.140625 0.171875 -1.6875 0.625q-0.546875 0.4375 -0.546875 1.265625zm11.3046875 -11.5l0 2.078125l-1.703125 0l0 -2.078125l1.703125 0zm0 3.9375l0 10.34375l-1.703125 0l0 -10.34375l1.703125 0zm6.0839844 -0.234375q2.09375 0 3.109375 0.8125q1.015625 0.8125 1.109375 2.421875l-1.703125 0l0 -0.015625q-0.0625 -0.828125 -0.71875 -1.265625q-0.640625 -0.453125 -1.671875 -0.453125q-1.03125 0 -1.625 0.34375q-0.578125 0.34375 -0.578125 0.96875q0 0.5625 0.515625 0.9375q0.53125 0.359375 1.578125 0.578125l1.609375 0.359375q1.5 0.328125 2.28125 1.015625q0.78125 0.6875 0.78125 1.859375q0 1.515625 -1.1875 2.390625q-1.171875 0.875 -3.21875 0.875q-1.984375 0 -3.15625 -0.890625q-1.15625 -0.890625 -1.234375 -2.625l1.71875 0q0.03125 0.96875 0.75 1.484375q0.734375 0.515625 2.015625 0.515625q1.234375 0 1.859375 -0.390625q0.640625 -0.390625 0.640625 -1.140625q0 -0.703125 -0.625 -1.109375q-0.625 -0.40625 -2.578125 -0.796875q-1.953125 -0.375 -2.75 -1.0625q-0.796875 -0.703125 -0.796875 -1.875q0 -1.359375 1.09375 -2.140625q1.109375 -0.796875 2.78125 -0.796875zm10.859375 0q2.21875 0 3.453125 1.609375q1.234375 1.59375 1.234375 4.109375l0 0.203125l-7.75 0l0 0.125q0 1.46875 0.859375 2.375q0.859375 0.890625 2.375 0.890625q1.125 0 1.796875 -0.515625q0.671875 -0.53125 0.875 -1.5l1.671875 0q-0.34375 1.71875 -1.5 2.625q-1.15625 0.90625 -2.90625 0.90625q-1.640625 0 -2.765625 -0.734375q-1.125 -0.75 -1.671875 -2.0625q-0.53125 -1.3125 -0.53125 -2.6875q0 -2.28125 1.375 -3.8125q1.390625 -1.53125 3.484375 -1.53125zm-3.0625 4.421875l5.9375 0q-0.078125 -1.265625 -0.921875 -2.09375q-0.828125 -0.828125 -2.078125 -0.828125q-1.171875 0 -2.0 0.796875q-0.828125 0.78125 -0.9375 2.125zm13.7890625 -8.46875q1.9218903 0 3.0625153 1.078125q1.15625 1.078125 1.15625 2.9375q0 0.984375 -0.4375 1.796875q-0.421875 0.796875 -1.4375 1.71875q-0.6875 0.640625 -1.015625 1.109375q-0.31251526 0.46875 -0.45314026 0.875q-0.125 0.390625 -0.125 1.03125l0 0.59375l-1.6875 0l0 -0.859375q0 -0.9375 0.375 -1.703125q0.390625 -0.765625 1.375 -1.671875q1.0625153 -0.96875 1.3281403 -1.59375q0.28125 -0.625 0.28125 -1.234375q0 -1.15625 -0.640625 -1.859375q-0.625 -0.703125 -1.7812653 -0.703125q-1.328125 0 -2.046875 0.875q-0.71875 0.859375 -0.71875 2.40625l-1.71875 0l0 -0.21875q0 -1.90625 1.21875 -3.234375q1.21875 -1.34375 3.265625 -1.34375zm1.0 12.40625l0 2.21875l-2.21875 0l0 -2.21875l2.21875 0z" fill-rule="nonzero"/><path fill="#000000" fill-opacity="0.0" d="m470.4595 202.54729l199.87405 0l0 130.01576l-199.87405 0z" fill-rule="evenodd"/><path fill="#000000" d="m514.176 217.78917q3.34375 0 4.546875 1.359375q1.203125 1.34375 1.203125 3.0625q0 1.4375 -0.71875 2.5q-0.703125 1.046875 -1.96875 1.5625l0 0.046875q1.671875 0.359375 2.5625 1.53125q0.890625 1.15625 0.890625 2.828125q0 2.203125 -1.546875 3.703125q-1.546875 1.484375 -3.859375 1.484375l-8.8280945 0l0 -18.078125l7.7187195 0zm-0.390625 7.765625q1.8125 0 2.765625 -0.671875q0.96875 -0.671875 0.96875 -2.21875q0 -1.421875 -0.8125 -2.125q-0.796875 -0.71875 -2.890625 -0.71875l-4.9687195 0l0 5.734375l4.9374695 0zm1.1875 8.28125q1.46875 0 2.375 -0.859375q0.921875 -0.875 0.921875 -2.375q0 -1.53125 -1.046875 -2.265625q-1.03125 -0.75 -2.96875 -0.75l-5.4062195 0l0 6.25l6.1249695 0zm14.991882 -11.375q0.078125 0 0.125 0q0.0625 0 0.171875 0.015625l0 2.265625q-2.421875 0 -3.578125 1.296875q-1.15625 1.28125 -1.15625 3.96875l0 5.859375l-2.15625 0l0 -13.09375l2.03125 0l0 2.75l0.046875 0q0.75 -1.546875 1.859375 -2.296875q1.109375 -0.765625 2.65625 -0.765625zm6.8986816 0.015625q2.8125 0 4.375 2.03125q1.5625 2.015625 1.5625 5.203125l0 0.25l-9.8125 0l0 0.171875q0 1.859375 1.09375 3.0q1.09375 1.140625 2.984375 1.140625q1.4375 0 2.28125 -0.671875q0.859375 -0.671875 1.109375 -1.890625l2.125 0q-0.421875 2.171875 -1.90625 3.328125q-1.46875 1.140625 -3.671875 1.140625q-2.078125 0 -3.5 -0.9375q-1.421875 -0.9375 -2.109375 -2.59375q-0.671875 -1.671875 -0.671875 -3.40625q0 -2.890625 1.734375 -4.828125q1.75 -1.9375 4.40625 -1.9375zm-3.875 5.59375l7.515625 0q-0.09375 -1.609375 -1.15625 -2.65625q-1.046875 -1.046875 -2.640625 -1.046875q-1.484375 0 -2.53125 1.0q-1.046875 1.0 -1.1875 2.703125zm17.385193 -5.59375q2.671875 0 3.796875 0.953125q1.125 0.953125 1.125 2.546875q0 6.8125 0 7.5625q0 0.734375 0.671875 0.734375q0.15625 0 0.328125 -0.03125q0.171875 -0.046875 0.328125 -0.09375l0 1.671875q-0.296875 0.171875 -0.6875 0.265625q-0.390625 0.09375 -0.84375 0.09375q-0.890625 0 -1.359375 -0.5q-0.46875 -0.5 -0.46875 -1.53125q-0.859375 1.015625 -2.03125 1.53125q-1.15625 0.5 -2.578125 0.5q-2.03125 0 -3.1875 -0.953125q-1.140625 -0.96875 -1.140625 -2.71875q0 -1.765625 1.125 -2.796875q1.125 -1.046875 5.28125 -1.5625q1.421875 -0.1875 1.921875 -0.546875q0.5 -0.359375 0.5 -1.078125q0 -1.078125 -0.703125 -1.609375q-0.703125 -0.546875 -2.21875 -0.546875q-1.59375 0 -2.390625 0.609375q-0.796875 0.59375 -0.859375 1.875l-2.15625 0q0.09375 -2.171875 1.53125 -3.265625q1.4375 -1.109375 4.015625 -1.109375zm-3.78125 9.859375q0 0.921875 0.671875 1.4375q0.671875 0.5 1.859375 0.5q1.828125 0 2.90625 -0.90625q1.09375 -0.90625 1.09375 -2.015625l0 -2.25q-0.546875 0.390625 -1.421875 0.53125q-0.859375 0.125 -2.28125 0.328125q-1.4375 0.203125 -2.140625 0.78125q-0.6875 0.5625 -0.6875 1.59375zm15.025879 -13.484375l0 3.921875l2.609375 0l0 1.90625l-2.609375 0l0 8.1875q0 0.984375 0.640625 1.046875q0.65625 0.046875 1.359375 0.046875l0.609375 0l0 1.90625l-1.78125 0q-1.765625 0 -2.375 -0.625q-0.59375 -0.640625 -0.59375 -2.125l0 -8.4375l-2.25 0l0 -1.90625l2.25 0l0 -3.921875l2.140625 0zm7.1331177 -1.0625l0 6.90625l0.0625 0q0.46875 -1.046875 1.59375 -1.625q1.125 -0.59375 2.546875 -0.59375q2.359375 0 3.421875 1.21875q1.078125 1.203125 1.078125 3.453125l0 8.71875l-2.15625 0l0 -8.9375q0 -1.109375 -0.71875 -1.828125q-0.703125 -0.734375 -1.96875 -0.734375q-1.8125 0 -2.84375 1.125q-1.015625 1.109375 -1.015625 2.890625l0 7.484375l-2.140625 0l0 -18.078125l2.140625 0zm17.383179 4.6875q2.8125 0 4.375 2.03125q1.5625 2.015625 1.5625 5.203125l0 0.25l-9.8125 0l0 0.171875q0 1.859375 1.09375 3.0q1.09375 1.140625 2.984375 1.140625q1.4375 0 2.28125 -0.671875q0.859375 -0.671875 1.109375 -1.890625l2.125 0q-0.421875 2.171875 -1.90625 3.328125q-1.46875 1.140625 -3.671875 1.140625q-2.078125 0 -3.5 -0.9375q-1.421875 -0.9375 -2.109375 -2.59375q-0.671875 -1.671875 -0.671875 -3.40625q0 -2.890625 1.734375 -4.828125q1.75 -1.9375 4.40625 -1.9375zm-3.875 5.59375l7.515625 0q-0.09375 -1.609375 -1.15625 -2.65625q-1.046875 -1.046875 -2.640625 -1.046875q-1.484375 0 -2.53125 1.0q-1.046875 1.0 -1.1875 2.703125zm24.719055 -5.59375q2.96875 0 4.65625 1.921875q1.703125 1.90625 1.703125 4.9375q0 3.0625 -1.734375 4.953125q-1.71875 1.890625 -4.625 1.890625q-2.84375 0 -4.59375 -1.859375q-1.75 -1.859375 -1.75 -4.984375q0 -3.109375 1.71875 -4.984375q1.71875 -1.875 4.625 -1.875zm-4.078125 6.859375q0 2.25 1.140625 3.59375q1.15625 1.34375 2.9375 1.34375q1.78125 0 2.9375 -1.34375q1.15625 -1.359375 1.15625 -3.59375q0 -2.234375 -1.15625 -3.59375q-1.15625 -1.375 -2.953125 -1.375q-1.734375 0 -2.90625 1.34375q-1.15625 1.34375 -1.15625 3.625zm15.122009 -6.5625l0 8.921875q0 1.109375 0.703125 1.84375q0.71875 0.734375 1.96875 0.734375q1.859375 0 2.859375 -1.125q1.015625 -1.140625 1.015625 -2.890625l0 -7.484375l2.15625 0l0 13.09375l-2.03125 0l0 -2.078125l-0.046875 0q-0.71875 1.25 -1.796875 1.828125q-1.078125 0.5625 -2.46875 0.5625q-2.296875 0 -3.40625 -1.171875q-1.09375 -1.1875 -1.09375 -3.5l0 -8.734375l2.140625 0zm14.930054 -3.921875l0 3.921875l2.609375 0l0 1.90625l-2.609375 0l0 8.1875q0 0.984375 0.640625 1.046875q0.65625 0.046875 1.359375 0.046875l0.609375 0l0 1.90625l-1.78125 0q-1.765625 0 -2.375 -0.625q-0.59375 -0.640625 -0.59375 -2.125l0 -8.4375l-2.25 0l0 -1.90625l2.25 0l0 -3.921875l2.140625 0z" fill-rule="nonzero"/><path fill="#000000" fill-opacity="0.0" d="m246.55951 591.7398l199.87402 0l0 130.01575l-199.87402 0z" fill-rule="evenodd"/><path fill="#000000" d="m297.6391 606.9817l7.0625 18.078125l-2.65625 0l-1.96875 -5.4375l-7.65625 0l-2.03125 5.4375l-2.46875 0l7.0625 -18.078125l2.65625 0zm-1.390625 2.171875l-3.0625 8.4375l6.125 0l-3.0 -8.4375l-0.0625 0zm16.395721 2.5q0.078125 0 0.125 0q0.0625 0 0.171875 0.015625l0 2.265625q-2.421875 0 -3.578125 1.296875q-1.15625 1.28125 -1.15625 3.96875l0 5.859375l-2.15625 0l0 -13.09375l2.03125 0l0 2.75l0.046875 0q0.75 -1.546875 1.859375 -2.296875q1.109375 -0.765625 2.65625 -0.765625zm8.434479 0q0.078125 0 0.125 0q0.0625 0 0.171875 0.015625l0 2.265625q-2.421875 0 -3.578125 1.296875q-1.15625 1.28125 -1.15625 3.96875l0 5.859375l-2.15625 0l0 -13.09375l2.03125 0l0 2.75l0.046875 0q0.75 -1.546875 1.859375 -2.296875q1.109375 -0.765625 2.65625 -0.765625zm7.101776 0.015625q2.96875 0 4.65625 1.921875q1.703125 1.90625 1.703125 4.9375q0 3.0625 -1.734375 4.953125q-1.71875 1.890625 -4.625 1.890625q-2.84375 0 -4.59375 -1.859375q-1.75 -1.859375 -1.75 -4.984375q0 -3.109375 1.71875 -4.984375q1.71875 -1.875 4.625 -1.875zm-4.078125 6.859375q0 2.25 1.140625 3.59375q1.15625 1.34375 2.9375 1.34375q1.78125 0 2.9375 -1.34375q1.15625 -1.359375 1.15625 -3.59375q0 -2.234375 -1.15625 -3.59375q-1.15625 -1.375 -2.953125 -1.375q-1.734375 0 -2.90625 1.34375q-1.15625 1.34375 -1.15625 3.625zm18.30951 -6.859375q1.375 0 2.375 0.59375q1.0 0.59375 1.546875 1.578125l0.015625 0l0 -1.875l2.015625 0l0 12.109375q0 3.09375 -1.484375 4.6875q-1.484375 1.609375 -4.578125 1.609375q-2.25 0 -3.796875 -0.984375q-1.53125 -0.984375 -1.625 -2.859375l2.15625 0q0.046875 1.0 1.0625 1.5625q1.03125 0.5625 2.328125 0.5625q1.90625 0 2.90625 -1.265625q1.015625 -1.25 1.015625 -3.734375l0 -0.8125l-0.046875 0q-0.5 1.078125 -1.59375 1.71875q-1.09375 0.640625 -2.5 0.640625q-2.65625 0 -4.25 -1.828125q-1.578125 -1.828125 -1.578125 -4.796875q0 -3.0 1.578125 -4.953125q1.59375 -1.953125 4.453125 -1.953125zm-3.765625 6.65625q0 2.328125 0.96875 3.65625q0.984375 1.328125 2.734375 1.328125q1.78125 0 2.828125 -1.375q1.0625 -1.375 1.0625 -3.6875q0 -2.109375 -0.984375 -3.390625q-0.96875 -1.296875 -2.765625 -1.296875q-1.796875 0 -2.828125 1.296875q-1.015625 1.296875 -1.015625 3.46875zm18.325134 -6.65625q2.671875 0 3.796875 0.953125q1.125 0.953125 1.125 2.546875q0 6.8125 0 7.5625q0 0.734375 0.671875 0.734375q0.15625 0 0.328125 -0.03125q0.171875 -0.046875 0.328125 -0.09375l0 1.671875q-0.296875 0.171875 -0.6875 0.265625q-0.390625 0.09375 -0.84375 0.09375q-0.890625 0 -1.359375 -0.5q-0.46875 -0.5 -0.46875 -1.53125q-0.859375 1.015625 -2.03125 1.53125q-1.15625 0.5 -2.578125 0.5q-2.03125 0 -3.1875 -0.953125q-1.140625 -0.96875 -1.140625 -2.71875q0 -1.765625 1.125 -2.796875q1.125 -1.046875 5.28125 -1.5625q1.421875 -0.1875 1.921875 -0.546875q0.5 -0.359375 0.5 -1.078125q0 -1.078125 -0.703125 -1.609375q-0.703125 -0.546875 -2.21875 -0.546875q-1.59375 0 -2.390625 0.609375q-0.796875 0.59375 -0.859375 1.875l-2.15625 0q0.09375 -2.171875 1.53125 -3.265625q1.4375 -1.109375 4.015625 -1.109375zm-3.78125 9.859375q0 0.921875 0.671875 1.4375q0.671875 0.5 1.859375 0.5q1.828125 0 2.90625 -0.90625q1.09375 -0.90625 1.09375 -2.015625l0 -2.25q-0.546875 0.390625 -1.421875 0.53125q-0.859375 0.125 -2.28125 0.328125q-1.4375 0.203125 -2.140625 0.78125q-0.6875 0.5625 -0.6875 1.59375zm18.385223 -9.859375q2.359375 0 3.421875 1.21875q1.078125 1.203125 1.078125 3.453125l0 8.71875l-2.15625 0l0 -8.9375q0 -1.109375 -0.71875 -1.828125q-0.703125 -0.734375 -1.96875 -0.734375q-1.8125 0 -2.84375 1.125q-1.015625 1.109375 -1.015625 2.890625l0 7.484375l-2.140625 0l0 -13.09375l2.015625 0l0 2.078125l0.0625 0q0.71875 -1.234375 1.75 -1.796875q1.046875 -0.578125 2.515625 -0.578125zm13.211304 0q2.390625 0 3.890625 1.140625q1.5 1.125 1.75 3.359375l-2.21875 0q-0.265625 -1.28125 -1.109375 -1.9375q-0.84375 -0.671875 -2.140625 -0.671875q-2.0 0 -3.046875 1.34375q-1.03125 1.34375 -1.03125 3.78125q0 2.171875 1.03125 3.484375q1.03125 1.296875 2.796875 1.296875q1.5625 0 2.46875 -0.84375q0.921875 -0.859375 1.125 -2.34375l2.203125 0q-0.359375 2.4375 -1.84375 3.765625q-1.484375 1.328125 -3.9375 1.328125q-2.84375 0 -4.484375 -1.796875q-1.625 -1.8125 -1.625 -4.890625q0 -3.21875 1.640625 -5.109375q1.65625 -1.90625 4.53125 -1.90625zm13.572723 0q2.8125 0 4.375 2.03125q1.5625 2.015625 1.5625 5.203125l0 0.25l-9.8125 0l0 0.171875q0 1.859375 1.09375 3.0q1.09375 1.140625 2.984375 1.140625q1.4375 0 2.28125 -0.671875q0.859375 -0.671875 1.109375 -1.890625l2.125 0q-0.421875 2.171875 -1.90625 3.328125q-1.46875 1.140625 -3.671875 1.140625q-2.078125 0 -3.5 -0.9375q-1.421875 -0.9375 -2.109375 -2.59375q-0.671875 -1.671875 -0.671875 -3.40625q0 -2.890625 1.734375 -4.828125q1.75 -1.9375 4.40625 -1.9375zm-3.875 5.59375l7.515625 0q-0.09375 -1.609375 -1.15625 -2.65625q-1.046875 -1.046875 -2.640625 -1.046875q-1.484375 0 -2.53125 1.0q-1.046875 1.0 -1.1875 2.703125z" fill-rule="nonzero"/></g></svg>