<?xml version="1.0" standalone="no"?>
<!DOCTYPE svg PUBLIC "-//W3C//DTD SVG 20010904//EN"
 "http://www.w3.org/TR/2001/REC-SVG-20010904/DTD/svg10.dtd">
<svg version="1.0" xmlns="http://www.w3.org/2000/svg"
 width="1314.000000pt" height="1314.000000pt" viewBox="0 0 1314.000000 1314.000000"
 preserveAspectRatio="xMidYMid meet">
<metadata>
Created by potrace 1.14, written by Peter Selinger 2001-2017
</metadata>
<g transform="translate(0.000000,1314.000000) scale(0.100000,-0.100000)"
fill="#000000" stroke="none">
<path d="M6716 10589 c-1038 -53 -2026 -517 -2734 -1282 -429 -465 -725 -982
-908 -1587 -47 -155 -97 -396 -114 -550 -6 -52 -19 -156 -30 -230 -13 -91 -19
-187 -19 -295 0 -88 0 -170 0 -183 -1 -13 4 -20 9 -17 13 8 13 -21 0 -45 -7
-13 -6 -19 6 -24 8 -3 12 -2 9 4 -4 6 1 7 11 3 14 -5 12 -8 -11 -20 -27 -15
-27 -15 -20 -96 33 -416 122 -803 272 -1187 62 -159 201 -442 213 -435 6 3 7
-1 4 -9 -5 -13 2 -15 40 -12 25 1 43 -1 40 -5 -2 -4 0 -10 6 -14 5 -3 10 1 10
9 0 9 4 16 10 16 5 0 7 -8 4 -17 -5 -17 -5 -17 6 0 11 17 36 25 25 8 -3 -5 -1
-12 4 -15 5 -4 12 -2 15 3 4 5 2 12 -4 16 -12 7 -4 25 11 25 5 0 9 -7 9 -15 0
-8 5 -15 11 -15 5 0 7 5 3 12 -4 6 -3 8 2 5 6 -3 16 -2 24 4 11 6 11 9 2 9
-10 0 -10 3 0 13 7 8 19 14 26 14 13 0 12 -2 0 -11 -12 -9 -12 -16 -3 -40 10
-23 13 -25 18 -11 5 11 13 14 28 10 15 -5 19 -4 14 5 -4 6 1 18 11 26 18 13
18 14 -1 7 -11 -3 -17 -3 -13 1 4 5 23 10 43 12 32 3 35 1 24 -12 -10 -12 -14
-12 -20 -2 -6 9 -9 9 -9 1 0 -16 17 -26 25 -13 3 5 11 10 16 10 6 0 8 -4 5 -8
-3 -5 0 -9 7 -9 7 0 29 -3 49 -7 20 -3 40 -1 43 4 3 5 -5 9 -17 8 -56 -2 -68
2 -65 22 2 11 7 23 12 27 4 5 5 3 2 -3 -7 -12 39 -41 50 -31 3 4 -1 7 -10 7
-10 0 -17 5 -17 10 0 6 14 4 34 -4 30 -12 34 -13 29 0 -3 8 -8 14 -12 14 -4 0
-8 7 -8 15 0 8 4 15 9 15 4 0 8 -7 8 -15 0 -8 6 -15 14 -15 10 0 12 -7 8 -22
-3 -14 -1 -19 6 -14 8 5 10 2 6 -8 -4 -11 0 -16 12 -16 32 0 44 13 26 30 -14
13 -15 12 -9 -3 4 -11 1 -17 -9 -17 -8 0 -13 4 -9 9 3 5 1 12 -4 16 -17 10 -1
32 22 31 16 -1 21 -7 19 -21 -2 -15 -1 -17 7 -6 8 12 10 12 14 0 2 -8 3 -2 1
13 -2 15 1 30 6 33 6 3 7 -2 4 -12 -4 -14 -1 -13 15 5 11 13 26 20 32 16 6 -3
14 -2 18 4 3 5 14 -1 25 -16 11 -14 15 -22 9 -19 -6 4 -13 1 -16 -6 -3 -8 3
-13 14 -13 11 0 19 4 19 9 0 5 9 7 20 4 11 -3 23 -1 26 4 3 5 13 8 21 7 9 -2
18 3 21 11 3 9 0 11 -9 6 -12 -7 -12 -5 -1 6 11 12 14 12 22 -1 8 -12 10 -12
10 -1 0 8 6 11 16 7 10 -4 14 -1 11 6 -2 7 -17 12 -33 11 -22 -2 -25 0 -14 7
8 5 24 10 35 10 18 1 19 1 3 11 -10 5 -18 15 -18 22 0 8 3 7 9 -2 5 -8 16 -11
24 -8 9 3 21 -1 27 -9 15 -17 33 -19 25 -1 -3 6 2 2 11 -11 20 -27 34 -29 29
-2 -2 11 0 18 5 15 15 -9 22 15 9 33 -12 16 -12 16 6 0 18 -16 18 -18 2 -36
-9 -10 -14 -22 -10 -25 3 -4 15 5 25 20 10 16 18 24 18 18 0 -5 5 -3 10 5 8
13 10 12 10 -2 0 -10 5 -18 11 -18 5 0 7 5 4 11 -4 6 2 5 14 -3 34 -21 26 -39
-9 -21 -17 8 -36 13 -43 10 -6 -2 2 -8 18 -12 17 -4 36 -12 43 -18 25 -20 33
15 10 41 -22 22 -34 57 -17 46 5 -3 9 0 9 7 0 8 3 9 13 0 8 -6 17 -8 20 -4 4
3 7 -1 7 -10 0 -9 -4 -18 -10 -22 -14 -9 -1 -32 22 -38 19 -5 19 -5 2 14 -11
12 -13 19 -5 19 8 0 10 8 6 23 -3 12 4 4 17 -18 12 -22 21 -44 19 -49 -1 -5 4
-5 11 1 7 6 21 9 31 8 9 -2 15 1 11 6 -3 5 -11 6 -17 2 -7 -4 -6 0 2 10 9 12
10 17 2 17 -6 0 -14 -7 -17 -15 -4 -8 -11 -12 -17 -8 -6 4 -3 11 7 19 10 7 15
17 12 23 -8 12 41 47 51 37 3 -3 1 -6 -6 -6 -7 0 -9 -4 -6 -10 3 -5 0 -7 -9
-4 -13 5 -15 -11 -6 -36 1 -3 2 -9 1 -13 -2 -11 42 -5 51 7 8 12 -2 37 -13 30
-12 -7 -11 3 1 26 6 11 17 17 25 14 9 -4 15 0 15 9 0 8 8 18 18 22 14 5 15 4
5 -6 -7 -7 -13 -22 -12 -34 l0 -20 9 20 c4 12 16 27 26 35 18 14 18 14 2 -6
-10 -11 -18 -28 -18 -36 0 -9 -8 -22 -17 -29 -9 -8 -14 -9 -10 -3 8 13 -20 41
-30 30 -3 -3 -1 -6 6 -6 7 0 11 -7 8 -14 -4 -9 2 -17 14 -21 10 -4 16 -11 13
-17 -4 -6 -1 -8 7 -6 8 3 13 11 12 17 -2 6 1 11 7 11 5 0 7 7 4 15 -5 11 -2
13 10 9 10 -4 15 -13 12 -20 -3 -8 0 -11 10 -7 13 5 13 8 -2 24 -16 18 -16 19
0 19 9 0 19 7 22 15 7 18 26 20 23 2 -4 -31 1 -38 18 -28 13 7 23 5 34 -5 14
-13 16 -11 14 16 -2 28 -15 57 -15 32 0 -6 -10 -17 -22 -23 l-23 -11 23 22
c24 23 23 42 -1 22 -10 -9 -14 -9 -14 1 0 15 34 20 42 6 4 -5 10 -7 14 -5 3 3
8 -4 9 -15 4 -42 6 -48 14 -43 5 3 6 10 3 15 -4 5 -1 9 4 9 6 0 11 6 11 14 0
8 4 18 10 21 5 3 7 0 4 -9 -3 -8 -3 -20 1 -26 8 -13 31 8 38 36 4 16 5 16 6
-4 1 -15 5 -21 12 -16 7 4 10 1 7 -7 -3 -8 -11 -13 -17 -12 -6 2 -11 -2 -11
-8 0 -17 22 -5 39 21 10 14 11 21 4 16 -7 -4 -14 -2 -14 3 -1 6 -3 16 -4 21
-1 6 -3 15 -4 21 0 6 -9 8 -18 4 -15 -5 -16 -4 -5 7 11 11 16 10 26 -4 7 -10
17 -14 22 -10 4 4 2 -1 -5 -10 -12 -15 -11 -18 3 -18 9 0 16 -4 16 -8 0 -5 6
-17 14 -28 10 -13 14 -14 13 -4 -2 8 -6 21 -10 28 -5 7 -2 19 7 28 9 8 16 12
16 8 0 -3 6 -1 14 5 12 10 13 8 9 -10 -5 -18 -3 -21 11 -16 10 4 21 7 26 7 4
0 10 10 14 22 4 18 8 20 17 11 9 -9 18 -9 32 -2 14 8 18 8 13 0 -4 -6 -2 -11
4 -11 6 0 9 -4 5 -9 -3 -5 0 -13 6 -17 7 -4 9 -3 6 3 -7 11 14 23 39 23 9 0
12 -5 8 -12 -4 -7 -3 -8 5 -4 6 4 9 11 6 15 -8 14 -54 19 -59 7 -2 -6 -3 2 -1
18 1 18 8 30 18 32 10 1 14 -3 10 -12 -3 -8 0 -14 6 -14 6 0 11 7 11 15 0 14
11 19 38 16 6 -1 12 3 12 9 0 7 6 8 19 0 12 -6 22 -6 25 -1 4 5 3 11 -1 14 -5
2 -3 2 4 1 6 -2 14 4 18 13 4 12 9 13 17 5 7 -7 17 -8 29 -1 15 8 17 6 12 -8
-6 -15 -4 -16 9 -6 18 15 28 7 28 -23 0 -12 7 -25 16 -28 10 -4 13 -2 8 6 -5
8 -2 9 9 5 10 -4 17 -2 17 4 0 7 -9 9 -21 6 -15 -4 -19 -2 -15 10 3 8 6 17 6
19 0 3 9 0 19 -6 14 -7 22 -7 26 0 5 8 11 7 21 -1 8 -6 14 -8 14 -4 0 4 -8 14
-17 21 -17 13 -17 13 2 14 27 0 49 -15 41 -29 -8 -13 3 -14 23 -2 10 7 8 12
-10 25 -21 14 -19 21 4 17 5 -1 6 3 2 9 -3 5 -1 10 5 10 6 0 9 4 6 9 -3 5 0
14 8 20 11 9 15 8 20 -6 6 -15 9 -15 17 -3 9 12 10 10 6 -7 -3 -13 -1 -26 4
-29 5 -3 8 -2 7 3 -4 11 13 14 35 7 14 -4 16 -9 6 -20 -10 -12 -6 -12 24 1 19
8 37 11 41 8 3 -4 6 3 6 15 0 13 -6 22 -15 22 -8 0 -14 -5 -12 -12 4 -22 -30
-19 -42 4 -6 13 -9 15 -7 6 7 -23 4 -23 -17 2 -16 19 -16 20 6 16 12 -2 31 5
44 17 20 18 23 18 29 3 3 -9 12 -16 19 -16 8 0 12 -8 10 -19 -3 -14 1 -18 11
-14 8 3 14 0 14 -6 0 -6 5 -11 10 -11 6 0 10 8 8 18 -2 11 3 16 12 14 10 -1 9
2 -4 13 -11 8 -15 15 -9 15 6 0 9 9 6 20 -3 12 0 20 6 20 7 0 9 -5 6 -10 -4
-6 7 -16 24 -23 17 -7 28 -17 24 -21 -4 -4 1 -4 12 0 12 5 14 9 7 12 -10 3
-10 7 -1 18 14 17 -2 19 -20 2 -11 -11 -12 -10 -6 1 6 11 4 13 -9 8 -14 -6
-15 -4 -4 16 7 12 11 25 10 28 -2 9 37 -1 43 -10 2 -4 -4 -7 -13 -7 -9 1 -18
-3 -19 -9 -2 -5 7 -10 20 -10 18 0 21 -5 19 -25 -2 -18 0 -21 6 -12 5 8 13 13
18 13 5 -1 9 3 9 8 0 6 5 15 12 22 6 6 9 17 7 24 -3 7 -1 16 5 20 7 4 8 -1 4
-12 -6 -16 -5 -17 12 -3 17 13 18 13 10 0 -4 -8 -14 -22 -22 -31 -12 -14 -12
-17 1 -22 11 -4 13 -1 9 10 -5 12 -3 14 7 8 8 -5 11 -4 7 2 -4 6 0 14 9 17 8
3 12 10 9 16 -3 5 -1 10 4 10 6 0 11 -5 11 -11 0 -5 5 -7 10 -4 6 3 10 -5 10
-19 0 -19 4 -24 15 -20 12 5 13 9 4 20 -7 8 -9 17 -5 21 3 3 6 1 6 -5 0 -7 7
-12 17 -12 14 0 14 2 -3 21 -19 22 -19 22 4 10 12 -6 22 -18 22 -26 0 -18 16
-20 26 -3 4 7 3 8 -4 4 -7 -4 -12 -3 -12 3 0 9 57 27 73 23 5 -2 6 2 3 7 -4 5
-2 12 3 16 6 3 8 12 4 20 -3 8 -1 15 5 15 5 0 12 -10 16 -22 5 -19 8 -20 15
-8 7 9 6 17 0 21 -6 4 -4 9 7 13 9 3 19 4 22 1 3 -3 -1 -5 -8 -5 -21 0 -2 -14
21 -15 25 -2 37 22 19 38 -10 10 -12 8 -7 -5 4 -10 2 -18 -3 -18 -5 0 -8 14
-8 30 1 29 2 29 15 10 8 -11 23 -20 33 -20 27 0 34 -17 10 -25 -18 -6 -29 -25
-15 -25 18 0 41 39 39 65 -3 46 -3 47 -16 39 -7 -5 -8 -3 -3 6 6 10 11 9 22
-5 11 -16 13 -17 13 -2 0 9 12 22 28 30 15 7 26 18 25 24 -1 5 5 10 13 10 10
0 6 -9 -13 -29 -16 -17 -21 -28 -13 -28 7 0 10 -3 7 -6 -4 -4 -14 -1 -24 7
-15 12 -16 12 -10 -3 3 -9 -1 -22 -10 -29 -13 -12 -13 -14 4 -20 13 -6 14 -8
3 -8 -9 -1 -16 -10 -16 -21 0 -20 1 -20 17 2 10 12 16 25 14 28 -2 3 1 12 6
20 8 13 12 12 24 -5 15 -18 15 -18 12 10 -3 17 -2 22 0 13 2 -10 8 -18 13 -18
5 0 7 -7 4 -15 -8 -21 -2 -19 20 7 15 18 16 20 2 15 -9 -4 -16 -1 -16 4 0 7
11 9 25 7 28 -6 33 6 9 20 -11 6 -13 11 -5 16 6 4 11 2 11 -3 0 -19 30 -12 31
7 0 14 2 14 9 -3 5 -14 3 -24 -7 -32 -8 -6 -10 -14 -5 -17 6 -3 13 1 16 10 3
8 10 13 14 10 5 -3 9 1 9 9 0 8 -4 15 -9 15 -4 0 -8 5 -8 11 0 5 5 7 10 4 6
-3 10 -2 10 4 0 5 -4 13 -10 16 -5 3 -10 12 -10 18 0 8 3 7 9 -2 7 -11 9 -11
14 0 3 9 6 5 6 -7 1 -21 41 -43 41 -22 0 6 9 8 21 5 19 -5 20 -4 5 12 -16 17
-15 19 11 35 l28 17 -24 -20 c-13 -12 -18 -21 -11 -21 7 0 21 -10 31 -22 21
-23 25 -17 9 13 -7 13 -7 19 0 19 5 0 10 -7 10 -15 0 -19 14 -19 29 -2 7 10 7
17 0 24 -8 8 -5 13 10 18 12 3 21 11 21 17 0 5 -7 7 -16 4 -8 -3 -12 -2 -9 4
10 16 23 12 36 -11 6 -12 7 -19 2 -16 -5 3 -15 2 -23 -4 -11 -6 -8 -9 12 -9
14 0 29 -6 31 -12 4 -10 6 -10 6 0 1 6 7 12 15 12 8 0 17 -6 19 -12 4 -9 6 -8
6 2 1 8 -12 21 -29 28 -16 8 -30 18 -30 24 0 7 5 6 14 -1 8 -6 30 -14 50 -16
28 -4 34 -2 30 10 -5 11 -2 13 12 8 11 -4 15 -3 11 5 -9 13 31 82 46 81 8 0 8
-2 0 -6 -7 -2 -13 -14 -13 -24 0 -11 5 -17 10 -14 6 4 8 12 4 18 -3 7 1 4 10
-7 11 -14 12 -21 3 -31 -9 -10 -14 -10 -22 1 -7 9 -15 11 -25 4 -19 -12 -6
-23 31 -26 17 -1 28 0 25 4 -3 3 -1 11 5 18 6 8 7 20 1 31 -4 10 -5 32 -1 48
5 22 7 24 9 10 1 -11 2 -24 0 -30 -2 -10 28 -35 42 -35 4 0 8 7 8 15 0 8 7 15
15 15 8 0 13 -6 11 -12 -1 -7 -1 -9 2 -5 2 4 10 3 18 -4 11 -9 14 -8 14 5 0 9
3 15 8 14 4 -1 22 3 41 10 26 9 32 16 28 32 -5 20 25 65 37 53 3 -3 6 0 6 7 0
7 3 10 6 7 4 -4 1 -14 -7 -24 -12 -15 -12 -16 4 -10 10 4 21 7 23 7 3 0 2 6
-2 13 -6 9 -5 9 8 0 8 -7 19 -9 23 -5 5 4 5 -2 2 -13 -7 -18 -6 -19 6 -3 8 10
17 14 21 10 4 -4 6 -2 4 5 -2 6 6 19 17 28 11 9 14 14 8 10 -16 -8 -17 7 -1
23 8 8 8 15 -1 25 -9 12 -8 16 4 20 8 4 14 3 14 -1 -1 -4 0 -9 1 -12 6 -17 6
-57 0 -65 -5 -6 1 -10 16 -10 13 0 24 4 24 9 0 5 3 6 7 3 4 -4 19 5 35 20 15
15 28 21 28 14 0 -7 5 -9 10 -6 6 4 1 15 -14 26 -28 22 -40 24 -33 6 6 -16 -8
-43 -16 -31 -2 5 -1 19 4 32 7 18 14 22 30 17 15 -5 22 -2 26 14 3 12 10 21
15 21 5 0 6 -5 2 -12 -4 -6 -3 -8 2 -5 6 3 16 2 24 -3 11 -7 7 -10 -13 -15
-15 -4 -27 -11 -27 -16 0 -6 8 -5 19 1 15 8 22 7 28 -5 8 -13 12 -12 31 5 12
12 22 26 22 32 0 7 5 6 15 -2 9 -7 18 -10 22 -6 3 3 1 6 -6 6 -8 0 -11 7 -7
15 9 24 -9 17 -45 -17 -18 -18 -27 -25 -20 -16 10 13 10 21 0 40 -10 20 -10
21 2 12 15 -13 59 -2 59 15 0 13 42 22 56 10 7 -5 9 -20 6 -32 -3 -12 -2 -19
2 -16 4 4 8 23 9 42 4 44 4 45 42 49 17 2 33 10 37 18 5 12 7 11 7 -4 1 -16 3
-17 18 -5 9 8 14 9 11 4 -4 -6 2 -11 12 -11 11 0 21 9 24 22 6 21 36 42 36 25
0 -5 -7 -11 -15 -15 -8 -3 -15 -10 -15 -16 0 -5 9 -2 20 7 11 10 20 23 20 30
0 22 57 15 81 -9 l21 -23 -11 22 c-6 12 -16 25 -21 28 -6 4 -8 11 -5 16 4 5 1
9 -4 9 -6 0 -11 -4 -11 -10 0 -5 -7 -10 -16 -10 -14 0 -14 2 1 16 8 9 22 14
30 11 8 -4 16 1 18 11 4 15 5 15 6 1 0 -9 8 -20 17 -23 13 -5 15 -1 10 21 -5
21 -4 24 4 13 9 -13 13 -11 30 10 15 19 18 20 13 6 -5 -16 -3 -18 11 -13 10 4
23 4 29 0 18 -11 38 -12 31 -2 -3 5 -1 9 4 9 6 0 9 15 8 33 -1 25 3 32 17 31
9 -1 17 2 17 8 0 5 5 6 10 3 19 -12 10 -24 -15 -19 -18 3 -25 0 -25 -12 0 -12
7 -15 25 -12 20 4 23 3 14 -8 -6 -8 -16 -11 -22 -7 -6 3 -7 1 -3 -5 11 -19 46
9 47 38 0 23 1 23 9 5 8 -18 10 -18 14 3 4 21 19 30 47 28 16 -1 33 2 36 7 3
6 1 7 -4 4 -6 -4 -14 0 -17 9 -3 9 -2 12 4 9 6 -4 10 5 8 24 -2 21 -5 27 -14
20 -7 -6 -15 -5 -22 4 -9 10 -6 13 14 12 25 0 47 -22 38 -37 -3 -4 -1 -8 5 -8
6 0 9 -6 7 -12 -1 -7 -1 -9 2 -5 2 5 14 0 25 -10 21 -17 21 -17 7 0 -12 17
-12 18 6 15 10 -1 23 -7 27 -13 5 -6 6 -3 3 8 -4 12 2 20 19 27 14 5 25 14 25
19 0 6 7 8 15 5 8 -4 15 -1 15 6 0 6 -4 9 -9 6 -5 -3 -12 1 -15 10 -9 24 -7
28 9 14 12 -10 15 -10 15 0 0 8 3 10 7 7 3 -4 11 3 17 16 8 15 20 22 39 21 15
-1 27 3 27 7 0 5 5 9 11 9 5 0 7 -5 3 -11 -4 -8 0 -8 15 0 11 7 21 9 21 6 0
-3 9 -1 21 6 14 7 19 17 16 30 -6 22 5 24 35 8 13 -7 18 -7 14 -1 -3 6 -2 13
4 17 15 9 12 25 -5 25 -8 0 -15 7 -15 15 0 8 6 15 13 15 9 0 9 2 -1 9 -11 7
-10 9 3 14 9 4 13 3 10 -3 -3 -6 -2 -10 3 -10 5 0 9 -8 9 -17 0 -34 3 -43 14
-43 7 0 9 10 5 25 -5 20 -3 23 11 18 10 -3 24 -11 32 -17 12 -9 12 -6 -1 14
-17 28 -18 50 -3 49 6 0 9 -7 7 -15 -4 -17 19 -19 36 -2 9 9 15 9 25 -1 8 -10
8 -12 0 -7 -6 3 -15 1 -19 -5 -5 -8 -3 -9 6 -4 10 6 12 3 7 -11 -7 -19 -7 -19
8 0 8 10 12 22 10 27 -3 4 1 9 7 12 10 3 10 7 0 20 -11 13 -10 17 5 26 12 7
13 10 4 11 -8 0 -11 6 -7 16 4 10 1 14 -6 11 -7 -2 -12 -12 -10 -22 3 -17 3
-17 -13 -1 -10 9 -15 20 -11 23 3 4 6 3 6 -2 0 -4 9 0 20 10 12 11 20 13 20 6
0 -7 5 -9 12 -5 6 4 8 3 5 -4 -9 -14 3 -43 14 -36 5 3 7 10 4 15 -4 5 5 4 19
-3 14 -6 26 -14 26 -17 0 -4 9 -7 20 -7 11 0 20 4 20 8 0 4 -4 8 -10 8 -5 0
-7 8 -4 18 5 14 4 15 -5 2 -10 -13 -13 -13 -22 3 -6 9 -14 15 -18 13 -4 -3 -8
5 -8 17 l-2 22 19 -23 c16 -20 22 -21 41 -12 16 9 19 14 9 20 -26 16 -19 37
11 35 16 -1 32 -5 37 -10 4 -4 -2 -5 -13 -1 -11 3 -26 2 -33 -3 -22 -13 14
-22 44 -11 14 6 30 8 35 5 5 -4 6 2 2 11 -5 13 -3 15 8 10 8 -4 5 0 -6 10 -18
15 -18 16 -1 10 14 -5 17 -2 12 9 -3 8 -9 22 -13 32 -4 11 -3 14 5 9 6 -4 14
-23 18 -42 7 -36 17 -38 19 -4 1 10 -2 17 -7 14 -4 -3 -8 0 -8 6 0 7 6 10 13
7 6 -2 11 -10 10 -16 -2 -6 3 -11 11 -11 8 0 13 8 12 18 -1 12 5 16 22 14 17
-3 21 1 19 15 -4 18 -16 50 -25 67 -3 5 0 6 6 2 7 -4 12 -15 13 -24 0 -13 2
-12 9 5 6 15 15 20 29 16 21 -5 26 -14 14 -26 -3 -4 -12 1 -19 11 -11 14 -13
14 -14 2 0 -25 16 -41 33 -34 9 3 17 10 17 16 0 5 5 6 10 3 6 -3 10 -11 10
-16 0 -6 -4 -7 -10 -4 -5 3 -10 1 -10 -5 0 -7 6 -10 13 -7 6 2 12 15 12 29 -1
17 4 24 12 21 7 -3 13 0 13 6 0 6 -3 10 -7 10 -5 -1 -19 -1 -32 0 -34 1 -16
16 20 16 16 0 29 -3 29 -7 0 -5 8 -8 18 -7 10 0 12 3 5 6 -7 2 -13 12 -12 21
0 11 2 13 6 4 4 -10 8 -10 19 -1 14 11 15 10 18 -13 2 -17 -25 -37 -41 -31 -9
3 -11 0 -7 -10 6 -16 34 -13 34 3 0 5 10 12 21 15 17 6 19 9 8 16 -12 7 -11 9
1 9 12 1 11 3 -3 11 -15 9 -16 12 -2 25 8 9 12 21 8 27 -18 29 -9 35 21 12 31
-24 67 -21 52 4 -4 6 -12 9 -17 6 -5 -4 -9 -2 -9 4 0 5 5 13 10 16 6 3 10 1
10 -6 0 -7 3 -9 7 -6 8 9 34 -13 28 -23 -3 -5 0 -12 6 -16 7 -4 9 -3 5 4 -3 6
2 15 11 21 10 6 13 11 6 11 -6 0 -10 8 -8 18 2 9 4 20 4 25 2 13 21 7 21 -7 0
-8 7 -16 15 -20 8 -3 14 -2 14 2 -5 29 3 44 19 40 15 -4 18 -1 14 18 -2 13 -8
22 -12 19 -4 -3 -13 2 -19 9 -9 10 -9 16 -1 21 6 4 9 1 8 -7 -2 -8 4 -12 15
-10 10 2 17 -3 17 -13 0 -8 4 -15 9 -15 5 0 7 -10 5 -22 -4 -21 -4 -21 5 -3 5
11 5 24 1 29 -5 5 -2 15 6 23 8 8 14 21 14 28 0 11 -6 12 -26 5 -33 -13 -34
-13 -28 5 4 8 10 13 14 10 5 -3 18 7 29 22 11 16 21 23 21 16 0 -6 -5 -15 -10
-18 -17 -11 -1 -23 22 -17 14 3 19 2 14 -6 -13 -22 9 -12 41 18 32 30 33 30
45 10 7 -11 17 -20 22 -20 4 0 3 6 -3 14 -9 11 -8 17 4 30 9 8 17 19 18 23 1
4 5 7 9 6 4 -2 5 4 1 13 -4 11 -1 14 10 12 9 -2 16 2 16 7 1 6 -3 10 -8 10 -5
0 -13 4 -18 8 -4 5 -1 7 7 5 8 -2 14 3 12 10 -1 8 2 11 7 8 5 -4 13 -2 16 4 4
7 16 1 31 -15 13 -14 24 -22 24 -16 0 5 9 7 20 4 11 -3 20 -1 20 4 0 6 -10 9
-23 8 -16 -2 -23 3 -24 16 -1 10 3 21 8 25 6 3 9 -1 7 -9 -2 -9 1 -16 7 -16 5
-1 10 7 10 16 0 9 6 18 13 20 6 3 12 0 12 -7 0 -6 -5 -8 -12 -4 -7 4 -8 3 -4
-4 10 -16 38 -2 31 15 -3 11 -1 13 10 10 8 -4 17 -1 21 5 4 6 3 8 -3 5 -14 -9
-25 35 -13 47 7 7 10 5 10 -3 0 -11 3 -11 16 0 15 12 16 11 11 -11 -4 -14 -4
-19 -1 -12 3 6 9 10 13 8 4 -3 7 10 6 28 -1 38 28 68 39 40 3 -8 12 -12 18 -9
7 4 5 0 -4 -8 -10 -8 -18 -20 -18 -27 0 -9 3 -10 13 -1 8 6 16 9 18 6 3 -2 5
9 4 25 0 17 5 30 10 29 6 0 9 -8 7 -17 -2 -15 -1 -15 8 1 6 9 8 26 5 37 -4 11
-2 20 4 20 6 0 11 -4 11 -10 0 -5 7 -7 15 -4 8 4 15 12 15 19 0 7 6 16 13 18
7 3 6 6 -5 6 -22 1 -19 31 5 56 19 20 19 20 4 -11 l-16 -31 31 -1 c22 0 32 5
35 19 3 10 12 19 20 19 10 0 13 6 9 16 -3 8 -2 12 3 9 5 -3 12 -1 16 5 3 5 -3
10 -14 10 -11 0 -22 4 -25 8 -3 5 9 6 25 4 18 -3 28 -9 26 -16 -3 -7 5 -18 16
-26 20 -12 21 -12 8 4 -13 15 -12 20 7 38 19 20 22 20 28 5 3 -9 11 -17 16
-17 7 0 6 5 -1 13 -8 10 -7 17 2 26 9 10 8 11 -7 5 -13 -5 -17 -4 -12 4 4 8 1
12 -10 12 -29 0 -12 7 35 14 43 7 43 7 38 -21 -4 -15 -4 -22 -1 -15 4 9 10 10
18 3 9 -8 13 -7 13 4 0 8 -3 12 -7 10 -3 -2 -11 9 -17 26 -6 16 -7 27 -2 23 5
-3 9 -2 9 3 0 4 11 9 25 9 19 2 23 -1 16 -10 -6 -8 -6 -17 1 -26 8 -12 9 -12
4 3 -4 11 0 17 11 17 12 0 13 3 4 14 -10 11 -8 16 8 21 12 3 21 15 21 26 0 10
7 19 15 19 13 0 14 -4 5 -20 -7 -14 -7 -20 0 -20 9 0 15 21 11 43 0 4 4 7 9 7
6 0 10 -5 10 -12 0 -6 3 -8 7 -4 5 4 0 13 -9 20 -18 13 -21 58 -3 54 5 -2 11
2 13 7 1 6 -2 10 -7 10 -5 0 -12 3 -16 7 -4 3 1 5 12 4 25 -5 38 5 22 15 -10
6 -8 8 8 6 12 -2 26 -7 30 -12 5 -4 2 -5 -4 -1 -13 7 -17 -4 -14 -31 1 -7 -10
-15 -24 -19 -14 -3 -25 -10 -25 -15 0 -11 23 -7 31 5 4 5 19 9 35 9 l28 0 -22
17 c-25 21 -10 33 23 18 18 -8 18 -8 4 4 -15 12 -15 16 7 42 13 15 22 32 19
37 -9 13 9 11 25 -3 12 -11 12 -10 3 2 -12 16 -13 20 -13 46 0 8 -4 12 -10 9
-5 -3 -7 0 -4 8 10 26 -105 316 -207 518 -128 256 -370 629 -407 629 -17 0
-36 20 -108 117 -84 113 -283 340 -380 434 -110 106 -240 209 -408 324 -553
378 -1152 608 -1796 689 -120 15 -467 37 -540 34 -19 0 -102 -4 -184 -9z m811
-1564 c8 -8 10 -15 4 -15 -6 0 -8 -7 -5 -15 4 -8 1 -15 -4 -15 -6 0 -9 9 -7
21 3 15 -4 24 -28 35 -32 15 -32 15 -3 9 15 -3 35 -13 43 -20z m-152 -4 c3 -5
1 -12 -5 -16 -5 -3 -10 1 -10 9 0 18 6 21 15 7z m428 -22 c-9 -9 -12 -7 -10 9
1 14 5 18 11 12 7 -7 6 -14 -1 -21z m-347 12 c-3 -5 3 -11 14 -14 12 -3 20 1
23 12 3 9 5 3 6 -13 1 -24 -1 -27 -14 -16 -9 7 -18 10 -21 7 -10 -10 5 -24 31
-29 13 -3 22 -1 19 3 -3 5 0 9 5 9 6 0 11 -6 11 -12 0 -8 3 -9 8 -3 4 6 14 9
22 9 8 -1 29 -2 45 -3 23 -1 27 -3 15 -11 -13 -8 -13 -10 1 -10 9 0 22 7 29
15 7 8 17 15 22 15 6 0 8 -7 4 -15 -4 -10 1 -15 15 -15 16 0 18 3 9 19 -7 13
-7 22 0 26 6 3 14 -3 18 -14 7 -19 10 -21 33 -21 20 0 -3 -20 -24 -21 -21 0
-21 -1 -2 -8 12 -5 23 -4 27 3 5 8 12 8 25 0 20 -12 72 -10 82 3 3 4 21 13 40
20 32 12 33 12 16 -7 -9 -10 -22 -16 -29 -14 -7 3 -19 -3 -27 -12 -8 -10 -9
-15 -3 -11 7 4 17 0 24 -8 14 -16 43 -8 36 11 -3 7 3 18 12 26 15 11 15 11 6
-2 -6 -9 -8 -26 -3 -40 6 -21 14 -11 10 13 0 4 3 7 9 7 5 0 7 8 4 18 -5 14 -4
15 5 2 9 -12 11 -13 11 -1 0 8 3 11 6 8 4 -4 1 -13 -6 -22 -12 -15 -5 -20 22
-16 4 0 5 -6 2 -14 -4 -8 -1 -15 6 -15 17 0 35 -22 35 -45 0 -12 6 -19 14 -17
8 2 11 -3 8 -13 -4 -8 -2 -15 3 -15 6 0 10 -7 10 -16 0 -14 -2 -15 -17 -3 -13
11 -13 8 2 -12 11 -15 23 -25 27 -23 4 2 9 0 13 -6 3 -5 15 -10 26 -10 13 0
18 -4 13 -12 -4 -7 -3 -8 5 -4 14 9 5 26 -13 26 -7 0 -21 9 -32 21 -16 17 -16
22 -4 30 13 8 13 10 0 19 -11 7 -11 10 -2 10 7 0 11 4 8 9 -4 5 3 7 14 4 21
-6 28 -33 9 -33 -8 0 -8 -5 1 -15 15 -18 40 -20 40 -2 0 8 4 7 10 -3 15 -24
12 -29 -17 -25 l-28 4 27 -12 c22 -10 25 -16 17 -32 -10 -19 -9 -19 8 1 17 19
19 20 37 3 18 -17 18 -18 -2 -12 -11 2 -23 -1 -28 -8 -5 -9 -2 -10 10 -6 9 4
15 3 12 -1 -2 -4 2 -16 10 -26 10 -15 14 -16 18 -5 13 41 14 43 15 22 1 -12 9
-27 19 -32 16 -10 16 -12 -1 -25 -13 -10 -16 -21 -12 -39 6 -20 12 -25 33 -23
19 1 27 7 26 19 -2 15 1 15 13 5 12 -9 16 -9 24 3 7 12 9 12 9 -2 0 -9 -11
-21 -25 -27 -16 -7 -23 -17 -19 -27 9 -24 -12 -18 -23 7 -8 19 -10 19 -16 5
-4 -11 1 -20 14 -28 17 -8 27 -6 57 16 37 26 37 26 10 1 -16 -14 -28 -32 -28
-41 0 -10 -5 -13 -12 -9 -7 4 -8 3 -4 -5 6 -9 11 -9 22 0 7 6 11 16 7 22 -3 6
-1 7 5 3 8 -5 9 -13 2 -25 -5 -10 -6 -21 -2 -25 3 -4 -1 -4 -11 0 -13 5 -16 2
-11 -10 4 -10 1 -16 -7 -16 -10 -1 -9 -5 4 -14 21 -16 22 -30 1 -22 -10 4 -13
2 -7 -7 4 -6 7 -23 6 -37 -2 -23 -2 -23 7 3 5 16 14 35 20 43 10 11 9 15 -4
20 -9 3 -13 10 -10 15 3 5 10 7 15 4 5 -4 9 3 9 15 0 12 4 19 10 15 5 -3 7
-12 3 -21 -3 -9 0 -14 8 -12 8 2 13 -3 12 -9 -2 -7 3 -13 10 -13 9 0 9 -2 0
-8 -16 -10 -21 -48 -5 -45 6 2 12 0 13 -5 0 -4 2 -17 3 -29 2 -13 -1 -23 -6
-23 -4 0 -8 6 -8 14 0 8 -11 14 -26 14 -17 0 -22 -3 -13 -9 7 -4 17 -5 23 -2
5 4 7 -3 4 -15 -4 -12 -1 -22 4 -22 6 0 5 -7 -3 -16 -10 -13 -10 -17 2 -25 13
-8 6 -13 -13 -10 -5 0 -8 -4 -8 -9 0 -6 9 -10 19 -10 22 0 36 -16 22 -24 -5
-4 -12 -2 -16 4 -3 5 -11 10 -17 10 -6 0 0 -10 13 -21 l24 -22 -27 5 c-17 3
-25 1 -21 -5 4 -6 -2 -8 -15 -5 -25 7 -30 -9 -7 -18 8 -4 15 -13 15 -21 0 -8
5 -11 10 -8 8 5 8 11 0 20 -8 10 -8 15 0 20 6 4 12 5 13 4 2 -2 9 -12 17 -22
7 -10 9 -17 4 -15 -9 3 -14 -4 -14 -23 0 -8 5 -7 15 1 13 11 14 10 10 -2 -3
-8 -19 -15 -36 -15 -16 0 -25 3 -19 7 6 4 2 14 -11 26 -13 10 -19 13 -15 6 13
-22 16 -73 4 -66 -7 4 -8 3 -4 -4 10 -17 26 -15 26 3 0 8 7 15 15 15 8 0 15
-5 15 -11 0 -5 -5 -7 -11 -3 -6 3 -10 -1 -9 -12 4 -32 0 -41 -15 -41 -10 0
-14 6 -10 16 4 11 0 10 -13 -4 -23 -24 -10 -55 20 -47 10 2 18 -1 18 -7 0 -7
6 -9 13 -5 6 4 8 3 4 -1 -11 -13 -38 -15 -31 -3 5 7 2 8 -5 3 -7 -4 -11 -18
-9 -30 4 -16 1 -22 -9 -18 -7 3 -11 9 -8 13 3 4 -1 10 -8 13 -10 4 -13 -2 -10
-21 4 -23 3 -24 -7 -9 -17 26 -31 21 -19 -7 7 -15 17 -22 25 -19 10 4 12 0 8
-11 -5 -12 -2 -15 9 -10 9 3 13 12 10 20 -6 17 13 19 23 2 4 -6 2 -14 -4 -16
-7 -2 -19 -10 -27 -19 -8 -8 -19 -11 -25 -8 -6 4 -10 3 -9 -2 4 -16 -13 -43
-28 -43 -8 0 -12 -4 -8 -9 3 -5 -1 -16 -9 -24 -16 -16 -11 -27 11 -27 8 0 11
5 8 10 -3 6 -4 10 -1 10 3 0 8 -5 11 -10 3 -6 -5 -14 -19 -20 -20 -7 -24 -14
-20 -37 3 -20 2 -24 -5 -13 -5 8 -7 18 -5 22 3 4 -2 8 -11 8 -9 0 -13 -5 -10
-10 9 -15 -15 -42 -32 -36 -8 3 -17 -4 -23 -17 -5 -12 -9 -17 -9 -11 -1 14
-41 26 -41 13 0 -5 7 -9 15 -9 8 0 15 -4 15 -10 0 -5 -7 -10 -16 -10 -14 0
-14 -3 -4 -15 11 -13 15 -13 21 -3 6 9 9 9 9 1 0 -16 -17 -26 -25 -13 -9 15
-35 12 -35 -4 0 -8 -5 -18 -10 -21 -7 -4 -9 2 -4 19 4 16 2 26 -5 26 -6 0 -11
-4 -11 -10 0 -5 -8 -6 -17 -3 -16 6 -16 5 -4 -10 12 -15 12 -17 -3 -11 -19 7
-19 8 -7 -34 6 -20 6 -30 0 -27 -5 4 -9 13 -9 20 0 9 -6 12 -17 8 -11 -4 -14
-3 -9 5 4 7 2 12 -4 12 -6 0 -9 4 -5 9 3 5 1 12 -3 15 -16 10 -47 -38 -44 -66
2 -16 -2 -28 -8 -28 -6 0 -8 6 -4 13 4 6 -3 3 -16 -8 -13 -11 -20 -14 -16 -7
12 20 18 80 6 62 -8 -12 -10 -12 -10 -1 0 8 -3 12 -6 9 -3 -4 -1 -15 5 -26 8
-15 7 -23 -3 -31 -7 -6 -17 -7 -22 -3 -4 4 -2 -1 5 -10 7 -10 21 -18 30 -18
13 -1 13 -2 -3 -11 -14 -9 -20 -8 -27 2 -5 8 -9 10 -9 4 0 -5 -5 -2 -11 8 -7
13 -7 22 0 31 8 10 4 11 -22 7 -19 -3 -25 -6 -14 -9 9 -2 17 -12 17 -23 0 -11
-4 -17 -10 -14 -5 3 -10 1 -10 -5 0 -6 -4 -8 -10 -5 -5 3 -10 -1 -10 -10 0
-13 4 -14 23 -5 19 9 20 9 6 -2 -9 -7 -16 -17 -17 -23 -1 -5 -8 -11 -16 -13
-11 -2 -14 3 -10 22 3 20 1 24 -11 20 -11 -5 -13 -2 -9 10 3 9 10 13 15 10 10
-6 53 15 46 23 -3 2 -14 0 -26 -6 -13 -7 -22 -8 -26 -1 -3 5 -13 10 -21 10
-12 0 -12 -4 -4 -20 8 -15 8 -20 -1 -20 -8 0 -6 -7 4 -18 10 -10 17 -23 17
-28 0 -5 -7 -1 -14 9 -8 10 -18 17 -22 16 -5 -1 -17 -1 -27 0 -15 1 -16 4 -6
22 9 17 8 20 -3 17 -7 -3 -13 -14 -13 -26 0 -12 -4 -21 -10 -19 -5 1 -8 12 -7
25 5 32 -7 27 -19 -8 -12 -33 -26 -39 -35 -15 -4 8 -10 12 -16 9 -5 -3 -4 -11
3 -20 12 -14 -2 -20 -15 -6 -12 11 -66 10 -66 -2 0 -7 -3 -8 -8 -1 -4 6 -18
12 -32 14 -14 1 -28 8 -32 14 -4 6 -11 8 -15 3 -4 -4 0 -13 9 -20 9 -7 13 -17
9 -24 -4 -7 -12 0 -20 19 -7 16 -20 29 -29 30 -11 0 -12 2 -4 6 18 7 15 22 -5
18 -12 -1 -17 -10 -16 -26 2 -21 2 -22 -8 -6 -6 10 -8 25 -5 33 4 10 1 14 -6
11 -7 -2 -12 -10 -10 -16 1 -7 -2 -10 -7 -7 -5 4 -12 0 -14 -6 -3 -7 -3 2 0
20 5 26 2 32 -12 32 -10 0 -27 -8 -37 -17 -22 -19 -54 -27 -62 -14 -3 5 2 12
11 15 15 6 15 8 3 17 -13 9 -13 10 0 6 8 -2 15 -9 15 -15 0 -7 5 -12 10 -12 9
0 10 5 7 30 -1 6 -9 10 -17 10 -17 0 -36 39 -27 54 3 5 0 6 -6 2 -7 -4 -12 -1
-12 6 0 8 -5 6 -11 -4 -12 -21 -29 -24 -29 -4 0 16 -45 30 -63 19 -7 -4 -6 2
3 13 8 10 10 16 6 12 -5 -4 -15 -3 -23 4 -10 8 -17 8 -26 -1 -9 -10 -8 -14 6
-22 9 -6 17 -14 17 -20 0 -5 -10 -1 -22 10 -15 15 -18 24 -11 33 6 7 13 23 16
35 4 19 2 21 -12 14 -9 -5 -23 -6 -30 -1 -8 4 -27 6 -42 3 -28 -4 -36 7 -30
41 1 5 -5 3 -14 -4 -13 -11 -15 -10 -9 4 9 23 44 21 41 -3 -1 -11 3 -20 8 -20
6 0 9 9 8 20 -2 11 1 18 5 15 5 -3 9 0 9 7 0 15 -54 14 -69 -1 -7 -7 -18 -12
-25 -12 -7 0 -13 -4 -13 -10 0 -5 -5 -10 -11 -10 -8 0 -8 4 -2 13 6 6 9 21 7
32 -2 18 -2 19 10 3 10 -13 15 -15 24 -6 16 16 15 33 -3 48 -8 7 -13 15 -11
19 2 3 -7 6 -20 6 -28 0 -32 -13 -6 -22 21 -8 46 -32 40 -38 -8 -9 -80 64 -73
75 4 7 12 7 26 0 13 -8 19 -7 19 0 0 6 5 8 10 5 6 -3 10 -3 10 2 -1 12 -30 48
-40 49 -6 1 -12 3 -15 4 -12 6 -30 5 -35 -2 -3 -4 -12 2 -19 14 -12 19 -11 20
6 14 21 -9 22 -9 47 -7 16 1 16 3 -5 21 -14 11 -18 19 -11 20 7 0 10 5 7 10
-4 6 -1 19 7 28 11 15 11 16 -3 4 -13 -10 -19 -10 -28 2 -7 8 -19 12 -28 9
-12 -5 -14 -1 -8 16 7 25 -20 75 -35 66 -6 -4 -10 -2 -10 4 0 5 12 8 28 6 15
-2 32 -4 37 -4 6 -1 3 -6 -5 -11 -8 -5 -10 -10 -4 -10 6 0 18 8 25 17 8 9 9
14 3 10 -6 -3 -20 1 -30 9 -10 9 -13 13 -6 9 24 -12 11 5 -15 20 l-28 16 28
-4 c15 -2 30 0 33 5 3 5 13 3 22 -4 15 -11 15 -10 0 8 -10 11 -16 29 -14 40 2
10 0 28 -5 39 l-8 20 -1 -20 c-1 -19 -1 -19 -11 -2 -8 14 -7 23 7 38 9 10 14
19 9 19 -4 0 -14 -8 -22 -17 -14 -17 -14 -17 -9 0 4 11 0 17 -10 17 -11 0 -14
5 -10 16 5 12 2 15 -10 10 -15 -6 -15 -4 -3 10 8 10 15 12 17 5 5 -14 32 -15
33 -1 1 6 2 14 3 20 0 5 9 18 18 30 10 11 13 20 8 20 -6 0 -10 4 -10 10 0 5 7
7 15 4 8 -4 15 -1 15 6 0 6 -6 8 -12 4 -8 -4 -10 -3 -5 2 8 9 12 10 39 13 9 1
9 4 0 13 -15 15 -16 52 -2 43 6 -4 7 -12 4 -18 -4 -7 -3 -8 1 -4 15 13 14 35
-1 41 -8 3 -17 -1 -21 -10 -5 -12 -7 -13 -14 -3 -4 8 -11 10 -15 6 -4 -4 2
-16 14 -27 27 -26 28 -34 2 -27 -15 4 -20 0 -20 -13 0 -30 -17 -32 -24 -4 -4
15 -5 29 -1 32 3 3 5 0 5 -8 0 -10 3 -10 15 0 11 9 13 16 5 24 -5 5 -10 18
-10 28 0 15 4 17 19 8 16 -8 21 -5 29 19 6 16 8 31 6 33 -2 3 3 5 11 5 10 0
12 -4 5 -12 -7 -9 -6 -14 3 -18 8 -3 13 1 12 12 -2 30 -14 38 -50 36 -36 -3
-47 8 -19 19 8 3 12 2 9 -4 -3 -5 9 -8 30 -6 24 3 38 -1 44 -11 6 -11 10 -12
15 -4 4 6 2 11 -4 11 -6 0 -10 6 -9 13 1 6 1 19 0 27 -1 12 -3 12 -10 2 -6
-10 -10 -9 -14 7 -8 31 11 36 25 7 6 -14 17 -26 25 -26 19 0 16 17 -4 25 -17
6 -17 7 0 20 10 7 19 27 19 44 1 27 2 29 14 13 7 -9 16 -14 20 -9 4 4 2 7 -5
7 -7 0 -9 5 -6 10 4 6 11 8 16 5 5 -4 9 1 9 9 0 8 3 17 8 19 4 3 7 -6 7 -19 0
-13 -3 -24 -7 -24 -5 0 -8 -7 -8 -15 0 -8 -5 -15 -11 -15 -8 0 -8 -5 1 -15 16
-19 33 -9 25 16 -4 11 -2 19 5 19 7 0 10 8 7 20 -3 11 -1 20 4 20 4 0 6 7 3
15 -4 8 -1 15 5 15 6 0 11 -7 11 -17 0 -15 1 -15 18 0 24 22 33 21 25 0 -5
-15 -3 -14 10 2 9 11 17 23 17 27 0 10 -27 3 -46 -12 -16 -14 -16 -13 -5 8 6
12 9 27 6 32 -8 14 8 13 22 -1 14 -14 36 -2 27 13 -5 7 -2 8 5 4 7 -5 10 -15
6 -23 -4 -12 -3 -13 8 -5 8 7 16 10 19 7 5 -5 3 34 -3 75 -5 33 1 52 15 47 8
-3 17 -2 20 4 2 5 4 5 3 -1 -2 -7 -6 -11 -11 -10 -12 2 -26 -22 -19 -33 2 -4
12 -2 21 5 13 10 13 8 -1 -9 -12 -14 -15 -23 -7 -28 5 -3 8 -10 5 -15 -3 -5
-1 -11 4 -14 4 -3 8 2 8 12 0 35 3 43 15 36 8 -5 9 -2 5 9 -3 10 -2 17 3 17 6
0 10 -8 11 -17 0 -10 3 -13 5 -6 3 7 11 10 19 7 7 -3 16 0 21 7 4 8 3 10 -4 5
-7 -4 -12 -5 -12 -1 0 3 10 10 23 15 15 6 17 9 6 9 -24 1 -44 27 -28 37 8 4 9
3 5 -4 -4 -8 3 -16 18 -22 29 -11 30 -14 16 -40 -6 -11 -6 -21 -1 -24 5 -3 11
3 14 14 4 16 11 20 31 16 16 -3 25 0 23 7 -1 7 4 11 11 9 9 -2 11 2 4 14 -6
10 -5 25 2 40 12 27 32 33 22 8 -5 -13 -4 -14 7 -6 10 9 17 8 25 0 9 -9 12 -9
12 2 0 10 4 8 13 -5 8 -10 19 -15 25 -11 7 4 12 3 12 -3 0 -5 -6 -12 -12 -14
-8 -4 -7 -6 3 -6 9 -1 22 5 28 13 10 12 8 17 -9 26 -11 6 -24 8 -29 6 -5 -3
-12 1 -15 10 -3 8 -2 12 4 9 6 -3 10 1 10 9 0 9 -6 16 -12 16 -9 0 -8 4 2 10
19 12 23 12 16 1z m208 -6 c3 -8 -2 -19 -13 -24 -13 -7 -18 -6 -18 4 0 8 7 11
16 7 14 -5 14 -3 2 11 -7 9 -9 17 -3 17 5 0 12 -7 16 -15z m-82 -17 c-7 -7
-12 -8 -12 -2 0 14 12 26 19 19 2 -3 -1 -11 -7 -17z m34 -5 c-10 -10 -19 5
-10 18 6 11 8 11 12 0 2 -7 1 -15 -2 -18z m151 12 c0 -8 -4 -15 -9 -15 -5 0
-6 -4 -3 -10 3 -5 2 -10 -3 -10 -18 0 -20 12 -4 31 20 23 19 23 19 4z m-356
-4 c7 11 9 10 9 -4 0 -20 -22 -19 -26 1 -2 9 -1 9 3 1 4 -8 8 -7 14 2z m-146
-11 c3 -5 1 -10 -5 -10 -6 0 -8 -6 -4 -12 4 -7 3 -9 -1 -5 -12 10 -15 37 -5
37 5 0 12 -4 15 -10z m72 3 c-4 -3 -1 -13 6 -21 9 -13 9 -14 0 -8 -8 4 -13 2
-13 -6 0 -10 -2 -10 -9 1 -11 17 -4 41 12 41 6 0 7 -3 4 -7z m2813 -4 c0 -7 8
-18 18 -25 15 -11 15 -12 1 -10 -36 4 -66 46 -34 46 8 0 15 -5 15 -11z m-2354
-15 c-21 -21 -20 -27 4 -19 12 4 20 2 20 -5 0 -6 -4 -8 -10 -5 -5 3 -10 0 -10
-7 0 -8 -5 -7 -17 4 -13 14 -14 20 -3 32 7 9 17 16 22 16 5 0 2 -7 -6 -16z
m89 6 c3 -5 1 -10 -4 -10 -6 0 -11 5 -11 10 0 6 2 10 4 10 3 0 8 -4 11 -10z
m-586 -31 c-22 -13 -31 -11 -17 5 7 8 17 12 22 9 4 -3 2 -9 -5 -14z m30 -23
c9 -10 8 -16 -4 -26 -13 -11 -15 -9 -13 14 3 30 2 30 17 12z m-105 -14 c2 -4
-7 -9 -22 -10 -21 -1 -24 0 -12 8 18 12 27 12 34 2z m861 -2 c-3 -5 -12 -10
-18 -10 -7 0 -6 4 3 10 19 12 23 12 15 0z m-965 -5 c0 -2 -9 -9 -19 -15 -14
-7 -22 -7 -27 2 -4 6 -3 8 2 5 6 -3 16 -2 24 4 17 10 20 11 20 4z m942 -39 c3
-14 0 -27 -7 -29 -7 -3 -10 5 -7 24 5 35 8 36 14 5z m68 -19 c13 4 13 3 0 -6
-18 -12 -43 1 -46 25 -2 17 -1 17 14 -2 10 -11 24 -19 32 -17z m-1093 17 c-8
-8 -48 -13 -43 -6 2 4 14 8 26 9 12 1 20 0 17 -3z m88 -32 c2 -21 1 -21 -23
-6 -24 16 -25 16 -19 -5 3 -14 1 -21 -5 -19 -6 2 -13 14 -14 25 -3 17 1 21 16
18 11 -2 20 1 20 6 0 21 23 2 25 -19z m-71 -1 c3 -5 -1 -12 -10 -15 -8 -3 -13
-10 -10 -15 7 -10 -49 -42 -58 -34 -9 9 25 53 41 53 8 0 11 5 8 10 -3 6 1 10
9 10 8 0 17 -4 20 -9z m1174 -48 c-8 -10 -4 -15 13 -22 13 -5 18 -10 10 -10
-16 -1 -51 27 -51 40 0 4 9 7 19 6 15 -1 17 -4 9 -14z m32 -3 c0 -5 -5 -10
-11 -10 -5 0 -7 5 -4 10 3 6 8 10 11 10 2 0 4 -4 4 -10z m-1363 -20 c1 -11 -2
-18 -8 -15 -5 4 -9 -2 -10 -12 0 -10 -3 -13 -5 -6 -5 10 11 53 19 53 2 0 3 -9
4 -20z m1358 -30 c-3 -5 -12 -10 -18 -10 -7 0 -6 4 3 10 19 12 23 12 15 0z
m12 -26 c-3 -3 -12 -4 -19 -1 -8 3 -5 6 6 6 11 1 17 -2 13 -5z m-1357 -20 c0
-8 -5 -12 -11 -8 -6 3 -15 1 -19 -6 -5 -8 -9 -7 -13 5 -4 9 -3 13 3 10 6 -3
10 -1 10 4 0 6 7 11 15 11 8 0 15 -7 15 -16z m1440 -34 c0 -5 -5 -10 -11 -10
-5 0 -7 5 -4 10 3 6 8 10 11 10 2 0 4 -4 4 -10z m-56 -66 c24 -24 19 -30 -6
-8 -13 10 -25 20 -27 21 -2 2 1 3 7 3 6 0 18 -7 26 -16z m-1525 -53 c-7 -10
-19 -18 -27 -18 -11 0 -10 4 5 17 19 15 19 17 4 28 -13 10 -12 10 6 2 19 -9
21 -14 12 -29z m43 -15 c-5 -18 -7 -19 -10 -3 -2 9 -8 14 -14 11 -6 -4 -8 -3
-5 3 12 19 34 11 29 -11z m1593 -36 c3 -6 -1 -7 -9 -4 -18 7 -21 14 -7 14 6 0
13 -4 16 -10z m-1645 -4 c0 -3 -4 -8 -10 -11 -5 -3 -10 -1 -10 4 0 6 5 11 10
11 6 0 10 -2 10 -4z m1670 -20 c0 -2 -7 -7 -16 -10 -8 -3 -12 -2 -9 4 6 10 25
14 25 6z m-1691 -27 c-22 -13 -31 -11 -17 5 7 8 17 12 22 9 4 -3 2 -9 -5 -14z
m2 -58 c-9 -6 -7 -10 8 -14 12 -3 19 -1 15 4 -3 5 2 9 10 9 10 0 13 -6 10 -15
-7 -18 -18 -19 -45 -4 -16 8 -18 13 -8 25 6 8 14 12 18 9 3 -3 0 -10 -8 -14z
m1692 -8 c-3 -7 -6 -13 -8 -13 -2 0 -5 6 -8 13 -3 8 1 14 8 14 7 0 11 -6 8
-14z m-1693 -29 c0 -8 -19 -13 -24 -6 -3 5 1 9 9 9 8 0 15 -2 15 -3z m25 -14
c3 -5 1 -10 -4 -10 -6 0 -11 5 -11 10 0 6 2 10 4 10 3 0 8 -4 11 -10z m-65
-42 c0 -19 -16 -5 -17 14 -2 18 0 20 7 8 5 -8 10 -18 10 -22z m1755 -16 c-3
-3 -11 0 -18 7 -9 10 -8 11 6 5 10 -3 15 -9 12 -12z m-1739 -9 c-3 -17 -26
-32 -26 -16 0 8 20 33 26 33 1 0 1 -8 0 -17z m1754 -9 c0 -8 -19 -13 -24 -6
-3 5 1 9 9 9 8 0 15 -2 15 -3z m-30 -19 c7 -8 17 -12 23 -8 6 4 7 1 3 -6 -6
-9 -13 -8 -29 6 -12 10 -24 19 -26 20 -2 2 0 3 6 3 6 0 16 -7 23 -15z m-1660
-38 c4 1 7 -3 6 -10 -7 -29 -19 -47 -35 -47 -12 0 -13 2 -3 8 9 7 8 14 -8 32
-16 18 -18 26 -8 37 10 13 14 12 26 -4 7 -10 17 -17 22 -16z m-59 -32 c5 4 9
-1 9 -10 0 -10 -5 -13 -12 -9 -7 5 -9 2 -5 -8 4 -12 1 -14 -15 -10 -18 4 -18
6 -4 14 9 5 14 14 11 19 -4 5 -11 7 -16 4 -5 -3 -6 1 -2 11 5 15 7 15 15 0 5
-9 13 -14 19 -11z m1729 -71 c0 -8 -5 -12 -10 -9 -6 4 -8 11 -5 16 9 14 15 11
15 -7z m-50 -79 c-6 -14 -6 -25 0 -25 4 0 10 8 12 18 3 14 5 13 10 -5 5 -18 2
-23 -12 -23 -10 0 -21 -6 -24 -12 -3 -7 -3 2 0 21 5 34 11 51 19 51 3 0 0 -11
-5 -25z m-1615 -45 c-3 -5 -1 -10 4 -10 16 0 13 -17 -4 -23 -8 -4 -17 -1 -21
5 -5 7 -2 8 6 3 10 -6 12 -4 7 7 -3 9 -3 19 0 22 10 10 15 7 8 -4z m1600 -70
c10 -11 16 -20 13 -20 -3 0 -13 9 -23 20 -10 11 -16 20 -13 20 3 0 13 -9 23
-20z m-1644 -23 c-10 -9 -11 -8 -5 6 3 10 9 15 12 12 3 -3 0 -11 -7 -18z m114
-38 c-7 -10 -35 -1 -35 11 0 5 9 6 20 3 11 -3 17 -9 15 -14z m3850 -9 c3 -5 1
-10 -4 -10 -6 0 -11 5 -11 10 0 6 2 10 4 10 3 0 8 -4 11 -10z m52 4 c-3 -3
-12 -4 -19 -1 -8 3 -5 6 6 6 11 1 17 -2 13 -5z m-2415 -23 c-8 -4 -13 -12 -12
-17 1 -5 -3 -10 -9 -12 -15 -5 -14 25 2 31 20 9 33 7 19 -2z m2362 -36 c3 -8
1 -15 -4 -15 -6 0 -10 5 -10 11 0 6 -7 9 -15 5 -8 -3 -15 -1 -15 4 0 16 37 11
44 -5z m-74 -16 c0 -6 -4 -7 -10 -4 -5 3 -10 11 -10 16 0 6 5 7 10 4 6 -3 10
-11 10 -16z m-3796 -19 c-6 -6 -10 -3 -10 10 0 13 4 16 10 10 7 -7 7 -13 0
-20z m1472 8 c3 -4 -1 -5 -10 -4 -8 1 -18 5 -22 8 -3 4 1 5 10 4 8 -1 18 -5
22 -8z m2234 -22 c0 -2 -8 -10 -17 -17 -16 -13 -17 -12 -4 4 13 16 21 21 21
13z m53 -17 c-8 -8 -13 -7 -18 2 -5 8 -4 10 3 5 7 -4 12 -2 12 5 0 7 3 9 7 6
4 -4 2 -12 -4 -18z m-73 -30 c0 -4 9 -6 20 -4 11 2 22 0 25 -5 3 -4 -3 -7 -12
-6 -10 2 -20 0 -23 -4 -3 -4 -13 1 -22 10 -15 14 -15 17 -3 17 8 0 15 -4 15
-8z m79 -28 c-15 -5 -22 6 -14 19 6 9 10 9 16 -1 5 -8 4 -15 -2 -18z m-3681
-28 c-6 -7 -16 -13 -22 -13 -7 0 -6 4 2 9 8 4 13 11 13 15 -3 23 0 30 9 16 5
-9 5 -19 -2 -27z m3648 0 c-5 -31 -93 -57 -93 -27 0 8 6 13 13 10 6 -2 21 6
33 20 22 25 51 23 47 -3z m-3572 0 c3 -8 2 -11 -3 -8 -5 3 -12 1 -16 -4 -3 -5
3 -14 12 -20 10 -6 13 -11 6 -11 -6 0 -15 5 -18 10 -9 15 -38 12 -29 -2 4 -7
3 -9 -1 -5 -18 16 -13 35 8 29 15 -4 19 -1 15 10 -4 8 0 15 8 15 7 0 16 -7 18
-14z m36 2 c0 -12 -19 -12 -23 0 -4 9 -1 12 9 8 7 -3 14 -7 14 -8z m1167 -17
c2 -18 0 -20 -7 -8 -5 8 -10 10 -10 4 0 -6 -7 -11 -15 -11 -13 0 -13 3 2 19
21 24 28 23 30 -4z m2196 -3 c-3 -9 -8 -14 -10 -11 -3 3 -2 9 2 15 9 16 15 13
8 -4z m47 -5 c0 -5 -2 -10 -4 -10 -3 0 -8 5 -11 10 -3 6 -1 10 4 10 6 0 11 -4
11 -10z m-3445 -40 c-4 -6 -1 -19 6 -28 12 -16 12 -16 -5 0 -16 14 -15 38 0
38 3 0 2 -5 -1 -10z m120 -20 c19 0 26 -27 11 -39 -19 -16 -54 -8 -71 15 -12
18 -12 21 0 21 8 0 14 -3 13 -6 0 -3 0 -13 1 -21 1 -13 2 -13 11 0 6 10 10 11
10 3 0 -7 7 -13 15 -13 8 0 15 5 15 10 0 6 -7 13 -15 16 -8 4 -14 16 -14 28 1
16 2 17 6 4 2 -10 10 -18 18 -18z m3295 17 c0 -8 -7 -14 -15 -14 -11 0 -12 4
-4 14 6 7 13 13 15 13 2 0 4 -6 4 -13z m-3232 -35 c-10 -2 -15 -9 -11 -18 3
-7 10 -11 16 -7 6 4 7 1 2 -6 -6 -10 -11 -9 -23 3 -12 12 -13 18 -3 30 8 9 18
13 25 9 7 -5 5 -9 -6 -11z m782 8 c0 -5 -5 -10 -11 -10 -5 0 -7 5 -4 10 3 6 8
10 11 10 2 0 4 -4 4 -10z m104 -9 c3 -5 -1 -11 -9 -14 -9 -4 -12 -1 -8 9 6 16
10 17 17 5z m37 -8 c13 -16 12 -17 -3 -4 -10 7 -18 15 -18 17 0 8 8 3 21 -13z
m2246 -5 c-3 -8 -6 -5 -6 6 -1 11 2 17 5 13 3 -3 4 -12 1 -19z m-2384 -17 c-4
-3 -11 -10 -15 -15 -4 -4 -6 1 -5 12 1 12 6 18 15 15 7 -3 10 -9 5 -12z m47
-12 c0 -5 -5 -9 -12 -9 -6 0 -8 3 -5 7 4 3 1 13 -6 22 -11 14 -10 14 6 2 9 -7
17 -17 17 -22z m2390 22 c0 -5 -8 -15 -17 -22 -16 -12 -17 -12 -6 2 7 9 10 19
6 22 -3 4 -1 7 5 7 7 0 12 -4 12 -9z m-65 -11 c3 -5 1 -10 -4 -10 -6 0 -11 5
-11 10 0 6 2 10 4 10 3 0 8 -4 11 -10z m-3183 -18 c-7 -2 -12 -10 -12 -18 0
-9 -5 -12 -10 -9 -8 5 -8 11 -1 19 6 7 8 16 4 20 -4 4 1 4 12 0 11 -5 14 -9 7
-12z m141 -28 c-7 -19 -10 -18 -16 5 -3 13 -1 18 9 14 7 -2 10 -11 7 -19z
m671 11 c-4 -10 0 -15 11 -15 9 0 13 5 10 10 -3 6 -1 10 4 10 15 0 14 -15 -3
-29 -10 -9 -16 -8 -26 3 -6 9 -9 20 -5 26 9 15 15 12 9 -5z m2332 -30 c-8 -8
-16 -15 -19 -15 -2 0 -4 7 -4 15 0 8 9 15 19 15 17 0 18 -2 4 -15z m-2452 -4
c3 -5 -1 -11 -9 -14 -9 -4 -12 -1 -8 9 6 16 10 17 17 5z m-584 -26 c14 -19 14
-19 -2 -6 -10 7 -18 18 -18 24 0 6 1 8 3 6 1 -2 9 -13 17 -24z m2950 0 c0 -8
-4 -15 -10 -15 -5 0 -7 7 -4 15 4 8 8 15 10 15 2 0 4 -7 4 -15z m-2350 -16 c0
-6 -4 -7 -10 -4 -5 3 -10 11 -10 16 0 6 5 7 10 4 6 -3 10 -11 10 -16z m-285
-17 c-3 -3 -11 0 -18 7 -9 10 -8 11 6 5 10 -3 15 -9 12 -12z m105 9 c0 -5 -6
-14 -14 -20 -12 -10 -13 -8 -9 8 5 21 23 30 23 12z m35 -1 c3 -6 -1 -7 -9 -4
-18 7 -21 14 -7 14 6 0 13 -4 16 -10z m121 -2 c4 -7 4 -10 -1 -6 -4 4 -15 2
-24 -5 -14 -11 -14 -10 -2 6 16 20 18 21 27 5z m-316 -8 c-12 -8 -12 -10 -1
-10 8 0 12 -3 8 -6 -9 -9 -28 6 -22 17 4 5 12 9 18 9 7 0 6 -4 -3 -10z m2650
-5 c-6 -8 -9 -19 -5 -25 3 -5 -1 -10 -9 -10 -8 0 -16 -8 -18 -17 -3 -15 -5
-14 -10 5 -3 12 -2 20 2 17 5 -3 11 -1 15 5 3 5 0 10 -7 10 -7 1 -2 7 12 15
32 18 35 18 20 0z m-2575 -15 c3 -5 1 -10 -4 -10 -6 0 -11 5 -11 10 0 6 2 10
4 10 3 0 8 -4 11 -10z m2519 -4 c-6 -15 -34 -31 -34 -19 0 5 30 32 37 33 1 0
0 -6 -3 -14z m-90 -54 c3 -5 -1 -9 -9 -9 -8 0 -12 4 -9 9 3 4 7 8 9 8 2 0 6
-4 9 -8z m-29 -62 c-3 -5 1 -10 9 -10 20 0 21 -16 1 -24 -8 -3 -14 0 -12 7 1
7 -3 11 -10 10 -7 -2 -10 4 -7 12 4 8 10 15 16 15 5 0 6 -4 3 -10z m-55 -47
c0 -3 -7 -3 -15 1 -8 3 -15 1 -15 -4 0 -6 5 -10 12 -10 6 0 9 -2 6 -5 -3 -3
-13 -3 -22 1 -12 5 -14 10 -6 20 10 11 40 9 40 -3z m-53 -29 c-3 -3 -12 -4
-19 -1 -8 3 -5 6 6 6 11 1 17 -2 13 -5z m-73 -66 c-3 -4 3 -8 13 -8 16 -1 16
-2 -3 -18 -11 -10 -19 -23 -18 -30 1 -7 0 -8 -3 -2 -2 5 -10 10 -17 10 -17 0
-16 28 1 34 8 3 12 10 9 14 -3 5 1 9 9 9 8 0 12 -4 9 -9z m-64 -44 c11 -12 11
-15 -1 -12 -9 2 -13 -4 -11 -14 2 -10 -2 -18 -8 -18 -5 0 -10 5 -10 11 0 5 -6
7 -12 4 -7 -4 -4 1 7 10 11 9 19 21 18 26 -4 13 3 11 17 -7z m-168 -86 c-7 -7
-12 -20 -12 -30 0 -10 -5 -18 -11 -18 -5 0 -9 3 -7 8 22 45 32 61 37 57 2 -3
-1 -11 -7 -17z m26 -51 c13 4 14 3 3 -5 -7 -5 -17 -15 -21 -21 -5 -9 -11 -7
-21 5 -9 12 -10 15 -1 10 8 -5 12 -1 13 11 0 10 3 13 5 6 3 -7 13 -9 22 -6z
m-76 -21 c3 2 4 -7 4 -20 -1 -14 -6 -29 -10 -33 -5 -4 -6 -2 -2 5 4 7 2 12 -6
12 -9 0 -9 3 2 10 8 5 10 10 4 10 -5 0 -19 7 -30 15 -18 14 -17 15 7 6 15 -5
29 -8 31 -5z m-72 -26 c0 -5 -5 -10 -11 -10 -5 0 -7 5 -4 10 3 6 8 10 11 10 2
0 4 -4 4 -10z m-75 -18 c-3 -3 -11 0 -18 7 -9 10 -8 11 6 5 10 -3 15 -9 12
-12z m15 -27 c0 -12 -19 -12 -23 0 -4 9 -1 12 9 8 7 -3 14 -7 14 -8z m-10 -42
c0 -7 -7 -10 -15 -7 -8 4 -15 13 -15 21 0 8 -4 12 -8 9 -5 -3 -9 1 -9 9 0 10
5 10 23 -3 13 -9 24 -22 24 -29z m-60 -18 c0 -8 -4 -15 -8 -15 -5 0 -9 7 -9
15 0 8 4 15 9 15 4 0 8 -7 8 -15z m-177 -60 c-3 -9 -8 -14 -10 -11 -3 3 -2 9
2 15 9 16 15 13 8 -4z m60 -40 c-3 -9 -8 -14 -10 -11 -3 3 -2 9 2 15 9 16 15
13 8 -4z m-23 -5 c0 -5 -8 -10 -17 -10 -15 0 -16 2 -3 10 19 12 20 12 20 0z
m-135 -38 c-2 -9 -4 -18 -4 -20 -1 -2 -6 0 -11 3 -8 5 -8 11 -1 19 6 7 7 17 3
21 -4 5 -2 5 5 2 6 -4 10 -15 8 -25z m-202 -142 c-27 -11 -28 -16 -7 -24 8 -3
12 -2 9 4 -3 6 1 10 11 10 15 0 15 -2 2 -22 -8 -12 -21 -24 -29 -26 -11 -3
-11 -2 -1 6 10 7 10 11 -3 22 -18 15 -3 40 24 39 11 0 9 -3 -6 -9z m-78 -29
c-3 -6 2 -14 11 -19 11 -6 13 -11 5 -16 -6 -4 -11 -2 -11 4 0 6 -4 9 -9 6 -5
-4 -8 2 -6 11 5 24 4 23 11 23 3 0 3 -4 -1 -9z m-75 -35 c0 -3 -4 -8 -10 -11
-5 -3 -10 -1 -10 4 0 6 5 11 10 11 6 0 10 -2 10 -4z m-41 -23 c-12 -15 -12
-16 4 -10 11 4 16 3 12 -3 -3 -6 2 -10 11 -10 15 0 15 -3 -4 -23 -16 -16 -19
-26 -11 -34 7 -7 1 -12 -21 -15 -17 -3 -33 -1 -36 4 -3 4 0 8 6 8 6 0 8 5 4
13 -5 7 -1 6 10 -3 17 -13 18 -12 14 5 -2 14 -11 20 -26 19 -17 -1 -21 1 -13
9 9 9 17 8 31 -1 25 -15 27 -15 27 3 0 8 -7 17 -15 20 -11 4 -12 8 -2 20 7 8
15 15 17 15 3 0 -1 -8 -8 -17z m-5690 4 c-2 -1 -14 -11 -27 -22 -17 -14 -23
-16 -20 -5 3 14 23 28 42 29 5 1 7 0 5 -2z m5771 -41 c0 -2 -7 -7 -16 -10 -8
-3 -12 -2 -9 4 6 10 25 14 25 6z m-235 -76 c18 0 20 -16 3 -26 -7 -4 -10 -4
-6 1 5 5 -1 14 -12 22 -11 8 -20 20 -20 26 0 7 5 4 11 -5 5 -10 17 -18 24 -18z
m55 18 c0 -8 3 -9 8 -3 4 6 14 11 22 13 12 3 13 1 2 -10 -17 -17 -61 -18 -55
-1 7 17 23 17 23 1z m-89 -57 c-3 -10 -7 -8 -12 8 -5 12 -15 24 -24 27 -8 3
-13 10 -10 14 8 13 52 -33 46 -49z m-70 16 c-6 -8 -8 -17 -4 -20 3 -4 2 -7 -4
-7 -19 0 -22 13 -5 26 22 17 27 17 13 1z m50 -37 c31 0 32 -1 23 -24 -3 -9
-10 -13 -15 -10 -5 3 -18 -5 -29 -18 -11 -13 -20 -21 -20 -18 -1 3 -3 12 -5
20 -1 8 -4 20 -6 25 -4 15 14 51 19 37 2 -7 17 -12 33 -12z m-65 -40 c2 -20 0
-29 -7 -24 -6 3 -8 12 -5 20 3 7 1 16 -5 19 -5 4 -7 11 -3 16 9 15 16 4 20
-31z m-129 -16 c-3 -3 -12 -4 -19 -1 -8 3 -5 6 6 6 11 1 17 -2 13 -5z m-34
-17 c3 -8 -1 -14 -8 -14 -7 0 -11 6 -8 14 3 7 6 13 8 13 2 0 5 -6 8 -13z m77
-9 c0 -5 -9 -8 -19 -8 -11 0 -23 -4 -26 -10 -3 -5 -12 -10 -18 -10 -8 0 -7 3
2 9 7 5 11 13 8 17 -3 5 8 9 24 9 16 0 29 -3 29 -7z m-180 -8 c0 -5 -5 -10
-11 -10 -5 0 -7 5 -4 10 3 6 8 10 11 10 2 0 4 -4 4 -10z m60 -2 c0 -4 -4 -8
-9 -8 -6 0 -12 4 -15 8 -3 5 1 9 9 9 8 0 15 -4 15 -9z m-20 -75 c6 -7 4 -15
-6 -24 -12 -10 -13 -9 -8 4 4 12 1 14 -14 10 -12 -3 -22 1 -26 12 -3 9 -2 13
3 10 14 -8 24 14 14 28 -7 12 9 -7 37 -40z m-93 -8 c0 -8 -4 -12 -9 -9 -5 3
-6 10 -3 15 9 13 12 11 12 -6z m-247 -59 c0 -2 -7 -7 -16 -10 -8 -3 -12 -2 -9
4 6 10 25 14 25 6z m50 -19 c0 -7 -9 -13 -21 -13 -19 0 -19 1 -3 13 10 7 19
13 21 13 2 0 3 -6 3 -13z m-20 -37 c0 -5 -5 -10 -11 -10 -5 0 -7 5 -4 10 3 6
8 10 11 10 2 0 4 -4 4 -10z m-174 -57 c-1 -1 -12 0 -25 4 -15 4 -19 8 -10 13
10 7 42 -10 35 -17z m-33 -10 c-7 -2 -13 -12 -13 -21 0 -15 -2 -15 -10 -2 -9
15 4 30 25 29 6 0 4 -3 -2 -6z m-173 -113 c0 -5 -5 -10 -11 -10 -5 0 -7 5 -4
10 3 6 8 10 11 10 2 0 4 -4 4 -10z m45 1 c3 -5 2 -12 -3 -15 -5 -3 -9 1 -9 9
0 17 3 19 12 6z m-210 -20 c-3 -6 -11 -11 -16 -11 -5 0 -4 6 3 14 14 16 24 13
13 -3z m75 8 c0 6 5 11 10 11 15 0 12 -17 -4 -23 -8 -3 -20 2 -28 11 -12 15
-11 16 5 3 11 -9 17 -10 17 -2z m67 -31 c-3 -8 -6 -5 -6 6 -1 11 2 17 5 13 3
-3 4 -12 1 -19z m33 1 c0 -6 -4 -7 -10 -4 -5 3 -10 11 -10 16 0 6 5 7 10 4 6
-3 10 -11 10 -16z m-234 -24 c0 -14 -4 -25 -8 -25 -3 0 -5 -14 -4 -30 2 -21
-2 -29 -10 -26 -7 3 -15 0 -17 -7 -2 -7 -3 6 -2 28 1 22 7 39 13 38 5 -1 13 9
16 22 8 32 14 32 12 0z m-50 -50 c1 -8 -1 -17 -5 -19 -4 -3 -8 7 -9 21 -2 27
10 25 14 -2z m-166 -15 c0 -5 -2 -10 -4 -10 -3 0 -8 5 -11 10 -3 6 -1 10 4 10
6 0 11 -4 11 -10z m138 -37 c-6 -7 -15 -10 -21 -6 -8 5 -7 8 1 11 7 2 12 13
13 25 0 21 1 21 8 2 5 -11 4 -25 -1 -32z m-158 21 c0 -8 -19 -13 -24 -6 -3 5
1 9 9 9 8 0 15 -2 15 -3z m90 -4 c0 -5 -5 -10 -11 -10 -5 0 -7 5 -4 10 3 6 8
10 11 10 2 0 4 -4 4 -10z m-114 -39 c-9 -14 -26 -14 -26 0 0 5 5 7 12 3 8 -5
9 -1 4 12 -5 14 -4 16 5 7 6 -6 8 -16 5 -22z m-163 -22 c-8 -8 -13 -7 -18 2
-5 8 -4 10 3 5 7 -4 12 -2 12 5 0 7 3 9 7 6 4 -4 2 -12 -4 -18z m121 -11 c-3
-4 -11 -5 -19 -1 -21 7 -19 12 4 10 11 0 18 -5 15 -9z m-201 -28 c-3 -12 -8
-19 -11 -16 -5 6 5 36 12 36 2 0 2 -9 -1 -20z m-88 -30 c3 -6 -1 -7 -9 -4 -18
7 -21 14 -7 14 6 0 13 -4 16 -10z m48 -15 c-21 -28 -33 -32 -33 -9 0 8 5 12
10 9 6 -3 13 1 16 9 3 9 10 16 16 16 5 0 1 -11 -9 -25z m-133 -39 c0 -2 -9 -6
-20 -9 -11 -3 -18 -1 -14 4 5 9 34 13 34 5z m-280 -50 c0 -2 -7 -7 -16 -10 -8
-3 -12 -2 -9 4 6 10 25 14 25 6z m130 -31 c0 -8 -4 -15 -10 -15 -5 0 -7 7 -4
15 4 8 8 15 10 15 2 0 4 -7 4 -15z m-120 -26 c0 -5 -9 -9 -19 -9 -11 0 -21 -5
-23 -12 -3 -8 -7 -6 -11 5 -4 10 -2 16 6 14 7 -1 11 3 10 9 -1 7 6 10 17 7 11
-3 20 -9 20 -14z m-72 -14 c-3 -3 -9 2 -12 12 -6 14 -5 15 5 6 7 -7 10 -15 7
-18z m-78 -25 c-8 -5 -11 -10 -6 -10 6 0 1 -6 -10 -14 -10 -8 -20 -13 -22 -11
-6 5 32 45 43 45 5 0 3 -5 -5 -10z m73 -21 c-5 -19 -7 -19 -25 -3 -13 13 -15
20 -7 25 20 12 37 -1 32 -22z m27 6 c0 -8 -4 -15 -10 -15 -5 0 -7 7 -4 15 4 8
8 15 10 15 2 0 4 -7 4 -15z m-228 -2 c-6 -3 -10 -9 -7 -13 3 -5 0 -12 -7 -16
-7 -4 -10 -4 -6 1 4 4 1 13 -7 19 -13 9 -10 11 12 12 16 1 22 -1 15 -3z m173
-12 c3 -5 1 -12 -5 -16 -5 -3 -10 1 -10 9 0 18 6 21 15 7z m-175 -37 c0 -8
-19 -13 -24 -6 -3 5 1 9 9 9 8 0 15 -2 15 -3z m-164 -34 c-1 -29 -10 -39 -20
-22 -7 11 4 52 14 52 4 0 7 -13 6 -30z m-314 -52 c-15 -15 -16 -31 0 -22 7 4
8 3 4 -4 -4 -6 -13 -9 -22 -5 -13 5 -13 8 2 24 9 11 20 19 23 19 3 0 0 -5 -7
-12z m-67 -28 c3 -5 -1 -10 -10 -10 -9 0 -13 5 -10 10 3 6 8 10 10 10 2 0 7
-4 10 -10z m69 -36 c7 -18 1 -18 -18 2 -9 8 -16 11 -16 5 0 -6 -4 -11 -9 -11
-6 0 -9 8 -8 19 1 16 5 17 23 9 13 -6 25 -17 28 -24z m-304 -18 c0 -2 -7 -7
-16 -10 -8 -3 -12 -2 -9 4 6 10 25 14 25 6z m-302 -79 c5 -24 -15 -21 -21 4
-3 13 -1 19 6 16 7 -2 13 -11 15 -20z m-73 3 c3 -5 1 -10 -4 -10 -6 0 -11 5
-11 10 0 6 2 10 4 10 3 0 8 -4 11 -10z m-308 -76 c-3 -3 -12 -4 -19 -1 -8 3
-5 6 6 6 11 1 17 -2 13 -5z m23 -38 c0 -3 -4 -8 -10 -11 -5 -3 -10 -1 -10 4 0
6 5 11 10 11 6 0 10 -2 10 -4z m80 -11 c0 -12 -19 -12 -23 0 -4 9 -1 12 9 8 7
-3 14 -7 14 -8z m-474 -34 c-4 -5 0 -12 6 -14 8 -3 6 -6 -4 -6 -18 -1 -24 10
-11 22 9 10 15 8 9 -2z m-30 -27 c-3 -9 1 -14 12 -14 15 0 15 -2 2 -10 -10 -6
-16 -6 -18 0 -2 6 -9 7 -15 3 -7 -4 -5 2 3 12 14 17 13 18 -7 13 -15 -4 -20
-2 -17 7 3 7 14 11 25 8 12 -3 18 -11 15 -19z m-161 -13 c-3 -6 -11 -11 -16
-11 -5 0 -4 6 3 14 14 16 24 13 13 -3z m-155 -1 c0 -5 -5 -10 -11 -10 -5 0 -7
5 -4 10 3 6 8 10 11 10 2 0 4 -4 4 -10z m119 -4 c-2 -2 -15 -7 -29 -10 l-25
-7 25 15 c21 12 42 14 29 2z m-448 -29 c-10 -9 -11 -8 -5 6 3 10 9 15 12 12 3
-3 0 -11 -7 -18z m194 3 c-3 -5 -14 -10 -23 -9 -14 0 -13 2 3 9 27 11 27 11
20 0z m-236 -14 c6 -7 22 -12 35 -11 14 2 27 -3 30 -11 7 -17 -15 -19 -32 -2
-9 9 -12 9 -12 -2 0 -13 -2 -13 -10 0 -5 8 -10 10 -10 4 0 -7 -8 -15 -17 -18
-17 -7 -17 -6 -1 10 16 16 16 18 0 30 -9 8 -12 14 -6 14 6 0 17 -6 23 -14z
m205 -30 c-6 -15 -24 -23 -24 -11 0 8 24 34 28 30 1 -1 0 -10 -4 -19z"/>
<path d="M7564 8946 c-3 -9 -13 -12 -22 -9 -11 4 -13 3 -7 -3 5 -5 12 -13 16
-17 3 -4 11 4 17 18 6 14 9 25 6 25 -2 0 -7 -6 -10 -14z"/>
<path d="M7380 8930 c-8 -5 -12 -11 -9 -14 2 -3 11 -1 19 4 8 5 12 11 9 14 -2
3 -11 1 -19 -4z"/>
<path d="M7645 8920 c3 -5 8 -10 11 -10 2 0 4 5 4 10 0 6 -5 10 -11 10 -5 0
-7 -4 -4 -10z"/>
<path d="M7947 8870 c-3 -13 0 -20 10 -20 8 0 11 -4 8 -10 -3 -5 -1 -10 5 -10
7 0 10 -7 6 -15 -3 -8 -1 -15 4 -15 15 0 22 20 11 34 -6 7 -7 17 -3 21 4 5 2
5 -5 1 -17 -9 -28 14 -12 25 11 7 11 9 -2 9 -9 0 -19 -9 -22 -20z"/>
<path d="M7910 8871 c0 -6 4 -13 10 -16 6 -3 7 1 4 9 -7 18 -14 21 -14 7z"/>
<path d="M8006 8847 c3 -10 9 -15 12 -12 3 3 0 11 -7 18 -10 9 -11 8 -5 -6z"/>
<path d="M7215 8830 c3 -5 8 -10 11 -10 2 0 4 5 4 10 0 6 -5 10 -11 10 -5 0
-7 -4 -4 -10z"/>
<path d="M7110 8760 c-9 -6 -10 -10 -3 -10 6 0 15 5 18 10 8 12 4 12 -15 0z"/>
<path d="M8105 8750 c3 -5 8 -10 11 -10 2 0 4 5 4 10 0 6 -5 10 -11 10 -5 0
-7 -4 -4 -10z"/>
<path d="M7030 8701 c0 -7 -5 -9 -12 -5 -7 5 -8 3 -3 -5 5 -9 10 -10 18 -2 6
6 8 14 4 18 -4 3 -7 1 -7 -6z"/>
<path d="M6934 8643 c3 -6 -1 -13 -11 -16 -17 -4 -17 -5 0 -6 11 -1 15 -6 11
-13 -4 -6 -3 -8 4 -5 12 8 10 32 -3 44 -4 4 -5 3 -1 -4z"/>
<path d="M8186 8641 c-4 -5 0 -12 6 -14 10 -4 9 -8 -2 -16 -13 -10 -13 -11 0
-11 32 0 60 13 60 28 0 12 -3 13 -11 5 -13 -13 -42 -6 -33 8 3 5 1 9 -5 9 -5
0 -12 -4 -15 -9z"/>
<path d="M7543 8633 c15 -2 39 -2 55 0 15 2 2 4 -28 4 -30 0 -43 -2 -27 -4z"/>
<path d="M8225 8580 c3 -5 8 -10 11 -10 2 0 4 5 4 10 0 6 -5 10 -11 10 -5 0
-7 -4 -4 -10z"/>
<path d="M6882 8500 c0 -14 2 -19 5 -12 2 6 2 18 0 25 -3 6 -5 1 -5 -13z"/>
<path d="M8250 8466 c0 -2 8 -10 18 -17 15 -13 16 -12 3 4 -13 16 -21 21 -21
13z"/>
<path d="M7169 8443 c-13 -16 -12 -17 4 -4 9 7 17 15 17 17 0 8 -8 3 -21 -13z"/>
<path d="M7950 8456 c0 -2 8 -10 18 -17 15 -13 16 -12 3 4 -13 16 -21 21 -21
13z"/>
<path d="M8370 8389 c-11 -19 -7 -39 5 -27 7 7 15 48 10 48 -2 0 -9 -9 -15
-21z"/>
<path d="M8353 8337 c0 -7 9 -14 19 -14 16 -2 17 1 8 13 -15 18 -27 18 -27 1z"/>
<path d="M8333 8285 c0 -8 4 -12 9 -9 5 3 6 10 3 15 -9 13 -12 11 -12 -6z"/>
<path d="M6776 8274 c-5 -14 -4 -15 9 -4 17 14 19 20 6 20 -5 0 -12 -7 -15
-16z"/>
<path d="M8363 8258 c4 -10 2 -18 -3 -18 -6 0 -10 4 -10 8 0 5 -7 9 -15 9 -22
0 -18 -11 9 -23 20 -9 26 -9 31 4 3 8 0 20 -6 26 -9 8 -10 7 -6 -6z"/>
<path d="M7083 8180 c0 -30 2 -43 4 -27 2 15 2 39 0 55 -2 15 -4 2 -4 -28z"/>
<path d="M8053 8180 c0 -30 2 -43 4 -27 2 15 2 39 0 55 -2 15 -4 2 -4 -28z"/>
<path d="M6790 8010 c-6 -12 -9 -24 -6 -28 3 -3 6 0 6 7 0 7 4 10 9 6 14 -8
21 8 11 24 -6 11 -11 9 -20 -9z"/>
<path d="M7160 7926 c0 -2 8 -10 18 -17 15 -13 16 -12 3 4 -13 16 -21 21 -21
13z"/>
<path d="M7959 7913 c-13 -16 -12 -17 4 -4 9 7 17 15 17 17 0 8 -8 3 -21 -13z"/>
<path d="M8255 7899 c-4 -6 -5 -12 -2 -15 2 -3 7 2 10 11 7 17 1 20 -8 4z"/>
<path d="M8265 7830 c14 -15 15 -20 4 -17 -8 2 -11 2 -7 0 4 -2 4 -11 1 -19
-3 -8 -1 -14 5 -14 5 0 12 9 15 21 4 13 10 19 19 14 7 -3 2 3 -11 14 -30 27
-50 27 -26 1z"/>
<path d="M8237 7793 c-10 -10 -8 -33 2 -33 6 0 9 9 8 20 -1 23 -1 22 -10 13z"/>
<path d="M8205 7750 c-4 -6 0 -10 7 -10 8 0 9 -3 3 -8 -6 -4 -10 -13 -9 -19 1
-7 2 -17 3 -23 0 -5 5 -10 10 -10 6 0 8 9 6 20 -2 11 0 22 6 25 5 4 9 10 9 15
0 12 -29 20 -35 10z"/>
<path d="M8166 7732 c-3 -5 1 -9 9 -9 8 0 12 4 9 9 -3 4 -7 8 -9 8 -2 0 -6 -4
-9 -8z"/>
<path d="M7543 7723 c15 -2 39 -2 55 0 15 2 2 4 -28 4 -30 0 -43 -2 -27 -4z"/>
<path d="M8134 7681 c0 -11 3 -18 7 -16 3 3 15 -4 27 -15 12 -11 23 -16 26
-12 4 7 -45 62 -56 62 -2 0 -4 -9 -4 -19z"/>
<path d="M8178 7683 c7 -3 16 -2 19 1 4 3 -2 6 -13 5 -11 0 -14 -3 -6 -6z"/>
<path d="M6980 7659 c0 -5 9 -9 20 -9 11 0 20 2 20 4 0 2 -9 6 -20 9 -11 3
-20 1 -20 -4z"/>
<path d="M8112 7633 c6 -7 17 -13 24 -13 8 0 14 6 14 13 0 6 -11 12 -24 12
-18 0 -22 -3 -14 -12z"/>
<path d="M7067 7613 c3 -7 6 -13 8 -13 2 0 5 6 8 13 3 8 -1 14 -8 14 -7 0 -11
-6 -8 -14z"/>
<path d="M7113 7585 c0 -8 4 -12 9 -9 5 3 6 10 3 15 -9 13 -12 11 -12 -6z"/>
<path d="M7240 7500 c0 -5 5 -10 11 -10 5 0 7 5 4 10 -3 6 -8 10 -11 10 -2 0
-4 -4 -4 -10z"/>
<path d="M7770 7480 c-8 -5 -12 -12 -9 -15 4 -3 12 1 19 10 14 17 11 19 -10 5z"/>
<path d="M7323 7467 c0 -7 9 -14 20 -14 11 -1 18 -1 16 0 -2 2 -11 8 -20 15
-12 9 -16 9 -16 -1z"/>
<path d="M7404 7427 c-1 -30 -1 -30 9 -9 6 14 7 26 1 32 -6 6 -10 -3 -10 -23z"/>
<path d="M7435 7422 c-3 -7 -3 -17 0 -22 7 -12 44 -19 50 -9 3 4 13 6 23 3 13
-5 14 -4 3 4 -11 8 -11 10 0 14 8 3 11 8 8 12 -4 4 -13 1 -20 -6 -8 -7 -22
-14 -31 -14 -14 -1 -15 2 -8 15 6 13 5 18 -5 18 -8 0 -17 -7 -20 -15z"/>
<path d="M7570 7417 c-11 -19 -11 -20 1 -11 8 6 21 13 28 16 13 4 13 5 0 10
-9 4 -21 -2 -29 -15z"/>
<path d="M7532 7405 c0 -16 2 -22 5 -12 2 9 2 23 0 30 -3 6 -5 -1 -5 -18z"/>
<path d="M7603 7395 c0 -8 4 -12 9 -9 5 3 6 10 3 15 -9 13 -12 11 -12 -6z"/>
<path d="M6994 8777 c-11 -12 -12 -17 -4 -11 8 6 22 13 30 16 9 3 10 7 3 11
-6 4 -19 -3 -29 -16z"/>
<path d="M6737 8193 c-8 -8 22 -43 36 -43 6 0 0 8 -11 19 -12 10 -19 21 -15
25 3 3 4 6 1 6 -2 0 -8 -3 -11 -7z"/>
<path d="M10521 7587 c-13 -21 -12 -21 5 -5 10 10 16 20 13 22 -3 3 -11 -5
-18 -17z"/>
<path d="M9796 7042 c-3 -5 1 -9 9 -9 8 0 12 4 9 9 -3 4 -7 8 -9 8 -2 0 -6 -4
-9 -8z"/>
<path d="M8406 6156 c3 -9 11 -16 16 -16 13 0 5 23 -10 28 -7 2 -10 -2 -6 -12z"/>
<path d="M10410 9656 c0 -2 11 -6 25 -8 13 -3 22 -1 19 3 -5 9 -44 13 -44 5z"/>
<path d="M10498 9650 c24 -10 31 -23 7 -14 -8 4 -15 1 -15 -5 0 -6 4 -11 9
-11 14 0 9 -139 -6 -151 -7 -6 -10 -15 -7 -20 3 -5 0 -9 -5 -9 -6 0 -11 -5
-11 -11 0 -8 4 -9 13 0 21 17 28 1 11 -24 -12 -18 -12 -24 -2 -28 8 -4 9 -8 3
-14 -5 -4 -10 -18 -11 -30 0 -19 7 -24 55 -33 492 -96 755 -202 926 -374 78
-77 120 -151 141 -245 85 -380 -262 -905 -1011 -1531 -858 -717 -2154 -1477
-3320 -1947 -1277 -516 -2711 -868 -3920 -963 -175 -14 -643 -14 -799 0 -364
32 -622 104 -794 222 -387 266 -288 813 277 1523 108 137 355 408 458 506 38
36 72 75 75 87 4 12 3 20 -2 17 -4 -3 -13 2 -20 10 -9 10 -9 15 -1 15 6 0 11
5 11 12 0 6 -3 9 -6 5 -10 -10 -56 42 -48 55 4 7 3 8 -4 4 -14 -8 -52 70 -47
96 2 10 1 17 -3 14 -4 -2 -12 11 -18 30 -6 19 -8 37 -3 40 13 7 -2 35 -15 27
-6 -3 0 7 14 23 35 40 11 21 -155 -120 -524 -448 -1038 -989 -1301 -1371 -11
-16 -40 -59 -65 -95 -78 -114 -171 -271 -235 -400 -387 -778 -193 -1263 591
-1478 67 -18 137 -35 200 -47 17 -3 41 -8 55 -10 103 -21 258 -38 505 -55 432
-29 1271 23 1790 110 60 10 133 21 160 25 140 17 585 100 840 156 1761 384
3302 995 4845 1919 1274 763 2293 1618 2735 2295 114 175 207 379 244 539 22
91 25 244 6 321 -23 96 -85 219 -150 297 -52 63 -177 169 -252 214 -176 105
-400 198 -628 260 -271 73 -680 139 -985 159 -47 3 -101 8 -120 10 -29 4 -31
3 -12 -5z m12 -190 c0 -5 -5 -10 -11 -10 -5 0 -7 5 -4 10 3 6 8 10 11 10 2 0
4 -4 4 -10z"/>
<path d="M10741 7734 c0 -11 3 -14 6 -6 3 7 2 16 -1 19 -3 4 -6 -2 -5 -13z"/>
<path d="M10340 7395 c1 -26 2 -28 11 -12 8 14 8 22 0 30 -8 8 -11 3 -11 -18z"/>
<path d="M10262 7341 c2 -21 -3 -41 -10 -37 -4 2 -14 0 -22 -5 -11 -7 -9 -8 8
-6 26 4 59 54 36 54 -7 0 -13 -3 -12 -6z"/>
<path d="M10101 7214 c0 -11 3 -14 6 -6 3 7 2 16 -1 19 -3 4 -6 -2 -5 -13z"/>
<path d="M10039 7133 c-13 -16 -12 -17 4 -4 9 7 17 15 17 17 0 8 -8 3 -21 -13z"/>
<path d="M9887 7093 c-4 -6 -3 -14 2 -17 16 -10 5 -41 -20 -53 -13 -7 -17 -13
-9 -13 8 1 24 7 34 15 16 12 17 20 10 47 -6 20 -13 28 -17 21z"/>
<path d="M9690 6920 c0 -5 5 -10 11 -10 5 0 7 5 4 10 -3 6 -8 10 -11 10 -2 0
-4 -4 -4 -10z"/>
<path d="M9435 6760 c-4 -6 -2 -17 4 -24 6 -7 7 -17 3 -21 -4 -5 -1 -5 6 -1
10 6 10 11 1 22 -8 10 -8 14 0 14 6 0 11 5 11 10 0 13 -17 13 -25 0z"/>
<path d="M9254 6614 c-18 -14 -18 -15 4 -4 12 6 22 13 22 15 0 8 -5 6 -26 -11z"/>
<path d="M9218 6583 c7 -3 16 -2 19 1 4 3 -2 6 -13 5 -11 0 -14 -3 -6 -6z"/>
<path d="M9210 6559 c0 -5 5 -7 10 -4 6 3 10 8 10 11 0 2 -4 4 -10 4 -5 0 -10
-5 -10 -11z"/>
<path d="M9050 6490 c0 -5 5 -10 10 -10 6 0 10 5 10 10 0 6 -4 10 -10 10 -5 0
-10 -4 -10 -10z"/>
<path d="M9031 6474 c0 -11 3 -14 6 -6 3 7 2 16 -1 19 -3 4 -6 -2 -5 -13z"/>
<path d="M8955 6440 c-3 -5 -1 -10 4 -10 6 0 11 5 11 10 0 6 -2 10 -4 10 -3 0
-8 -4 -11 -10z"/>
<path d="M8640 6230 c0 -5 5 -10 11 -10 5 0 7 5 4 10 -3 6 -8 10 -11 10 -2 0
-4 -4 -4 -10z"/>
<path d="M8540 6211 c0 -6 4 -12 8 -15 5 -3 9 1 9 9 0 8 -4 15 -9 15 -4 0 -8
-4 -8 -9z"/>
<path d="M8595 6210 c3 -5 8 -10 11 -10 2 0 4 5 4 10 0 6 -5 10 -11 10 -5 0
-7 -4 -4 -10z"/>
<path d="M8281 6063 c-1 -17 16 -25 25 -12 4 7 3 9 -4 5 -5 -3 -13 0 -15 6 -4
9 -6 10 -6 1z"/>
<path d="M10906 6021 c-12 -13 -14 -21 -6 -26 5 -3 8 -11 4 -16 -3 -5 -9 -7
-14 -4 -5 3 -11 1 -15 -5 -9 -15 -28 -12 -19 3 4 7 3 9 -2 4 -5 -5 -9 -12 -9
-15 -1 -4 -7 -17 -14 -30 -14 -26 -8 -52 11 -51 10 0 10 2 1 6 -7 2 -13 12
-13 21 0 13 2 14 9 4 4 -8 11 -13 15 -13 24 3 27 -1 10 -14 -10 -8 -14 -15 -9
-15 13 0 -16 -20 -30 -20 -5 0 -4 4 4 9 11 7 9 10 -8 16 -13 4 -21 15 -21 27
0 22 -12 17 -16 -6 -1 -7 -5 -24 -9 -37 -7 -23 -7 -24 12 -6 20 17 21 17 26
-3 3 -11 1 -23 -4 -26 -5 -3 -9 2 -9 11 0 9 -5 13 -10 10 -6 -4 -8 -11 -4 -16
3 -6 -3 -5 -15 3 -22 14 -28 28 -11 28 6 0 10 11 10 24 0 19 -4 23 -20 19 -19
-5 -19 -6 -3 -19 17 -12 16 -13 -7 -23 -14 -5 -21 -10 -17 -10 4 -1 2 -11 -5
-23 -7 -13 -13 -30 -14 -38 -1 -24 -15 -50 -26 -50 -5 0 -7 4 -4 9 4 5 3 11
-1 14 -5 2 -2 2 5 1 6 -2 12 2 12 10 0 23 -13 27 -32 9 -20 -18 -25 -49 -6
-37 7 4 8 3 4 -5 -9 -14 -64 38 -57 54 2 6 0 6 -4 2 -12 -10 -15 -37 -5 -37 4
0 10 -7 14 -15 3 -8 2 -14 -2 -14 -21 3 -31 -3 -26 -16 8 -19 -6 -19 -31 2
-16 12 -16 14 -3 10 10 -3 20 -2 23 3 4 6 2 10 -3 10 -5 0 -8 10 -7 23 1 12 0
14 -2 4 -3 -10 -9 -14 -16 -11 -7 4 -9 4 -5 -1 9 -9 -9 -35 -24 -35 -6 0 -8 6
-5 13 3 8 -1 14 -9 14 -16 0 -19 -13 -4 -22 6 -4 8 -11 4 -16 -3 -5 -10 -7
-15 -4 -5 4 -9 2 -9 -4 0 -6 -8 -8 -17 -5 -14 5 -15 4 -4 -4 21 -15 41 -80 27
-89 -24 -18 -92 8 -83 31 3 6 -3 13 -14 13 -12 1 -16 -3 -12 -13 3 -8 0 -21
-7 -29 -12 -15 -3 -21 24 -16 18 4 -15 -27 -35 -32 -12 -3 -18 -3 -15 0 3 4 1
12 -4 18 -7 9 -6 14 4 18 12 5 14 19 6 47 -1 3 -5 -5 -11 -18 -5 -13 -13 -20
-19 -17 -6 3 -13 0 -16 -9 -3 -8 -13 -12 -22 -10 -15 5 -14 4 1 -6 9 -6 22 -8
29 -4 7 4 8 3 4 -4 -4 -7 -2 -12 4 -12 6 0 8 -5 5 -11 -5 -7 -13 -5 -24 5 -20
19 -31 20 -31 5 0 -5 4 -8 9 -4 5 3 13 0 17 -6 5 -9 -2 -10 -24 -6 -32 6 -52
-6 -31 -19 8 -4 9 -3 5 4 -9 15 -5 15 28 2 15 -5 26 -6 26 -1 0 14 34 6 36 -8
1 -6 0 -7 -2 -2 -9 17 -33 1 -27 -17 4 -13 2 -12 -10 3 -13 15 -16 16 -17 5 0
-11 -2 -12 -8 -2 -6 9 -14 6 -32 -13 -28 -29 -33 -30 -54 -9 -15 14 -16 13
-14 -8 2 -14 -2 -22 -9 -21 -21 5 -14 -14 7 -20 11 -3 20 -11 19 -19 0 -10 -2
-10 -6 0 -4 10 -8 10 -19 1 -11 -9 -14 -8 -14 2 -1 8 -7 3 -16 -11 l-15 -25 7
25 c10 39 10 42 -4 47 -8 3 -10 -1 -6 -11 5 -12 2 -15 -12 -9 -12 4 -15 3 -10
-5 4 -8 2 -10 -7 -6 -8 3 -17 -2 -21 -11 -3 -9 -11 -13 -18 -9 -8 5 -9 2 -5
-10 5 -12 3 -16 -5 -14 -7 3 -13 14 -13 26 0 11 -3 23 -8 26 -4 3 -5 3 -2 0 2
-4 0 -15 -6 -25 -7 -14 -6 -19 3 -19 9 0 9 -3 -2 -11 -13 -9 -12 -10 2 -5 27
8 29 -8 3 -21 -14 -6 -24 -8 -23 -4 2 18 -4 44 -8 34 -3 -7 -13 -10 -22 -7
-15 5 -15 4 1 -6 9 -6 17 -16 17 -23 0 -7 -4 -6 -10 3 -8 13 -10 12 -10 -2 0
-10 4 -18 8 -18 5 0 6 -14 4 -31 -3 -22 -7 -27 -13 -18 -8 12 -12 7 -11 -11 0
-3 -8 -6 -18 -6 -16 0 -15 3 7 24 24 22 24 24 8 43 -23 24 -23 25 -20 -11 2
-25 -2 -31 -21 -36 -21 -6 -28 -15 -26 -36 1 -3 -4 -8 -12 -11 -13 -5 -15 20
-3 40 4 6 2 15 -4 19 -8 4 -9 3 -5 -4 4 -7 2 -12 -4 -12 -7 0 -10 -6 -7 -14 3
-8 -1 -17 -9 -20 -8 -3 -14 -10 -14 -16 0 -6 4 -9 8 -6 5 3 9 -1 9 -8 0 -8
-10 -11 -26 -9 -23 3 -24 2 -6 -6 17 -8 17 -10 3 -10 -9 -1 -19 3 -22 8 -3 5
-19 7 -36 6 -16 -1 -30 1 -30 6 0 4 16 7 36 5 33 -2 35 -1 18 11 -14 10 -14
13 -3 13 8 0 21 -6 28 -12 9 -9 12 -9 7 -1 -3 6 -1 17 6 25 17 17 18 45 3 45
-8 0 -11 -7 -7 -15 3 -10 1 -13 -6 -8 -8 5 -10 1 -5 -10 4 -12 3 -15 -5 -10
-6 4 -20 -2 -31 -13 -11 -11 -22 -17 -25 -14 -3 4 -15 -2 -25 -11 -11 -10 -25
-15 -30 -11 -6 3 -11 2 -11 -4 0 -6 -7 -8 -16 -4 -12 4 -15 2 -12 -8 3 -8 13
-14 23 -14 20 0 40 -41 25 -50 -6 -4 -10 4 -11 17 0 13 -3 17 -6 10 -2 -6 -9
-10 -14 -6 -5 3 -9 -1 -9 -8 0 -7 -9 -19 -20 -26 -17 -10 -20 -10 -20 3 0 8 5
14 12 12 6 -1 14 6 16 16 3 16 1 17 -17 5 -15 -9 -28 -10 -49 -2 -23 9 -29 8
-29 -3 0 -8 11 -19 24 -24 23 -9 28 -24 17 -53 -8 -20 -24 -21 -24 -1 0 8 -4
15 -10 15 -5 0 -10 -4 -10 -10 0 -5 -9 -10 -21 -10 -15 0 -19 4 -15 16 5 14 4
15 -9 4 -8 -7 -15 -19 -15 -27 0 -11 -6 -8 -18 7 -14 18 -19 19 -19 7 0 -9 4
-14 9 -11 4 3 8 3 8 0 0 -3 -15 -13 -32 -22 -29 -15 -31 -15 -20 -1 12 14 10
15 -14 11 -32 -6 -45 -14 -23 -14 8 0 25 -10 39 -21 19 -15 20 -18 4 -10 -12
5 -26 6 -34 1 -9 -5 -20 -4 -28 3 -11 9 -18 6 -33 -12 -19 -23 -18 -41 2 -41
6 0 8 10 5 23 -3 12 -3 16 0 9 3 -6 10 -10 15 -6 5 3 9 0 9 -6 0 -7 7 -5 16 4
18 18 34 21 34 5 0 -5 -4 -8 -9 -5 -14 9 -29 -16 -26 -44 3 -30 -3 -42 -16
-34 -6 4 -6 10 1 19 15 19 2 49 -16 34 -8 -6 -11 -16 -7 -23 4 -7 1 -6 -9 1
-8 7 -19 9 -23 5 -5 -4 -5 -2 -1 5 3 6 2 14 -4 18 -5 3 -10 0 -10 -7 0 -10 -3
-9 -9 2 -6 8 -7 19 -3 25 3 5 -2 4 -11 -4 -12 -9 -15 -21 -10 -39 5 -21 3 -24
-11 -19 -9 4 -16 2 -16 -3 0 -15 35 -16 46 -1 9 12 16 13 35 4 l24 -12 -25 3
c-19 2 -28 -3 -37 -23 -9 -21 -12 -22 -12 -7 -1 11 -4 16 -7 13 -10 -9 -46 12
-39 24 4 5 1 9 -4 9 -6 0 -11 -4 -11 -9 0 -5 -10 -12 -22 -14 -20 -4 -19 -4 5
-6 17 0 27 -7 27 -16 0 -19 -27 -15 -60 8 -25 18 -25 18 -42 -20 -15 -35 -15
-38 0 -50 16 -11 16 -12 0 -13 -10 0 -18 4 -18 10 0 5 -9 14 -19 20 -15 8 -19
7 -17 -6 1 -9 8 -19 15 -24 8 -4 10 -13 7 -19 -9 -14 7 -14 21 0 6 6 25 8 49
3 35 -6 36 -8 15 -16 -15 -5 -29 -4 -38 3 -10 9 -17 9 -25 1 -18 -18 -41 -15
-34 3 7 20 -20 31 -39 15 -16 -13 -10 -40 8 -36 7 1 9 1 5 -1 -12 -7 -17 -4
-40 19 -16 16 -17 20 -5 15 9 -3 17 -2 17 3 0 6 -9 10 -20 10 -11 0 -20 5 -20
11 0 5 5 7 12 3 7 -5 8 -3 3 5 -5 9 -11 9 -17 3 -7 -7 -5 -21 6 -44 9 -18 11
-27 4 -20 -16 16 -31 16 -22 0 6 -10 4 -10 -7 -2 -8 7 -23 8 -34 4 -13 -4 -24
-2 -30 7 -9 12 -11 11 -11 -6 0 -11 4 -17 8 -15 4 3 8 -1 8 -10 0 -17 -21 -15
-46 4 -17 14 -18 14 -6 -2 14 -17 9 -38 -9 -38 -5 0 -9 5 -9 11 0 5 5 7 12 3
7 -4 8 -3 4 5 -6 9 -11 9 -22 0 -8 -6 -12 -14 -9 -17 3 -3 0 -11 -6 -19 -9 -9
-15 -10 -24 -3 -10 8 -15 6 -20 -10 -10 -33 -91 -61 -101 -36 -4 12 -10 10
-26 -6 -16 -16 -19 -25 -11 -37 6 -9 18 -15 27 -15 22 2 20 -3 -5 -17 -13 -7
-19 -7 -15 -1 3 6 2 13 -4 17 -5 3 -10 0 -10 -8 0 -8 -11 -22 -25 -31 -25 -16
-26 -44 -2 -29 7 4 5 -1 -3 -12 -14 -16 -15 -16 -18 -1 -2 9 -8 14 -13 11 -5
-4 -9 0 -9 9 0 15 -16 16 -37 3 -7 -5 -13 -5 -13 -1 0 4 -9 -1 -20 -11 -11
-10 -20 -16 -21 -14 0 2 -2 12 -4 21 -2 11 2 15 11 11 8 -3 14 0 14 6 0 6 -5
11 -12 11 -9 0 -9 3 0 12 7 7 12 17 12 22 0 6 -7 1 -15 -11 -10 -14 -22 -19
-35 -16 -11 3 -20 0 -20 -6 0 -5 6 -8 14 -5 10 4 14 -2 12 -20 0 -14 -6 -28
-12 -30 -6 -2 -11 3 -10 11 0 9 -6 18 -14 20 -13 4 -13 3 0 -6 13 -9 13 -12 1
-20 -11 -7 -9 -10 8 -16 21 -6 28 -29 12 -39 -5 -3 -14 1 -21 9 -17 20 -27 19
-35 -5 -3 -11 -11 -20 -17 -20 -7 0 -7 4 1 13 11 14 6 27 -11 27 -13 0 -9 -54
5 -69 10 -11 8 -11 -11 -2 -12 7 -20 17 -16 23 4 7 3 8 -4 4 -6 -4 -8 -14 -5
-23 4 -11 3 -14 -6 -9 -13 8 -5 46 11 57 5 3 2 9 -7 12 -9 4 -13 3 -10 -2 3
-5 1 -12 -5 -16 -5 -3 -10 -16 -11 -28 -1 -20 -2 -20 -9 3 -5 17 -8 19 -9 8
-1 -19 -16 -24 -25 -9 -4 5 -1 11 6 13 9 3 9 6 1 11 -7 5 -17 -1 -23 -13 -7
-13 -7 -20 -1 -20 6 0 8 -7 4 -16 -3 -9 -13 -14 -24 -11 -10 3 -26 -1 -36 -8
-15 -11 -15 -15 -4 -29 11 -14 11 -16 -3 -16 -11 0 -15 -5 -11 -12 4 -7 -3 -2
-16 12 l-22 25 7 -25 c5 -17 4 -21 -2 -11 -8 11 -10 11 -15 0 -4 -10 -6 -10
-6 -1 -1 19 -21 14 -21 -5 0 -15 -1 -15 -12 -1 -19 23 -57 30 -53 9 2 -9 4
-18 4 -21 1 -3 6 2 11 10 16 25 11 -3 -6 -30 -14 -23 -14 -23 -9 -2 4 14 1 24
-8 28 -8 3 -13 16 -11 30 3 29 -8 24 -13 -6 -1 -10 2 -22 7 -25 6 -3 10 -12
10 -18 -1 -7 -9 -3 -18 8 -21 24 -43 31 -36 10 3 -8 11 -13 17 -12 7 1 11 -4
10 -10 -2 -7 2 -13 8 -13 6 0 9 -6 6 -12 -2 -7 3 -22 12 -32 13 -16 13 -18 1
-10 -8 4 -23 7 -32 6 -12 -2 -16 1 -12 12 4 11 0 14 -16 11 -18 -3 -21 0 -17
15 4 16 1 19 -16 16 -12 -2 -21 -9 -20 -15 2 -5 -4 -8 -13 -4 -13 5 -13 8 3
26 l18 21 -26 -20 c-24 -17 -25 -20 -10 -32 14 -12 14 -13 -3 -8 -14 5 -16 3
-8 -6 7 -9 6 -16 -3 -25 -7 -6 -15 -10 -18 -7 -2 3 -7 -2 -10 -11 -4 -9 -1
-15 8 -15 7 0 16 -4 20 -9 6 -11 -34 -9 -52 2 -11 7 -23 -1 -23 -15 0 -5 5 -6
12 -2 7 4 8 3 4 -4 -5 -9 -13 -9 -27 -2 -10 6 -19 13 -19 16 0 3 4 3 9 -1 5
-3 12 -1 16 5 3 5 1 10 -6 10 -6 0 -18 8 -25 18 -12 15 -14 15 -15 -10 -1 -16
-2 -34 -3 -40 -1 -7 3 -20 8 -28 10 -13 9 -13 -6 -1 -16 12 -22 9 -19 -11 0
-5 -4 -8 -10 -8 -6 0 -8 9 -4 21 5 16 4 19 -5 14 -9 -5 -11 -4 -6 4 4 6 12 9
17 6 5 -4 9 -2 9 3 0 6 -7 12 -15 16 -8 3 -14 11 -13 17 2 6 -5 13 -15 14 -18
3 -18 2 -2 -15 11 -12 13 -20 6 -25 -8 -4 -8 -12 -1 -25 15 -27 12 -34 -6 -15
-9 8 -14 24 -11 34 3 14 0 17 -14 14 -14 -4 -17 -9 -9 -18 14 -17 2 -45 -19
-45 -14 1 -14 2 2 11 23 13 22 29 -3 29 -14 0 -18 5 -13 18 7 16 6 16 -11 0
-9 -10 -19 -29 -20 -43 -3 -31 -16 -45 -16 -19 -1 14 -5 11 -15 -11 -7 -16
-14 -24 -14 -16 -1 7 -7 11 -15 8 -10 -4 -13 -1 -9 8 3 8 10 12 16 8 6 -4 7
-1 3 6 -6 9 -13 8 -29 -6 -11 -10 -18 -13 -14 -8 3 6 -3 16 -14 23 -10 7 -19
8 -19 3 0 -5 6 -12 13 -14 9 -4 9 -6 0 -6 -9 -1 -10 -8 -3 -26 6 -15 6 -26 -1
-30 -5 -4 -8 -1 -7 5 5 22 -30 36 -53 22 -11 -7 -32 -18 -47 -23 -27 -10 -27
-10 -7 9 11 11 24 17 29 14 5 -3 6 0 2 7 -6 9 -13 8 -28 -6 -11 -10 -22 -17
-24 -15 -18 11 -23 -2 -6 -14 15 -10 27 -12 39 -6 25 15 47 -11 33 -38 l-11
-21 -17 21 c-13 16 -24 20 -44 15 -32 -8 -27 -35 5 -29 21 4 21 4 2 -5 -11 -5
-25 -5 -31 0 -6 5 -15 4 -22 -3 -8 -8 -15 -8 -28 3 -9 8 -18 12 -20 9 -1 -3
-6 -1 -11 4 -5 5 -3 6 5 2 6 -4 12 -2 12 3 0 6 7 11 15 11 8 0 15 5 15 10 0 7
-6 7 -20 0 -11 -6 -20 -7 -20 -3 0 4 -5 0 -11 -9 -7 -13 -5 -25 8 -45 15 -24
15 -26 1 -15 -14 11 -18 10 -27 -5 -6 -10 -11 -13 -11 -7 0 6 -7 11 -15 11 -9
0 -11 -4 -6 -11 6 -8 0 -11 -19 -11 -20 0 -25 3 -19 11 10 13 -22 11 -55 -2
-13 -5 -17 -4 -13 3 5 7 0 9 -13 6 -16 -4 -18 -9 -9 -19 6 -7 18 -10 27 -8 14
5 13 2 -2 -10 -18 -14 -15 -21 7 -17 5 1 6 -3 2 -9 -3 -6 -11 -7 -17 -4 -8 5
-9 1 -5 -10 4 -11 3 -15 -4 -11 -6 4 -8 14 -5 22 5 11 2 13 -10 9 -18 -7 -47
11 -39 24 3 5 -4 6 -15 3 -26 -7 -26 -19 1 -26 21 -6 18 -27 -4 -27 -7 0 -6 4
3 10 13 8 12 10 -5 11 -11 1 -29 1 -39 0 -11 -1 -24 4 -29 11 -6 9 -7 7 -4 -8
3 -13 -3 -25 -14 -32 -15 -10 -17 -8 -14 8 5 26 -10 34 -26 13 -12 -14 -12
-16 0 -9 9 6 12 5 10 -3 -7 -20 -23 -15 -36 10 -8 15 -13 18 -13 8 0 -8 5 -20
12 -27 17 -17 -13 -16 -32 1 -11 9 -11 8 0 -7 14 -18 13 -19 -3 -13 -11 4 -16
3 -12 -3 3 -6 1 -11 -4 -11 -6 -1 -15 -2 -21 -3 -5 0 -10 -4 -10 -8 0 -5 0
-13 0 -19 0 -8 5 -7 16 2 9 7 23 14 31 15 7 1 21 8 30 15 30 26 70 12 44 -14
-9 -9 -14 -8 -21 3 -10 16 -11 15 -28 -20 -7 -14 -10 -17 -7 -7 4 15 1 17 -18
12 -12 -4 -28 -14 -34 -23 -7 -8 -16 -13 -19 -9 -4 4 -14 1 -23 -6 -14 -11
-14 -10 0 13 17 26 15 50 -4 50 -8 0 -8 -3 0 -11 17 -17 -11 -42 -37 -34 -11
4 -20 2 -20 -4 0 -6 -7 -11 -16 -11 -8 0 -13 -4 -9 -9 3 -5 1 -12 -5 -16 -6
-4 -8 -11 -4 -16 3 -5 11 -6 17 -2 7 4 5 -2 -3 -13 -22 -29 -24 -30 -17 -12 3
10 2 20 -4 23 -5 4 -7 11 -4 16 4 5 -1 9 -10 9 -9 0 -13 5 -10 10 3 6 1 10 -4
10 -6 0 -11 -5 -11 -11 0 -6 -9 -8 -22 -4 -17 5 -14 1 9 -15 36 -24 45 -37 14
-21 -14 8 -22 6 -35 -8 -9 -10 -13 -21 -9 -26 5 -4 2 -5 -4 -1 -16 9 -17 37
-2 33 6 -1 13 3 16 9 2 7 -7 12 -21 12 -20 0 -24 -4 -20 -26 4 -21 2 -23 -9
-14 -8 7 -18 8 -22 4 -5 -4 -5 -1 -1 6 4 6 2 12 -3 12 -6 0 -11 5 -11 10 0 6
6 10 14 8 8 -2 15 0 15 5 1 4 -1 7 -4 7 -3 0 -13 0 -23 0 -10 0 -19 -7 -19
-15 0 -8 4 -15 9 -15 4 0 8 -4 8 -10 0 -5 -9 -10 -20 -10 -18 0 -19 3 -10 20
7 14 7 20 0 20 -5 0 -10 -4 -10 -10 0 -5 -7 -7 -15 -4 -8 4 -12 11 -8 17 3 6
1 7 -5 3 -13 -8 -5 -36 10 -36 5 0 6 -4 3 -10 -3 -5 -11 -10 -16 -10 -6 0 -8
4 -4 9 7 13 -12 24 -26 15 -8 -4 -7 -9 2 -15 9 -6 -2 -7 -29 -4 -30 3 -41 2
-36 -6 3 -6 0 -15 -7 -20 -23 -14 -32 -10 -26 12 3 13 1 19 -6 16 -7 -2 -11
-11 -9 -21 2 -9 -4 -16 -12 -16 -9 0 -13 -6 -10 -14 3 -8 1 -17 -5 -21 -7 -4
-8 0 -5 10 4 9 3 15 -2 14 -14 -3 -44 12 -39 20 2 4 -2 8 -10 8 -8 0 -16 -6
-19 -14 -3 -7 -2 -12 2 -12 19 3 32 -2 32 -13 0 -9 -3 -9 -12 0 -8 8 -17 8
-30 1 -17 -9 -19 -8 -14 9 4 12 2 24 -5 28 -9 5 -10 2 -6 -10 4 -10 1 -19 -8
-23 -13 -5 -13 -7 2 -19 10 -7 14 -14 8 -14 -5 0 -3 -5 5 -11 13 -9 13 -10 0
-6 -8 2 -14 10 -13 16 4 16 -18 13 -39 -5 -15 -14 -20 -15 -35 -3 -10 7 -15
10 -11 5 4 -4 2 -19 -3 -33 -7 -20 -6 -24 4 -20 8 3 14 -1 14 -9 0 -19 -11
-18 -31 5 -14 15 -15 24 -7 39 8 15 7 21 -4 26 -8 3 -17 1 -20 -4 -3 -4 1 -10
7 -13 7 -2 10 -8 5 -12 -4 -5 -13 -3 -19 3 -14 14 -38 16 -38 2 0 -5 8 -7 18
-3 12 4 11 1 -5 -14 -13 -11 -23 -25 -23 -31 0 -6 -5 -14 -12 -18 -8 -5 -9 -2
-5 9 3 10 2 17 -3 17 -6 0 -10 7 -10 16 0 8 -5 12 -10 9 -6 -4 -9 -14 -8 -22
2 -9 -4 -18 -12 -20 -12 -4 -12 -3 -1 5 11 8 11 11 0 18 -28 17 -39 14 -27 -9
6 -12 16 -25 22 -29 7 -5 5 -8 -6 -8 -17 0 -33 16 -33 34 0 5 -7 11 -15 13
-12 4 -12 3 -1 -5 8 -6 9 -12 3 -16 -13 -8 -42 3 -42 15 0 5 -5 9 -11 9 -8 0
-8 -4 0 -14 7 -9 8 -17 2 -20 -5 -3 -12 0 -14 6 -4 9 -6 10 -6 1 -1 -16 16
-26 24 -13 9 15 25 12 19 -4 -3 -8 -13 -13 -22 -11 -9 2 -21 4 -27 5 -22 5
-28 -1 -12 -12 15 -12 14 -13 -13 -13 -29 0 -42 19 -18 27 8 3 4 9 -9 17 -20
10 -22 9 -16 -6 6 -15 4 -16 -8 -6 -12 10 -15 8 -16 -9 -3 -32 -26 -41 -39
-16 l-11 21 -16 -23 c-14 -20 -16 -20 -20 -3 -3 10 -5 5 -4 -11 1 -18 -4 -30
-13 -33 -13 -4 -13 -3 0 6 9 7 10 11 3 11 -6 0 -15 -5 -18 -10 -4 -6 -11 -8
-16 -4 -5 3 -8 2 -7 -3 3 -8 -7 -14 -17 -12 -3 1 -9 3 -15 4 -5 1 -15 3 -21 4
-5 0 -7 6 -3 12 4 8 0 8 -15 0 -11 -7 -21 -17 -22 -24 0 -7 -4 -3 -9 8 -6 16
-8 14 -7 -13 0 -18 4 -35 9 -38 5 -3 8 -2 7 3 -1 4 2 18 7 31 l10 23 18 -20
c11 -12 14 -21 8 -21 -7 0 -12 5 -12 11 0 5 -4 7 -10 4 -5 -3 -10 -13 -10 -21
0 -8 4 -13 9 -9 5 3 12 1 15 -4 3 -5 -9 -7 -27 -6 -17 2 -38 -2 -44 -7 -9 -7
-13 -7 -13 0 0 6 -7 9 -15 6 -9 -4 -15 0 -15 10 0 18 15 22 25 6 11 -18 23
-11 21 13 0 13 -6 24 -13 24 -6 0 -9 -6 -6 -13 3 -9 -2 -11 -17 -7 -14 4 -18
8 -10 13 8 5 6 9 -6 14 -9 4 -22 2 -28 -4 -8 -8 -5 -9 9 -4 14 5 17 4 10 -4
-5 -6 -21 -13 -35 -16 -14 -2 -34 -8 -44 -12 -13 -5 -17 -4 -13 3 4 6 0 14 -9
17 -8 3 -12 11 -9 18 4 7 -7 -2 -24 -20 -18 -20 -35 -31 -42 -26 -7 4 -10 2
-7 -7 7 -20 31 -17 43 5 6 11 16 22 24 24 9 3 6 -6 -8 -27 -12 -17 -26 -29
-31 -26 -5 3 -11 1 -15 -5 -10 -16 -25 -12 -19 5 9 21 -6 19 -32 -6 -27 -25
-67 -19 -57 9 6 15 5 15 -10 3 -13 -10 -15 -17 -6 -27 7 -9 8 -14 1 -14 -5 0
-12 7 -16 15 -3 8 -15 15 -26 15 -11 0 -19 3 -17 8 2 8 -7 12 -25 12 -7 0 -5
-5 5 -11 9 -6 14 -15 11 -21 -4 -6 -3 -9 2 -6 5 3 15 0 22 -8 9 -10 9 -14 1
-14 -6 0 -1 -8 12 -18 17 -15 19 -21 9 -27 -9 -5 -11 -4 -6 3 6 11 -6 16 -26
13 -5 0 -8 5 -8 13 0 9 -10 12 -28 10 -26 -2 -26 -2 -8 12 18 13 18 14 2 14
-10 0 -14 4 -10 12 4 6 3 8 -4 4 -5 -3 -13 0 -16 6 -3 7 -3 -2 0 -21 4 -30 3
-33 -10 -21 -9 7 -13 17 -9 23 3 6 1 7 -5 3 -8 -4 -8 -15 -2 -31 7 -17 5 -25
-6 -29 -11 -4 -14 -1 -10 12 3 9 1 24 -5 32 -8 12 -9 10 -4 -7 7 -24 -9 -32
-19 -10 -3 6 -4 0 -1 -15 5 -28 -8 -39 -19 -15 -5 9 -7 9 -12 -1 -3 -6 -10
-10 -15 -6 -5 3 0 13 11 22 15 13 17 20 9 32 -9 13 -10 12 -5 -3 5 -15 2 -17
-17 -12 -17 5 -19 4 -7 -4 13 -9 13 -11 -2 -11 -25 0 -33 4 -30 13 1 4 -5 10
-13 13 -8 3 -13 10 -10 14 3 5 -5 5 -17 2 -19 -5 -20 -7 -5 -10 9 -2 15 -7 12
-12 -13 -21 353 -242 580 -351 1113 -532 2400 -526 3510 16 1141 557 1951
1618 2190 2868 15 76 24 144 21 152 -3 8 -1 17 4 20 17 11 11 25 -7 18 -16 -6
-16 -4 1 15 11 12 17 22 14 22 -3 0 -13 -9 -22 -19z m0 -72 c0 -14 -4 -15 -18
-8 -20 11 -17 26 4 26 8 0 14 -8 14 -18z m-42 -20 c-3 -5 -10 -7 -15 -3 -5 3
-7 10 -3 15 3 5 10 7 15 3 5 -3 7 -10 3 -15z m26 -9 c0 -5 -5 -10 -11 -10 -5
0 -7 5 -4 10 3 6 8 10 11 10 2 0 4 -4 4 -10z m-150 -100 c-13 -9 -13 -10 0
-10 13 0 13 -2 0 -9 -8 -6 -18 -7 -23 -4 -10 6 11 33 27 33 6 0 4 -5 -4 -10z
m-190 -115 c0 -15 -14 -34 -21 -29 -5 3 -7 10 -4 15 3 5 -1 6 -10 3 -14 -6
-14 -8 0 -24 11 -12 13 -20 6 -25 -6 -3 -9 -18 -7 -32 3 -14 3 -24 1 -22 -2 2
-4 9 -5 14 -1 6 -6 18 -12 29 -7 12 -7 16 0 12 6 -3 14 -1 17 5 4 6 -2 13 -14
16 -27 7 -27 20 -1 28 11 3 20 10 20 15 0 5 7 7 15 4 8 -4 15 -8 15 -9z m96
-5 c0 -12 -4 -16 -9 -11 -5 5 -6 14 -3 20 10 15 12 14 12 -9z m-178 -155 c-3
-3 -9 2 -12 12 -6 14 -5 15 5 6 7 -7 10 -15 7 -18z m-73 -5 c3 -5 1 -10 -4
-10 -6 0 -11 5 -11 10 0 6 2 10 4 10 3 0 8 -4 11 -10z m-150 -50 c-3 -5 1 -10
9 -10 9 0 16 -5 16 -11 0 -5 -5 -7 -10 -4 -6 4 -17 1 -25 -5 -11 -9 -15 -9
-15 -1 0 6 5 11 10 11 6 0 9 3 9 8 -2 12 1 22 7 22 3 0 2 -4 -1 -10z m-151
-92 c-3 -5 -1 -15 6 -23 14 -17 -3 -30 -28 -20 -14 5 -14 7 -2 15 12 8 12 10
-4 10 -14 0 -16 3 -7 13 12 15 43 19 35 5z m91 -17 c3 -5 2 -12 -3 -15 -5 -3
-9 1 -9 9 0 17 3 19 12 6z m-170 -50 c-3 -6 -11 -11 -16 -11 -5 0 -4 6 3 14
14 16 24 13 13 -3z m-136 -117 c4 3 8 -1 8 -9 0 -8 -4 -15 -9 -15 -4 0 -8 5
-8 10 0 6 -8 10 -17 10 -15 0 -16 2 -3 10 10 6 16 6 18 0 2 -6 7 -8 11 -6z
m-180 -21 c-3 -20 2 -26 11 -13 9 13 10 13 9 0 0 -8 -4 -24 -9 -35 -8 -19 -9
-19 -9 3 -1 12 -8 25 -17 29 -13 5 -13 7 -2 14 16 11 18 11 17 2z m51 -7 c0
-3 -4 -8 -10 -11 -5 -3 -10 -1 -10 4 0 6 5 11 10 11 6 0 10 -2 10 -4z m20 -21
c0 -8 -4 -15 -10 -15 -5 0 -7 7 -4 15 4 8 8 15 10 15 2 0 4 -7 4 -15z m37 9
c-3 -3 -12 -4 -19 -1 -8 3 -5 6 6 6 11 1 17 -2 13 -5z m6 -27 c4 3 7 4 7 1 0
-3 -6 -11 -14 -17 -11 -9 -15 -7 -19 9 -4 16 -2 19 7 11 7 -6 16 -8 19 -4z
m-169 -55 c3 -5 -1 -9 -9 -9 -8 0 -12 4 -9 9 3 4 7 8 9 8 2 0 6 -4 9 -8z m-23
-36 c15 9 10 -2 -6 -16 -13 -10 -15 -9 -14 11 0 13 3 18 6 11 2 -6 9 -10 14
-6z m-87 -14 c3 -5 -1 -9 -9 -9 -8 0 -12 4 -9 9 3 4 7 8 9 8 2 0 6 -4 9 -8z
m16 -36 c18 3 21 1 11 -5 -17 -11 -55 -5 -59 9 -2 6 -9 7 -14 4 -7 -5 -8 -2
-4 5 6 9 12 9 24 -2 10 -8 28 -13 42 -11z m-73 -12 c2 -5 -5 -10 -16 -10 -11
0 -17 5 -14 14 6 14 25 12 30 -4z m-349 -132 c2 -7 -3 -12 -12 -12 -9 0 -16
-4 -16 -10 0 -5 7 -10 15 -10 8 0 15 -4 15 -9 0 -5 -9 -7 -20 -4 -21 5 -25 19
-14 48 7 17 25 16 32 -3z m46 -23 c-4 -8 1 -9 17 -4 23 7 23 7 4 -8 -14 -11
-22 -12 -27 -4 -7 11 -2 27 8 27 3 0 2 -5 -2 -11z m-144 -59 c0 -5 -5 -10 -11
-10 -5 0 -7 5 -4 10 3 6 8 10 11 10 2 0 4 -4 4 -10z m-120 -35 c-6 -8 -9 -19
-5 -25 3 -5 2 -10 -3 -10 -18 0 -21 39 -3 43 9 3 18 5 20 6 2 0 -2 -6 -9 -14z
m40 -21 c0 -8 -4 -13 -9 -10 -5 4 -12 0 -14 -6 -3 -7 -6 -3 -6 10 -1 13 5 22
14 22 8 0 15 -7 15 -16z m-97 -29 c-3 -9 -8 -14 -10 -11 -3 3 -2 9 2 15 9 16
15 13 8 -4z m-38 -15 c3 -5 -1 -10 -10 -10 -9 0 -13 5 -10 10 3 6 8 10 10 10
2 0 7 -4 10 -10z m68 -14 c8 -20 -30 -27 -45 -8 -9 10 -9 13 -1 9 6 -4 14 -3
18 3 9 14 22 12 28 -4z m62 -4 c-3 -3 -11 0 -18 7 -9 10 -8 11 6 5 10 -3 15
-9 12 -12z m-185 -12 c0 -5 -2 -10 -4 -10 -3 0 -8 5 -11 10 -3 6 -1 10 4 10 6
0 11 -4 11 -10z m28 -4 c-7 -8 -15 -12 -17 -11 -5 6 10 25 20 25 5 0 4 -6 -3
-14z m-42 -31 c1 -8 -2 -12 -7 -9 -6 3 -16 0 -24 -6 -8 -7 -15 -9 -15 -4 0 4
-7 -1 -16 -12 -14 -18 -15 -18 -4 4 6 12 15 20 20 17 5 -3 14 4 20 16 12 22
22 19 26 -6z m-111 -15 c-6 -9 -9 -9 -16 1 -10 17 0 34 13 21 6 -6 7 -16 3
-22z m22 -22 c-3 -7 -5 -2 -5 12 0 14 2 19 5 13 2 -7 2 -19 0 -25z m-49 -51
c8 -10 6 -13 -11 -14 -12 0 -16 1 -9 4 6 3 10 9 6 14 -8 14 2 11 14 -4z m-113
-58 c-7 -10 -35 -1 -35 11 0 5 9 6 20 3 11 -3 17 -9 15 -14z m-131 -57 c3 -5
-1 -9 -9 -9 -8 0 -12 4 -9 9 3 4 7 8 9 8 2 0 6 -4 9 -8z m-198 -67 c3 -17 2
-17 -20 -9 -12 5 -13 9 -3 19 13 14 20 12 23 -10z m114 10 c0 -8 -5 -15 -11
-15 -5 0 -7 -5 -3 -12 4 -6 3 -8 -4 -5 -8 6 -9 23 -3 45 3 10 21 -1 21 -13z
m-80 -18 c0 -2 -9 -12 -19 -21 -14 -13 -21 -14 -27 -5 -4 7 -3 10 3 6 6 -4 16
0 23 8 12 14 20 19 20 12z m-340 -123 c0 -8 -19 -13 -24 -6 -3 5 1 9 9 9 8 0
15 -2 15 -3z m31 -13 c-6 -10 -8 -21 -5 -24 3 -3 -3 -3 -14 0 -19 5 -19 6 -4
23 22 24 35 25 23 1z m-56 -21 c-3 -5 -12 -10 -18 -10 -7 0 -6 4 3 10 19 12
23 12 15 0z m-232 -100 c-7 -26 -19 -34 -29 -19 -4 7 -3 9 3 6 6 -4 13 2 16
13 3 11 7 20 10 20 3 0 3 -9 0 -20z m-52 -7 c13 -16 12 -17 -3 -4 -10 7 -18
15 -18 17 0 8 8 3 21 -13z m97 -7 c-7 -8 -15 -12 -17 -11 -5 6 10 25 20 25 5
0 4 -6 -3 -14z m-111 -12 c-3 -3 -12 -4 -19 -1 -8 3 -5 6 6 6 11 1 17 -2 13
-5z m-165 -11 c-6 -2 -10 -9 -6 -14 3 -5 -4 -9 -15 -9 -21 0 -27 11 -14 23 3
4 16 7 27 6 12 0 15 -3 8 -6z m88 -27 c0 -9 -10 -13 -25 -12 -29 1 -33 12 -7
19 29 8 32 7 32 -7z m-90 -36 c0 -5 -10 -15 -22 -21 l-23 -12 20 21 c23 24 25
25 25 12z m-161 -49 c9 -6 10 -11 2 -15 -6 -4 -11 -2 -11 4 0 6 -4 8 -10 5 -5
-3 -10 -1 -10 4 0 13 10 14 29 2z m-173 -31 c0 -23 -11 -27 -19 -6 -3 8 -1 17
6 20 7 2 12 5 12 5 1 1 1 -8 1 -19z m69 -18 c-3 -3 -11 0 -18 7 -9 10 -8 11 6
5 10 -3 15 -9 12 -12z m-246 -44 c-1 -1 3 -12 9 -24 9 -16 8 -21 -3 -21 -7 0
-11 6 -8 14 4 11 0 11 -23 3 -24 -9 -27 -9 -16 2 7 7 18 13 25 13 7 1 11 7 9
15 -2 8 -1 12 3 8 4 -3 6 -8 4 -10z m-239 -110 c0 -4 -9 -8 -21 -8 -11 0 -18
4 -15 8 3 5 12 9 21 9 8 0 15 -4 15 -9z m-255 -78 c3 -5 0 -10 -9 -10 -8 0
-23 -3 -33 -6 -16 -5 -16 -4 1 10 23 19 32 20 41 6z m35 6 c0 -3 -4 -8 -10
-11 -5 -3 -10 -1 -10 4 0 6 5 11 10 11 6 0 10 -2 10 -4z m-164 -33 c-10 -10
-19 5 -10 18 6 11 8 11 12 0 2 -7 1 -15 -2 -18z m44 13 c-7 -7 -13 -7 -20 0
-6 6 -3 10 10 10 13 0 16 -4 10 -10z m-88 -46 c-12 -12 -22 -18 -22 -14 0 4
-8 1 -18 -7 -15 -12 9 10 43 40 21 18 18 0 -3 -19z m76 -5 c-3 -3 -9 2 -12 12
-6 14 -5 15 5 6 7 -7 10 -15 7 -18z m-154 -27 c-7 -11 -34 -10 -34 1 0 6 9 9
19 8 11 0 17 -5 15 -9z m-217 -24 c-3 -3 -12 -4 -19 -1 -8 3 -5 6 6 6 11 1 17
-2 13 -5z m167 -9 c-4 -8 -8 -15 -10 -15 -2 0 -4 7 -4 15 0 8 4 15 10 15 5 0
7 -7 4 -15z m-24 -1 c0 -8 -19 -13 -24 -6 -3 5 1 9 9 9 8 0 15 -2 15 -3z
m-162 -26 c-2 -6 -10 -13 -16 -14 -7 -1 -8 0 -2 3 5 2 8 9 4 14 -3 5 0 9 6 9
7 0 10 -5 8 -12z m-138 -51 c-10 -9 -11 -9 -6 1 4 7 1 15 -8 18 -9 3 -13 10
-10 15 3 5 12 2 21 -7 13 -12 13 -18 3 -27z m70 23 c-8 -5 -19 -10 -25 -10 -5
0 -3 5 5 10 8 5 20 10 25 10 6 0 3 -5 -5 -10z m-230 -26 c0 -10 5 -12 13 -8 9
6 9 4 -1 -8 -13 -16 -35 -18 -49 -4 -4 4 -1 6 7 4 10 -2 14 4 13 20 -2 13 1
21 7 17 6 -3 10 -13 10 -21z m-70 7 c0 -5 -9 -19 -21 -32 -11 -13 -17 -17 -12
-9 8 15 9 20 12 40 1 12 21 13 21 1z m180 -6 c0 -9 -6 -12 -15 -9 -8 4 -12 10
-9 15 8 14 24 10 24 -6z m-61 -16 c-16 -10 -23 -4 -14 10 3 6 11 8 17 5 6 -4
5 -9 -3 -15z m-197 -51 c-7 -7 -12 -8 -12 -2 0 14 12 26 19 19 2 -3 -1 -11 -7
-17z m-205 -30 c-3 -7 -5 -2 -5 12 0 14 2 19 5 13 2 -7 2 -19 0 -25z m-17 6
c0 -9 -9 -18 -20 -21 -11 -3 -20 -10 -20 -16 0 -6 -6 -2 -14 8 -16 22 -11 39
8 32 7 -3 19 -1 27 4 19 12 19 11 19 -7z m16 -61 c-3 -4 -6 -1 -6 6 0 7 -4 9
-10 6 -6 -4 -7 1 -3 11 6 15 7 15 15 -1 6 -9 7 -19 4 -22z m124 31 c0 -8 -19
-13 -24 -6 -3 5 1 9 9 9 8 0 15 -2 15 -3z m-276 -24 c-22 -9 -29 -6 -20 9 4 6
14 7 23 4 15 -6 14 -7 -3 -13z m64 -9 c-7 -9 -13 -17 -14 -19 -1 -1 -7 4 -14
13 -11 13 -10 14 5 9 11 -5 16 -4 12 3 -3 5 0 10 8 10 12 0 12 -3 3 -16z
m-136 -13 c-7 -7 -12 -8 -12 -2 0 6 3 14 7 17 3 4 9 5 12 2 2 -3 -1 -11 -7
-17z m38 13 c0 -6 -4 -12 -8 -15 -5 -3 -9 1 -9 9 0 8 4 15 9 15 4 0 8 -4 8 -9z
m-67 -19 c4 -1 7 -7 7 -13 0 -8 -5 -8 -15 1 -8 7 -21 10 -30 7 -8 -4 -17 -2
-19 2 -5 7 29 8 57 3z m-152 -29 c13 -16 12 -17 -3 -4 -17 13 -22 21 -14 21 2
0 10 -8 17 -17z m206 1 c-3 -3 -12 -4 -19 -1 -8 3 -5 6 6 6 11 1 17 -2 13 -5z
m-226 -21 c13 -16 12 -17 -3 -4 -10 7 -18 15 -18 17 0 8 8 3 21 -13z"/>
<path d="M8067 5963 c-13 -12 -7 -26 6 -15 6 5 21 12 32 15 16 4 15 5 -6 6
-14 0 -29 -2 -32 -6z"/>
<path d="M8004 5939 c-4 -7 -3 -9 4 -5 6 3 15 -2 21 -11 6 -10 11 -13 11 -7 0
20 -27 37 -36 23z"/>
<path d="M7940 5899 c0 -5 5 -9 10 -9 6 0 12 0 15 0 14 0 8 13 -7 16 -10 1
-18 -2 -18 -7z"/>
<path d="M10664 5848 c6 -35 15 -50 27 -43 14 10 11 25 -7 25 -8 0 -13 4 -10
8 2 4 0 14 -5 22 -7 11 -8 7 -5 -12z"/>
<path d="M7790 5839 c0 -5 11 -9 25 -9 14 0 25 2 25 4 0 2 -11 6 -25 8 -14 3
-25 1 -25 -3z"/>
<path d="M7747 5826 c-4 -9 -2 -18 4 -21 5 -4 7 -10 4 -15 -3 -5 -1 -11 4 -14
5 -4 12 -2 16 4 4 6 10 8 15 5 18 -11 2 30 -17 42 -18 12 -21 12 -26 -1z m26
-21 c4 -8 3 -16 -1 -19 -4 -3 -9 4 -9 15 -2 23 3 25 10 4z"/>
<path d="M10633 5811 c-9 -14 -8 -17 8 -16 26 2 32 10 16 23 -10 8 -16 7 -24
-7z"/>
<path d="M7680 5800 c-8 -5 -11 -12 -7 -16 4 -4 15 0 24 9 18 18 8 23 -17 7z"/>
<path d="M7820 5800 c-9 -6 -10 -10 -3 -10 6 0 15 5 18 10 8 12 4 12 -15 0z"/>
<path d="M7690 5761 c0 -5 7 -12 16 -15 14 -5 15 -4 4 9 -14 17 -20 19 -20 6z"/>
<path d="M7563 5695 c0 -8 4 -12 9 -9 5 3 6 10 3 15 -9 13 -12 11 -12 -6z"/>
<path d="M10403 5681 c-10 -16 -9 -19 5 -17 9 2 16 6 15 10 -6 23 -9 24 -20 7z"/>
<path d="M10440 5660 c0 -5 5 -10 10 -10 6 0 10 5 10 10 0 6 -4 10 -10 10 -5
0 -10 -4 -10 -10z"/>
<path d="M10443 5627 c0 -7 8 -13 18 -13 9 0 15 6 12 13 -3 7 -11 13 -17 13
-7 0 -13 -6 -13 -13z"/>
<path d="M7279 5591 c-20 -16 -22 -22 -11 -33 11 -11 12 -10 6 6 -5 13 -4 17
4 12 7 -4 12 -3 12 3 0 5 11 8 25 6 20 -2 23 0 14 11 -15 18 -22 18 -50 -5z"/>
<path d="M10180 5533 c0 -17 27 -46 33 -36 4 6 -2 18 -13 28 -11 10 -20 14
-20 8z"/>
<path d="M7068 5485 c-4 -20 -3 -23 8 -14 16 13 19 39 5 39 -5 0 -11 -11 -13
-25z"/>
<path d="M10030 5440 c0 -5 5 -10 11 -10 5 0 7 5 4 10 -3 6 -8 10 -11 10 -2 0
-4 -4 -4 -10z"/>
<path d="M9885 5321 c0 -16 3 -27 8 -24 4 2 7 15 7 29 0 13 -3 24 -7 24 -5 0
-8 -13 -8 -29z"/>
<path d="M9846 5327 c3 -10 9 -15 12 -12 3 3 0 11 -7 18 -10 9 -11 8 -5 -6z"/>
<path d="M9524 5098 c-4 -7 -3 -10 1 -5 5 4 17 0 27 -10 17 -15 18 -15 18 1 0
9 -4 14 -10 11 -5 -3 -10 -1 -10 4 0 15 -17 14 -26 -1z"/>
<path d="M5775 5090 c-3 -6 1 -7 9 -4 18 7 21 14 7 14 -6 0 -13 -4 -16 -10z"/>
<path d="M5655 5070 c3 -5 8 -10 11 -10 2 0 4 5 4 10 0 6 -5 10 -11 10 -5 0
-7 -4 -4 -10z"/>
<path d="M5919 5067 c7 -7 14 -8 21 -1 6 6 2 10 -12 11 -16 2 -18 -1 -9 -10z"/>
<path d="M5667 5030 c3 -11 7 -20 9 -20 2 0 4 9 4 20 0 11 -4 20 -9 20 -5 0
-7 -9 -4 -20z"/>
<path d="M5403 5013 c4 -6 0 -13 -8 -17 -23 -8 -18 -32 8 -33 20 -2 20 -1 4 8
-17 10 -17 12 -1 23 13 10 14 15 4 21 -8 5 -11 4 -7 -2z"/>
<path d="M5425 4990 c-3 -5 -1 -10 4 -10 6 0 11 5 11 10 0 6 -2 10 -4 10 -3 0
-8 -4 -11 -10z"/>
<path d="M5655 4990 c-3 -5 -1 -10 4 -10 6 0 11 5 11 10 0 6 -2 10 -4 10 -3 0
-8 -4 -11 -10z"/>
<path d="M5453 4975 c0 -8 6 -16 14 -19 7 -3 13 -2 13 3 0 5 -6 14 -13 20 -10
8 -14 7 -14 -4z"/>
<path d="M5296 4957 c-2 -9 0 -15 5 -12 4 3 14 -3 21 -15 15 -24 25 -26 25 -6
0 8 -5 14 -10 13 -5 -1 -12 4 -14 11 -3 7 3 11 14 10 10 -2 19 2 21 7 1 6 -11
10 -27 10 -20 0 -31 -6 -35 -18z"/>
<path d="M5407 4939 c7 -7 15 -10 18 -7 3 3 -2 9 -12 12 -14 6 -15 5 -6 -5z"/>
<path d="M5190 4910 c0 -5 5 -10 10 -10 6 0 10 5 10 10 0 6 -4 10 -10 10 -5 0
-10 -4 -10 -10z"/>
<path d="M5070 4889 c0 -5 5 -7 10 -4 6 3 10 8 10 11 0 2 -4 4 -10 4 -5 0 -10
-5 -10 -11z"/>
<path d="M9054 4859 c-3 -6 -2 -15 3 -20 5 -5 9 -1 10 11 2 22 -2 25 -13 9z"/>
<path d="M4790 4830 c0 -5 5 -10 10 -10 6 0 10 5 10 10 0 6 -4 10 -10 10 -5 0
-10 -4 -10 -10z"/>
<path d="M8987 4829 c7 -7 15 -10 18 -7 3 3 -2 9 -12 12 -14 6 -15 5 -6 -5z"/>
<path d="M4845 4819 c-4 -6 -5 -12 -2 -15 2 -3 7 2 10 11 7 17 1 20 -8 4z"/>
<path d="M4477 4814 c-8 -8 1 -24 14 -24 5 0 9 7 9 15 0 15 -12 20 -23 9z"/>
<path d="M4685 4780 c-3 -5 -1 -10 4 -10 6 0 11 5 11 10 0 6 -2 10 -4 10 -3 0
-8 -4 -11 -10z"/>
<path d="M4290 4770 c0 -3 -4 -20 -10 -38 -8 -29 -7 -32 5 -22 8 7 13 16 10
20 -3 5 -1 10 5 12 6 2 6 8 0 18 -5 8 -10 13 -10 10z"/>
<path d="M4400 4745 c0 -7 15 -15 33 -18 43 -6 43 -4 2 15 -27 12 -35 13 -35
3z"/>
<path d="M4330 4732 c0 -5 7 -13 16 -16 10 -4 14 -1 12 6 -5 15 -28 23 -28 10z"/>
<path d="M4068 4707 c-7 -8 -19 -12 -26 -9 -6 2 -12 -1 -12 -7 0 -6 6 -11 13
-12 6 0 3 -4 -7 -8 -19 -7 -19 -8 2 -13 15 -4 22 -2 22 7 0 8 9 20 21 28 11 9
16 18 11 21 -6 3 -16 0 -24 -7z"/>
<path d="M8689 4693 c-13 -16 -12 -17 4 -4 9 7 17 15 17 17 0 8 -8 3 -21 -13z"/>
<path d="M4225 4690 c-4 -6 1 -7 11 -3 10 4 15 2 11 -4 -3 -5 0 -10 8 -10 11
0 12 4 4 14 -14 15 -26 17 -34 3z"/>
<path d="M8695 4670 c-4 -6 -16 -8 -28 -4 -22 6 -22 6 -2 -9 18 -14 21 -14 29
0 7 13 10 13 17 2 6 -9 9 -10 9 -2 0 17 -17 25 -25 13z"/>
<path d="M3903 4635 c0 -8 4 -12 9 -9 4 3 8 9 8 15 0 5 -4 9 -8 9 -5 0 -9 -7
-9 -15z"/>
<path d="M3612 4600 c0 -14 2 -19 5 -12 2 6 2 18 0 25 -3 6 -5 1 -5 -13z"/>
<path d="M3416 4597 c3 -10 9 -15 12 -12 3 3 0 11 -7 18 -10 9 -11 8 -5 -6z"/>
<path d="M8567 4586 c3 -16 0 -23 -11 -23 -9 0 -16 4 -16 9 0 5 -4 7 -8 4 -7
-4 -8 -28 -3 -55 1 -3 12 6 26 19 25 23 33 54 16 64 -4 3 -6 -5 -4 -18z"/>
<path d="M8500 4589 c0 -5 5 -7 10 -4 6 3 10 8 10 11 0 2 -4 4 -10 4 -5 0 -10
-5 -10 -11z"/>
<path d="M8500 4561 c12 -9 11 -11 -7 -11 -12 0 -24 -4 -28 -9 -3 -5 7 -8 22
-7 30 3 38 26 13 33 -13 4 -13 3 0 -6z"/>
<path d="M8307 4486 c-3 -8 1 -17 9 -20 21 -8 21 -8 28 11 4 10 4 14 0 10 -4
-4 -13 -2 -19 3 -9 7 -14 6 -18 -4z"/>
<path d="M8160 4429 c0 -5 -4 -8 -8 -5 -4 2 -14 1 -21 -3 -9 -6 -10 -11 -2
-15 6 -4 11 -3 11 3 0 6 7 8 15 5 9 -4 15 0 15 10 0 9 -2 16 -5 16 -3 0 -5 -5
-5 -11z"/>
<path d="M8090 4385 c7 -8 17 -15 22 -15 6 0 5 7 -2 15 -7 8 -17 15 -22 15 -6
0 -5 -7 2 -15z"/>
<path d="M8155 4390 c3 -5 10 -10 16 -10 5 0 9 5 9 10 0 6 -7 10 -16 10 -8 0
-12 -4 -9 -10z"/>
<path d="M8000 4360 c0 -5 5 -10 10 -10 6 0 10 -7 10 -16 0 -8 5 -12 10 -9 15
9 12 19 -10 33 -12 7 -20 8 -20 2z"/>
<path d="M8056 4354 c-2 -6 0 -17 6 -25 8 -11 9 -10 4 4 -4 13 0 17 20 17 14
0 23 4 19 9 -7 13 -43 10 -49 -5z"/>
<path d="M7907 4263 c-12 -12 -7 -19 15 -20 13 -1 18 1 13 5 -6 4 -13 11 -16
15 -3 4 -9 4 -12 0z"/>
<path d="M7702 4221 c-11 -7 -9 -13 9 -30 15 -14 26 -18 34 -11 7 5 15 7 18 3
4 -3 7 1 7 10 0 8 5 17 12 19 9 3 9 6 0 12 -7 4 -12 2 -12 -3 0 -6 -7 -11 -15
-11 -8 0 -15 -5 -15 -11 0 -8 -5 -8 -15 1 -8 7 -12 16 -9 21 7 11 3 11 -14 0z"/>
<path d="M7490 4130 c0 -11 2 -20 4 -20 2 0 6 9 9 20 3 11 1 20 -4 20 -5 0 -9
-9 -9 -20z"/>
<path d="M7210 3999 c0 -5 5 -7 10 -4 6 3 10 8 10 11 0 2 -4 4 -10 4 -5 0 -10
-5 -10 -11z"/>
<path d="M7295 4000 c3 -5 10 -10 16 -10 5 0 9 5 9 10 0 6 -7 10 -16 10 -8 0
-12 -4 -9 -10z"/>
<path d="M7188 3973 c7 -3 16 -2 19 1 4 3 -2 6 -13 5 -11 0 -14 -3 -6 -6z"/>
<path d="M7045 3959 c-4 -6 -5 -12 -2 -15 2 -3 7 2 10 11 7 17 1 20 -8 4z"/>
<path d="M6977 3949 c7 -7 15 -10 18 -7 3 3 -2 9 -12 12 -14 6 -15 5 -6 -5z"/>
<path d="M7085 3950 c-3 -5 0 -7 8 -4 8 3 18 0 22 -5 3 -6 11 -9 16 -5 5 3 7
10 4 15 -8 12 -42 12 -50 -1z"/>
<path d="M6935 3930 c-3 -5 -13 -6 -22 -3 -11 4 -14 3 -9 -5 10 -16 24 -15 42
3 9 8 11 15 5 15 -5 0 -12 -4 -16 -10z"/>
<path d="M6950 3885 c-11 -13 -10 -14 4 -9 9 3 16 10 16 15 0 13 -6 11 -20 -6z"/>
<path d="M6540 3798 c3 -2 14 -10 24 -18 13 -10 17 -10 12 -2 -4 6 -2 12 3 12
6 0 11 -4 11 -9 0 -17 26 -19 27 -2 1 12 -9 17 -40 19 -23 1 -39 1 -37 0z"/>
<path d="M6410 3765 c-7 -9 -11 -17 -9 -20 3 -2 10 5 17 15 14 24 10 26 -8 5z"/>
<path d="M6530 3770 c0 -5 5 -10 12 -10 6 0 8 -3 5 -6 -4 -4 -13 -1 -21 5 -8
7 -17 8 -19 3 -10 -16 28 -31 45 -18 15 11 15 13 -3 24 -11 7 -19 8 -19 2z"/>
<path d="M6375 3750 c-3 -5 -1 -10 4 -10 6 0 11 5 11 10 0 6 -2 10 -4 10 -3 0
-8 -4 -11 -10z"/>
<path d="M6431 3736 c-9 -10 -8 -15 2 -19 8 -3 13 3 14 14 2 23 -1 24 -16 5z"/>
<path d="M6085 3670 c-3 -5 -1 -10 4 -10 6 0 11 5 11 10 0 6 -2 10 -4 10 -3 0
-8 -4 -11 -10z"/>
<path d="M6120 3638 c0 -10 2 -18 5 -18 2 0 9 8 14 18 8 14 6 19 -5 19 -7 0
-14 -9 -14 -19z"/>
<path d="M5750 3566 c0 -2 7 -7 16 -10 8 -3 12 -2 9 4 -6 10 -25 14 -25 6z"/>
<path d="M5830 3549 c0 -11 4 -18 10 -14 5 3 7 12 3 20 -7 21 -13 19 -13 -6z"/>
<path d="M5682 3536 c7 -8 15 -12 17 -11 5 6 -10 25 -20 25 -5 0 -4 -6 3 -14z"/>
<path d="M5529 3503 c-13 -16 -12 -17 4 -4 16 13 21 21 13 21 -2 0 -10 -8 -17
-17z"/>
<path d="M5442 3465 c0 -16 2 -22 5 -12 2 9 2 23 0 30 -3 6 -5 -1 -5 -18z"/>
<path d="M5366 3451 c-3 -4 5 -18 18 -30 l23 -22 -3 26 c-1 15 -6 30 -10 33
-4 4 -4 -1 -1 -11 5 -13 3 -17 -5 -14 -7 2 -12 10 -10 16 2 13 -5 15 -12 2z"/>
<path d="M5310 3440 c-8 -5 -10 -10 -5 -10 6 0 17 5 25 10 8 5 11 10 5 10 -5
0 -17 -5 -25 -10z"/>
<path d="M4950 3361 c0 -10 19 -25 25 -20 1 2 -3 10 -11 17 -8 7 -14 8 -14 3z"/>
<path d="M4992 3361 c2 -22 -4 -41 -12 -36 -5 3 -10 1 -10 -4 0 -18 15 -13 39
13 22 23 22 23 2 29 -11 3 -20 2 -19 -2z"/>
</g>
</svg>
